<svg width="27" height="27" viewBox="0 0 27 27" xmlns="http://www.w3.org/2000/svg">
<path d="M20.7652 22.927C20.7652 23.505 20.9686 23.998 21.3739 24.4064C21.7792 24.8152 22.2689 25.0198 22.8427 25.0198C23.4156 25.0198 23.9053 24.8152 24.3107 24.4064C24.7164 23.998 24.9194 23.505 24.9194 22.927C24.9194 22.3491 24.7166 21.8561 24.3107 21.4473C23.9053 21.0388 23.4156 20.8343 22.8427 20.8343C22.2689 20.8343 21.7792 21.0388 21.3739 21.4473C20.9686 21.8561 20.7652 22.3491 20.7652 22.927Z" />
<path d="M26.6916 4.40324C26.486 4.19611 26.2428 4.09252 25.9615 4.09252H6.47419C6.46322 4.0163 6.4389 3.87743 6.40105 3.6758C6.3632 3.47406 6.33353 3.31337 6.31188 3.19335C6.29011 3.07383 6.24976 2.9293 6.19015 2.76037C6.13064 2.59132 6.06034 2.45766 5.97924 2.3598C5.89826 2.26142 5.79011 2.17718 5.65485 2.10611C5.5197 2.0355 5.36546 2 5.19246 2H1.03866C0.75723 2 0.513875 2.10376 0.308371 2.31061C0.102809 2.51768 0 2.76306 0 3.0464C0 3.32975 0.102809 3.57502 0.308371 3.78209C0.514046 3.98922 0.757458 4.09269 1.03866 4.09269H4.34839L7.22023 17.5486C7.19875 17.5921 7.08787 17.799 6.88765 18.1698C6.68754 18.5406 6.52801 18.8647 6.40912 19.1426C6.29017 19.4209 6.23067 19.636 6.23067 19.7885C6.23067 20.0719 6.33348 20.3172 6.53893 20.5246C6.74471 20.7311 6.98801 20.835 7.26927 20.835H8.30771H23.884C24.1652 20.835 24.4087 20.7312 24.6141 20.5246C24.8199 20.3173 24.9226 20.0719 24.9226 19.7885C24.9226 19.5051 24.8199 19.2598 24.6141 19.0528C24.4087 18.8459 24.1653 18.742 23.884 18.742H8.9565C9.21623 18.2187 9.34603 17.8703 9.34603 17.6959C9.34603 17.5866 9.3325 17.4666 9.3054 17.3361C9.27829 17.2056 9.24589 17.0609 9.20804 16.9027C9.17014 16.7451 9.14593 16.6278 9.13513 16.5515L26.0755 14.5569C26.3456 14.5239 26.5675 14.4072 26.7406 14.2052C26.9137 14.0038 27 13.7722 27 13.5104V5.13927C26.9999 4.85592 26.8974 4.61066 26.6916 4.40324Z" />
<path d="M6.23077 22.927C6.23077 23.505 6.43349 23.998 6.8392 24.4064C7.24504 24.8152 7.7343 25.0198 8.30778 25.0198C8.88092 25.0198 9.37047 24.8152 9.77601 24.4064C10.1817 23.998 10.3847 23.505 10.3847 22.927C10.3847 22.3491 10.1819 21.8561 9.77601 21.4473C9.37041 21.0388 8.88085 20.835 8.30771 20.835C7.73428 20.835 7.24481 21.0388 6.8392 21.4473C6.43371 21.8561 6.23077 22.3491 6.23077 22.927Z" />
</svg>
