<svg width="150" height="84" viewBox="0 0 150 84" fill="none" xmlns="http://www.w3.org/2000/svg">
<g clip-path="url(#clip0_1_361)">
<rect width="150" height="84" fill="white"/>
<path d="M-21 -25H164V108.116H-21V-25ZM12.9935 1.33989C16.6811 6.5312 20.3811 11.7142 24.0894 16.8888C26.0834 16.9013 28.0775 16.9159 30.0715 16.8805C27.6824 13.3995 25.1348 10.031 22.7621 6.53745C54.5619 6.52287 86.3617 6.52078 118.162 6.53953C115.774 10.0226 113.237 13.3995 110.844 16.8784C112.84 16.9138 114.838 16.9076 116.834 16.8826C120.536 11.7079 124.234 6.52703 127.922 1.33989C89.6131 1.35238 51.3023 1.34822 12.9935 1.33989ZM141.444 9.88931C140.125 10.2914 139.279 11.7496 139.499 13.1141C139.703 14.7994 141.528 16.0014 143.136 15.5098C144.697 15.141 145.667 13.3078 145.142 11.7808C144.722 10.2372 142.915 9.34143 141.444 9.88931ZM100.09 21.9656C97.33 23.2905 95.5253 26.0695 94.659 28.9547C93.7967 31.9253 93.7 35.098 94.1548 38.1478C94.6363 41.3372 96.2291 44.4661 98.931 46.2848C101.223 47.8701 104.156 48.2659 106.856 47.8138C109.58 47.3534 112.081 45.6286 113.447 43.1912C114.346 41.6163 114.774 39.8165 114.966 38.0228C112.719 37.8832 110.473 37.6999 108.222 37.6041C108.058 38.8124 107.864 40.1206 107.018 41.0559C105.932 42.2538 103.794 42.2038 102.779 40.933C101.886 39.8769 101.719 38.4311 101.579 37.1C101.423 34.9147 101.409 32.6961 101.822 30.5358C102.071 29.3901 102.468 28.1568 103.434 27.4235C104.425 26.6757 105.928 26.8152 106.786 27.711C107.911 28.7672 108.012 30.4317 108.074 31.8837C110.371 31.7878 112.667 31.6378 114.962 31.4962C114.828 29.5671 114.392 27.6339 113.486 25.9195C112.389 23.7634 110.445 22.0322 108.105 21.4156C105.481 20.7323 102.569 20.7802 100.09 21.9656ZM4.91646 21.3927C4.90411 30.1192 4.90206 38.8457 4.91852 47.5701C10.9521 47.5868 16.9898 47.5888 23.0234 47.5701C23.0234 45.4869 23.0399 43.4037 23.0152 41.3205C19.3996 41.3184 15.7819 41.3393 12.1642 41.3101C12.1642 39.8956 12.1601 38.4811 12.1683 37.0646C15.0925 37.0312 18.0167 37.0687 20.9409 37.0479C20.9409 35.1126 20.945 33.1773 20.9388 31.242C18.0146 31.2025 15.0884 31.24 12.1621 31.2233C12.1642 29.965 12.1601 28.7068 12.1662 27.4485C15.7839 27.4215 19.4016 27.4465 23.0172 27.4381C23.0358 25.4237 23.0275 23.4092 23.0234 21.3927C16.9878 21.376 10.9521 21.3781 4.91646 21.3927ZM25.9332 21.3927C25.927 30.1192 25.9291 38.8436 25.9332 47.5701C31.5552 47.5888 37.1814 47.5868 42.8034 47.5701C42.8199 45.4327 42.8199 43.2954 42.8034 41.158C39.6508 41.1351 36.4982 41.1476 33.3456 41.1539C33.3044 34.5668 33.3517 27.9777 33.3229 21.3906C30.8597 21.3781 28.3964 21.3739 25.9332 21.3927ZM45.3942 21.3906C45.3736 30.1171 45.3778 38.8436 45.3942 47.5722C47.8492 47.5888 50.3063 47.5847 52.7613 47.5743C52.7819 38.8457 52.7798 30.1192 52.7634 21.3906C50.3063 21.376 47.8513 21.3781 45.3942 21.3906ZM54.8726 21.3927C54.8582 23.4842 54.8521 25.5737 54.8768 27.6652C56.5333 27.6714 58.1919 27.6548 59.8485 27.6735C59.865 34.3064 59.8382 40.9393 59.8629 47.5701C62.1944 47.5888 64.528 47.5888 66.8596 47.5701C66.874 40.9372 66.8452 34.3043 66.874 27.6735C68.5285 27.6527 70.183 27.6756 71.8354 27.6631C71.856 25.5737 71.8539 23.4821 71.8375 21.3927C66.1825 21.376 60.5276 21.376 54.8726 21.3927ZM73.9344 21.4114C73.9365 30.1213 73.9447 38.8332 73.9303 47.543C79.9639 47.6222 86.0037 47.5722 92.0393 47.568C92.0352 45.4848 92.0887 43.3995 92.0105 41.3184C88.4072 41.3247 84.8039 41.3309 81.2007 41.3143C81.1842 39.8977 81.1842 38.4811 81.2007 37.0646C84.1207 37.0354 87.0408 37.0646 89.9609 37.05C89.9774 35.1126 89.9753 33.1732 89.9609 31.2358C87.0408 31.2108 84.1207 31.2358 81.2007 31.2254C81.1842 29.965 81.1842 28.7047 81.2027 27.4465C84.8101 27.4256 88.4175 27.4423 92.0249 27.4381C92.0681 25.4237 92.0476 23.4071 92.0373 21.3927C86.0037 21.3885 79.968 21.351 73.9344 21.4114ZM117.67 21.3927C117.653 30.1192 117.653 38.8436 117.67 47.5701C120.129 47.5805 122.592 47.6076 125.051 47.5555C125.051 44.1703 125.039 40.7872 125.057 37.4041C126.926 37.3833 128.797 37.3833 130.667 37.402C130.684 40.7914 130.665 44.1807 130.675 47.5701C133.141 47.5888 135.604 47.5847 138.067 47.5722C138.073 38.8457 138.075 30.1171 138.067 21.3906C135.604 21.3781 133.141 21.3739 130.677 21.3927C130.661 24.6008 130.69 27.8089 130.663 31.015C128.794 31.0191 126.926 31.0212 125.057 31.015C125.037 27.811 125.055 24.6071 125.049 21.4031C122.59 21.3614 120.129 21.3823 117.67 21.3927ZM49.6128 52.6198C51.4402 55.2883 53.3622 57.8902 55.2266 60.5317C60.3012 67.6396 65.3676 74.7516 70.4484 81.8532C72.9158 78.4722 75.3194 75.0412 77.762 71.6393C82.2625 65.2939 86.8392 59.0006 91.2923 52.6198C89.3168 52.5677 87.3392 52.6177 85.3637 52.5927C80.3343 59.486 75.4819 66.5146 70.434 73.3954C65.4685 66.4709 60.5543 59.5068 55.5661 52.5989C53.5824 52.6093 51.5966 52.5739 49.6128 52.6198Z" fill="#E31F23"/>
</g>
<defs>
<clipPath id="clip0_1_361">
<rect width="150" height="84" fill="white"/>
</clipPath>
</defs>
</svg>
