<svg width="38" height="38" viewBox="0 0 38 38" xmlns="http://www.w3.org/2000/svg">
<path d="M7.84873 18.1839C9.66297 18.1824 11.4206 17.5323 12.8222 16.3443C14.2237 15.1563 15.1826 13.504 15.5353 11.6687C15.888 9.83352 15.6128 7.92894 14.7566 6.27948C13.9003 4.63002 12.516 3.33773 10.8395 2.62274C9.16296 1.90776 7.29789 1.81433 5.56204 2.35835C3.82619 2.90238 2.32694 4.05022 1.3197 5.60632C0.312451 7.16242 -0.140471 9.03052 0.0380883 10.8924C0.216648 12.7542 1.01564 14.4946 2.29896 15.8171C3.02731 16.569 3.89253 17.1652 4.84492 17.5714C5.79731 17.9775 6.81811 18.1857 7.84873 18.1839V18.1839ZM5.65764 7.83432C6.16456 7.3116 6.83155 6.98631 7.54496 6.91387C8.25837 6.84143 8.97407 7.02633 9.57011 7.43706C10.1661 7.84778 10.6057 8.45893 10.8137 9.16636C11.0218 9.87379 10.9856 10.6337 10.7113 11.3167C10.4369 11.9997 9.94141 12.5635 9.30919 12.9119C8.67697 13.2604 7.94714 13.3721 7.24406 13.2278C6.54097 13.0836 5.90813 12.6924 5.45336 12.121C4.99859 11.5495 4.75003 10.8331 4.75003 10.0939C4.7489 9.67405 4.82854 9.25818 4.98434 8.87033C5.14013 8.48247 5.36898 8.13034 5.65764 7.83432V7.83432ZM30.1514 19.812C28.3355 19.812 26.5758 20.4612 25.1721 21.6492C23.7684 22.8371 22.8076 24.4902 22.4533 26.3268C22.099 28.1634 22.3732 30.0699 23.2292 31.7214C24.0851 33.3729 25.4699 34.6672 27.1476 35.3839C28.8252 36.1005 30.6919 36.1951 32.4295 35.6515C34.1672 35.1079 35.6684 33.9598 36.6772 32.4028C37.6861 30.8458 38.1402 28.9762 37.9622 27.1127C37.7842 25.2491 36.9851 23.5068 35.7011 22.1827C34.974 21.4287 34.1091 20.831 33.1565 20.424C32.2039 20.0171 31.1825 19.8091 30.1514 19.812V19.812ZM32.3424 30.1654C31.7605 30.7609 30.9735 31.0944 30.1537 31.0928C29.3339 31.0912 28.5482 30.7547 27.9685 30.1569C27.3888 29.5591 27.0625 28.7488 27.0609 27.9034C27.0594 27.058 27.3828 26.2464 27.9603 25.6464C28.2476 25.3478 28.5893 25.1107 28.9657 24.9487C29.3421 24.7866 29.7458 24.7028 30.1537 24.702C30.5616 24.7012 30.9657 24.7835 31.3427 24.9441C31.7197 25.1047 32.0622 25.3405 32.3506 25.638C32.639 25.9354 32.8677 26.2886 33.0234 26.6774C33.1791 27.0662 33.2589 27.4828 33.2581 27.9035C33.2574 28.3241 33.1761 28.7405 33.0189 29.1286C32.8617 29.5168 32.6318 29.8691 32.3423 30.1655L32.3424 30.1654ZM34.7892 2.71732C35.0097 2.94475 35.1847 3.21475 35.304 3.5119C35.4234 3.80906 35.4848 4.12754 35.4848 4.44918C35.4848 4.77081 35.4234 5.0893 35.304 5.38645C35.1847 5.6836 35.0097 5.9536 34.7892 6.18103L6.56964 35.2824C6.12366 35.7388 5.52047 35.9943 4.89216 35.9931C4.26386 35.9918 3.66163 35.7339 3.21736 35.2757C2.77308 34.8175 2.52296 34.1965 2.52176 33.5486C2.52056 32.9006 2.76838 32.2786 3.21095 31.8187L31.4305 2.71732C31.8759 2.25803 32.48 2 33.1099 2C33.7397 2 34.3438 2.25803 34.7892 2.71732Z"/>
</svg>
