<svg width="19" height="20" viewBox="0 0 19 20" fill="none" xmlns="http://www.w3.org/2000/svg">
<path fill-rule="evenodd" clip-rule="evenodd" d="M13.389 14.9794C11.9751 16.1258 10.1655 16.8139 8.1931 16.8139C3.66817 16.8139 0 13.1921 0 8.72434C0 4.25659 3.66817 0.634766 8.1931 0.634766C12.718 0.634766 16.3862 4.25659 16.3862 8.72434C16.3862 10.8806 15.5318 12.8397 14.139 14.2899L19 19.0894L18.2758 19.8044L13.389 14.9794ZM15.0207 8.72434C15.0207 12.4475 11.9639 15.4656 8.1931 15.4656C4.42233 15.4656 1.36552 12.4475 1.36552 8.72434C1.36552 5.00121 4.42233 1.98303 8.1931 1.98303C11.9639 1.98303 15.0207 5.00121 15.0207 8.72434Z" fill="white"/>
</svg>
