<svg width="26" height="26" viewBox="0 0 26 26" xmlns="http://www.w3.org/2000/svg">
<path d="M23.565 6.45685C22.7881 6.792 21.9426 7.03321 21.0717 7.12716C21.9759 6.58998 22.653 5.74134 22.976 4.74044C22.1275 5.24518 21.198 5.59911 20.2287 5.78653C19.8236 5.35344 19.3336 5.00841 18.7893 4.77296C18.245 4.53751 17.6581 4.41667 17.065 4.41798C14.6656 4.41798 12.7359 6.3629 12.7359 8.74962C12.7359 9.08478 12.7766 9.41993 12.8426 9.74239C9.2498 9.5545 6.04551 7.8381 3.91523 5.21017C3.52708 5.87316 3.32367 6.62805 3.32617 7.3963C3.32617 8.89942 4.09043 10.2248 5.25586 11.0043C4.56905 10.9773 3.89833 10.7885 3.29824 10.4533V10.5067C3.29824 12.6115 4.78613 14.3559 6.76914 14.757C6.39681 14.8538 6.01379 14.9032 5.6291 14.9043C5.34727 14.9043 5.08066 14.8764 4.81152 14.8383C5.35996 16.5547 6.95703 17.8014 8.85879 17.842C7.3709 19.0074 5.50723 19.693 3.48359 19.693C3.12051 19.693 2.78535 19.6803 2.4375 19.6397C4.35703 20.8711 6.63457 21.582 9.0873 21.582C17.0498 21.582 21.4068 14.9856 21.4068 9.25997C21.4068 9.07208 21.4068 8.88419 21.3941 8.6963C22.2371 8.07931 22.976 7.31505 23.565 6.45685Z" />
</svg>
