<svg width="26" height="26" viewBox="0 0 26 26" xmlns="http://www.w3.org/2000/svg">
<path d="M24.7611 6.97951C24.9281 6.41528 24.7611 6 23.9576 6H21.299C20.6219 6 20.3104 6.3566 20.1434 6.75382C20.1434 6.75382 18.7892 10.0535 16.8753 12.1931C16.2569 12.8115 15.9726 13.0101 15.634 13.0101C15.467 13.0101 15.2097 12.8115 15.2097 12.2472V6.97951C15.2097 6.30243 15.0201 6 14.4604 6H10.2806C9.85625 6 9.60347 6.31597 9.60347 6.60937C9.60347 7.25035 10.5604 7.39931 10.6597 9.20486V13.1229C10.6597 13.9806 10.5062 14.1385 10.1677 14.1385C9.26493 14.1385 7.07118 10.8253 5.77118 7.03368C5.50938 6.29792 5.25208 6 4.57049 6H1.91181C1.15347 6 1 6.3566 1 6.75382C1 7.45799 1.90278 10.9563 5.20243 15.5785C7.40069 18.7337 10.4972 20.4444 13.3139 20.4444C15.0066 20.4444 15.2142 20.0653 15.2142 19.4108C15.2142 16.3955 15.0608 16.1111 15.9094 16.1111C16.3021 16.1111 16.9792 16.3097 18.559 17.8309C20.3646 19.6365 20.6625 20.4444 21.6736 20.4444H24.3323C25.0906 20.4444 25.4743 20.0653 25.2531 19.316C24.7476 17.7406 21.3306 14.4997 21.1771 14.283C20.7844 13.7774 20.8972 13.5517 21.1771 13.1003C21.1816 13.0958 24.4271 8.52778 24.7611 6.97951V6.97951Z"/>
</svg>
