<svg width="26" height="26" viewBox="0 0 26 26" xmlns="http://www.w3.org/2000/svg">
<path d="M23.3972 7.80261C23.2738 7.34479 23.0326 6.92728 22.6977 6.59162C22.3628 6.25597 21.9459 6.01387 21.4883 5.88944C19.7918 5.42361 13.0048 5.41602 13.0048 5.41602C13.0048 5.41602 6.21875 5.40844 4.52117 5.85369C4.06392 5.98385 3.64781 6.22937 3.31278 6.56667C2.97775 6.90397 2.73506 7.32174 2.608 7.77986C2.16059 9.47636 2.15625 12.995 2.15625 12.995C2.15625 12.995 2.15192 16.531 2.59608 18.2102C2.84525 19.1386 3.5765 19.872 4.506 20.1223C6.21984 20.5881 12.9885 20.5957 12.9885 20.5957C12.9885 20.5957 19.7756 20.6033 21.4721 20.1591C21.9298 20.0349 22.3471 19.7934 22.6829 19.4584C23.0186 19.1234 23.2611 18.7066 23.3863 18.2492C23.8348 16.5538 23.8381 13.0362 23.8381 13.0362C23.8381 13.0362 23.8598 9.49911 23.3972 7.80261V7.80261ZM10.8338 16.2548L10.8392 9.75477L16.4801 13.0102L10.8338 16.2548V16.2548Z"/>
</svg>
