<svg id="bulb" width="39" height="57" viewBox="0 0 39 57" fill="none" xmlns="http://www.w3.org/2000/svg">
<mask id="path-1-outside-1_102_14274" maskUnits="userSpaceOnUse" x="-1" y="-1" width="40" height="58" fill="black">
<rect fill="white" x="-1" y="-1" width="40" height="58"/>
<path d="M23.6024 48.6142H6.81943C6.56449 48.6142 6.35916 48.4088 6.35916 48.1539V37.1281C2.37231 34.2672 0 29.6643 0 24.7568C0 15.8201 7.74711 8.69614 16.8822 9.63797C17.1371 9.6663 17.3212 9.8929 17.2929 10.1407C17.2646 10.3957 17.0379 10.5727 16.7901 10.5515C8.19324 9.6663 0.9206 16.3583 0.9206 24.7568C0.9206 29.4447 3.22205 33.8352 7.08144 36.512C7.2089 36.597 7.27974 36.7386 7.27974 36.8873V47.6936H23.1421V36.8873C23.1421 36.7386 23.213 36.597 23.3404 36.512C27.1998 33.8352 29.5013 29.4447 29.5013 24.7568C29.5013 24.0416 29.4446 23.3122 29.3384 22.5899C29.303 22.335 29.473 22.1013 29.7279 22.0659C29.9828 22.0234 30.2165 22.2004 30.2519 22.4554C30.3652 23.2272 30.4289 23.9991 30.4289 24.7639C30.4289 29.6713 28.0566 34.2743 24.0698 37.1352V48.161C24.0627 48.4088 23.8574 48.6142 23.6024 48.6142Z"/>
<path d="M25.7623 42.3259H4.6525C4.39757 42.3259 4.19221 42.1205 4.19221 41.8656C4.19221 41.6107 4.39757 41.4053 4.6525 41.4053H25.7623C26.0172 41.4053 26.2226 41.6107 26.2226 41.8656C26.2226 42.1205 26.0172 42.3259 25.7623 42.3259Z"/>
<path d="M25.7623 45.1442H4.6525C4.39757 45.1442 4.19221 44.9389 4.19221 44.6839C4.19221 44.429 4.39757 44.2236 4.6525 44.2236H25.7623C26.0172 44.2236 26.2226 44.429 26.2226 44.6839C26.2226 44.9389 26.0172 45.1442 25.7623 45.1442Z"/>
<path d="M20.6778 53.571H9.74406C9.48913 53.571 9.28375 53.3656 9.28375 53.1107V48.1536C9.28375 47.8987 9.48913 47.6934 9.74406 47.6934H20.6778C20.9327 47.6934 21.1381 47.8987 21.1381 48.1536V53.1107C21.1381 53.3656 20.9327 53.571 20.6778 53.571ZM10.2044 52.6504H20.2175V48.614H10.2044V52.6504Z"/>
<path d="M16.9671 55.9999H13.4547C13.1998 55.9999 12.9945 55.7946 12.9945 55.5396V53.1107C12.9945 52.8557 13.1998 52.6504 13.4547 52.6504H16.9671C17.2221 52.6504 17.4274 52.8557 17.4274 53.1107V55.5396C17.4274 55.7946 17.2221 55.9999 16.9671 55.9999ZM13.915 55.0793H16.5068V53.571H13.915V55.0793Z"/>
<path d="M15.6217 42.3261H14.7931C14.5807 42.3261 14.3966 42.1774 14.347 41.9721L11.0896 28.4536C11.0542 28.2978 11.0966 28.1349 11.2099 28.0216C11.3232 27.9083 11.4861 27.8587 11.6419 27.8942L13.0724 28.2199L14.7223 23.8223C14.7861 23.6453 14.9631 23.5249 15.1543 23.5249C15.3455 23.5249 15.5154 23.6453 15.5863 23.8223L17.2716 28.2199L18.78 27.9012C18.9358 27.8729 19.0916 27.9154 19.2049 28.0287C19.3182 28.142 19.3607 28.3049 19.3182 28.4536L16.0678 41.9721C16.0182 42.1774 15.8341 42.3261 15.6217 42.3261ZM15.1614 41.4055H15.2605L18.256 28.9493L17.0733 29.1971C16.8538 29.2396 16.6272 29.1192 16.5493 28.9139L15.1614 25.2882L13.7947 28.928C13.7168 29.1405 13.4973 29.268 13.2636 29.2184L12.1659 28.9705L15.1614 41.4055Z"/>
<path d="M26.2863 25.4365H24.523C24.2964 25.4365 24.1052 25.2666 24.0698 25.0471L23.6095 21.9808C23.1705 21.8958 22.7456 21.7825 22.3207 21.6409L20.3945 24.0627C20.2529 24.2398 19.998 24.2893 19.8068 24.176L18.2843 23.2979C18.086 23.1846 18.001 22.9439 18.086 22.7314L19.219 19.8422C18.8791 19.5448 18.5604 19.2261 18.2772 18.9004L15.388 20.0334C15.1755 20.1184 14.9347 20.0334 14.8214 19.8351L13.9433 18.3126C13.83 18.1143 13.8796 17.8665 14.0567 17.7248L16.4785 15.7987C16.3298 15.3738 16.2165 14.9489 16.1315 14.5099L13.0653 14.0496C12.8386 14.0142 12.6758 13.823 12.6758 13.5964V11.8331C12.6758 11.6065 12.8457 11.4153 13.0653 11.3799L16.1315 10.9196C16.2165 10.4876 16.3298 10.0556 16.4785 9.63076L14.0567 7.7046C13.8796 7.56298 13.83 7.31514 13.9433 7.11685L14.8214 5.59435C14.9347 5.39607 15.1755 5.31109 15.388 5.39607L18.2772 6.52908C18.5675 6.19626 18.8791 5.88469 19.219 5.59435L18.086 2.7122C18.001 2.49976 18.086 2.25898 18.2843 2.14567L19.8068 1.26049C20.0051 1.14719 20.2529 1.19676 20.3945 1.3738L22.3278 3.79566C22.7597 3.64695 23.1846 3.53365 23.6095 3.44868L24.0698 0.389492C24.1052 0.162886 24.2964 0 24.523 0H26.2863C26.5129 0 26.7112 0.169967 26.7395 0.389492L27.1998 3.44868C27.6247 3.53365 28.0567 3.64695 28.4886 3.79566L30.4148 1.3738C30.5564 1.19676 30.8043 1.14719 31.0096 1.26049L32.5321 2.14567C32.7304 2.25898 32.8154 2.49976 32.7304 2.7122L31.5974 5.59435C31.9302 5.88469 32.2489 6.19626 32.5392 6.52908L35.4213 5.39607C35.6338 5.31109 35.8745 5.39607 35.9879 5.59435L36.873 7.11685C36.9863 7.31514 36.9368 7.56298 36.7598 7.7046L34.3379 9.63076C34.4866 10.0556 34.5999 10.4876 34.6778 10.9125L37.744 11.3728C37.9706 11.4082 38.1335 11.5994 38.1335 11.826V13.5893C38.1335 13.8159 37.9636 14.0071 37.744 14.0425L34.6778 14.5028C34.5928 14.9277 34.4795 15.3596 34.3379 15.7845L36.7598 17.7107C36.9368 17.8523 36.9863 18.1072 36.873 18.2984L35.9879 19.8209C35.8745 20.0192 35.6338 20.1042 35.4213 20.0192L32.5392 18.8862C32.2559 19.2119 31.9373 19.5306 31.5974 19.828L32.7304 22.7173C32.8154 22.9297 32.7304 23.1705 32.5321 23.2838L31.0096 24.1619C30.8113 24.2752 30.5635 24.2256 30.4219 24.0486L28.4957 21.6267C28.0708 21.7754 27.6389 21.8887 27.2069 21.9737L26.7466 25.04C26.7112 25.2737 26.5129 25.4365 26.2863 25.4365ZM24.9196 24.5159H25.8897L26.3359 21.5134C26.3642 21.3151 26.52 21.1593 26.7183 21.1239C27.3131 21.0319 27.9009 20.8761 28.4745 20.6566C28.6657 20.5857 28.8781 20.6424 28.9985 20.7982L30.8892 23.1705L31.7248 22.6889L30.6131 19.8634C30.5423 19.6793 30.5918 19.4669 30.7476 19.3394C31.2362 18.9428 31.6682 18.5109 32.0294 18.0577C32.1568 17.9019 32.3693 17.8452 32.5605 17.916L35.3859 19.0278L35.8746 18.1851L33.5023 16.3015C33.3465 16.174 33.2898 15.9686 33.3606 15.7774C33.5802 15.1897 33.743 14.6019 33.828 14.0283C33.8564 13.83 34.0121 13.6743 34.2175 13.6459L37.22 13.1927V12.2226L34.2175 11.7694C34.0192 11.741 33.8634 11.5852 33.828 11.387C33.736 10.8063 33.5802 10.2185 33.3606 9.63784C33.2898 9.45373 33.3465 9.24129 33.5023 9.11382L35.8746 7.23016L35.3859 6.38747L32.5605 7.49926C32.3763 7.57715 32.1639 7.52049 32.0364 7.35762C31.654 6.89025 31.222 6.45828 30.7547 6.07588C30.5989 5.94842 30.5423 5.73598 30.6131 5.55186L31.7248 2.72636L30.8892 2.23774L29.0056 4.61002C28.8781 4.76581 28.6727 4.82247 28.4815 4.75166C27.8867 4.53213 27.2918 4.36926 26.7253 4.28428C26.527 4.25596 26.3713 4.10015 26.3429 3.89479L25.8968 0.899356H24.9267L24.4734 3.89479C24.4451 4.09307 24.2893 4.24887 24.091 4.28428C23.5175 4.36926 22.9297 4.53213 22.3349 4.75166C22.1508 4.82247 21.9383 4.76581 21.8108 4.61002L19.9201 2.23774L19.0845 2.72636L20.1963 5.55186C20.2671 5.73598 20.2104 5.94842 20.0546 6.07588C19.5802 6.45828 19.1553 6.89025 18.7729 7.35762C18.6454 7.51341 18.433 7.57007 18.2489 7.49926L15.4234 6.38747L14.9348 7.22307L17.307 9.11382C17.4628 9.24129 17.5195 9.45373 17.4487 9.63784C17.2291 10.2044 17.0734 10.7921 16.9742 11.387C16.9459 11.5852 16.783 11.741 16.5847 11.7694L13.5893 12.2226V13.1927L16.5847 13.6459C16.783 13.6743 16.9388 13.83 16.9742 14.0283C17.0663 14.6161 17.2221 15.2109 17.4487 15.7774C17.5195 15.9686 17.4628 16.1811 17.307 16.3015L14.9348 18.1851L15.4163 19.0207L18.2418 17.909C18.4259 17.8381 18.6454 17.8948 18.7658 18.0506C19.1269 18.5038 19.5589 18.9358 20.0475 19.3394C20.2033 19.4669 20.26 19.6793 20.1821 19.8634L19.0703 22.6889L19.9059 23.1705L21.7967 20.7982C21.9241 20.6424 22.1366 20.5857 22.3207 20.6566C22.8872 20.8761 23.4749 21.0319 24.0698 21.1239C24.2681 21.1523 24.4239 21.308 24.4522 21.5134L24.9196 24.5159ZM25.4011 17.6682C22.6606 17.6682 20.437 15.4446 20.437 12.7041C20.437 9.96358 22.6677 7.73294 25.4011 7.73294C28.1345 7.73294 30.3652 9.96358 30.3652 12.7041C30.3652 15.4446 28.1416 17.6682 25.4011 17.6682ZM25.4011 8.6606C23.1704 8.6606 21.3576 10.4734 21.3576 12.7041C21.3576 14.9347 23.1704 16.7476 25.4011 16.7476C27.6318 16.7476 29.4446 14.9347 29.4446 12.7041C29.4446 10.4734 27.6318 8.6606 25.4011 8.6606Z"/>
</mask>
<path d="M23.6024 48.6142H6.81943C6.56449 48.6142 6.35916 48.4088 6.35916 48.1539V37.1281C2.37231 34.2672 0 29.6643 0 24.7568C0 15.8201 7.74711 8.69614 16.8822 9.63797C17.1371 9.6663 17.3212 9.8929 17.2929 10.1407C17.2646 10.3957 17.0379 10.5727 16.7901 10.5515C8.19324 9.6663 0.9206 16.3583 0.9206 24.7568C0.9206 29.4447 3.22205 33.8352 7.08144 36.512C7.2089 36.597 7.27974 36.7386 7.27974 36.8873V47.6936H23.1421V36.8873C23.1421 36.7386 23.213 36.597 23.3404 36.512C27.1998 33.8352 29.5013 29.4447 29.5013 24.7568C29.5013 24.0416 29.4446 23.3122 29.3384 22.5899C29.303 22.335 29.473 22.1013 29.7279 22.0659C29.9828 22.0234 30.2165 22.2004 30.2519 22.4554C30.3652 23.2272 30.4289 23.9991 30.4289 24.7639C30.4289 29.6713 28.0566 34.2743 24.0698 37.1352V48.161C24.0627 48.4088 23.8574 48.6142 23.6024 48.6142Z" fill="#E31E24"/>
<path d="M25.7623 42.3259H4.6525C4.39757 42.3259 4.19221 42.1205 4.19221 41.8656C4.19221 41.6107 4.39757 41.4053 4.6525 41.4053H25.7623C26.0172 41.4053 26.2226 41.6107 26.2226 41.8656C26.2226 42.1205 26.0172 42.3259 25.7623 42.3259Z" fill="#E31E24"/>
<path d="M25.7623 45.1442H4.6525C4.39757 45.1442 4.19221 44.9389 4.19221 44.6839C4.19221 44.429 4.39757 44.2236 4.6525 44.2236H25.7623C26.0172 44.2236 26.2226 44.429 26.2226 44.6839C26.2226 44.9389 26.0172 45.1442 25.7623 45.1442Z" fill="#E31E24"/>
<path d="M20.6778 53.571H9.74406C9.48913 53.571 9.28375 53.3656 9.28375 53.1107V48.1536C9.28375 47.8987 9.48913 47.6934 9.74406 47.6934H20.6778C20.9327 47.6934 21.1381 47.8987 21.1381 48.1536V53.1107C21.1381 53.3656 20.9327 53.571 20.6778 53.571ZM10.2044 52.6504H20.2175V48.614H10.2044V52.6504Z" fill="#E31E24"/>
<path d="M16.9671 55.9999H13.4547C13.1998 55.9999 12.9945 55.7946 12.9945 55.5396V53.1107C12.9945 52.8557 13.1998 52.6504 13.4547 52.6504H16.9671C17.2221 52.6504 17.4274 52.8557 17.4274 53.1107V55.5396C17.4274 55.7946 17.2221 55.9999 16.9671 55.9999ZM13.915 55.0793H16.5068V53.571H13.915V55.0793Z" fill="#E31E24"/>
<path d="M15.6217 42.3261H14.7931C14.5807 42.3261 14.3966 42.1774 14.347 41.9721L11.0896 28.4536C11.0542 28.2978 11.0966 28.1349 11.2099 28.0216C11.3232 27.9083 11.4861 27.8587 11.6419 27.8942L13.0724 28.2199L14.7223 23.8223C14.7861 23.6453 14.9631 23.5249 15.1543 23.5249C15.3455 23.5249 15.5154 23.6453 15.5863 23.8223L17.2716 28.2199L18.78 27.9012C18.9358 27.8729 19.0916 27.9154 19.2049 28.0287C19.3182 28.142 19.3607 28.3049 19.3182 28.4536L16.0678 41.9721C16.0182 42.1774 15.8341 42.3261 15.6217 42.3261ZM15.1614 41.4055H15.2605L18.256 28.9493L17.0733 29.1971C16.8538 29.2396 16.6272 29.1192 16.5493 28.9139L15.1614 25.2882L13.7947 28.928C13.7168 29.1405 13.4973 29.268 13.2636 29.2184L12.1659 28.9705L15.1614 41.4055Z" fill="#E31E24"/>
<path d="M26.2863 25.4365H24.523C24.2964 25.4365 24.1052 25.2666 24.0698 25.0471L23.6095 21.9808C23.1705 21.8958 22.7456 21.7825 22.3207 21.6409L20.3945 24.0627C20.2529 24.2398 19.998 24.2893 19.8068 24.176L18.2843 23.2979C18.086 23.1846 18.001 22.9439 18.086 22.7314L19.219 19.8422C18.8791 19.5448 18.5604 19.2261 18.2772 18.9004L15.388 20.0334C15.1755 20.1184 14.9347 20.0334 14.8214 19.8351L13.9433 18.3126C13.83 18.1143 13.8796 17.8665 14.0567 17.7248L16.4785 15.7987C16.3298 15.3738 16.2165 14.9489 16.1315 14.5099L13.0653 14.0496C12.8386 14.0142 12.6758 13.823 12.6758 13.5964V11.8331C12.6758 11.6065 12.8457 11.4153 13.0653 11.3799L16.1315 10.9196C16.2165 10.4876 16.3298 10.0556 16.4785 9.63076L14.0567 7.7046C13.8796 7.56298 13.83 7.31514 13.9433 7.11685L14.8214 5.59435C14.9347 5.39607 15.1755 5.31109 15.388 5.39607L18.2772 6.52908C18.5675 6.19626 18.8791 5.88469 19.219 5.59435L18.086 2.7122C18.001 2.49976 18.086 2.25898 18.2843 2.14567L19.8068 1.26049C20.0051 1.14719 20.2529 1.19676 20.3945 1.3738L22.3278 3.79566C22.7597 3.64695 23.1846 3.53365 23.6095 3.44868L24.0698 0.389492C24.1052 0.162886 24.2964 0 24.523 0H26.2863C26.5129 0 26.7112 0.169967 26.7395 0.389492L27.1998 3.44868C27.6247 3.53365 28.0567 3.64695 28.4886 3.79566L30.4148 1.3738C30.5564 1.19676 30.8043 1.14719 31.0096 1.26049L32.5321 2.14567C32.7304 2.25898 32.8154 2.49976 32.7304 2.7122L31.5974 5.59435C31.9302 5.88469 32.2489 6.19626 32.5392 6.52908L35.4213 5.39607C35.6338 5.31109 35.8745 5.39607 35.9879 5.59435L36.873 7.11685C36.9863 7.31514 36.9368 7.56298 36.7598 7.7046L34.3379 9.63076C34.4866 10.0556 34.5999 10.4876 34.6778 10.9125L37.744 11.3728C37.9706 11.4082 38.1335 11.5994 38.1335 11.826V13.5893C38.1335 13.8159 37.9636 14.0071 37.744 14.0425L34.6778 14.5028C34.5928 14.9277 34.4795 15.3596 34.3379 15.7845L36.7598 17.7107C36.9368 17.8523 36.9863 18.1072 36.873 18.2984L35.9879 19.8209C35.8745 20.0192 35.6338 20.1042 35.4213 20.0192L32.5392 18.8862C32.2559 19.2119 31.9373 19.5306 31.5974 19.828L32.7304 22.7173C32.8154 22.9297 32.7304 23.1705 32.5321 23.2838L31.0096 24.1619C30.8113 24.2752 30.5635 24.2256 30.4219 24.0486L28.4957 21.6267C28.0708 21.7754 27.6389 21.8887 27.2069 21.9737L26.7466 25.04C26.7112 25.2737 26.5129 25.4365 26.2863 25.4365ZM24.9196 24.5159H25.8897L26.3359 21.5134C26.3642 21.3151 26.52 21.1593 26.7183 21.1239C27.3131 21.0319 27.9009 20.8761 28.4745 20.6566C28.6657 20.5857 28.8781 20.6424 28.9985 20.7982L30.8892 23.1705L31.7248 22.6889L30.6131 19.8634C30.5423 19.6793 30.5918 19.4669 30.7476 19.3394C31.2362 18.9428 31.6682 18.5109 32.0294 18.0577C32.1568 17.9019 32.3693 17.8452 32.5605 17.916L35.3859 19.0278L35.8746 18.1851L33.5023 16.3015C33.3465 16.174 33.2898 15.9686 33.3606 15.7774C33.5802 15.1897 33.743 14.6019 33.828 14.0283C33.8564 13.83 34.0121 13.6743 34.2175 13.6459L37.22 13.1927V12.2226L34.2175 11.7694C34.0192 11.741 33.8634 11.5852 33.828 11.387C33.736 10.8063 33.5802 10.2185 33.3606 9.63784C33.2898 9.45373 33.3465 9.24129 33.5023 9.11382L35.8746 7.23016L35.3859 6.38747L32.5605 7.49926C32.3763 7.57715 32.1639 7.52049 32.0364 7.35762C31.654 6.89025 31.222 6.45828 30.7547 6.07588C30.5989 5.94842 30.5423 5.73598 30.6131 5.55186L31.7248 2.72636L30.8892 2.23774L29.0056 4.61002C28.8781 4.76581 28.6727 4.82247 28.4815 4.75166C27.8867 4.53213 27.2918 4.36926 26.7253 4.28428C26.527 4.25596 26.3713 4.10015 26.3429 3.89479L25.8968 0.899356H24.9267L24.4734 3.89479C24.4451 4.09307 24.2893 4.24887 24.091 4.28428C23.5175 4.36926 22.9297 4.53213 22.3349 4.75166C22.1508 4.82247 21.9383 4.76581 21.8108 4.61002L19.9201 2.23774L19.0845 2.72636L20.1963 5.55186C20.2671 5.73598 20.2104 5.94842 20.0546 6.07588C19.5802 6.45828 19.1553 6.89025 18.7729 7.35762C18.6454 7.51341 18.433 7.57007 18.2489 7.49926L15.4234 6.38747L14.9348 7.22307L17.307 9.11382C17.4628 9.24129 17.5195 9.45373 17.4487 9.63784C17.2291 10.2044 17.0734 10.7921 16.9742 11.387C16.9459 11.5852 16.783 11.741 16.5847 11.7694L13.5893 12.2226V13.1927L16.5847 13.6459C16.783 13.6743 16.9388 13.83 16.9742 14.0283C17.0663 14.6161 17.2221 15.2109 17.4487 15.7774C17.5195 15.9686 17.4628 16.1811 17.307 16.3015L14.9348 18.1851L15.4163 19.0207L18.2418 17.909C18.4259 17.8381 18.6454 17.8948 18.7658 18.0506C19.1269 18.5038 19.5589 18.9358 20.0475 19.3394C20.2033 19.4669 20.26 19.6793 20.1821 19.8634L19.0703 22.6889L19.9059 23.1705L21.7967 20.7982C21.9241 20.6424 22.1366 20.5857 22.3207 20.6566C22.8872 20.8761 23.4749 21.0319 24.0698 21.1239C24.2681 21.1523 24.4239 21.308 24.4522 21.5134L24.9196 24.5159ZM25.4011 17.6682C22.6606 17.6682 20.437 15.4446 20.437 12.7041C20.437 9.96358 22.6677 7.73294 25.4011 7.73294C28.1345 7.73294 30.3652 9.96358 30.3652 12.7041C30.3652 15.4446 28.1416 17.6682 25.4011 17.6682ZM25.4011 8.6606C23.1704 8.6606 21.3576 10.4734 21.3576 12.7041C21.3576 14.9347 23.1704 16.7476 25.4011 16.7476C27.6318 16.7476 29.4446 14.9347 29.4446 12.7041C29.4446 10.4734 27.6318 8.6606 25.4011 8.6606Z" fill="#E31E24"/>
<path d="M23.6024 48.6142H6.81943C6.56449 48.6142 6.35916 48.4088 6.35916 48.1539V37.1281C2.37231 34.2672 0 29.6643 0 24.7568C0 15.8201 7.74711 8.69614 16.8822 9.63797C17.1371 9.6663 17.3212 9.8929 17.2929 10.1407C17.2646 10.3957 17.0379 10.5727 16.7901 10.5515C8.19324 9.6663 0.9206 16.3583 0.9206 24.7568C0.9206 29.4447 3.22205 33.8352 7.08144 36.512C7.2089 36.597 7.27974 36.7386 7.27974 36.8873V47.6936H23.1421V36.8873C23.1421 36.7386 23.213 36.597 23.3404 36.512C27.1998 33.8352 29.5013 29.4447 29.5013 24.7568C29.5013 24.0416 29.4446 23.3122 29.3384 22.5899C29.303 22.335 29.473 22.1013 29.7279 22.0659C29.9828 22.0234 30.2165 22.2004 30.2519 22.4554C30.3652 23.2272 30.4289 23.9991 30.4289 24.7639C30.4289 29.6713 28.0566 34.2743 24.0698 37.1352V48.161C24.0627 48.4088 23.8574 48.6142 23.6024 48.6142Z" stroke="#E31E24" stroke-width="0.4" mask="url(#path-1-outside-1_102_14274)"/>
<path d="M25.7623 42.3259H4.6525C4.39757 42.3259 4.19221 42.1205 4.19221 41.8656C4.19221 41.6107 4.39757 41.4053 4.6525 41.4053H25.7623C26.0172 41.4053 26.2226 41.6107 26.2226 41.8656C26.2226 42.1205 26.0172 42.3259 25.7623 42.3259Z" stroke="#E31E24" stroke-width="0.4" mask="url(#path-1-outside-1_102_14274)"/>
<path d="M25.7623 45.1442H4.6525C4.39757 45.1442 4.19221 44.9389 4.19221 44.6839C4.19221 44.429 4.39757 44.2236 4.6525 44.2236H25.7623C26.0172 44.2236 26.2226 44.429 26.2226 44.6839C26.2226 44.9389 26.0172 45.1442 25.7623 45.1442Z" stroke="#E31E24" stroke-width="0.4" mask="url(#path-1-outside-1_102_14274)"/>
<path d="M20.6778 53.571H9.74406C9.48913 53.571 9.28375 53.3656 9.28375 53.1107V48.1536C9.28375 47.8987 9.48913 47.6934 9.74406 47.6934H20.6778C20.9327 47.6934 21.1381 47.8987 21.1381 48.1536V53.1107C21.1381 53.3656 20.9327 53.571 20.6778 53.571ZM10.2044 52.6504H20.2175V48.614H10.2044V52.6504Z" stroke="#E31E24" stroke-width="0.4" mask="url(#path-1-outside-1_102_14274)"/>
<path d="M16.9671 55.9999H13.4547C13.1998 55.9999 12.9945 55.7946 12.9945 55.5396V53.1107C12.9945 52.8557 13.1998 52.6504 13.4547 52.6504H16.9671C17.2221 52.6504 17.4274 52.8557 17.4274 53.1107V55.5396C17.4274 55.7946 17.2221 55.9999 16.9671 55.9999ZM13.915 55.0793H16.5068V53.571H13.915V55.0793Z" stroke="#E31E24" stroke-width="0.4" mask="url(#path-1-outside-1_102_14274)"/>
<path d="M15.6217 42.3261H14.7931C14.5807 42.3261 14.3966 42.1774 14.347 41.9721L11.0896 28.4536C11.0542 28.2978 11.0966 28.1349 11.2099 28.0216C11.3232 27.9083 11.4861 27.8587 11.6419 27.8942L13.0724 28.2199L14.7223 23.8223C14.7861 23.6453 14.9631 23.5249 15.1543 23.5249C15.3455 23.5249 15.5154 23.6453 15.5863 23.8223L17.2716 28.2199L18.78 27.9012C18.9358 27.8729 19.0916 27.9154 19.2049 28.0287C19.3182 28.142 19.3607 28.3049 19.3182 28.4536L16.0678 41.9721C16.0182 42.1774 15.8341 42.3261 15.6217 42.3261ZM15.1614 41.4055H15.2605L18.256 28.9493L17.0733 29.1971C16.8538 29.2396 16.6272 29.1192 16.5493 28.9139L15.1614 25.2882L13.7947 28.928C13.7168 29.1405 13.4973 29.268 13.2636 29.2184L12.1659 28.9705L15.1614 41.4055Z" stroke="#E31E24" stroke-width="0.4" mask="url(#path-1-outside-1_102_14274)"/>
<path d="M26.2863 25.4365H24.523C24.2964 25.4365 24.1052 25.2666 24.0698 25.0471L23.6095 21.9808C23.1705 21.8958 22.7456 21.7825 22.3207 21.6409L20.3945 24.0627C20.2529 24.2398 19.998 24.2893 19.8068 24.176L18.2843 23.2979C18.086 23.1846 18.001 22.9439 18.086 22.7314L19.219 19.8422C18.8791 19.5448 18.5604 19.2261 18.2772 18.9004L15.388 20.0334C15.1755 20.1184 14.9347 20.0334 14.8214 19.8351L13.9433 18.3126C13.83 18.1143 13.8796 17.8665 14.0567 17.7248L16.4785 15.7987C16.3298 15.3738 16.2165 14.9489 16.1315 14.5099L13.0653 14.0496C12.8386 14.0142 12.6758 13.823 12.6758 13.5964V11.8331C12.6758 11.6065 12.8457 11.4153 13.0653 11.3799L16.1315 10.9196C16.2165 10.4876 16.3298 10.0556 16.4785 9.63076L14.0567 7.7046C13.8796 7.56298 13.83 7.31514 13.9433 7.11685L14.8214 5.59435C14.9347 5.39607 15.1755 5.31109 15.388 5.39607L18.2772 6.52908C18.5675 6.19626 18.8791 5.88469 19.219 5.59435L18.086 2.7122C18.001 2.49976 18.086 2.25898 18.2843 2.14567L19.8068 1.26049C20.0051 1.14719 20.2529 1.19676 20.3945 1.3738L22.3278 3.79566C22.7597 3.64695 23.1846 3.53365 23.6095 3.44868L24.0698 0.389492C24.1052 0.162886 24.2964 0 24.523 0H26.2863C26.5129 0 26.7112 0.169967 26.7395 0.389492L27.1998 3.44868C27.6247 3.53365 28.0567 3.64695 28.4886 3.79566L30.4148 1.3738C30.5564 1.19676 30.8043 1.14719 31.0096 1.26049L32.5321 2.14567C32.7304 2.25898 32.8154 2.49976 32.7304 2.7122L31.5974 5.59435C31.9302 5.88469 32.2489 6.19626 32.5392 6.52908L35.4213 5.39607C35.6338 5.31109 35.8745 5.39607 35.9879 5.59435L36.873 7.11685C36.9863 7.31514 36.9368 7.56298 36.7598 7.7046L34.3379 9.63076C34.4866 10.0556 34.5999 10.4876 34.6778 10.9125L37.744 11.3728C37.9706 11.4082 38.1335 11.5994 38.1335 11.826V13.5893C38.1335 13.8159 37.9636 14.0071 37.744 14.0425L34.6778 14.5028C34.5928 14.9277 34.4795 15.3596 34.3379 15.7845L36.7598 17.7107C36.9368 17.8523 36.9863 18.1072 36.873 18.2984L35.9879 19.8209C35.8745 20.0192 35.6338 20.1042 35.4213 20.0192L32.5392 18.8862C32.2559 19.2119 31.9373 19.5306 31.5974 19.828L32.7304 22.7173C32.8154 22.9297 32.7304 23.1705 32.5321 23.2838L31.0096 24.1619C30.8113 24.2752 30.5635 24.2256 30.4219 24.0486L28.4957 21.6267C28.0708 21.7754 27.6389 21.8887 27.2069 21.9737L26.7466 25.04C26.7112 25.2737 26.5129 25.4365 26.2863 25.4365ZM24.9196 24.5159H25.8897L26.3359 21.5134C26.3642 21.3151 26.52 21.1593 26.7183 21.1239C27.3131 21.0319 27.9009 20.8761 28.4745 20.6566C28.6657 20.5857 28.8781 20.6424 28.9985 20.7982L30.8892 23.1705L31.7248 22.6889L30.6131 19.8634C30.5423 19.6793 30.5918 19.4669 30.7476 19.3394C31.2362 18.9428 31.6682 18.5109 32.0294 18.0577C32.1568 17.9019 32.3693 17.8452 32.5605 17.916L35.3859 19.0278L35.8746 18.1851L33.5023 16.3015C33.3465 16.174 33.2898 15.9686 33.3606 15.7774C33.5802 15.1897 33.743 14.6019 33.828 14.0283C33.8564 13.83 34.0121 13.6743 34.2175 13.6459L37.22 13.1927V12.2226L34.2175 11.7694C34.0192 11.741 33.8634 11.5852 33.828 11.387C33.736 10.8063 33.5802 10.2185 33.3606 9.63784C33.2898 9.45373 33.3465 9.24129 33.5023 9.11382L35.8746 7.23016L35.3859 6.38747L32.5605 7.49926C32.3763 7.57715 32.1639 7.52049 32.0364 7.35762C31.654 6.89025 31.222 6.45828 30.7547 6.07588C30.5989 5.94842 30.5423 5.73598 30.6131 5.55186L31.7248 2.72636L30.8892 2.23774L29.0056 4.61002C28.8781 4.76581 28.6727 4.82247 28.4815 4.75166C27.8867 4.53213 27.2918 4.36926 26.7253 4.28428C26.527 4.25596 26.3713 4.10015 26.3429 3.89479L25.8968 0.899356H24.9267L24.4734 3.89479C24.4451 4.09307 24.2893 4.24887 24.091 4.28428C23.5175 4.36926 22.9297 4.53213 22.3349 4.75166C22.1508 4.82247 21.9383 4.76581 21.8108 4.61002L19.9201 2.23774L19.0845 2.72636L20.1963 5.55186C20.2671 5.73598 20.2104 5.94842 20.0546 6.07588C19.5802 6.45828 19.1553 6.89025 18.7729 7.35762C18.6454 7.51341 18.433 7.57007 18.2489 7.49926L15.4234 6.38747L14.9348 7.22307L17.307 9.11382C17.4628 9.24129 17.5195 9.45373 17.4487 9.63784C17.2291 10.2044 17.0734 10.7921 16.9742 11.387C16.9459 11.5852 16.783 11.741 16.5847 11.7694L13.5893 12.2226V13.1927L16.5847 13.6459C16.783 13.6743 16.9388 13.83 16.9742 14.0283C17.0663 14.6161 17.2221 15.2109 17.4487 15.7774C17.5195 15.9686 17.4628 16.1811 17.307 16.3015L14.9348 18.1851L15.4163 19.0207L18.2418 17.909C18.4259 17.8381 18.6454 17.8948 18.7658 18.0506C19.1269 18.5038 19.5589 18.9358 20.0475 19.3394C20.2033 19.4669 20.26 19.6793 20.1821 19.8634L19.0703 22.6889L19.9059 23.1705L21.7967 20.7982C21.9241 20.6424 22.1366 20.5857 22.3207 20.6566C22.8872 20.8761 23.4749 21.0319 24.0698 21.1239C24.2681 21.1523 24.4239 21.308 24.4522 21.5134L24.9196 24.5159ZM25.4011 17.6682C22.6606 17.6682 20.437 15.4446 20.437 12.7041C20.437 9.96358 22.6677 7.73294 25.4011 7.73294C28.1345 7.73294 30.3652 9.96358 30.3652 12.7041C30.3652 15.4446 28.1416 17.6682 25.4011 17.6682ZM25.4011 8.6606C23.1704 8.6606 21.3576 10.4734 21.3576 12.7041C21.3576 14.9347 23.1704 16.7476 25.4011 16.7476C27.6318 16.7476 29.4446 14.9347 29.4446 12.7041C29.4446 10.4734 27.6318 8.6606 25.4011 8.6606Z" stroke="#E31E24" stroke-width="0.4" mask="url(#path-1-outside-1_102_14274)"/>
</svg>
