<svg width="60" height="60" viewBox="0 0 60 60" xmlns="http://www.w3.org/2000/svg">
<path d="M57 4H50V1C50 0.447 49.553 0 49 0H42C41.447 0 41 0.447 41 1V4H19V1C19 0.447 18.553 0 18 0H11C10.447 0 10 0.447 10 1V4H3C2.447 4 2 4.447 2 5V16V59C2 59.553 2.447 60 3 60H57C57.553 60 58 59.553 58 59V16V5C58 4.447 57.553 4 57 4ZM43 2H48V5V8H43V5V2ZM12 2H17V5V8H12V5V2ZM4 6H10V9C10 9.553 10.447 10 11 10H18C18.553 10 19 9.553 19 9V6H41V9C41 9.553 41.447 10 42 10H49C49.553 10 50 9.553 50 9V6H56V15H4V6ZM4 58V17H56V58H4Z" fill="#E31E24"/>
<path d="M38 23H31H29H22H20H11V32V34V41V43V52H20H22H29H31H38H40H49V43V41V34V32V23H40H38ZM31 25H38V32H31V25ZM38 41H31V34H38V41ZM22 34H29V41H22V34ZM22 25H29V32H22V25ZM13 25H20V32H13V25ZM13 34H20V41H13V34ZM20 50H13V43H20V50ZM29 50H22V43H29V50ZM38 50H31V43H38V50ZM47 50H40V43H47V50ZM47 41H40V34H47V41ZM47 25V32H40V25H47Z" fill="#E31E24"/>
</svg>
