<svg id="cup" width="43" height="57" viewBox="0 0 43 57" fill="none" xmlns="http://www.w3.org/2000/svg">
<mask id="path-1-outside-1_102_14254" maskUnits="userSpaceOnUse" x="-1" y="-1" width="44" height="58" fill="black">
<rect fill="white" x="-1" y="-1" width="44" height="58"/>
<path d="M27.1859 48.2266H15.5398C15.0584 48.2266 14.662 47.8372 14.662 47.3558C14.662 47.1929 14.7115 47.0301 14.7965 46.8885C15.7452 45.0124 16.3965 43.3133 16.7575 41.7274C17.1186 40.1062 17.1681 38.6195 16.8991 37.1823C14.0389 36.3044 11.5115 34.6124 9.57874 32.2761C7.66724 29.9681 6.49205 27.2 6.1593 24.2549C4.48143 23.6743 2.96639 22.577 1.87612 21.1611C0.651345 19.554 0 17.6425 0 15.6248V5.56459C0 5.08318 0.389367 4.69381 0.870783 4.69381H6.06018V0.870783C6.06018 0.389367 6.44954 0 6.93096 0H35.7805C36.2619 0 36.6584 0.389367 36.6584 0.870783V4.69381H41.8549C42.3363 4.69381 42.7257 5.08318 42.7257 5.56459V15.6248C42.7257 17.6354 42.0743 19.554 40.8425 21.1611C39.7593 22.5841 38.2443 23.6743 36.5664 24.2549C36.2337 27.2 35.0584 29.9681 33.1469 32.2761C31.2142 34.6053 28.6867 36.2974 25.8336 37.1752C25.5575 38.662 25.6 40.1841 25.9681 41.8266C26.315 43.377 26.9451 44.9982 27.9575 46.9522C28.0637 47.1575 28.085 47.3912 28.0142 47.6177C27.9434 47.8372 27.7947 48.0212 27.5894 48.1274C27.4549 48.1982 27.3133 48.2266 27.1859 48.2266ZM0.892043 5.61416L0.920346 15.6319C0.920346 17.4443 1.50088 19.1646 2.60531 20.6088C3.63893 21.9611 5.10442 22.9805 6.71858 23.4832C6.89557 23.5398 7.02302 23.6956 7.04426 23.8796C7.30621 26.754 8.43184 29.4584 10.2867 31.7026C12.1628 33.9681 14.6265 35.5894 17.423 36.3894C17.5858 36.4389 17.7133 36.5664 17.7487 36.7363C18.0956 38.3859 18.0673 40.092 17.6566 41.9469C17.2814 43.6035 16.6088 45.3735 15.5964 47.3558L27.108 47.3203C26.0814 45.331 25.4372 43.6531 25.0761 42.046C24.6584 40.1841 24.6372 38.4425 24.9911 36.7433C25.0265 36.5734 25.1469 36.446 25.3168 36.3965C28.1062 35.5965 30.5699 33.9752 32.446 31.7097C34.3009 29.4655 35.4195 26.7611 35.6885 23.8867C35.7026 23.7027 35.8301 23.5469 36.0142 23.4903C37.6283 22.9876 39.0867 21.9681 40.1204 20.6159C41.2248 19.1717 41.8124 17.4513 41.8124 15.6389V5.59998L36.2124 5.62833C35.9576 5.62833 35.7522 5.423 35.7522 5.16813V0.899129L6.95931 0.927432L6.98761 5.16813C6.98761 5.423 6.78228 5.62833 6.52741 5.62833H0.892043V5.61416ZM36.2124 20.8566C36.1275 20.8566 36.0496 20.8354 35.9717 20.7929C35.8372 20.708 35.7522 20.5593 35.7522 20.3965V8.41771C35.7522 8.16284 35.9576 7.95752 36.2124 7.95752H39.2496C39.5044 7.95752 39.7097 8.16284 39.7097 8.41771V15.3911C39.7097 16.6301 39.3416 17.8195 38.6478 18.8318C38.0814 19.6602 37.3168 20.3469 36.4319 20.8071C36.354 20.8354 36.2832 20.8566 36.2124 20.8566ZM36.6726 8.87786V19.5682C37.1398 19.2213 37.5505 18.7965 37.8832 18.308C38.4708 17.4513 38.7894 16.4389 38.7894 15.3911V8.87786H36.6726ZM6.52741 20.8566C6.45662 20.8566 6.37875 20.8425 6.31503 20.8071C5.423 20.3469 4.65134 19.6602 4.08497 18.8248C3.39117 17.8124 3.02302 16.6301 3.02302 15.3911V8.41771C3.02302 8.16284 3.22831 7.95752 3.48317 7.95752H6.52741C6.78228 7.95752 6.98761 8.16284 6.98761 8.41771V20.3965C6.98761 20.5593 6.90265 20.708 6.76814 20.7929C6.69027 20.8354 6.60529 20.8566 6.52741 20.8566ZM3.94337 8.87786V15.3911C3.94337 16.4389 4.25485 17.4513 4.84954 18.308C5.18228 18.7965 5.59293 19.2283 6.06726 19.5752V8.87786H3.94337Z"/>
<path d="M32.9487 53.7911H9.76991C9.51504 53.7911 9.30975 53.5858 9.30975 53.3309V47.7663C9.30975 47.5114 9.51504 47.3062 9.76991 47.3062H32.9487C33.2035 47.3062 33.4089 47.5114 33.4089 47.7663V53.3309C33.4159 53.5858 33.2035 53.7911 32.9487 53.7911ZM10.2372 52.8707H32.4956V48.2265H10.2372V52.8707Z"/>
<path d="M30.3575 56.0003H12.3752C12.1204 56.0003 11.9151 55.795 11.9151 55.5401V53.3313C11.9151 53.0764 12.1204 52.8711 12.3752 52.8711H30.3575C30.6124 52.8711 30.8177 53.0764 30.8177 53.3313V55.5401C30.8177 55.795 30.6124 56.0003 30.3575 56.0003ZM12.8354 55.0799H29.8974V53.7914H12.8354V55.0799Z"/>
<path d="M25.4655 26.2867C25.2602 26.2867 25.069 26.2159 24.9133 26.0814L21.3735 23.4973L17.777 26.1168C17.3947 26.3929 16.8283 26.2938 16.5522 25.9186C16.3894 25.692 16.3469 25.4088 16.4389 25.1398L17.8124 20.9132L14.2159 18.315C13.9115 18.0885 13.7841 17.6991 13.8974 17.3309C14.0177 16.9628 14.3434 16.7292 14.7257 16.7292L19.1717 16.7433L20.5381 12.5168C20.6513 12.1487 20.977 11.915 21.3593 11.915C21.7416 11.915 22.0743 12.1557 22.1947 12.5168L23.5611 16.7504L28 16.7363C28.3823 16.7363 28.715 16.977 28.8283 17.3451C28.9487 17.7133 28.8213 18.0956 28.5098 18.315L24.9062 20.9203L26.2938 25.1469C26.3859 25.4089 26.3434 25.692 26.1805 25.9186C26.0177 26.1451 25.7487 26.2867 25.4655 26.2867ZM21.3664 22.4708C21.4584 22.4708 21.5575 22.4991 21.6354 22.5628L25.4089 25.3168L23.9292 20.892C23.8655 20.7009 23.9363 20.4955 24.0991 20.3752L27.8513 17.6637L23.2283 17.6778C23.0301 17.6778 22.8531 17.5504 22.7894 17.3593L21.3664 12.9486L19.9434 17.3593C19.8796 17.5504 19.7027 17.7062 19.5044 17.6778L14.8673 17.6637L18.6266 20.3752C18.7894 20.4955 18.8531 20.7009 18.7965 20.892L17.3593 25.3097L21.1044 22.5628C21.1752 22.4991 21.2743 22.4708 21.3664 22.4708Z"/>
</mask>
<path d="M27.1859 48.2266H15.5398C15.0584 48.2266 14.662 47.8372 14.662 47.3558C14.662 47.1929 14.7115 47.0301 14.7965 46.8885C15.7452 45.0124 16.3965 43.3133 16.7575 41.7274C17.1186 40.1062 17.1681 38.6195 16.8991 37.1823C14.0389 36.3044 11.5115 34.6124 9.57874 32.2761C7.66724 29.9681 6.49205 27.2 6.1593 24.2549C4.48143 23.6743 2.96639 22.577 1.87612 21.1611C0.651345 19.554 0 17.6425 0 15.6248V5.56459C0 5.08318 0.389367 4.69381 0.870783 4.69381H6.06018V0.870783C6.06018 0.389367 6.44954 0 6.93096 0H35.7805C36.2619 0 36.6584 0.389367 36.6584 0.870783V4.69381H41.8549C42.3363 4.69381 42.7257 5.08318 42.7257 5.56459V15.6248C42.7257 17.6354 42.0743 19.554 40.8425 21.1611C39.7593 22.5841 38.2443 23.6743 36.5664 24.2549C36.2337 27.2 35.0584 29.9681 33.1469 32.2761C31.2142 34.6053 28.6867 36.2974 25.8336 37.1752C25.5575 38.662 25.6 40.1841 25.9681 41.8266C26.315 43.377 26.9451 44.9982 27.9575 46.9522C28.0637 47.1575 28.085 47.3912 28.0142 47.6177C27.9434 47.8372 27.7947 48.0212 27.5894 48.1274C27.4549 48.1982 27.3133 48.2266 27.1859 48.2266ZM0.892043 5.61416L0.920346 15.6319C0.920346 17.4443 1.50088 19.1646 2.60531 20.6088C3.63893 21.9611 5.10442 22.9805 6.71858 23.4832C6.89557 23.5398 7.02302 23.6956 7.04426 23.8796C7.30621 26.754 8.43184 29.4584 10.2867 31.7026C12.1628 33.9681 14.6265 35.5894 17.423 36.3894C17.5858 36.4389 17.7133 36.5664 17.7487 36.7363C18.0956 38.3859 18.0673 40.092 17.6566 41.9469C17.2814 43.6035 16.6088 45.3735 15.5964 47.3558L27.108 47.3203C26.0814 45.331 25.4372 43.6531 25.0761 42.046C24.6584 40.1841 24.6372 38.4425 24.9911 36.7433C25.0265 36.5734 25.1469 36.446 25.3168 36.3965C28.1062 35.5965 30.5699 33.9752 32.446 31.7097C34.3009 29.4655 35.4195 26.7611 35.6885 23.8867C35.7026 23.7027 35.8301 23.5469 36.0142 23.4903C37.6283 22.9876 39.0867 21.9681 40.1204 20.6159C41.2248 19.1717 41.8124 17.4513 41.8124 15.6389V5.59998L36.2124 5.62833C35.9576 5.62833 35.7522 5.423 35.7522 5.16813V0.899129L6.95931 0.927432L6.98761 5.16813C6.98761 5.423 6.78228 5.62833 6.52741 5.62833H0.892043V5.61416ZM36.2124 20.8566C36.1275 20.8566 36.0496 20.8354 35.9717 20.7929C35.8372 20.708 35.7522 20.5593 35.7522 20.3965V8.41771C35.7522 8.16284 35.9576 7.95752 36.2124 7.95752H39.2496C39.5044 7.95752 39.7097 8.16284 39.7097 8.41771V15.3911C39.7097 16.6301 39.3416 17.8195 38.6478 18.8318C38.0814 19.6602 37.3168 20.3469 36.4319 20.8071C36.354 20.8354 36.2832 20.8566 36.2124 20.8566ZM36.6726 8.87786V19.5682C37.1398 19.2213 37.5505 18.7965 37.8832 18.308C38.4708 17.4513 38.7894 16.4389 38.7894 15.3911V8.87786H36.6726ZM6.52741 20.8566C6.45662 20.8566 6.37875 20.8425 6.31503 20.8071C5.423 20.3469 4.65134 19.6602 4.08497 18.8248C3.39117 17.8124 3.02302 16.6301 3.02302 15.3911V8.41771C3.02302 8.16284 3.22831 7.95752 3.48317 7.95752H6.52741C6.78228 7.95752 6.98761 8.16284 6.98761 8.41771V20.3965C6.98761 20.5593 6.90265 20.708 6.76814 20.7929C6.69027 20.8354 6.60529 20.8566 6.52741 20.8566ZM3.94337 8.87786V15.3911C3.94337 16.4389 4.25485 17.4513 4.84954 18.308C5.18228 18.7965 5.59293 19.2283 6.06726 19.5752V8.87786H3.94337Z" fill="#E31E24"/>
<path d="M32.9487 53.7911H9.76991C9.51504 53.7911 9.30975 53.5858 9.30975 53.3309V47.7663C9.30975 47.5114 9.51504 47.3062 9.76991 47.3062H32.9487C33.2035 47.3062 33.4089 47.5114 33.4089 47.7663V53.3309C33.4159 53.5858 33.2035 53.7911 32.9487 53.7911ZM10.2372 52.8707H32.4956V48.2265H10.2372V52.8707Z" fill="#E31E24"/>
<path d="M30.3575 56.0003H12.3752C12.1204 56.0003 11.9151 55.795 11.9151 55.5401V53.3313C11.9151 53.0764 12.1204 52.8711 12.3752 52.8711H30.3575C30.6124 52.8711 30.8177 53.0764 30.8177 53.3313V55.5401C30.8177 55.795 30.6124 56.0003 30.3575 56.0003ZM12.8354 55.0799H29.8974V53.7914H12.8354V55.0799Z" fill="#E31E24"/>
<path d="M25.4655 26.2867C25.2602 26.2867 25.069 26.2159 24.9133 26.0814L21.3735 23.4973L17.777 26.1168C17.3947 26.3929 16.8283 26.2938 16.5522 25.9186C16.3894 25.692 16.3469 25.4088 16.4389 25.1398L17.8124 20.9132L14.2159 18.315C13.9115 18.0885 13.7841 17.6991 13.8974 17.3309C14.0177 16.9628 14.3434 16.7292 14.7257 16.7292L19.1717 16.7433L20.5381 12.5168C20.6513 12.1487 20.977 11.915 21.3593 11.915C21.7416 11.915 22.0743 12.1557 22.1947 12.5168L23.5611 16.7504L28 16.7363C28.3823 16.7363 28.715 16.977 28.8283 17.3451C28.9487 17.7133 28.8213 18.0956 28.5098 18.315L24.9062 20.9203L26.2938 25.1469C26.3859 25.4089 26.3434 25.692 26.1805 25.9186C26.0177 26.1451 25.7487 26.2867 25.4655 26.2867ZM21.3664 22.4708C21.4584 22.4708 21.5575 22.4991 21.6354 22.5628L25.4089 25.3168L23.9292 20.892C23.8655 20.7009 23.9363 20.4955 24.0991 20.3752L27.8513 17.6637L23.2283 17.6778C23.0301 17.6778 22.8531 17.5504 22.7894 17.3593L21.3664 12.9486L19.9434 17.3593C19.8796 17.5504 19.7027 17.7062 19.5044 17.6778L14.8673 17.6637L18.6266 20.3752C18.7894 20.4955 18.8531 20.7009 18.7965 20.892L17.3593 25.3097L21.1044 22.5628C21.1752 22.4991 21.2743 22.4708 21.3664 22.4708Z" fill="#E31E24"/>
<path d="M27.1859 48.2266H15.5398C15.0584 48.2266 14.662 47.8372 14.662 47.3558C14.662 47.1929 14.7115 47.0301 14.7965 46.8885C15.7452 45.0124 16.3965 43.3133 16.7575 41.7274C17.1186 40.1062 17.1681 38.6195 16.8991 37.1823C14.0389 36.3044 11.5115 34.6124 9.57874 32.2761C7.66724 29.9681 6.49205 27.2 6.1593 24.2549C4.48143 23.6743 2.96639 22.577 1.87612 21.1611C0.651345 19.554 0 17.6425 0 15.6248V5.56459C0 5.08318 0.389367 4.69381 0.870783 4.69381H6.06018V0.870783C6.06018 0.389367 6.44954 0 6.93096 0H35.7805C36.2619 0 36.6584 0.389367 36.6584 0.870783V4.69381H41.8549C42.3363 4.69381 42.7257 5.08318 42.7257 5.56459V15.6248C42.7257 17.6354 42.0743 19.554 40.8425 21.1611C39.7593 22.5841 38.2443 23.6743 36.5664 24.2549C36.2337 27.2 35.0584 29.9681 33.1469 32.2761C31.2142 34.6053 28.6867 36.2974 25.8336 37.1752C25.5575 38.662 25.6 40.1841 25.9681 41.8266C26.315 43.377 26.9451 44.9982 27.9575 46.9522C28.0637 47.1575 28.085 47.3912 28.0142 47.6177C27.9434 47.8372 27.7947 48.0212 27.5894 48.1274C27.4549 48.1982 27.3133 48.2266 27.1859 48.2266ZM0.892043 5.61416L0.920346 15.6319C0.920346 17.4443 1.50088 19.1646 2.60531 20.6088C3.63893 21.9611 5.10442 22.9805 6.71858 23.4832C6.89557 23.5398 7.02302 23.6956 7.04426 23.8796C7.30621 26.754 8.43184 29.4584 10.2867 31.7026C12.1628 33.9681 14.6265 35.5894 17.423 36.3894C17.5858 36.4389 17.7133 36.5664 17.7487 36.7363C18.0956 38.3859 18.0673 40.092 17.6566 41.9469C17.2814 43.6035 16.6088 45.3735 15.5964 47.3558L27.108 47.3203C26.0814 45.331 25.4372 43.6531 25.0761 42.046C24.6584 40.1841 24.6372 38.4425 24.9911 36.7433C25.0265 36.5734 25.1469 36.446 25.3168 36.3965C28.1062 35.5965 30.5699 33.9752 32.446 31.7097C34.3009 29.4655 35.4195 26.7611 35.6885 23.8867C35.7026 23.7027 35.8301 23.5469 36.0142 23.4903C37.6283 22.9876 39.0867 21.9681 40.1204 20.6159C41.2248 19.1717 41.8124 17.4513 41.8124 15.6389V5.59998L36.2124 5.62833C35.9576 5.62833 35.7522 5.423 35.7522 5.16813V0.899129L6.95931 0.927432L6.98761 5.16813C6.98761 5.423 6.78228 5.62833 6.52741 5.62833H0.892043V5.61416ZM36.2124 20.8566C36.1275 20.8566 36.0496 20.8354 35.9717 20.7929C35.8372 20.708 35.7522 20.5593 35.7522 20.3965V8.41771C35.7522 8.16284 35.9576 7.95752 36.2124 7.95752H39.2496C39.5044 7.95752 39.7097 8.16284 39.7097 8.41771V15.3911C39.7097 16.6301 39.3416 17.8195 38.6478 18.8318C38.0814 19.6602 37.3168 20.3469 36.4319 20.8071C36.354 20.8354 36.2832 20.8566 36.2124 20.8566ZM36.6726 8.87786V19.5682C37.1398 19.2213 37.5505 18.7965 37.8832 18.308C38.4708 17.4513 38.7894 16.4389 38.7894 15.3911V8.87786H36.6726ZM6.52741 20.8566C6.45662 20.8566 6.37875 20.8425 6.31503 20.8071C5.423 20.3469 4.65134 19.6602 4.08497 18.8248C3.39117 17.8124 3.02302 16.6301 3.02302 15.3911V8.41771C3.02302 8.16284 3.22831 7.95752 3.48317 7.95752H6.52741C6.78228 7.95752 6.98761 8.16284 6.98761 8.41771V20.3965C6.98761 20.5593 6.90265 20.708 6.76814 20.7929C6.69027 20.8354 6.60529 20.8566 6.52741 20.8566ZM3.94337 8.87786V15.3911C3.94337 16.4389 4.25485 17.4513 4.84954 18.308C5.18228 18.7965 5.59293 19.2283 6.06726 19.5752V8.87786H3.94337Z" stroke="#E31E24" stroke-width="0.4" mask="url(#path-1-outside-1_102_14254)"/>
<path d="M32.9487 53.7911H9.76991C9.51504 53.7911 9.30975 53.5858 9.30975 53.3309V47.7663C9.30975 47.5114 9.51504 47.3062 9.76991 47.3062H32.9487C33.2035 47.3062 33.4089 47.5114 33.4089 47.7663V53.3309C33.4159 53.5858 33.2035 53.7911 32.9487 53.7911ZM10.2372 52.8707H32.4956V48.2265H10.2372V52.8707Z" stroke="#E31E24" stroke-width="0.4" mask="url(#path-1-outside-1_102_14254)"/>
<path d="M30.3575 56.0003H12.3752C12.1204 56.0003 11.9151 55.795 11.9151 55.5401V53.3313C11.9151 53.0764 12.1204 52.8711 12.3752 52.8711H30.3575C30.6124 52.8711 30.8177 53.0764 30.8177 53.3313V55.5401C30.8177 55.795 30.6124 56.0003 30.3575 56.0003ZM12.8354 55.0799H29.8974V53.7914H12.8354V55.0799Z" stroke="#E31E24" stroke-width="0.4" mask="url(#path-1-outside-1_102_14254)"/>
<path d="M25.4655 26.2867C25.2602 26.2867 25.069 26.2159 24.9133 26.0814L21.3735 23.4973L17.777 26.1168C17.3947 26.3929 16.8283 26.2938 16.5522 25.9186C16.3894 25.692 16.3469 25.4088 16.4389 25.1398L17.8124 20.9132L14.2159 18.315C13.9115 18.0885 13.7841 17.6991 13.8974 17.3309C14.0177 16.9628 14.3434 16.7292 14.7257 16.7292L19.1717 16.7433L20.5381 12.5168C20.6513 12.1487 20.977 11.915 21.3593 11.915C21.7416 11.915 22.0743 12.1557 22.1947 12.5168L23.5611 16.7504L28 16.7363C28.3823 16.7363 28.715 16.977 28.8283 17.3451C28.9487 17.7133 28.8213 18.0956 28.5098 18.315L24.9062 20.9203L26.2938 25.1469C26.3859 25.4089 26.3434 25.692 26.1805 25.9186C26.0177 26.1451 25.7487 26.2867 25.4655 26.2867ZM21.3664 22.4708C21.4584 22.4708 21.5575 22.4991 21.6354 22.5628L25.4089 25.3168L23.9292 20.892C23.8655 20.7009 23.9363 20.4955 24.0991 20.3752L27.8513 17.6637L23.2283 17.6778C23.0301 17.6778 22.8531 17.5504 22.7894 17.3593L21.3664 12.9486L19.9434 17.3593C19.8796 17.5504 19.7027 17.7062 19.5044 17.6778L14.8673 17.6637L18.6266 20.3752C18.7894 20.4955 18.8531 20.7009 18.7965 20.892L17.3593 25.3097L21.1044 22.5628C21.1752 22.4991 21.2743 22.4708 21.3664 22.4708Z" stroke="#E31E24" stroke-width="0.4" mask="url(#path-1-outside-1_102_14254)"/>
</svg>
