<svg id="diamond" width="56" height="57" viewBox="0 0 56 57" fill="none" xmlns="http://www.w3.org/2000/svg">
<mask id="path-1-outside-1_102_14259" maskUnits="userSpaceOnUse" x="0" y="-1" width="56" height="58" fill="black">
<rect fill="white" y="-1" width="56" height="58"/>
<path d="M29.3148 55.9998C29.1662 55.9998 29.0318 55.9291 28.9469 55.8088L2.99469 20.2721C2.94518 20.2085 2.91688 20.1377 2.90274 20.0599C2.90274 20.0458 2.90274 20.0316 2.89567 20.0175C2.88859 19.9185 2.92396 19.8124 2.98763 19.7275C2.9947 19.7204 3.00177 19.7133 3.00884 19.7063L11.5393 9.50645C11.6242 9.40034 11.7586 9.34375 11.893 9.34375H46.7578C46.8922 9.34375 47.0265 9.40742 47.1114 9.50645L55.6419 19.7133C55.7905 19.8902 55.7834 20.1448 55.6278 20.3146L29.6897 55.823C29.6048 55.9291 29.4633 55.9998 29.3148 55.9998ZM4.26083 20.456L29.3148 54.762L54.3616 20.4773L4.26083 20.456ZM4.33863 19.5365L54.3192 19.5577L46.5385 10.2491H12.0981L4.33863 19.5365Z"/>
<path d="M29.3148 55.9998C29.1096 55.9998 28.9328 55.8654 28.8762 55.6673L18.6198 20.2013C18.5774 20.0599 18.6057 19.9113 18.6976 19.7982C18.7825 19.685 18.924 19.6143 19.0654 19.6143L39.5712 19.6284C39.7197 19.6284 39.8541 19.6991 39.939 19.8123C40.0239 19.9255 40.0522 20.0811 40.0097 20.2155L29.7604 55.6673C29.7038 55.8654 29.5199 55.9998 29.3148 55.9998ZM19.6737 20.5267L29.3148 53.8777L38.9558 20.5409L19.6737 20.5267Z"/>
<path d="M19.0442 20.463C18.9593 20.463 18.8745 20.4418 18.8037 20.3923C18.5915 20.2579 18.5208 19.975 18.6552 19.7557L25.0142 9.54171C25.1486 9.32951 25.4315 9.25878 25.6508 9.39318C25.863 9.52757 25.9337 9.8105 25.7993 10.0298L19.4403 20.2437C19.3484 20.3852 19.1998 20.463 19.0442 20.463Z"/>
<path d="M39.5924 20.4632C39.4368 20.4632 39.2882 20.3854 39.2034 20.244L32.8444 10.03C32.71 9.81779 32.7736 9.52779 32.9929 9.3934C33.2122 9.259 33.4951 9.32266 33.6295 9.54193L39.9885 19.7559C40.1229 19.9681 40.0593 20.2581 39.84 20.3925C39.7622 20.4349 39.6773 20.4632 39.5924 20.4632Z"/>
<path d="M5.626 10.2142C5.42087 10.2142 5.24403 10.0798 5.18744 9.88879L4.28205 6.93918L1.32538 6.03379C1.1344 5.9772 1 5.79329 1 5.59524C1 5.39011 1.1344 5.21328 1.32538 5.15669L4.27498 4.2513L5.18037 1.29461C5.23696 1.10363 5.42087 0.969238 5.61892 0.969238C5.82405 0.969238 6.00089 1.10363 6.05748 1.29461L6.96994 4.2513L9.92662 5.15669C10.1176 5.21328 10.252 5.39719 10.252 5.59524C10.252 5.80037 10.1176 5.9772 9.92662 6.03379L6.96994 6.93918L6.05748 9.88879C6.00089 10.0798 5.82406 10.2142 5.626 10.2142ZM3.03007 5.59524L4.78427 6.1328C4.93281 6.17524 5.04598 6.28843 5.08842 6.43698L5.626 8.19116L6.17066 6.43698C6.2131 6.28843 6.32626 6.17524 6.47481 6.1328L8.229 5.59524L6.47481 5.05766C6.32626 5.01522 6.2131 4.90205 6.17066 4.75351L5.626 2.99224L5.08842 4.75351C5.04598 4.90205 4.93281 5.01522 4.78427 5.05766L3.03007 5.59524Z"/>
<path d="M13.1874 6.60654C12.9823 6.60654 12.8055 6.47215 12.7489 6.28117L12.1547 4.33599L10.2095 3.74183C10.0185 3.68524 9.88416 3.50839 9.88416 3.30326C9.88416 3.09813 10.0185 2.9213 10.2095 2.86471L12.1547 2.26349L12.7489 0.32537C12.8055 0.134388 12.9894 0 13.1874 0C13.3926 0 13.5694 0.134388 13.626 0.32537L14.2272 2.26349L16.1653 2.86471C16.3563 2.9213 16.4907 3.10521 16.4907 3.30326C16.4907 3.50839 16.3563 3.68524 16.1653 3.74183L14.2272 4.33599L13.626 6.28117C13.5694 6.47215 13.3926 6.60654 13.1874 6.60654ZM11.9142 3.30326L12.664 3.52961C12.8125 3.57205 12.9257 3.68522 12.9681 3.83376L13.1945 4.57648L13.4208 3.83376C13.4633 3.68522 13.5765 3.57205 13.725 3.52961L14.4677 3.30326L13.7179 3.06985C13.5694 3.02741 13.4562 2.91424 13.4138 2.7657L13.1874 2.02298L12.9611 2.7657C12.9186 2.91424 12.8055 3.02741 12.6569 3.06985L11.9142 3.30326Z"/>
</mask>
<path d="M29.3148 55.9998C29.1662 55.9998 29.0318 55.9291 28.9469 55.8088L2.99469 20.2721C2.94518 20.2085 2.91688 20.1377 2.90274 20.0599C2.90274 20.0458 2.90274 20.0316 2.89567 20.0175C2.88859 19.9185 2.92396 19.8124 2.98763 19.7275C2.9947 19.7204 3.00177 19.7133 3.00884 19.7063L11.5393 9.50645C11.6242 9.40034 11.7586 9.34375 11.893 9.34375H46.7578C46.8922 9.34375 47.0265 9.40742 47.1114 9.50645L55.6419 19.7133C55.7905 19.8902 55.7834 20.1448 55.6278 20.3146L29.6897 55.823C29.6048 55.9291 29.4633 55.9998 29.3148 55.9998ZM4.26083 20.456L29.3148 54.762L54.3616 20.4773L4.26083 20.456ZM4.33863 19.5365L54.3192 19.5577L46.5385 10.2491H12.0981L4.33863 19.5365Z" fill="#E31E24"/>
<path d="M29.3148 55.9998C29.1096 55.9998 28.9328 55.8654 28.8762 55.6673L18.6198 20.2013C18.5774 20.0599 18.6057 19.9113 18.6976 19.7982C18.7825 19.685 18.924 19.6143 19.0654 19.6143L39.5712 19.6284C39.7197 19.6284 39.8541 19.6991 39.939 19.8123C40.0239 19.9255 40.0522 20.0811 40.0097 20.2155L29.7604 55.6673C29.7038 55.8654 29.5199 55.9998 29.3148 55.9998ZM19.6737 20.5267L29.3148 53.8777L38.9558 20.5409L19.6737 20.5267Z" fill="#E31E24"/>
<path d="M19.0442 20.463C18.9593 20.463 18.8745 20.4418 18.8037 20.3923C18.5915 20.2579 18.5208 19.975 18.6552 19.7557L25.0142 9.54171C25.1486 9.32951 25.4315 9.25878 25.6508 9.39318C25.863 9.52757 25.9337 9.8105 25.7993 10.0298L19.4403 20.2437C19.3484 20.3852 19.1998 20.463 19.0442 20.463Z" fill="#E31E24"/>
<path d="M39.5924 20.4632C39.4368 20.4632 39.2882 20.3854 39.2034 20.244L32.8444 10.03C32.71 9.81779 32.7736 9.52779 32.9929 9.3934C33.2122 9.259 33.4951 9.32266 33.6295 9.54193L39.9885 19.7559C40.1229 19.9681 40.0593 20.2581 39.84 20.3925C39.7622 20.4349 39.6773 20.4632 39.5924 20.4632Z" fill="#E31E24"/>
<path d="M5.626 10.2142C5.42087 10.2142 5.24403 10.0798 5.18744 9.88879L4.28205 6.93918L1.32538 6.03379C1.1344 5.9772 1 5.79329 1 5.59524C1 5.39011 1.1344 5.21328 1.32538 5.15669L4.27498 4.2513L5.18037 1.29461C5.23696 1.10363 5.42087 0.969238 5.61892 0.969238C5.82405 0.969238 6.00089 1.10363 6.05748 1.29461L6.96994 4.2513L9.92662 5.15669C10.1176 5.21328 10.252 5.39719 10.252 5.59524C10.252 5.80037 10.1176 5.9772 9.92662 6.03379L6.96994 6.93918L6.05748 9.88879C6.00089 10.0798 5.82406 10.2142 5.626 10.2142ZM3.03007 5.59524L4.78427 6.1328C4.93281 6.17524 5.04598 6.28843 5.08842 6.43698L5.626 8.19116L6.17066 6.43698C6.2131 6.28843 6.32626 6.17524 6.47481 6.1328L8.229 5.59524L6.47481 5.05766C6.32626 5.01522 6.2131 4.90205 6.17066 4.75351L5.626 2.99224L5.08842 4.75351C5.04598 4.90205 4.93281 5.01522 4.78427 5.05766L3.03007 5.59524Z" fill="#E31E24"/>
<path d="M13.1874 6.60654C12.9823 6.60654 12.8055 6.47215 12.7489 6.28117L12.1547 4.33599L10.2095 3.74183C10.0185 3.68524 9.88416 3.50839 9.88416 3.30326C9.88416 3.09813 10.0185 2.9213 10.2095 2.86471L12.1547 2.26349L12.7489 0.32537C12.8055 0.134388 12.9894 0 13.1874 0C13.3926 0 13.5694 0.134388 13.626 0.32537L14.2272 2.26349L16.1653 2.86471C16.3563 2.9213 16.4907 3.10521 16.4907 3.30326C16.4907 3.50839 16.3563 3.68524 16.1653 3.74183L14.2272 4.33599L13.626 6.28117C13.5694 6.47215 13.3926 6.60654 13.1874 6.60654ZM11.9142 3.30326L12.664 3.52961C12.8125 3.57205 12.9257 3.68522 12.9681 3.83376L13.1945 4.57648L13.4208 3.83376C13.4633 3.68522 13.5765 3.57205 13.725 3.52961L14.4677 3.30326L13.7179 3.06985C13.5694 3.02741 13.4562 2.91424 13.4138 2.7657L13.1874 2.02298L12.9611 2.7657C12.9186 2.91424 12.8055 3.02741 12.6569 3.06985L11.9142 3.30326Z" fill="#E31E24"/>
<path d="M28.9469 55.8088L29.1104 55.6935L29.1085 55.6909L28.9469 55.8088ZM2.99469 20.2721L3.15628 20.1541L3.15257 20.1494L2.99469 20.2721ZM2.90274 20.0599H2.70274V20.078L2.70596 20.0957L2.90274 20.0599ZM2.89567 20.0175L2.69618 20.0317L2.69901 20.0714L2.71678 20.1069L2.89567 20.0175ZM2.98763 19.7275L2.8462 19.5861L2.83615 19.5961L2.82763 19.6075L2.98763 19.7275ZM3.00884 19.7063L3.15027 19.8477L3.15656 19.8414L3.16226 19.8346L3.00884 19.7063ZM11.5393 9.50645L11.6928 9.63478L11.6955 9.63138L11.5393 9.50645ZM47.1114 9.50645L47.2649 9.37818L47.2633 9.37629L47.1114 9.50645ZM55.6419 19.7133L55.4885 19.8416L55.4888 19.842L55.6419 19.7133ZM55.6278 20.3146L55.4803 20.1794L55.4728 20.1876L55.4663 20.1966L55.6278 20.3146ZM29.6897 55.823L29.846 55.948L29.8512 55.9409L29.6897 55.823ZM4.26083 20.456L4.26091 20.256L3.86699 20.2559L4.09931 20.574L4.26083 20.456ZM29.3148 54.762L29.1533 54.8799L29.3148 55.101L29.4763 54.8799L29.3148 54.762ZM54.3616 20.4773L54.5231 20.5953L54.7553 20.2774L54.3617 20.2773L54.3616 20.4773ZM4.33863 19.5365L4.18515 19.4083L3.91107 19.7363L4.33855 19.7365L4.33863 19.5365ZM54.3192 19.5577L54.3191 19.7577L54.7472 19.7579L54.4727 19.4295L54.3192 19.5577ZM46.5385 10.2491L46.6919 10.1209L46.632 10.0491H46.5385V10.2491ZM12.0981 10.2491V10.0491H12.0046L11.9447 10.1209L12.0981 10.2491ZM28.8762 55.6673L29.0685 55.6124L29.0684 55.6118L28.8762 55.6673ZM18.6198 20.2013L18.812 20.1458L18.8114 20.1439L18.6198 20.2013ZM18.6976 19.7982L18.853 19.9244L18.8576 19.9182L18.6976 19.7982ZM19.0654 19.6143L19.0656 19.4143H19.0654V19.6143ZM39.5712 19.6284L39.5711 19.8284H39.5712V19.6284ZM40.0097 20.2155L39.819 20.1552L39.8176 20.1599L40.0097 20.2155ZM29.7604 55.6673L29.5683 55.6118L29.5681 55.6124L29.7604 55.6673ZM19.6737 20.5267L19.6739 20.3267L19.4077 20.3265L19.4816 20.5823L19.6737 20.5267ZM29.3148 53.8777L29.1226 53.9333L29.3147 54.5978L29.5069 53.9333L29.3148 53.8777ZM38.9558 20.5409L39.1479 20.5964L39.2218 20.3411L38.956 20.3409L38.9558 20.5409ZM18.8037 20.3923L18.9185 20.2283L18.9107 20.2233L18.8037 20.3923ZM18.6552 19.7557L18.4854 19.65L18.4847 19.6512L18.6552 19.7557ZM25.0142 9.54171L24.8452 9.4347L24.8444 9.43601L25.0142 9.54171ZM25.6508 9.39318L25.7578 9.22419L25.7553 9.22266L25.6508 9.39318ZM25.7993 10.0298L25.9691 10.1355L25.9698 10.1343L25.7993 10.0298ZM19.4403 20.2437L19.6081 20.3528L19.6101 20.3495L19.4403 20.2437ZM39.2034 20.244L39.3749 20.1411L39.3731 20.1383L39.2034 20.244ZM32.8444 10.03L33.0142 9.92429L33.0133 9.92299L32.8444 10.03ZM33.6295 9.54193L33.459 9.64645L33.4598 9.64763L33.6295 9.54193ZM39.9885 19.7559L39.8187 19.8616L39.8195 19.8629L39.9885 19.7559ZM39.84 20.3925L39.9359 20.5683L39.9445 20.563L39.84 20.3925ZM5.18744 9.88879L5.37921 9.83197L5.37864 9.8301L5.18744 9.88879ZM4.28205 6.93918L4.47325 6.88049L4.4421 6.77902L4.34061 6.74794L4.28205 6.93918ZM1.32538 6.03379L1.38394 5.84254L1.3822 5.84203L1.32538 6.03379ZM1.32538 5.15669L1.3822 5.34846L1.38407 5.34789L1.32538 5.15669ZM4.27498 4.2513L4.33367 4.4425L4.43514 4.41135L4.46622 4.30986L4.27498 4.2513ZM5.18037 1.29461L5.37162 1.35317L5.37213 1.35143L5.18037 1.29461ZM6.05748 1.29461L5.86571 1.35143L5.86637 1.35359L6.05748 1.29461ZM6.96994 4.2513L6.77883 4.31028L6.81008 4.41151L6.91138 4.44254L6.96994 4.2513ZM9.92662 5.15669L9.86806 5.34794L9.8698 5.34845L9.92662 5.15669ZM9.92662 6.03379L9.8698 5.84202L9.86806 5.84255L9.92662 6.03379ZM6.96994 6.93918L6.91138 6.74794L6.81016 6.77894L6.77887 6.88007L6.96994 6.93918ZM6.05748 9.88879L5.8664 9.82968L5.86572 9.83197L6.05748 9.88879ZM3.03007 5.59524L2.97147 5.40402L2.34748 5.59524L2.97147 5.78646L3.03007 5.59524ZM4.78427 6.1328L4.72566 6.32406L4.72932 6.32511L4.78427 6.1328ZM5.08842 6.43698L4.89608 6.49193L4.8972 6.49558L5.08842 6.43698ZM5.626 8.19116L5.43478 8.24976L5.62475 8.86967L5.81701 8.25047L5.626 8.19116ZM6.17066 6.43698L6.36171 6.49629L6.36296 6.49192L6.17066 6.43698ZM6.47481 6.1328L6.52976 6.32514L6.5334 6.32403L6.47481 6.1328ZM8.229 5.59524L8.2876 5.78646L8.9116 5.59524L8.2876 5.40402L8.229 5.59524ZM6.47481 5.05766L6.53342 4.8664L6.52975 4.86535L6.47481 5.05766ZM6.17066 4.75351L6.36301 4.69855L6.36173 4.69442L6.17066 4.75351ZM5.626 2.99224L5.81707 2.93315L5.62475 2.31123L5.43471 2.93385L5.626 2.99224ZM5.08842 4.75351L4.8971 4.69511L4.89611 4.69856L5.08842 4.75351ZM4.78427 5.05766L4.72931 4.86532L4.72567 4.86643L4.78427 5.05766ZM12.7489 6.28117L12.9406 6.22435L12.9401 6.22275L12.7489 6.28117ZM12.1547 4.33599L12.346 4.27756L12.3149 4.1758L12.2131 4.14471L12.1547 4.33599ZM10.2095 3.74183L10.268 3.55055L10.2663 3.55007L10.2095 3.74183ZM10.2095 2.86471L10.2663 3.05649L10.2686 3.05579L10.2095 2.86471ZM12.1547 2.26349L12.2138 2.45457L12.3149 2.42332L12.3459 2.32211L12.1547 2.26349ZM12.7489 0.32537L12.9401 0.383993L12.9406 0.382188L12.7489 0.32537ZM13.626 0.32537L13.4342 0.382192L13.435 0.384628L13.626 0.32537ZM14.2272 2.26349L14.0362 2.32275L14.0674 2.42332L14.168 2.45451L14.2272 2.26349ZM16.1653 2.86471L16.1061 3.05575L16.1085 3.05647L16.1653 2.86471ZM16.1653 3.74183L16.1085 3.55006L16.1067 3.55061L16.1653 3.74183ZM14.2272 4.33599L14.1686 4.14477L14.0674 4.1758L14.0361 4.27693L14.2272 4.33599ZM13.626 6.28117L13.4349 6.22211L13.4342 6.22435L13.626 6.28117ZM11.9142 3.30326L11.8543 3.11246L11.2349 3.3071L11.8564 3.49473L11.9142 3.30326ZM12.664 3.52961L12.6062 3.7211L12.609 3.72192L12.664 3.52961ZM12.9681 3.83376L12.7758 3.88872L12.7768 3.89207L12.9681 3.83376ZM13.1945 4.57648L13.0032 4.63479L13.1945 5.26253L13.3858 4.63479L13.1945 4.57648ZM13.4208 3.83376L13.6122 3.89208L13.6132 3.88871L13.4208 3.83376ZM13.725 3.52961L13.78 3.72195L13.7833 3.72093L13.725 3.52961ZM14.4677 3.30326L14.526 3.49457L15.1471 3.30529L14.5272 3.1123L14.4677 3.30326ZM13.7179 3.06985L13.7774 2.87883L13.7729 2.87754L13.7179 3.06985ZM13.4138 2.7657L13.6061 2.71074L13.6051 2.70739L13.4138 2.7657ZM13.1874 2.02298L13.3787 1.96468L13.1874 1.33692L12.9961 1.96467L13.1874 2.02298ZM12.9611 2.7657L12.7697 2.70738L12.7688 2.71075L12.9611 2.7657ZM12.6569 3.06985L12.602 2.87748L12.597 2.87905L12.6569 3.06985ZM29.3148 55.7998C29.2319 55.7998 29.1581 55.7612 29.1103 55.6935L28.7836 55.9242C28.9055 56.0969 29.1006 56.1998 29.3148 56.1998V55.7998ZM29.1085 55.6909L3.15621 20.1542L2.83318 20.3901L28.7854 55.9268L29.1085 55.6909ZM3.15257 20.1494C3.12586 20.115 3.10884 20.0755 3.09951 20.0242L2.70596 20.0957C2.72493 20.2 2.76451 20.3019 2.83682 20.3949L3.15257 20.1494ZM3.10274 20.0599C3.10274 20.0509 3.10567 19.9903 3.07455 19.928L2.71678 20.1069C2.70791 20.0892 2.70462 20.0733 2.7034 20.0635C2.70284 20.059 2.70274 20.056 2.70272 20.0555C2.70272 20.0554 2.70274 20.0559 2.70274 20.0599H3.10274ZM3.09516 20.0032C3.09201 19.9591 3.10847 19.8997 3.14762 19.8475L2.82763 19.6075C2.73946 19.725 2.68518 19.8778 2.69618 20.0317L3.09516 20.0032ZM3.12905 19.8689C3.13258 19.8654 3.13612 19.8618 3.13966 19.8583C3.14319 19.8548 3.14673 19.8512 3.15027 19.8477L2.86742 19.5648C2.86389 19.5684 2.86035 19.5719 2.85681 19.5754C2.85328 19.579 2.84974 19.5825 2.8462 19.5861L3.12905 19.8689ZM3.16226 19.8346L11.6928 9.63476L11.3859 9.37814L2.85543 19.5779L3.16226 19.8346ZM11.6955 9.63138C11.7378 9.57852 11.8116 9.54375 11.893 9.54375V9.14375C11.7057 9.14375 11.5106 9.22217 11.3832 9.38151L11.6955 9.63138ZM11.893 9.54375H46.7578V9.14375H11.893V9.54375ZM46.7578 9.54375C46.8328 9.54375 46.9121 9.58119 46.9596 9.6366L47.2633 9.37629C47.141 9.23364 46.9515 9.14375 46.7578 9.14375V9.54375ZM46.958 9.6347L55.4885 19.8416L55.7954 19.5851L47.2649 9.37819L46.958 9.6347ZM55.4888 19.842C55.572 19.9411 55.5689 20.0829 55.4803 20.1794L55.7752 20.4497C55.9979 20.2068 56.0089 19.8393 55.7951 19.5847L55.4888 19.842ZM55.4663 20.1966L29.5282 55.705L29.8512 55.9409L55.7893 20.4326L55.4663 20.1966ZM29.5335 55.698C29.4867 55.7565 29.4028 55.7998 29.3148 55.7998V56.1998C29.5238 56.1998 29.7228 56.1017 29.8458 55.9479L29.5335 55.698ZM4.09931 20.574L29.1533 54.8799L29.4763 54.644L4.42234 20.3381L4.09931 20.574ZM29.4763 54.8799L54.5231 20.5953L54.2001 20.3593L29.1533 54.644L29.4763 54.8799ZM54.3617 20.2773L4.26091 20.256L4.26074 20.656L54.3616 20.6773L54.3617 20.2773ZM4.33855 19.7365L54.3191 19.7577L54.3193 19.3577L4.33872 19.3365L4.33855 19.7365ZM54.4727 19.4295L46.6919 10.1209L46.385 10.3774L54.1658 19.686L54.4727 19.4295ZM46.5385 10.0491H12.0981V10.4491H46.5385V10.0491ZM11.9447 10.1209L4.18515 19.4083L4.49212 19.6647L12.2516 10.3774L11.9447 10.1209ZM29.3148 55.7998C29.1999 55.7998 29.1009 55.7255 29.0685 55.6124L28.6839 55.7223C28.7648 56.0053 29.0194 56.1998 29.3148 56.1998V55.7998ZM29.0684 55.6118L18.8119 20.1458L18.4277 20.2569L28.6841 55.7229L29.0684 55.6118ZM18.8114 20.1439C18.7875 20.0642 18.8037 19.9848 18.8528 19.9243L18.5424 19.672C18.4076 19.8379 18.3673 20.0555 18.4283 20.2588L18.8114 20.1439ZM18.8576 19.9182C18.9047 19.8553 18.9869 19.8143 19.0654 19.8143V19.4143C18.861 19.4143 18.6603 19.5146 18.5376 19.6782L18.8576 19.9182ZM19.0653 19.8143L39.5711 19.8284L39.5713 19.4284L19.0656 19.4143L19.0653 19.8143ZM39.5712 19.8284C39.6551 19.8284 39.7309 19.8681 39.779 19.9323L40.099 19.6923C39.9774 19.5301 39.7844 19.4284 39.5712 19.4284V19.8284ZM39.779 19.9323C39.8264 19.9955 39.8414 20.0842 39.819 20.1553L40.2005 20.2757C40.2629 20.0779 40.2214 19.8555 40.099 19.6923L39.779 19.9323ZM39.8176 20.1599L29.5683 55.6118L29.9525 55.7229L40.2019 20.271L39.8176 20.1599ZM29.5681 55.6124C29.5368 55.722 29.4333 55.7998 29.3148 55.7998V56.1998C29.6065 56.1998 29.8709 56.0088 29.9527 55.7223L29.5681 55.6124ZM19.4816 20.5823L29.1226 53.9333L29.5069 53.8222L19.8659 20.4712L19.4816 20.5823ZM29.5069 53.9333L39.1479 20.5964L38.7637 20.4853L29.1227 53.8222L29.5069 53.9333ZM38.956 20.3409L19.6739 20.3267L19.6736 20.7267L38.9557 20.7409L38.956 20.3409ZM19.0442 20.263C18.9916 20.263 18.949 20.2499 18.9184 20.2284L18.689 20.5561C18.7999 20.6337 18.9271 20.663 19.0442 20.663V20.263ZM18.9107 20.2233C18.789 20.1462 18.7496 19.9844 18.8257 19.8602L18.4847 19.6512C18.292 19.9655 18.394 20.3696 18.6967 20.5612L18.9107 20.2233ZM18.825 19.8614L25.184 9.64741L24.8444 9.43601L18.4854 19.65L18.825 19.8614ZM25.1831 9.64872C25.2602 9.527 25.4221 9.48757 25.5463 9.5637L25.7553 9.22266C25.4409 9.02999 25.0369 9.13202 24.8452 9.4347L25.1831 9.64872ZM25.5438 9.56214C25.6655 9.63924 25.7049 9.80108 25.6288 9.92526L25.9698 10.1343C26.1625 9.81993 26.0604 9.4159 25.7578 9.22421L25.5438 9.56214ZM25.6295 9.92407L19.2705 20.138L19.6101 20.3495L25.9691 10.1355L25.6295 9.92407ZM19.2726 20.1348C19.2172 20.22 19.1315 20.263 19.0442 20.263V20.663C19.2682 20.663 19.4795 20.5504 19.608 20.3527L19.2726 20.1348ZM39.5924 20.2632C39.5038 20.2632 39.422 20.2196 39.3749 20.1411L39.0319 20.3469C39.1545 20.5513 39.3697 20.6632 39.5924 20.6632V20.2632ZM39.3731 20.1383L33.0142 9.92429L32.6746 10.1357L39.0336 20.3497L39.3731 20.1383ZM33.0133 9.92299C32.938 9.80409 32.9743 9.63938 33.0974 9.56392L32.8884 9.22288C32.573 9.4162 32.4819 9.8315 32.6754 10.137L33.0133 9.92299ZM33.0974 9.56392C33.2254 9.48551 33.3841 9.52415 33.459 9.64644L33.8001 9.43742C33.6062 9.12116 33.199 9.0325 32.8884 9.22288L33.0974 9.56392ZM33.4598 9.64763L39.8187 19.8616L40.1583 19.6502L33.7993 9.43623L33.4598 9.64763ZM39.8195 19.8629C39.8949 19.9818 39.8586 20.1465 39.7355 20.222L39.9445 20.563C40.2599 20.3697 40.351 19.9544 40.1575 19.6489L39.8195 19.8629ZM39.7442 20.2169C39.6854 20.249 39.6337 20.2632 39.5924 20.2632V20.6632C39.7209 20.6632 39.8389 20.6209 39.9357 20.5681L39.7442 20.2169ZM5.626 10.0142C5.50954 10.0142 5.41065 9.93812 5.3792 9.83197L4.99568 9.94561C5.07741 10.2214 5.33221 10.4142 5.626 10.4142V10.0142ZM5.37864 9.8301L4.47325 6.88049L4.09086 6.99787L4.99625 9.94748L5.37864 9.8301ZM4.34061 6.74794L1.38394 5.84255L1.26682 6.22502L4.22349 7.13041L4.34061 6.74794ZM1.3822 5.84203C1.27778 5.81109 1.2 5.70645 1.2 5.59524H0.8C0.8 5.88014 0.991015 6.14331 1.26856 6.22555L1.3822 5.84203ZM1.2 5.59524C1.2 5.47879 1.27604 5.37991 1.3822 5.34845L1.26856 4.96493C0.992755 5.04666 0.8 5.30144 0.8 5.59524H1.2ZM1.38407 5.34789L4.33367 4.4425L4.21629 4.06011L1.26669 4.9655L1.38407 5.34789ZM4.46622 4.30986L5.37161 1.35317L4.98914 1.23605L4.08375 4.19274L4.46622 4.30986ZM5.37213 1.35143C5.40307 1.24702 5.50771 1.16924 5.61892 1.16924V0.769238C5.33403 0.769238 5.07085 0.960235 4.98862 1.23779L5.37213 1.35143ZM5.61892 1.16924C5.73539 1.16924 5.83427 1.24528 5.86572 1.35143L6.24924 1.23779C6.16751 0.96197 5.91271 0.769238 5.61892 0.769238V1.16924ZM5.86637 1.35359L6.77883 4.31028L7.16105 4.19232L6.24858 1.23563L5.86637 1.35359ZM6.91138 4.44254L9.86806 5.34793L9.98518 4.96546L7.0285 4.06007L6.91138 4.44254ZM9.8698 5.34845C9.97421 5.37939 10.052 5.48403 10.052 5.59524H10.452C10.452 5.31035 10.261 5.04717 9.98344 4.96493L9.8698 5.34845ZM10.052 5.59524C10.052 5.7117 9.97595 5.81058 9.8698 5.84203L9.98344 6.22555C10.2593 6.14382 10.452 5.88904 10.452 5.59524H10.052ZM9.86806 5.84255L6.91138 6.74794L7.0285 7.13041L9.98518 6.22502L9.86806 5.84255ZM6.77887 6.88007L5.86641 9.82969L6.24855 9.9479L7.16101 6.99829L6.77887 6.88007ZM5.86572 9.83197C5.83374 9.9399 5.73355 10.0142 5.626 10.0142V10.4142C5.91456 10.4142 6.16804 10.2196 6.24924 9.94561L5.86572 9.83197ZM2.97147 5.78646L4.72567 6.32403L4.84287 5.94158L3.08867 5.40402L2.97147 5.78646ZM4.72932 6.32511C4.81141 6.34856 4.87265 6.4098 4.89611 6.49192L5.28072 6.38203C5.2193 6.16706 5.05421 6.00193 4.83921 5.9405L4.72932 6.32511ZM4.8972 6.49558L5.43478 8.24976L5.81722 8.13256L5.27964 6.37837L4.8972 6.49558ZM5.81701 8.25047L6.36166 6.49628L5.97965 6.37767L5.435 8.13186L5.81701 8.25047ZM6.36296 6.49192C6.38642 6.4098 6.44767 6.34856 6.52975 6.32511L6.41986 5.9405C6.20486 6.00193 6.03977 6.16706 5.97835 6.38203L6.36296 6.49192ZM6.5334 6.32403L8.2876 5.78646L8.1704 5.40402L6.41621 5.94158L6.5334 6.32403ZM8.2876 5.40402L6.53341 4.86643L6.4162 5.24888L8.1704 5.78646L8.2876 5.40402ZM6.52975 4.86535C6.44765 4.84189 6.38642 4.78066 6.36296 4.69856L5.97835 4.80845C6.03977 5.02343 6.20488 5.18854 6.41986 5.24996L6.52975 4.86535ZM6.36173 4.69442L5.81707 2.93315L5.43493 3.05133L5.97958 4.81259L6.36173 4.69442ZM5.43471 2.93385L4.89713 4.69512L5.27971 4.81189L5.81729 3.05062L5.43471 2.93385ZM4.89611 4.69856C4.87266 4.78066 4.81142 4.84189 4.72932 4.86535L4.83921 5.24996C5.05419 5.18854 5.2193 5.02343 5.28072 4.80845L4.89611 4.69856ZM4.72567 4.86643L2.97147 5.40402L3.08867 5.78646L4.84287 5.24888L4.72567 4.86643ZM13.1874 6.40654C13.071 6.40654 12.9721 6.3305 12.9406 6.22435L12.5571 6.33799C12.6388 6.61381 12.8936 6.80654 13.1874 6.80654V6.40654ZM12.9401 6.22275L12.346 4.27756L11.9634 4.39442L12.5576 6.3396L12.9401 6.22275ZM12.2131 4.14471L10.268 3.55055L10.1511 3.9331L12.0963 4.52727L12.2131 4.14471ZM10.2663 3.55007C10.1602 3.51862 10.0842 3.41973 10.0842 3.30326H9.68416C9.68416 3.59704 9.87688 3.85186 10.1527 3.93359L10.2663 3.55007ZM10.0842 3.30326C10.0842 3.1868 10.1602 3.08792 10.2663 3.05647L10.1527 2.67295C9.87689 2.75468 9.68416 3.00946 9.68416 3.30326H10.0842ZM10.2686 3.05579L12.2138 2.45457L12.0956 2.07241L10.1505 2.67363L10.2686 3.05579ZM12.3459 2.32211L12.9401 0.38399L12.5577 0.266749L11.9635 2.20487L12.3459 2.32211ZM12.9406 0.382188C12.9716 0.277785 13.0762 0.2 13.1874 0.2V-0.2C12.9025 -0.2 12.6393 -0.00900858 12.5571 0.268552L12.9406 0.382188ZM13.1874 0.2C13.3039 0.2 13.4028 0.27604 13.4342 0.382187L13.8177 0.268552C13.736 -0.00726323 13.4812 -0.2 13.1874 -0.2V0.2ZM13.435 0.384628L14.0362 2.32275L14.4182 2.20423L13.817 0.266112L13.435 0.384628ZM14.168 2.45451L16.1061 3.05573L16.2246 2.67369L14.2865 2.07247L14.168 2.45451ZM16.1085 3.05647C16.2129 3.08741 16.2907 3.19205 16.2907 3.30326H16.6907C16.6907 3.01836 16.4997 2.75519 16.2221 2.67295L16.1085 3.05647ZM16.2907 3.30326C16.2907 3.41972 16.2146 3.51862 16.1085 3.55007L16.2221 3.93359C16.498 3.85186 16.6907 3.59705 16.6907 3.30326H16.2907ZM16.1067 3.55061L14.1686 4.14477L14.2858 4.52721L16.2239 3.93304L16.1067 3.55061ZM14.0361 4.27693L13.4349 6.22211L13.8171 6.34023L14.4183 4.39505L14.0361 4.27693ZM13.4342 6.22435C13.4028 6.3305 13.3039 6.40654 13.1874 6.40654V6.80654C13.4812 6.80654 13.736 6.61381 13.8177 6.33799L13.4342 6.22435ZM11.8564 3.49473L12.6062 3.72108L12.7218 3.33815L11.972 3.11179L11.8564 3.49473ZM12.609 3.72192C12.6911 3.74538 12.7524 3.80661 12.7758 3.88871L13.1604 3.77882C13.099 3.56384 12.9339 3.39873 12.7189 3.33731L12.609 3.72192ZM12.7768 3.89207L13.0032 4.63479L13.3858 4.51818L13.1595 3.77546L12.7768 3.89207ZM13.3858 4.63479L13.6122 3.89207L13.2295 3.77546L13.0032 4.51818L13.3858 4.63479ZM13.6132 3.88871C13.6366 3.80661 13.6978 3.74538 13.7799 3.72192L13.6701 3.33731C13.4551 3.39873 13.29 3.56384 13.2285 3.77882L13.6132 3.88871ZM13.7833 3.72093L14.526 3.49457L14.4094 3.11195L13.6667 3.3383L13.7833 3.72093ZM14.5272 3.1123L13.7774 2.87889L13.6585 3.26081L14.4083 3.49422L14.5272 3.1123ZM13.7729 2.87754C13.6908 2.85408 13.6295 2.79285 13.6061 2.71075L13.2215 2.82064C13.2829 3.03563 13.448 3.20073 13.663 3.26215L13.7729 2.87754ZM13.6051 2.70739L13.3787 1.96468L12.9961 2.08128L13.2225 2.824L13.6051 2.70739ZM12.9961 1.96467L12.7698 2.70739L13.1524 2.824L13.3787 2.08128L12.9961 1.96467ZM12.7688 2.71075C12.7453 2.79285 12.6841 2.85409 12.602 2.87754L12.7119 3.26215C12.9268 3.20073 13.092 3.03562 13.1534 2.82064L12.7688 2.71075ZM12.597 2.87905L11.8543 3.11246L11.9742 3.49406L12.7169 3.26065L12.597 2.87905Z" fill="#E31E24" mask="url(#path-1-outside-1_102_14259)"/>
</svg>
