<svg id="file" width="44" height="57" viewBox="0 0 44 57" fill="none" xmlns="http://www.w3.org/2000/svg">
<mask id="path-1-outside-1_102_14264" maskUnits="userSpaceOnUse" x="-1" y="-1" width="45" height="58" fill="black">
<rect fill="white" x="-1" y="-1" width="45" height="58"/>
<path d="M42.9963 55.9988H8.47318C8.21834 55.9988 8.01306 55.7935 8.01306 55.5387V8.18182C8.01306 7.92698 8.21834 7.72168 8.47318 7.72168H34.3744C34.4947 7.72168 34.615 7.77123 34.7 7.85618L43.329 16.4852C43.4139 16.5701 43.4635 16.6905 43.4635 16.8108V55.5316C43.4564 55.7935 43.2511 55.9988 42.9963 55.9988ZM42.5362 55.0786V17.009L34.1761 8.64899H8.92623V55.0786H42.5362Z"/>
<path d="M0.460136 48.2771C0.205301 48.2771 0 48.0718 0 47.817V0.460136C0 0.205301 0.205301 0 0.460136 0H34.9832C35.238 0 35.4433 0.205301 35.4433 0.460136C35.4433 0.714971 35.238 0.920229 34.9832 0.920229H0.920251V47.817C0.920251 48.0718 0.714971 48.2771 0.460136 48.2771Z"/>
<path d="M43.0102 17.2809C43.0102 17.2809 43.0031 17.2809 42.996 17.2809H34.367C34.1122 17.2809 33.9069 17.0756 33.9069 16.8208V8.19176C33.9069 8.00771 34.0202 7.8378 34.1901 7.76701C34.367 7.69622 34.5582 7.7387 34.6927 7.86612L43.2579 16.4385C43.3854 16.5234 43.4703 16.665 43.4703 16.8208C43.4703 17.0756 43.265 17.2809 43.0102 17.2809ZM34.8342 16.3606H41.8918L34.8342 9.30313V16.3606Z"/>
<path d="M25.7312 40.0814C20.946 40.0814 17.0598 36.181 17.0598 31.3958C17.0598 26.6106 20.9531 22.7173 25.7312 22.7173C30.5235 22.7173 34.4169 26.6106 34.4169 31.3958C34.4169 36.181 30.5235 40.0814 25.7312 40.0814ZM25.7312 23.6375C21.4557 23.6375 17.98 27.1202 17.98 31.3958C17.98 35.6784 21.4557 39.1612 25.7312 39.1612C30.0139 39.1612 33.4966 35.6784 33.4966 31.3958C33.4966 27.1132 30.0139 23.6375 25.7312 23.6375Z"/>
<path d="M27.8762 23.9171C27.8338 23.9171 27.7913 23.91 27.7559 23.903C26.4605 23.542 25.0306 23.542 23.721 23.903C23.5865 23.9384 23.4308 23.91 23.3175 23.8251C23.2043 23.7401 23.1335 23.6057 23.1335 23.457V19.8468C23.1335 19.592 23.3388 19.3867 23.5936 19.3867H27.8692C28.124 19.3867 28.3293 19.592 28.3293 19.8468V23.457C28.3293 23.5986 28.2656 23.733 28.1452 23.8251C28.0744 23.8888 27.9753 23.9171 27.8762 23.9171ZM25.7314 22.7137C26.2977 22.7137 26.864 22.7704 27.4161 22.8765V20.3069H24.0608V22.8765C24.6059 22.7633 25.1651 22.7137 25.7314 22.7137Z"/>
<path d="M33.6808 29.742C33.6241 29.742 33.5604 29.7278 33.5038 29.7065C33.3693 29.6499 33.2702 29.5366 33.2348 29.4021C33.0578 28.7367 32.7959 28.0997 32.4561 27.5192C32.1164 26.9246 31.6987 26.3796 31.2173 25.8982C31.1182 25.7991 31.0687 25.6575 31.0899 25.5159C31.1112 25.3743 31.189 25.2469 31.3165 25.1762L34.4453 23.3711C34.5514 23.3074 34.6789 23.2932 34.7921 23.3215C34.9125 23.3498 35.0116 23.4277 35.0682 23.5339L37.206 27.2431C37.3334 27.4626 37.2555 27.7457 37.0361 27.8732L33.9073 29.6782C33.8436 29.7207 33.7586 29.742 33.6808 29.742ZM32.2721 25.6788C32.6402 26.1035 32.9729 26.5636 33.2489 27.0591C33.5321 27.5404 33.7586 28.0572 33.9427 28.5952L36.1725 27.3069L34.4948 24.3975L32.2721 25.6788Z"/>
<path d="M34.672 39.4761C34.5941 39.4761 34.5092 39.4549 34.4384 39.4124L31.3096 37.6073C31.1822 37.5366 31.1043 37.4092 31.0831 37.2676C31.0618 37.126 31.1114 36.9844 31.2176 36.8782C31.6918 36.411 32.1095 35.866 32.4564 35.2714C32.7891 34.6909 33.051 34.0538 33.235 33.3813C33.2704 33.2468 33.3695 33.1336 33.504 33.0769C33.6314 33.0203 33.7872 33.0345 33.9075 33.1053L37.0363 34.9103C37.2557 35.0378 37.3336 35.3209 37.2062 35.5404L35.0684 39.2425C35.0047 39.3487 34.9056 39.4266 34.7853 39.4549C34.7499 39.4761 34.7145 39.4761 34.672 39.4761ZM32.2794 37.1047L34.5021 38.3931L36.1798 35.4908L33.95 34.2025C33.7659 34.7405 33.5323 35.2572 33.2563 35.7385C32.9731 36.227 32.6404 36.6871 32.2794 37.1047Z"/>
<path d="M27.876 43.4086H23.6005C23.3456 43.4086 23.1403 43.2033 23.1403 42.9485V39.3383C23.1403 39.1967 23.204 39.0622 23.3244 38.9702C23.4376 38.8853 23.5863 38.857 23.7279 38.8923C25.0304 39.2534 26.4603 39.2534 27.7627 38.8923C27.9043 38.857 28.053 38.8853 28.1662 38.9702C28.2795 39.0551 28.3503 39.1897 28.3503 39.3383V42.9485C28.3361 43.2033 28.1308 43.4086 27.876 43.4086ZM24.0606 42.4884H27.4159V39.9188C26.3187 40.1382 25.1578 40.1382 24.0606 39.9188V42.4884Z"/>
<path d="M16.8048 39.4803C16.6491 39.4803 16.4933 39.3953 16.4084 39.2467L14.2706 35.5445C14.2069 35.4383 14.1927 35.3109 14.2211 35.1976C14.2494 35.0773 14.3272 34.9782 14.4334 34.9216L17.5622 33.1165C17.6826 33.0457 17.8383 33.0315 17.9657 33.0882C18.1002 33.1448 18.1993 33.258 18.2347 33.3925C18.4117 34.0579 18.6736 34.688 19.0134 35.2755C19.3602 35.8701 19.7779 36.4152 20.2522 36.8965C20.3513 36.9956 20.4008 37.1372 20.3796 37.2788C20.3583 37.4203 20.2734 37.5478 20.153 37.6186L17.0313 39.4166C16.9605 39.4661 16.8827 39.4803 16.8048 39.4803ZM15.2899 35.4879L16.9676 38.3972L19.1903 37.116C18.8222 36.6912 18.4966 36.2311 18.2135 35.7427C17.9303 35.2543 17.6967 34.7375 17.5127 34.2066L15.2899 35.4879Z"/>
<path d="M17.796 29.7461C17.7181 29.7461 17.6403 29.7248 17.5624 29.6824L14.4336 27.8773C14.2141 27.7499 14.1363 27.4667 14.2637 27.2473L16.4015 23.5451C16.4652 23.4389 16.5643 23.3611 16.6776 23.3328C16.7979 23.3044 16.9182 23.3186 17.0244 23.3823L20.1461 25.1874C20.2736 25.2582 20.3514 25.3856 20.3727 25.5271C20.3939 25.6687 20.3444 25.8103 20.2382 25.9094C19.7639 26.3766 19.3463 26.9217 18.9994 27.5234C18.6596 28.1109 18.3977 28.748 18.2207 29.4063C18.1853 29.5479 18.0862 29.6611 17.9517 29.7107C17.9163 29.7319 17.8526 29.7461 17.796 29.7461ZM15.2901 27.311L17.5199 28.5993C17.704 28.0684 17.9376 27.5517 18.2207 27.0632C18.5039 26.5677 18.8366 26.1147 19.1976 25.697L16.9749 24.4087L15.2901 27.311Z"/>
<path d="M25.7314 35.9682C23.2114 35.9682 21.1586 33.9154 21.1586 31.3954C21.1586 28.8753 23.2114 26.8296 25.7314 26.8296C28.2515 26.8296 30.3043 28.8753 30.3043 31.3954C30.3043 33.9154 28.2586 35.9682 25.7314 35.9682ZM25.7314 27.7498C23.7211 27.7498 22.0859 29.385 22.0859 31.3954C22.0859 33.4128 23.7211 35.048 25.7314 35.048C27.7489 35.048 29.3841 33.4057 29.3841 31.3954C29.3841 29.385 27.7489 27.7498 25.7314 27.7498Z"/>
<path d="M31.5079 50.8553C31.4866 50.8553 31.4725 50.8553 31.4512 50.8553C31.43 50.8553 31.4088 50.8553 31.3875 50.8553C31.3663 50.8553 31.345 50.8553 31.3238 50.8553C31.3026 50.8553 31.2813 50.8553 31.2601 50.8553C31.2389 50.8553 31.2176 50.8553 31.1964 50.8553C31.1752 50.8553 31.1539 50.8553 31.1327 50.8553C31.1114 50.8553 31.0902 50.8553 31.069 50.8553C31.0477 50.8553 31.0265 50.8553 31.0053 50.8553C30.984 50.8553 30.9628 50.8553 30.9416 50.8553C30.9203 50.8553 30.8991 50.8553 30.8779 50.8553C30.8566 50.8553 30.8354 50.8553 30.8142 50.8553C30.7929 50.8553 30.7717 50.8553 30.7504 50.8553C30.7292 50.8553 30.708 50.8553 30.6867 50.8553C30.6655 50.8553 30.6442 50.8553 30.623 50.8553C30.6018 50.8553 30.5805 50.8553 30.5593 50.8553C30.5381 50.8553 30.5168 50.8553 30.4956 50.8553C30.4744 50.8553 30.4531 50.8553 30.4319 50.8553C30.4107 50.8553 30.3894 50.8553 30.3682 50.8553C30.347 50.8553 30.3257 50.8553 30.3045 50.8553C30.2832 50.8553 30.262 50.8553 30.2408 50.8553C30.2195 50.8553 30.1983 50.8553 30.177 50.8553C30.1558 50.8553 30.1346 50.8553 30.1133 50.8553C30.0921 50.8553 30.0709 50.8553 30.0496 50.8553C30.0284 50.8553 30.0072 50.8553 29.9859 50.8553C29.9647 50.8553 29.9435 50.8553 29.9222 50.8553C29.901 50.8553 29.8798 50.8553 29.8585 50.8553C29.8373 50.8553 29.816 50.8553 29.7948 50.8553C29.7736 50.8553 29.7523 50.8553 29.7311 50.8553C29.7098 50.8553 29.6886 50.8553 29.6674 50.8553C29.6461 50.8553 29.6249 50.8553 29.6037 50.8553C29.5824 50.8553 29.5612 50.8553 29.54 50.8553C29.5187 50.8553 29.4975 50.8553 29.4763 50.8553C29.455 50.8553 29.4338 50.8553 29.4125 50.8553C29.3913 50.8553 29.3701 50.8553 29.3488 50.8553C29.3276 50.8553 29.3064 50.8553 29.2851 50.8553C29.2639 50.8553 29.2427 50.8553 29.2214 50.8553C29.2002 50.8553 29.1789 50.8553 29.1577 50.8553C29.1365 50.8553 29.1152 50.8553 29.094 50.8553C29.0728 50.8553 29.0515 50.8553 29.0303 50.8553C29.0091 50.8553 28.9878 50.8553 28.9666 50.8553C28.9453 50.8553 28.9241 50.8553 28.9029 50.8553C28.8816 50.8553 28.8604 50.8553 28.8392 50.8553C28.8179 50.8553 28.7967 50.8553 28.7755 50.8553C28.7542 50.8553 28.733 50.8553 28.7118 50.8553C28.6905 50.8553 28.6693 50.8553 28.648 50.8553C28.6268 50.8553 28.6056 50.8553 28.5843 50.8553C28.5631 50.8553 28.5419 50.8553 28.5206 50.8553C28.4994 50.8553 28.4781 50.8553 28.4569 50.8553C28.4357 50.8553 28.4144 50.8553 28.3932 50.8553C28.372 50.8553 28.3507 50.8553 28.3295 50.8553C28.3083 50.8553 28.287 50.8553 28.2658 50.8553C28.2446 50.8553 28.2233 50.8553 28.2021 50.8553C28.1809 50.8553 28.1596 50.8553 28.1384 50.8553C28.1171 50.8553 28.0959 50.8553 28.0747 50.8553C28.0534 50.8553 28.0322 50.8553 28.0109 50.8553C27.9897 50.8553 27.9685 50.8553 27.9472 50.8553C27.926 50.8553 27.9048 50.8553 27.8835 50.8553C27.8623 50.8553 27.8411 50.8553 27.8198 50.8553C27.7986 50.8553 27.7774 50.8553 27.7561 50.8553C27.7349 50.8553 27.7137 50.8553 27.6924 50.8553C27.6712 50.8553 27.6499 50.8553 27.6287 50.8553C27.6075 50.8553 27.5862 50.8553 27.565 50.8553C27.5437 50.8553 27.5225 50.8553 27.5013 50.8553C27.48 50.8553 27.4588 50.8553 27.4376 50.8553C27.4163 50.8553 27.3951 50.8553 27.3739 50.8553C27.3526 50.8553 27.3314 50.8553 27.3102 50.8553C27.2889 50.8553 27.2677 50.8553 27.2465 50.8553C27.2252 50.8553 27.204 50.8553 27.1827 50.8553C27.1615 50.8553 27.1403 50.8553 27.119 50.8553C27.0978 50.8553 27.0765 50.8553 27.0553 50.8553C27.0341 50.8553 27.0128 50.8553 26.9916 50.8553C26.9704 50.8553 26.9491 50.8553 26.9279 50.8553C26.9067 50.8553 26.8854 50.8553 26.8642 50.8553C26.843 50.8553 26.8217 50.8553 26.8005 50.8553C26.7793 50.8553 26.758 50.8553 26.7368 50.8553C26.7155 50.8553 26.6943 50.8553 26.6731 50.8553C26.6518 50.8553 26.6306 50.8553 26.6094 50.8553C26.5881 50.8553 26.5669 50.8553 26.5456 50.8553C26.5244 50.8553 26.5032 50.8553 26.4819 50.8553C26.4607 50.8553 26.4395 50.8553 26.4182 50.8553C26.397 50.8553 26.3758 50.8553 26.3545 50.8553C26.3333 50.8553 26.3121 50.8553 26.2908 50.8553C26.2696 50.8553 26.2483 50.8553 26.2271 50.8553C26.2059 50.8553 26.1846 50.8553 26.1634 50.8553C26.1422 50.8553 26.1209 50.8553 26.0997 50.8553C26.0785 50.8553 26.0572 50.8553 26.036 50.8553C26.0148 50.8553 25.9935 50.8553 25.9723 50.8553C25.951 50.8553 25.9298 50.8553 25.9086 50.8553C25.8873 50.8553 25.8661 50.8553 25.8449 50.8553C25.8236 50.8553 25.8024 50.8553 25.7811 50.8553C25.7599 50.8553 25.7387 50.8553 25.7174 50.8553C25.6962 50.8553 25.675 50.8553 25.6537 50.8553C25.6325 50.8553 25.6113 50.8553 25.59 50.8553C25.5688 50.8553 25.5476 50.8553 25.5263 50.8553C25.5051 50.8553 25.4838 50.8553 25.4626 50.8553C25.4414 50.8553 25.4201 50.8553 25.3989 50.8553C25.3777 50.8553 25.3564 50.8553 25.3352 50.8553C25.3139 50.8553 25.2927 50.8553 25.2715 50.8553C25.2502 50.8553 25.229 50.8553 25.2078 50.8553C25.1865 50.8553 25.1653 50.8553 25.1441 50.8553C25.1228 50.8553 25.1016 50.8553 25.0804 50.8553C25.0591 50.8553 25.0379 50.8553 25.0167 50.8553C24.9954 50.8553 24.9742 50.8553 24.9529 50.8553C24.9317 50.8553 24.9105 50.8553 24.8892 50.8553C24.868 50.8553 24.8467 50.8553 24.8255 50.8553C24.8043 50.8553 24.783 50.8553 24.7618 50.8553C24.7406 50.8553 24.7193 50.8553 24.6981 50.8553C24.6769 50.8553 24.6556 50.8553 24.6344 50.8553C24.6132 50.8553 24.5919 50.8553 24.5707 50.8553C24.5494 50.8553 24.5282 50.8553 24.507 50.8553C24.4857 50.8553 24.4645 50.8553 24.4433 50.8553C24.422 50.8553 24.4008 50.8553 24.3795 50.8553C24.3583 50.8553 24.3371 50.8553 24.3158 50.8553C24.2946 50.8553 24.2734 50.8553 24.2521 50.8553C24.2309 50.8553 24.2097 50.8553 24.1884 50.8553C24.1672 50.8553 24.146 50.8553 24.1247 50.8553C24.1035 50.8553 24.0823 50.8553 24.061 50.8553C24.0398 50.8553 24.0185 50.8553 23.9973 50.8553C23.9761 50.8553 23.9548 50.8553 23.9336 50.8553C23.9124 50.8553 23.8911 50.8553 23.8699 50.8553C23.8486 50.8553 23.8274 50.8553 23.8062 50.8553C23.7849 50.8553 23.7637 50.8553 23.7425 50.8553C23.7212 50.8553 23.7 50.8553 23.6788 50.8553C23.6575 50.8553 23.6363 50.8553 23.615 50.8553C23.5938 50.8553 23.5726 50.8553 23.5513 50.8553C23.5301 50.8553 23.5089 50.8553 23.4876 50.8553C23.4664 50.8553 23.4452 50.8553 23.4239 50.8553C23.4027 50.8553 23.3814 50.8553 23.3602 50.8553C23.339 50.8553 23.3177 50.8553 23.2965 50.8553C23.2753 50.8553 23.254 50.8553 23.2328 50.8553C23.2116 50.8553 23.1903 50.8553 23.1691 50.8553C23.1478 50.8553 23.1266 50.8553 23.1054 50.8553C23.0841 50.8553 23.0629 50.8553 23.0417 50.8553C23.0204 50.8553 22.9992 50.8553 22.978 50.8553C22.9567 50.8553 22.9355 50.8553 22.9143 50.8553C22.893 50.8553 22.8718 50.8553 22.8506 50.8553C22.8293 50.8553 22.8081 50.8553 22.7868 50.8553C22.7656 50.8553 22.7444 50.8553 22.7231 50.8553C22.7019 50.8553 22.6807 50.8553 22.6594 50.8553C22.6382 50.8553 22.6169 50.8553 22.5957 50.8553C22.5745 50.8553 22.5532 50.8553 22.532 50.8553C22.5108 50.8553 22.4895 50.8553 22.4683 50.8553C22.4471 50.8553 22.4258 50.8553 22.4046 50.8553C22.3834 50.8553 22.3621 50.8553 22.3409 50.8553C22.3196 50.8553 22.2984 50.8553 22.2772 50.8553C22.2559 50.8553 22.2347 50.8553 22.2134 50.8553C22.1922 50.8553 22.171 50.8553 22.1497 50.8553C22.1285 50.8553 22.1073 50.8553 22.086 50.8553C22.0648 50.8553 22.0436 50.8553 22.0223 50.8553C22.0011 50.8553 21.9799 50.8553 21.9586 50.8553C21.9374 50.8553 21.9162 50.8553 21.8949 50.8553C21.8737 50.8553 21.8524 50.8553 21.8312 50.8553C21.81 50.8553 21.7887 50.8553 21.7675 50.8553C21.7462 50.8553 21.725 50.8553 21.7038 50.8553C21.6825 50.8553 21.6613 50.8553 21.6401 50.8553C21.6188 50.8553 21.5976 50.8553 21.5764 50.8553C21.5551 50.8553 21.5339 50.8553 21.5127 50.8553C21.4914 50.8553 21.4702 50.8553 21.449 50.8553C21.4277 50.8553 21.4065 50.8553 21.3852 50.8553C21.364 50.8553 21.3428 50.8553 21.3215 50.8553C21.3003 50.8553 21.2791 50.8553 21.2578 50.8553C21.2366 50.8553 21.2153 50.8553 21.1941 50.8553C21.1729 50.8553 21.1516 50.8553 21.1304 50.8553C21.1092 50.8553 21.0879 50.8553 21.0667 50.8553C21.0455 50.8553 21.0242 50.8553 21.003 50.8553C20.9818 50.8553 20.9605 50.8553 20.9393 50.8553C20.918 50.8553 20.8968 50.8553 20.8756 50.8553C20.8543 50.8553 20.8331 50.8553 20.8119 50.8553C20.7906 50.8553 20.7694 50.8553 20.7482 50.8553C20.7269 50.8553 20.7057 50.8553 20.6844 50.8553C20.6632 50.8553 20.642 50.8553 20.6207 50.8553C20.5995 50.8553 20.5783 50.8553 20.557 50.8553C20.5358 50.8553 20.5146 50.8553 20.4933 50.8553C20.4721 50.8553 20.4508 50.8553 20.4296 50.8553C20.4084 50.8553 20.3871 50.8553 20.3659 50.8553C20.3447 50.8553 20.3234 50.8553 20.3022 50.8553C20.281 50.8553 20.2597 50.8553 20.2385 50.8553C20.2173 50.8553 20.196 50.8553 20.1748 50.8553C19.9199 50.8553 19.7005 50.65 19.7005 50.3952C19.7005 50.1404 19.8916 49.9351 20.1465 49.9351H20.1819C20.1889 49.9351 20.2031 49.9351 20.2173 49.9351H20.2456C20.2526 49.9351 20.2668 49.9351 20.281 49.9351H20.3163C20.3234 49.9351 20.3376 49.9351 20.3517 49.9351H20.3871C20.3942 49.9351 20.4084 49.9351 20.4225 49.9351H20.4508C20.4579 49.9351 20.4721 49.9351 20.4862 49.9351H20.5216C20.5287 49.9351 20.5429 49.9351 20.557 49.9351H20.5924C20.5995 49.9351 20.6137 49.9351 20.6278 49.9351H20.6632C20.6703 49.9351 20.6844 49.9351 20.6986 49.9351H20.734C20.7411 49.9351 20.7552 49.9351 20.7694 49.9351H20.8048C20.8119 49.9351 20.826 49.9351 20.8402 49.9351H20.8685C20.8756 49.9351 20.8897 49.9351 20.9039 49.9351H20.9393C20.9464 49.9351 20.9605 49.9351 20.9747 49.9351H21.0101C21.0172 49.9351 21.0313 49.9351 21.0455 49.9351H21.0738C21.0809 49.9351 21.095 49.9351 21.1092 49.9351H21.1446C21.1516 49.9351 21.1658 49.9351 21.18 49.9351H21.2153C21.2224 49.9351 21.2366 49.9351 21.2507 49.9351H21.2791C21.2861 49.9351 21.3003 49.9351 21.3145 49.9351H21.3498C21.3569 49.9351 21.3711 49.9351 21.3852 49.9351H21.4206C21.4277 49.9351 21.4419 49.9351 21.456 49.9351H21.4843C21.4914 49.9351 21.5056 49.9351 21.5197 49.9351H21.5551C21.5622 49.9351 21.5764 49.9351 21.5905 49.9351H21.6259C21.633 49.9351 21.6471 49.9351 21.6613 49.9351H21.6896C21.6967 49.9351 21.7109 49.9351 21.725 49.9351H21.7604C21.7675 49.9351 21.7816 49.9351 21.7958 49.9351H21.8312C21.8383 49.9351 21.8524 49.9351 21.8666 49.9351H21.8949C21.902 49.9351 21.9161 49.9351 21.9303 49.9351H21.9657C21.9728 49.9351 21.9869 49.9351 22.0011 49.9351H22.0365C22.0436 49.9351 22.0577 49.9351 22.0719 49.9351H22.1073C22.1143 49.9351 22.1285 49.9351 22.1427 49.9351H22.1781C22.1851 49.9351 22.1993 49.9351 22.2134 49.9351H22.2489C22.2559 49.9351 22.2701 49.9351 22.2842 49.9351H22.3126C22.3196 49.9351 22.3338 49.9351 22.3479 49.9351H22.3834C22.3904 49.9351 22.4046 49.9351 22.4187 49.9351H22.4541C22.4612 49.9351 22.4754 49.9351 22.4895 49.9351H22.5179C22.5249 49.9351 22.5391 49.9351 22.5532 49.9351H22.5886C22.5957 49.9351 22.6099 49.9351 22.624 49.9351H22.6594C22.6665 49.9351 22.6807 49.9351 22.6948 49.9351H22.7231C22.7302 49.9351 22.7444 49.9351 22.7585 49.9351H22.7939C22.801 49.9351 22.8151 49.9351 22.8293 49.9351H22.8647C22.8718 49.9351 22.8859 49.9351 22.9001 49.9351H22.9284C22.9355 49.9351 22.9496 49.9351 22.9638 49.9351H22.9992C23.0063 49.9351 23.0204 49.9351 23.0346 49.9351H23.07C23.0771 49.9351 23.0912 49.9351 23.1054 49.9351H23.1337C23.1408 49.9351 23.1549 49.9351 23.1691 49.9351H23.2045C23.2116 49.9351 23.2257 49.9351 23.2399 49.9351H23.2753C23.2823 49.9351 23.2965 49.9351 23.3107 49.9351H23.339C23.346 49.9351 23.3602 49.9351 23.3744 49.9351H23.4098C23.4168 49.9351 23.431 49.9351 23.4452 49.9351H23.4806C23.4876 49.9351 23.5018 49.9351 23.5159 49.9351H23.5443C23.5513 49.9351 23.5655 49.9351 23.5797 49.9351H23.615C23.6221 49.9351 23.6363 49.9351 23.6504 49.9351H23.6858C23.6929 49.9351 23.7071 49.9351 23.7212 49.9351H23.7495C23.7566 49.9351 23.7708 49.9351 23.7849 49.9351H23.8203C23.8274 49.9351 23.8416 49.9351 23.8557 49.9351H23.8911C23.8982 49.9351 23.9124 49.9351 23.9265 49.9351H23.9548C23.9619 49.9351 23.9761 49.9351 23.9902 49.9351H24.0256C24.0327 49.9351 24.0469 49.9351 24.061 49.9351H24.0964C24.1035 49.9351 24.1176 49.9351 24.1318 49.9351H24.1601C24.1672 49.9351 24.1814 49.9351 24.1955 49.9351H23.8133C23.8203 49.9351 23.8345 49.9351 23.8486 49.9351H23.884C23.8911 49.9351 23.9053 49.9351 23.9194 49.9351H23.9478C23.9548 49.9351 23.969 49.9351 23.9831 49.9351H24.0185C24.0256 49.9351 24.0398 49.9351 24.0539 49.9351H24.0893C24.0964 49.9351 24.1106 49.9351 24.1247 49.9351H24.153C24.1601 49.9351 24.1743 49.9351 24.1884 49.9351H24.2238C24.2309 49.9351 24.2451 49.9351 24.2592 49.9351H24.2946C24.3017 49.9351 24.3159 49.9351 24.33 49.9351H24.3583C24.3654 49.9351 24.3796 49.9351 24.3937 49.9351H24.4291C24.4362 49.9351 24.4504 49.9351 24.4645 49.9351H24.4999C24.507 49.9351 24.5211 49.9351 24.5353 49.9351H24.5707C24.5778 49.9351 24.5919 49.9351 24.6061 49.9351H24.6415C24.6486 49.9351 24.6627 49.9351 24.6769 49.9351H24.7122C24.7193 49.9351 24.7335 49.9351 24.7477 49.9351H24.776C24.783 49.9351 24.7972 49.9351 24.8114 49.9351H24.8467C24.8538 49.9351 24.868 49.9351 24.8822 49.9351H24.9175C24.9246 49.9351 24.9388 49.9351 24.9529 49.9351H24.9812C24.9883 49.9351 25.0025 49.9351 25.0167 49.9351H25.052C25.0591 49.9351 25.0733 49.9351 25.0874 49.9351H25.1228C25.1299 49.9351 25.1441 49.9351 25.1582 49.9351H25.1865C25.1936 49.9351 25.2078 49.9351 25.2219 49.9351H25.2573C25.2644 49.9351 25.2786 49.9351 25.2927 49.9351H25.3281C25.3352 49.9351 25.3493 49.9351 25.3635 49.9351H25.3918C25.3989 49.9351 25.413 49.9351 25.4272 49.9351H25.4626C25.4697 49.9351 25.4838 49.9351 25.498 49.9351H25.5334C25.5405 49.9351 25.5546 49.9351 25.5688 49.9351H25.5971C25.6042 49.9351 25.6183 49.9351 25.6325 49.9351H25.6679C25.675 49.9351 25.6891 49.9351 25.7033 49.9351H25.7387C25.7458 49.9351 25.7599 49.9351 25.7741 49.9351H25.8024C25.8095 49.9351 25.8236 49.9351 25.8378 49.9351H25.8732C25.8803 49.9351 25.8944 49.9351 25.9086 49.9351H25.944C25.951 49.9351 25.9652 49.9351 25.9794 49.9351H26.0147C26.0218 49.9351 26.036 49.9351 26.0501 49.9351H26.0855C26.0926 49.9351 26.1068 49.9351 26.1209 49.9351H26.1563C26.1634 49.9351 26.1775 49.9351 26.1917 49.9351H26.22C26.2271 49.9351 26.2413 49.9351 26.2554 49.9351H26.2908C26.2979 49.9351 26.312 49.9351 26.3262 49.9351H26.3616C26.3687 49.9351 26.3828 49.9351 26.397 49.9351H26.4253C26.4324 49.9351 26.4465 49.9351 26.4607 49.9351H26.4961C26.5032 49.9351 26.5173 49.9351 26.5315 49.9351H26.5669C26.574 49.9351 26.5881 49.9351 26.6023 49.9351H26.6306C26.6377 49.9351 26.6518 49.9351 26.666 49.9351H26.7014C26.7085 49.9351 26.7226 49.9351 26.7368 49.9351H26.7722C26.7792 49.9351 26.7934 49.9351 26.8076 49.9351H26.8359C26.843 49.9351 26.8571 49.9351 26.8713 49.9351H26.9067C26.9137 49.9351 26.9279 49.9351 26.9421 49.9351H26.9775C26.9845 49.9351 26.9987 49.9351 27.0128 49.9351H27.0412C27.0482 49.9351 27.0624 49.9351 27.0765 49.9351H27.112C27.119 49.9351 27.1332 49.9351 27.1473 49.9351H27.1827C27.1898 49.9351 27.204 49.9351 27.2181 49.9351H27.2465C27.2535 49.9351 27.2677 49.9351 27.2818 49.9351H27.3172C27.3243 49.9351 27.3385 49.9351 27.3526 49.9351H27.388C27.4022 49.9351 27.4093 49.9351 27.4234 49.9351H27.4588C27.4659 49.9351 27.4801 49.9351 27.4942 49.9351H27.5296C27.5367 49.9351 27.5508 49.9351 27.565 49.9351H27.6004C27.6145 49.9351 27.6216 49.9351 27.6287 49.9351H27.6641C27.6712 49.9351 27.6853 49.9351 27.6995 49.9351H27.7349C27.742 49.9351 27.7561 49.9351 27.7703 49.9351H27.8057C27.8198 49.9351 27.8269 49.9351 27.834 49.9351H27.8694C27.8765 49.9351 27.8906 49.9351 27.9048 49.9351H27.9402C27.9472 49.9351 27.9614 49.9351 27.9756 49.9351H28.0109C28.0251 49.9351 28.0322 49.9351 28.0393 49.9351H28.0747C28.0817 49.9351 28.0959 49.9351 28.1101 49.9351H28.1454C28.1525 49.9351 28.1667 49.9351 28.1809 49.9351H28.2162C28.2304 49.9351 28.2375 49.9351 28.2446 49.9351H28.2799C28.287 49.9351 28.3012 49.9351 28.3153 49.9351H28.3507C28.3578 49.9351 28.372 49.9351 28.3861 49.9351H28.4215C28.4357 49.9351 28.4427 49.9351 28.4498 49.9351H28.4852C28.4923 49.9351 28.5065 49.9351 28.5206 49.9351H28.556C28.5631 49.9351 28.5773 49.9351 28.5914 49.9351H28.6268C28.641 49.9351 28.648 49.9351 28.6551 49.9351H28.6905C28.6976 49.9351 28.7118 49.9351 28.7259 49.9351H28.7613C28.7684 49.9351 28.7825 49.9351 28.7967 49.9351H28.8321C28.8462 49.9351 28.8533 49.9351 28.8604 49.9351H28.8958C28.9029 49.9351 28.917 49.9351 28.9312 49.9351H28.9666C28.9737 49.9351 28.9878 49.9351 29.002 49.9351H29.0374C29.0515 49.9351 29.0586 49.9351 29.0728 49.9351H29.1082C29.1152 49.9351 29.1294 49.9351 29.1436 49.9351H29.1789C29.186 49.9351 29.2002 49.9351 29.2143 49.9351H29.2497C29.2639 49.9351 29.271 49.9351 29.2781 49.9351H29.3134C29.3205 49.9351 29.3347 49.9351 29.3488 49.9351H29.3842C29.3913 49.9351 29.4055 49.9351 29.4196 49.9351H29.455C29.4692 49.9351 29.4763 49.9351 29.4833 49.9351H29.5187C29.5258 49.9351 29.54 49.9351 29.5541 49.9351H29.5895C29.5966 49.9351 29.6107 49.9351 29.6249 49.9351H29.6603C29.6745 49.9351 29.6815 49.9351 29.6886 49.9351H29.724C29.7311 49.9351 29.7452 49.9351 29.7594 49.9351H29.7948C29.8019 49.9351 29.816 49.9351 29.8302 49.9351H29.8656C29.8797 49.9351 29.8868 49.9351 29.8939 49.9351H29.9293C29.9364 49.9351 29.9505 49.9351 29.9647 49.9351H30.0001C30.0072 49.9351 30.0213 49.9351 30.0355 49.9351H30.0709C30.085 49.9351 30.0921 49.9351 30.0992 49.9351H30.1346C30.1417 49.9351 30.1558 49.9351 30.17 49.9351H30.2054C30.2124 49.9351 30.2266 49.9351 30.2408 49.9351H30.2762C30.2903 49.9351 30.2974 49.9351 30.3045 49.9351H30.3399C30.3469 49.9351 30.3611 49.9351 30.3752 49.9351H30.4107C30.4177 49.9351 30.4319 49.9351 30.446 49.9351H30.4814C30.4956 49.9351 30.5027 49.9351 30.5168 49.9351H30.5522C30.5593 49.9351 30.5735 49.9351 30.5876 49.9351H30.623C30.6301 49.9351 30.6443 49.9351 30.6584 49.9351H30.6938C30.708 49.9351 30.715 49.9351 30.7221 49.9351H30.7575C30.7646 49.9351 30.7787 49.9351 30.7929 49.9351H30.8283C30.8354 49.9351 30.8495 49.9351 30.8637 49.9351H30.8991C30.9132 49.9351 30.9203 49.9351 30.9274 49.9351H30.9628C30.9699 49.9351 30.984 49.9351 30.9982 49.9351H31.0336C31.0407 49.9351 31.0548 49.9351 31.069 49.9351H31.1044C31.1185 49.9351 31.1256 49.9351 31.1327 49.9351H31.1681C31.1752 49.9351 31.1893 49.9351 31.2035 49.9351H31.2389C31.2459 49.9351 31.2601 49.9351 31.2743 49.9351H31.3097C31.3238 49.9351 31.3309 49.9351 31.338 49.9351H31.3734C31.3804 49.9351 31.3946 49.9351 31.4088 49.9351H31.4441C31.4512 49.9351 31.4654 49.9351 31.4795 49.9351H31.5149C31.5291 49.9351 31.5362 49.9351 31.5433 49.9351H31.5786C31.5857 49.9351 31.5999 49.9351 31.614 49.9351H31.6494C31.6565 49.9351 31.6707 49.9351 31.6848 49.9351H31.7202C31.7344 49.9351 31.7415 49.9351 31.7485 49.9351H31.7839C31.791 49.9351 31.8052 49.9351 31.8193 49.9351H31.8547C31.8618 49.9351 31.876 49.9351 31.8901 49.9351H31.9255C31.9397 49.9351 31.9467 49.9351 31.9609 49.9351H31.9821C32.237 49.9351 32.4423 50.1404 32.4423 50.3952C31.968 50.65 31.7627 50.8553 31.5079 50.8553Z"/>
<path d="M36.2222 47.7274H15.262C15.0072 47.7274 14.8019 47.5221 14.8019 47.2673C14.8019 47.0124 15.0072 46.8071 15.262 46.8071H36.2222C36.477 46.8071 36.6823 47.0124 36.6823 47.2673C36.6823 47.5221 36.4699 47.7274 36.2222 47.7274Z"/>
</mask>
<path d="M42.9963 55.9988H8.47318C8.21834 55.9988 8.01306 55.7935 8.01306 55.5387V8.18182C8.01306 7.92698 8.21834 7.72168 8.47318 7.72168H34.3744C34.4947 7.72168 34.615 7.77123 34.7 7.85618L43.329 16.4852C43.4139 16.5701 43.4635 16.6905 43.4635 16.8108V55.5316C43.4564 55.7935 43.2511 55.9988 42.9963 55.9988ZM42.5362 55.0786V17.009L34.1761 8.64899H8.92623V55.0786H42.5362Z" fill="#E31E24"/>
<path d="M0.460136 48.2771C0.205301 48.2771 0 48.0718 0 47.817V0.460136C0 0.205301 0.205301 0 0.460136 0H34.9832C35.238 0 35.4433 0.205301 35.4433 0.460136C35.4433 0.714971 35.238 0.920229 34.9832 0.920229H0.920251V47.817C0.920251 48.0718 0.714971 48.2771 0.460136 48.2771Z" fill="#E31E24"/>
<path d="M43.0102 17.2809C43.0102 17.2809 43.0031 17.2809 42.996 17.2809H34.367C34.1122 17.2809 33.9069 17.0756 33.9069 16.8208V8.19176C33.9069 8.00771 34.0202 7.8378 34.1901 7.76701C34.367 7.69622 34.5582 7.7387 34.6927 7.86612L43.2579 16.4385C43.3854 16.5234 43.4703 16.665 43.4703 16.8208C43.4703 17.0756 43.265 17.2809 43.0102 17.2809ZM34.8342 16.3606H41.8918L34.8342 9.30313V16.3606Z" fill="#E31E24"/>
<path d="M25.7312 40.0814C20.946 40.0814 17.0598 36.181 17.0598 31.3958C17.0598 26.6106 20.9531 22.7173 25.7312 22.7173C30.5235 22.7173 34.4169 26.6106 34.4169 31.3958C34.4169 36.181 30.5235 40.0814 25.7312 40.0814ZM25.7312 23.6375C21.4557 23.6375 17.98 27.1202 17.98 31.3958C17.98 35.6784 21.4557 39.1612 25.7312 39.1612C30.0139 39.1612 33.4966 35.6784 33.4966 31.3958C33.4966 27.1132 30.0139 23.6375 25.7312 23.6375Z" fill="#E31E24"/>
<path d="M27.8762 23.9171C27.8338 23.9171 27.7913 23.91 27.7559 23.903C26.4605 23.542 25.0306 23.542 23.721 23.903C23.5865 23.9384 23.4308 23.91 23.3175 23.8251C23.2043 23.7401 23.1335 23.6057 23.1335 23.457V19.8468C23.1335 19.592 23.3388 19.3867 23.5936 19.3867H27.8692C28.124 19.3867 28.3293 19.592 28.3293 19.8468V23.457C28.3293 23.5986 28.2656 23.733 28.1452 23.8251C28.0744 23.8888 27.9753 23.9171 27.8762 23.9171ZM25.7314 22.7137C26.2977 22.7137 26.864 22.7704 27.4161 22.8765V20.3069H24.0608V22.8765C24.6059 22.7633 25.1651 22.7137 25.7314 22.7137Z" fill="#E31E24"/>
<path d="M33.6808 29.742C33.6241 29.742 33.5604 29.7278 33.5038 29.7065C33.3693 29.6499 33.2702 29.5366 33.2348 29.4021C33.0578 28.7367 32.7959 28.0997 32.4561 27.5192C32.1164 26.9246 31.6987 26.3796 31.2173 25.8982C31.1182 25.7991 31.0687 25.6575 31.0899 25.5159C31.1112 25.3743 31.189 25.2469 31.3165 25.1762L34.4453 23.3711C34.5514 23.3074 34.6789 23.2932 34.7921 23.3215C34.9125 23.3498 35.0116 23.4277 35.0682 23.5339L37.206 27.2431C37.3334 27.4626 37.2555 27.7457 37.0361 27.8732L33.9073 29.6782C33.8436 29.7207 33.7586 29.742 33.6808 29.742ZM32.2721 25.6788C32.6402 26.1035 32.9729 26.5636 33.2489 27.0591C33.5321 27.5404 33.7586 28.0572 33.9427 28.5952L36.1725 27.3069L34.4948 24.3975L32.2721 25.6788Z" fill="#E31E24"/>
<path d="M34.672 39.4761C34.5941 39.4761 34.5092 39.4549 34.4384 39.4124L31.3096 37.6073C31.1822 37.5366 31.1043 37.4092 31.0831 37.2676C31.0618 37.126 31.1114 36.9844 31.2176 36.8782C31.6918 36.411 32.1095 35.866 32.4564 35.2714C32.7891 34.6909 33.051 34.0538 33.235 33.3813C33.2704 33.2468 33.3695 33.1336 33.504 33.0769C33.6314 33.0203 33.7872 33.0345 33.9075 33.1053L37.0363 34.9103C37.2557 35.0378 37.3336 35.3209 37.2062 35.5404L35.0684 39.2425C35.0047 39.3487 34.9056 39.4266 34.7853 39.4549C34.7499 39.4761 34.7145 39.4761 34.672 39.4761ZM32.2794 37.1047L34.5021 38.3931L36.1798 35.4908L33.95 34.2025C33.7659 34.7405 33.5323 35.2572 33.2563 35.7385C32.9731 36.227 32.6404 36.6871 32.2794 37.1047Z" fill="#E31E24"/>
<path d="M27.876 43.4086H23.6005C23.3456 43.4086 23.1403 43.2033 23.1403 42.9485V39.3383C23.1403 39.1967 23.204 39.0622 23.3244 38.9702C23.4376 38.8853 23.5863 38.857 23.7279 38.8923C25.0304 39.2534 26.4603 39.2534 27.7627 38.8923C27.9043 38.857 28.053 38.8853 28.1662 38.9702C28.2795 39.0551 28.3503 39.1897 28.3503 39.3383V42.9485C28.3361 43.2033 28.1308 43.4086 27.876 43.4086ZM24.0606 42.4884H27.4159V39.9188C26.3187 40.1382 25.1578 40.1382 24.0606 39.9188V42.4884Z" fill="#E31E24"/>
<path d="M16.8048 39.4803C16.6491 39.4803 16.4933 39.3953 16.4084 39.2467L14.2706 35.5445C14.2069 35.4383 14.1927 35.3109 14.2211 35.1976C14.2494 35.0773 14.3272 34.9782 14.4334 34.9216L17.5622 33.1165C17.6826 33.0457 17.8383 33.0315 17.9657 33.0882C18.1002 33.1448 18.1993 33.258 18.2347 33.3925C18.4117 34.0579 18.6736 34.688 19.0134 35.2755C19.3602 35.8701 19.7779 36.4152 20.2522 36.8965C20.3513 36.9956 20.4008 37.1372 20.3796 37.2788C20.3583 37.4203 20.2734 37.5478 20.153 37.6186L17.0313 39.4166C16.9605 39.4661 16.8827 39.4803 16.8048 39.4803ZM15.2899 35.4879L16.9676 38.3972L19.1903 37.116C18.8222 36.6912 18.4966 36.2311 18.2135 35.7427C17.9303 35.2543 17.6967 34.7375 17.5127 34.2066L15.2899 35.4879Z" fill="#E31E24"/>
<path d="M17.796 29.7461C17.7181 29.7461 17.6403 29.7248 17.5624 29.6824L14.4336 27.8773C14.2141 27.7499 14.1363 27.4667 14.2637 27.2473L16.4015 23.5451C16.4652 23.4389 16.5643 23.3611 16.6776 23.3328C16.7979 23.3044 16.9182 23.3186 17.0244 23.3823L20.1461 25.1874C20.2736 25.2582 20.3514 25.3856 20.3727 25.5271C20.3939 25.6687 20.3444 25.8103 20.2382 25.9094C19.7639 26.3766 19.3463 26.9217 18.9994 27.5234C18.6596 28.1109 18.3977 28.748 18.2207 29.4063C18.1853 29.5479 18.0862 29.6611 17.9517 29.7107C17.9163 29.7319 17.8526 29.7461 17.796 29.7461ZM15.2901 27.311L17.5199 28.5993C17.704 28.0684 17.9376 27.5517 18.2207 27.0632C18.5039 26.5677 18.8366 26.1147 19.1976 25.697L16.9749 24.4087L15.2901 27.311Z" fill="#E31E24"/>
<path d="M25.7314 35.9682C23.2114 35.9682 21.1586 33.9154 21.1586 31.3954C21.1586 28.8753 23.2114 26.8296 25.7314 26.8296C28.2515 26.8296 30.3043 28.8753 30.3043 31.3954C30.3043 33.9154 28.2586 35.9682 25.7314 35.9682ZM25.7314 27.7498C23.7211 27.7498 22.0859 29.385 22.0859 31.3954C22.0859 33.4128 23.7211 35.048 25.7314 35.048C27.7489 35.048 29.3841 33.4057 29.3841 31.3954C29.3841 29.385 27.7489 27.7498 25.7314 27.7498Z" fill="#E31E24"/>
<path d="M31.5079 50.8553C31.4866 50.8553 31.4725 50.8553 31.4512 50.8553C31.43 50.8553 31.4088 50.8553 31.3875 50.8553C31.3663 50.8553 31.345 50.8553 31.3238 50.8553C31.3026 50.8553 31.2813 50.8553 31.2601 50.8553C31.2389 50.8553 31.2176 50.8553 31.1964 50.8553C31.1752 50.8553 31.1539 50.8553 31.1327 50.8553C31.1114 50.8553 31.0902 50.8553 31.069 50.8553C31.0477 50.8553 31.0265 50.8553 31.0053 50.8553C30.984 50.8553 30.9628 50.8553 30.9416 50.8553C30.9203 50.8553 30.8991 50.8553 30.8779 50.8553C30.8566 50.8553 30.8354 50.8553 30.8142 50.8553C30.7929 50.8553 30.7717 50.8553 30.7504 50.8553C30.7292 50.8553 30.708 50.8553 30.6867 50.8553C30.6655 50.8553 30.6442 50.8553 30.623 50.8553C30.6018 50.8553 30.5805 50.8553 30.5593 50.8553C30.5381 50.8553 30.5168 50.8553 30.4956 50.8553C30.4744 50.8553 30.4531 50.8553 30.4319 50.8553C30.4107 50.8553 30.3894 50.8553 30.3682 50.8553C30.347 50.8553 30.3257 50.8553 30.3045 50.8553C30.2832 50.8553 30.262 50.8553 30.2408 50.8553C30.2195 50.8553 30.1983 50.8553 30.177 50.8553C30.1558 50.8553 30.1346 50.8553 30.1133 50.8553C30.0921 50.8553 30.0709 50.8553 30.0496 50.8553C30.0284 50.8553 30.0072 50.8553 29.9859 50.8553C29.9647 50.8553 29.9435 50.8553 29.9222 50.8553C29.901 50.8553 29.8798 50.8553 29.8585 50.8553C29.8373 50.8553 29.816 50.8553 29.7948 50.8553C29.7736 50.8553 29.7523 50.8553 29.7311 50.8553C29.7098 50.8553 29.6886 50.8553 29.6674 50.8553C29.6461 50.8553 29.6249 50.8553 29.6037 50.8553C29.5824 50.8553 29.5612 50.8553 29.54 50.8553C29.5187 50.8553 29.4975 50.8553 29.4763 50.8553C29.455 50.8553 29.4338 50.8553 29.4125 50.8553C29.3913 50.8553 29.3701 50.8553 29.3488 50.8553C29.3276 50.8553 29.3064 50.8553 29.2851 50.8553C29.2639 50.8553 29.2427 50.8553 29.2214 50.8553C29.2002 50.8553 29.1789 50.8553 29.1577 50.8553C29.1365 50.8553 29.1152 50.8553 29.094 50.8553C29.0728 50.8553 29.0515 50.8553 29.0303 50.8553C29.0091 50.8553 28.9878 50.8553 28.9666 50.8553C28.9453 50.8553 28.9241 50.8553 28.9029 50.8553C28.8816 50.8553 28.8604 50.8553 28.8392 50.8553C28.8179 50.8553 28.7967 50.8553 28.7755 50.8553C28.7542 50.8553 28.733 50.8553 28.7118 50.8553C28.6905 50.8553 28.6693 50.8553 28.648 50.8553C28.6268 50.8553 28.6056 50.8553 28.5843 50.8553C28.5631 50.8553 28.5419 50.8553 28.5206 50.8553C28.4994 50.8553 28.4781 50.8553 28.4569 50.8553C28.4357 50.8553 28.4144 50.8553 28.3932 50.8553C28.372 50.8553 28.3507 50.8553 28.3295 50.8553C28.3083 50.8553 28.287 50.8553 28.2658 50.8553C28.2446 50.8553 28.2233 50.8553 28.2021 50.8553C28.1809 50.8553 28.1596 50.8553 28.1384 50.8553C28.1171 50.8553 28.0959 50.8553 28.0747 50.8553C28.0534 50.8553 28.0322 50.8553 28.0109 50.8553C27.9897 50.8553 27.9685 50.8553 27.9472 50.8553C27.926 50.8553 27.9048 50.8553 27.8835 50.8553C27.8623 50.8553 27.8411 50.8553 27.8198 50.8553C27.7986 50.8553 27.7774 50.8553 27.7561 50.8553C27.7349 50.8553 27.7137 50.8553 27.6924 50.8553C27.6712 50.8553 27.6499 50.8553 27.6287 50.8553C27.6075 50.8553 27.5862 50.8553 27.565 50.8553C27.5437 50.8553 27.5225 50.8553 27.5013 50.8553C27.48 50.8553 27.4588 50.8553 27.4376 50.8553C27.4163 50.8553 27.3951 50.8553 27.3739 50.8553C27.3526 50.8553 27.3314 50.8553 27.3102 50.8553C27.2889 50.8553 27.2677 50.8553 27.2465 50.8553C27.2252 50.8553 27.204 50.8553 27.1827 50.8553C27.1615 50.8553 27.1403 50.8553 27.119 50.8553C27.0978 50.8553 27.0765 50.8553 27.0553 50.8553C27.0341 50.8553 27.0128 50.8553 26.9916 50.8553C26.9704 50.8553 26.9491 50.8553 26.9279 50.8553C26.9067 50.8553 26.8854 50.8553 26.8642 50.8553C26.843 50.8553 26.8217 50.8553 26.8005 50.8553C26.7793 50.8553 26.758 50.8553 26.7368 50.8553C26.7155 50.8553 26.6943 50.8553 26.6731 50.8553C26.6518 50.8553 26.6306 50.8553 26.6094 50.8553C26.5881 50.8553 26.5669 50.8553 26.5456 50.8553C26.5244 50.8553 26.5032 50.8553 26.4819 50.8553C26.4607 50.8553 26.4395 50.8553 26.4182 50.8553C26.397 50.8553 26.3758 50.8553 26.3545 50.8553C26.3333 50.8553 26.3121 50.8553 26.2908 50.8553C26.2696 50.8553 26.2483 50.8553 26.2271 50.8553C26.2059 50.8553 26.1846 50.8553 26.1634 50.8553C26.1422 50.8553 26.1209 50.8553 26.0997 50.8553C26.0785 50.8553 26.0572 50.8553 26.036 50.8553C26.0148 50.8553 25.9935 50.8553 25.9723 50.8553C25.951 50.8553 25.9298 50.8553 25.9086 50.8553C25.8873 50.8553 25.8661 50.8553 25.8449 50.8553C25.8236 50.8553 25.8024 50.8553 25.7811 50.8553C25.7599 50.8553 25.7387 50.8553 25.7174 50.8553C25.6962 50.8553 25.675 50.8553 25.6537 50.8553C25.6325 50.8553 25.6113 50.8553 25.59 50.8553C25.5688 50.8553 25.5476 50.8553 25.5263 50.8553C25.5051 50.8553 25.4838 50.8553 25.4626 50.8553C25.4414 50.8553 25.4201 50.8553 25.3989 50.8553C25.3777 50.8553 25.3564 50.8553 25.3352 50.8553C25.3139 50.8553 25.2927 50.8553 25.2715 50.8553C25.2502 50.8553 25.229 50.8553 25.2078 50.8553C25.1865 50.8553 25.1653 50.8553 25.1441 50.8553C25.1228 50.8553 25.1016 50.8553 25.0804 50.8553C25.0591 50.8553 25.0379 50.8553 25.0167 50.8553C24.9954 50.8553 24.9742 50.8553 24.9529 50.8553C24.9317 50.8553 24.9105 50.8553 24.8892 50.8553C24.868 50.8553 24.8467 50.8553 24.8255 50.8553C24.8043 50.8553 24.783 50.8553 24.7618 50.8553C24.7406 50.8553 24.7193 50.8553 24.6981 50.8553C24.6769 50.8553 24.6556 50.8553 24.6344 50.8553C24.6132 50.8553 24.5919 50.8553 24.5707 50.8553C24.5494 50.8553 24.5282 50.8553 24.507 50.8553C24.4857 50.8553 24.4645 50.8553 24.4433 50.8553C24.422 50.8553 24.4008 50.8553 24.3795 50.8553C24.3583 50.8553 24.3371 50.8553 24.3158 50.8553C24.2946 50.8553 24.2734 50.8553 24.2521 50.8553C24.2309 50.8553 24.2097 50.8553 24.1884 50.8553C24.1672 50.8553 24.146 50.8553 24.1247 50.8553C24.1035 50.8553 24.0823 50.8553 24.061 50.8553C24.0398 50.8553 24.0185 50.8553 23.9973 50.8553C23.9761 50.8553 23.9548 50.8553 23.9336 50.8553C23.9124 50.8553 23.8911 50.8553 23.8699 50.8553C23.8486 50.8553 23.8274 50.8553 23.8062 50.8553C23.7849 50.8553 23.7637 50.8553 23.7425 50.8553C23.7212 50.8553 23.7 50.8553 23.6788 50.8553C23.6575 50.8553 23.6363 50.8553 23.615 50.8553C23.5938 50.8553 23.5726 50.8553 23.5513 50.8553C23.5301 50.8553 23.5089 50.8553 23.4876 50.8553C23.4664 50.8553 23.4452 50.8553 23.4239 50.8553C23.4027 50.8553 23.3814 50.8553 23.3602 50.8553C23.339 50.8553 23.3177 50.8553 23.2965 50.8553C23.2753 50.8553 23.254 50.8553 23.2328 50.8553C23.2116 50.8553 23.1903 50.8553 23.1691 50.8553C23.1478 50.8553 23.1266 50.8553 23.1054 50.8553C23.0841 50.8553 23.0629 50.8553 23.0417 50.8553C23.0204 50.8553 22.9992 50.8553 22.978 50.8553C22.9567 50.8553 22.9355 50.8553 22.9143 50.8553C22.893 50.8553 22.8718 50.8553 22.8506 50.8553C22.8293 50.8553 22.8081 50.8553 22.7868 50.8553C22.7656 50.8553 22.7444 50.8553 22.7231 50.8553C22.7019 50.8553 22.6807 50.8553 22.6594 50.8553C22.6382 50.8553 22.6169 50.8553 22.5957 50.8553C22.5745 50.8553 22.5532 50.8553 22.532 50.8553C22.5108 50.8553 22.4895 50.8553 22.4683 50.8553C22.4471 50.8553 22.4258 50.8553 22.4046 50.8553C22.3834 50.8553 22.3621 50.8553 22.3409 50.8553C22.3196 50.8553 22.2984 50.8553 22.2772 50.8553C22.2559 50.8553 22.2347 50.8553 22.2134 50.8553C22.1922 50.8553 22.171 50.8553 22.1497 50.8553C22.1285 50.8553 22.1073 50.8553 22.086 50.8553C22.0648 50.8553 22.0436 50.8553 22.0223 50.8553C22.0011 50.8553 21.9799 50.8553 21.9586 50.8553C21.9374 50.8553 21.9162 50.8553 21.8949 50.8553C21.8737 50.8553 21.8524 50.8553 21.8312 50.8553C21.81 50.8553 21.7887 50.8553 21.7675 50.8553C21.7462 50.8553 21.725 50.8553 21.7038 50.8553C21.6825 50.8553 21.6613 50.8553 21.6401 50.8553C21.6188 50.8553 21.5976 50.8553 21.5764 50.8553C21.5551 50.8553 21.5339 50.8553 21.5127 50.8553C21.4914 50.8553 21.4702 50.8553 21.449 50.8553C21.4277 50.8553 21.4065 50.8553 21.3852 50.8553C21.364 50.8553 21.3428 50.8553 21.3215 50.8553C21.3003 50.8553 21.2791 50.8553 21.2578 50.8553C21.2366 50.8553 21.2153 50.8553 21.1941 50.8553C21.1729 50.8553 21.1516 50.8553 21.1304 50.8553C21.1092 50.8553 21.0879 50.8553 21.0667 50.8553C21.0455 50.8553 21.0242 50.8553 21.003 50.8553C20.9818 50.8553 20.9605 50.8553 20.9393 50.8553C20.918 50.8553 20.8968 50.8553 20.8756 50.8553C20.8543 50.8553 20.8331 50.8553 20.8119 50.8553C20.7906 50.8553 20.7694 50.8553 20.7482 50.8553C20.7269 50.8553 20.7057 50.8553 20.6844 50.8553C20.6632 50.8553 20.642 50.8553 20.6207 50.8553C20.5995 50.8553 20.5783 50.8553 20.557 50.8553C20.5358 50.8553 20.5146 50.8553 20.4933 50.8553C20.4721 50.8553 20.4508 50.8553 20.4296 50.8553C20.4084 50.8553 20.3871 50.8553 20.3659 50.8553C20.3447 50.8553 20.3234 50.8553 20.3022 50.8553C20.281 50.8553 20.2597 50.8553 20.2385 50.8553C20.2173 50.8553 20.196 50.8553 20.1748 50.8553C19.9199 50.8553 19.7005 50.65 19.7005 50.3952C19.7005 50.1404 19.8916 49.9351 20.1465 49.9351H20.1819C20.1889 49.9351 20.2031 49.9351 20.2173 49.9351H20.2456C20.2526 49.9351 20.2668 49.9351 20.281 49.9351H20.3163C20.3234 49.9351 20.3376 49.9351 20.3517 49.9351H20.3871C20.3942 49.9351 20.4084 49.9351 20.4225 49.9351H20.4508C20.4579 49.9351 20.4721 49.9351 20.4862 49.9351H20.5216C20.5287 49.9351 20.5429 49.9351 20.557 49.9351H20.5924C20.5995 49.9351 20.6137 49.9351 20.6278 49.9351H20.6632C20.6703 49.9351 20.6844 49.9351 20.6986 49.9351H20.734C20.7411 49.9351 20.7552 49.9351 20.7694 49.9351H20.8048C20.8119 49.9351 20.826 49.9351 20.8402 49.9351H20.8685C20.8756 49.9351 20.8897 49.9351 20.9039 49.9351H20.9393C20.9464 49.9351 20.9605 49.9351 20.9747 49.9351H21.0101C21.0172 49.9351 21.0313 49.9351 21.0455 49.9351H21.0738C21.0809 49.9351 21.095 49.9351 21.1092 49.9351H21.1446C21.1516 49.9351 21.1658 49.9351 21.18 49.9351H21.2153C21.2224 49.9351 21.2366 49.9351 21.2507 49.9351H21.2791C21.2861 49.9351 21.3003 49.9351 21.3145 49.9351H21.3498C21.3569 49.9351 21.3711 49.9351 21.3852 49.9351H21.4206C21.4277 49.9351 21.4419 49.9351 21.456 49.9351H21.4843C21.4914 49.9351 21.5056 49.9351 21.5197 49.9351H21.5551C21.5622 49.9351 21.5764 49.9351 21.5905 49.9351H21.6259C21.633 49.9351 21.6471 49.9351 21.6613 49.9351H21.6896C21.6967 49.9351 21.7109 49.9351 21.725 49.9351H21.7604C21.7675 49.9351 21.7816 49.9351 21.7958 49.9351H21.8312C21.8383 49.9351 21.8524 49.9351 21.8666 49.9351H21.8949C21.902 49.9351 21.9161 49.9351 21.9303 49.9351H21.9657C21.9728 49.9351 21.9869 49.9351 22.0011 49.9351H22.0365C22.0436 49.9351 22.0577 49.9351 22.0719 49.9351H22.1073C22.1143 49.9351 22.1285 49.9351 22.1427 49.9351H22.1781C22.1851 49.9351 22.1993 49.9351 22.2134 49.9351H22.2489C22.2559 49.9351 22.2701 49.9351 22.2842 49.9351H22.3126C22.3196 49.9351 22.3338 49.9351 22.3479 49.9351H22.3834C22.3904 49.9351 22.4046 49.9351 22.4187 49.9351H22.4541C22.4612 49.9351 22.4754 49.9351 22.4895 49.9351H22.5179C22.5249 49.9351 22.5391 49.9351 22.5532 49.9351H22.5886C22.5957 49.9351 22.6099 49.9351 22.624 49.9351H22.6594C22.6665 49.9351 22.6807 49.9351 22.6948 49.9351H22.7231C22.7302 49.9351 22.7444 49.9351 22.7585 49.9351H22.7939C22.801 49.9351 22.8151 49.9351 22.8293 49.9351H22.8647C22.8718 49.9351 22.8859 49.9351 22.9001 49.9351H22.9284C22.9355 49.9351 22.9496 49.9351 22.9638 49.9351H22.9992C23.0063 49.9351 23.0204 49.9351 23.0346 49.9351H23.07C23.0771 49.9351 23.0912 49.9351 23.1054 49.9351H23.1337C23.1408 49.9351 23.1549 49.9351 23.1691 49.9351H23.2045C23.2116 49.9351 23.2257 49.9351 23.2399 49.9351H23.2753C23.2823 49.9351 23.2965 49.9351 23.3107 49.9351H23.339C23.346 49.9351 23.3602 49.9351 23.3744 49.9351H23.4098C23.4168 49.9351 23.431 49.9351 23.4452 49.9351H23.4806C23.4876 49.9351 23.5018 49.9351 23.5159 49.9351H23.5443C23.5513 49.9351 23.5655 49.9351 23.5797 49.9351H23.615C23.6221 49.9351 23.6363 49.9351 23.6504 49.9351H23.6858C23.6929 49.9351 23.7071 49.9351 23.7212 49.9351H23.7495C23.7566 49.9351 23.7708 49.9351 23.7849 49.9351H23.8203C23.8274 49.9351 23.8416 49.9351 23.8557 49.9351H23.8911C23.8982 49.9351 23.9124 49.9351 23.9265 49.9351H23.9548C23.9619 49.9351 23.9761 49.9351 23.9902 49.9351H24.0256C24.0327 49.9351 24.0469 49.9351 24.061 49.9351H24.0964C24.1035 49.9351 24.1176 49.9351 24.1318 49.9351H24.1601C24.1672 49.9351 24.1814 49.9351 24.1955 49.9351H23.8133C23.8203 49.9351 23.8345 49.9351 23.8486 49.9351H23.884C23.8911 49.9351 23.9053 49.9351 23.9194 49.9351H23.9478C23.9548 49.9351 23.969 49.9351 23.9831 49.9351H24.0185C24.0256 49.9351 24.0398 49.9351 24.0539 49.9351H24.0893C24.0964 49.9351 24.1106 49.9351 24.1247 49.9351H24.153C24.1601 49.9351 24.1743 49.9351 24.1884 49.9351H24.2238C24.2309 49.9351 24.2451 49.9351 24.2592 49.9351H24.2946C24.3017 49.9351 24.3159 49.9351 24.33 49.9351H24.3583C24.3654 49.9351 24.3796 49.9351 24.3937 49.9351H24.4291C24.4362 49.9351 24.4504 49.9351 24.4645 49.9351H24.4999C24.507 49.9351 24.5211 49.9351 24.5353 49.9351H24.5707C24.5778 49.9351 24.5919 49.9351 24.6061 49.9351H24.6415C24.6486 49.9351 24.6627 49.9351 24.6769 49.9351H24.7122C24.7193 49.9351 24.7335 49.9351 24.7477 49.9351H24.776C24.783 49.9351 24.7972 49.9351 24.8114 49.9351H24.8467C24.8538 49.9351 24.868 49.9351 24.8822 49.9351H24.9175C24.9246 49.9351 24.9388 49.9351 24.9529 49.9351H24.9812C24.9883 49.9351 25.0025 49.9351 25.0167 49.9351H25.052C25.0591 49.9351 25.0733 49.9351 25.0874 49.9351H25.1228C25.1299 49.9351 25.1441 49.9351 25.1582 49.9351H25.1865C25.1936 49.9351 25.2078 49.9351 25.2219 49.9351H25.2573C25.2644 49.9351 25.2786 49.9351 25.2927 49.9351H25.3281C25.3352 49.9351 25.3493 49.9351 25.3635 49.9351H25.3918C25.3989 49.9351 25.413 49.9351 25.4272 49.9351H25.4626C25.4697 49.9351 25.4838 49.9351 25.498 49.9351H25.5334C25.5405 49.9351 25.5546 49.9351 25.5688 49.9351H25.5971C25.6042 49.9351 25.6183 49.9351 25.6325 49.9351H25.6679C25.675 49.9351 25.6891 49.9351 25.7033 49.9351H25.7387C25.7458 49.9351 25.7599 49.9351 25.7741 49.9351H25.8024C25.8095 49.9351 25.8236 49.9351 25.8378 49.9351H25.8732C25.8803 49.9351 25.8944 49.9351 25.9086 49.9351H25.944C25.951 49.9351 25.9652 49.9351 25.9794 49.9351H26.0147C26.0218 49.9351 26.036 49.9351 26.0501 49.9351H26.0855C26.0926 49.9351 26.1068 49.9351 26.1209 49.9351H26.1563C26.1634 49.9351 26.1775 49.9351 26.1917 49.9351H26.22C26.2271 49.9351 26.2413 49.9351 26.2554 49.9351H26.2908C26.2979 49.9351 26.312 49.9351 26.3262 49.9351H26.3616C26.3687 49.9351 26.3828 49.9351 26.397 49.9351H26.4253C26.4324 49.9351 26.4465 49.9351 26.4607 49.9351H26.4961C26.5032 49.9351 26.5173 49.9351 26.5315 49.9351H26.5669C26.574 49.9351 26.5881 49.9351 26.6023 49.9351H26.6306C26.6377 49.9351 26.6518 49.9351 26.666 49.9351H26.7014C26.7085 49.9351 26.7226 49.9351 26.7368 49.9351H26.7722C26.7792 49.9351 26.7934 49.9351 26.8076 49.9351H26.8359C26.843 49.9351 26.8571 49.9351 26.8713 49.9351H26.9067C26.9137 49.9351 26.9279 49.9351 26.9421 49.9351H26.9775C26.9845 49.9351 26.9987 49.9351 27.0128 49.9351H27.0412C27.0482 49.9351 27.0624 49.9351 27.0765 49.9351H27.112C27.119 49.9351 27.1332 49.9351 27.1473 49.9351H27.1827C27.1898 49.9351 27.204 49.9351 27.2181 49.9351H27.2465C27.2535 49.9351 27.2677 49.9351 27.2818 49.9351H27.3172C27.3243 49.9351 27.3385 49.9351 27.3526 49.9351H27.388C27.4022 49.9351 27.4093 49.9351 27.4234 49.9351H27.4588C27.4659 49.9351 27.4801 49.9351 27.4942 49.9351H27.5296C27.5367 49.9351 27.5508 49.9351 27.565 49.9351H27.6004C27.6145 49.9351 27.6216 49.9351 27.6287 49.9351H27.6641C27.6712 49.9351 27.6853 49.9351 27.6995 49.9351H27.7349C27.742 49.9351 27.7561 49.9351 27.7703 49.9351H27.8057C27.8198 49.9351 27.8269 49.9351 27.834 49.9351H27.8694C27.8765 49.9351 27.8906 49.9351 27.9048 49.9351H27.9402C27.9472 49.9351 27.9614 49.9351 27.9756 49.9351H28.0109C28.0251 49.9351 28.0322 49.9351 28.0393 49.9351H28.0747C28.0817 49.9351 28.0959 49.9351 28.1101 49.9351H28.1454C28.1525 49.9351 28.1667 49.9351 28.1809 49.9351H28.2162C28.2304 49.9351 28.2375 49.9351 28.2446 49.9351H28.2799C28.287 49.9351 28.3012 49.9351 28.3153 49.9351H28.3507C28.3578 49.9351 28.372 49.9351 28.3861 49.9351H28.4215C28.4357 49.9351 28.4427 49.9351 28.4498 49.9351H28.4852C28.4923 49.9351 28.5065 49.9351 28.5206 49.9351H28.556C28.5631 49.9351 28.5773 49.9351 28.5914 49.9351H28.6268C28.641 49.9351 28.648 49.9351 28.6551 49.9351H28.6905C28.6976 49.9351 28.7118 49.9351 28.7259 49.9351H28.7613C28.7684 49.9351 28.7825 49.9351 28.7967 49.9351H28.8321C28.8462 49.9351 28.8533 49.9351 28.8604 49.9351H28.8958C28.9029 49.9351 28.917 49.9351 28.9312 49.9351H28.9666C28.9737 49.9351 28.9878 49.9351 29.002 49.9351H29.0374C29.0515 49.9351 29.0586 49.9351 29.0728 49.9351H29.1082C29.1152 49.9351 29.1294 49.9351 29.1436 49.9351H29.1789C29.186 49.9351 29.2002 49.9351 29.2143 49.9351H29.2497C29.2639 49.9351 29.271 49.9351 29.2781 49.9351H29.3134C29.3205 49.9351 29.3347 49.9351 29.3488 49.9351H29.3842C29.3913 49.9351 29.4055 49.9351 29.4196 49.9351H29.455C29.4692 49.9351 29.4763 49.9351 29.4833 49.9351H29.5187C29.5258 49.9351 29.54 49.9351 29.5541 49.9351H29.5895C29.5966 49.9351 29.6107 49.9351 29.6249 49.9351H29.6603C29.6745 49.9351 29.6815 49.9351 29.6886 49.9351H29.724C29.7311 49.9351 29.7452 49.9351 29.7594 49.9351H29.7948C29.8019 49.9351 29.816 49.9351 29.8302 49.9351H29.8656C29.8797 49.9351 29.8868 49.9351 29.8939 49.9351H29.9293C29.9364 49.9351 29.9505 49.9351 29.9647 49.9351H30.0001C30.0072 49.9351 30.0213 49.9351 30.0355 49.9351H30.0709C30.085 49.9351 30.0921 49.9351 30.0992 49.9351H30.1346C30.1417 49.9351 30.1558 49.9351 30.17 49.9351H30.2054C30.2124 49.9351 30.2266 49.9351 30.2408 49.9351H30.2762C30.2903 49.9351 30.2974 49.9351 30.3045 49.9351H30.3399C30.3469 49.9351 30.3611 49.9351 30.3752 49.9351H30.4107C30.4177 49.9351 30.4319 49.9351 30.446 49.9351H30.4814C30.4956 49.9351 30.5027 49.9351 30.5168 49.9351H30.5522C30.5593 49.9351 30.5735 49.9351 30.5876 49.9351H30.623C30.6301 49.9351 30.6443 49.9351 30.6584 49.9351H30.6938C30.708 49.9351 30.715 49.9351 30.7221 49.9351H30.7575C30.7646 49.9351 30.7787 49.9351 30.7929 49.9351H30.8283C30.8354 49.9351 30.8495 49.9351 30.8637 49.9351H30.8991C30.9132 49.9351 30.9203 49.9351 30.9274 49.9351H30.9628C30.9699 49.9351 30.984 49.9351 30.9982 49.9351H31.0336C31.0407 49.9351 31.0548 49.9351 31.069 49.9351H31.1044C31.1185 49.9351 31.1256 49.9351 31.1327 49.9351H31.1681C31.1752 49.9351 31.1893 49.9351 31.2035 49.9351H31.2389C31.2459 49.9351 31.2601 49.9351 31.2743 49.9351H31.3097C31.3238 49.9351 31.3309 49.9351 31.338 49.9351H31.3734C31.3804 49.9351 31.3946 49.9351 31.4088 49.9351H31.4441C31.4512 49.9351 31.4654 49.9351 31.4795 49.9351H31.5149C31.5291 49.9351 31.5362 49.9351 31.5433 49.9351H31.5786C31.5857 49.9351 31.5999 49.9351 31.614 49.9351H31.6494C31.6565 49.9351 31.6707 49.9351 31.6848 49.9351H31.7202C31.7344 49.9351 31.7415 49.9351 31.7485 49.9351H31.7839C31.791 49.9351 31.8052 49.9351 31.8193 49.9351H31.8547C31.8618 49.9351 31.876 49.9351 31.8901 49.9351H31.9255C31.9397 49.9351 31.9467 49.9351 31.9609 49.9351H31.9821C32.237 49.9351 32.4423 50.1404 32.4423 50.3952C31.968 50.65 31.7627 50.8553 31.5079 50.8553Z" fill="#E31E24"/>
<path d="M36.2222 47.7274H15.262C15.0072 47.7274 14.8019 47.5221 14.8019 47.2673C14.8019 47.0124 15.0072 46.8071 15.262 46.8071H36.2222C36.477 46.8071 36.6823 47.0124 36.6823 47.2673C36.6823 47.5221 36.4699 47.7274 36.2222 47.7274Z" fill="#E31E24"/>
<path d="M42.9963 55.9988H8.47318C8.21834 55.9988 8.01306 55.7935 8.01306 55.5387V8.18182C8.01306 7.92698 8.21834 7.72168 8.47318 7.72168H34.3744C34.4947 7.72168 34.615 7.77123 34.7 7.85618L43.329 16.4852C43.4139 16.5701 43.4635 16.6905 43.4635 16.8108V55.5316C43.4564 55.7935 43.2511 55.9988 42.9963 55.9988ZM42.5362 55.0786V17.009L34.1761 8.64899H8.92623V55.0786H42.5362Z" stroke="#E31E24" stroke-width="0.4" mask="url(#path-1-outside-1_102_14264)"/>
<path d="M0.460136 48.2771C0.205301 48.2771 0 48.0718 0 47.817V0.460136C0 0.205301 0.205301 0 0.460136 0H34.9832C35.238 0 35.4433 0.205301 35.4433 0.460136C35.4433 0.714971 35.238 0.920229 34.9832 0.920229H0.920251V47.817C0.920251 48.0718 0.714971 48.2771 0.460136 48.2771Z" stroke="#E31E24" stroke-width="0.4" mask="url(#path-1-outside-1_102_14264)"/>
<path d="M43.0102 17.2809C43.0102 17.2809 43.0031 17.2809 42.996 17.2809H34.367C34.1122 17.2809 33.9069 17.0756 33.9069 16.8208V8.19176C33.9069 8.00771 34.0202 7.8378 34.1901 7.76701C34.367 7.69622 34.5582 7.7387 34.6927 7.86612L43.2579 16.4385C43.3854 16.5234 43.4703 16.665 43.4703 16.8208C43.4703 17.0756 43.265 17.2809 43.0102 17.2809ZM34.8342 16.3606H41.8918L34.8342 9.30313V16.3606Z" stroke="#E31E24" stroke-width="0.4" mask="url(#path-1-outside-1_102_14264)"/>
<path d="M25.7312 40.0814C20.946 40.0814 17.0598 36.181 17.0598 31.3958C17.0598 26.6106 20.9531 22.7173 25.7312 22.7173C30.5235 22.7173 34.4169 26.6106 34.4169 31.3958C34.4169 36.181 30.5235 40.0814 25.7312 40.0814ZM25.7312 23.6375C21.4557 23.6375 17.98 27.1202 17.98 31.3958C17.98 35.6784 21.4557 39.1612 25.7312 39.1612C30.0139 39.1612 33.4966 35.6784 33.4966 31.3958C33.4966 27.1132 30.0139 23.6375 25.7312 23.6375Z" stroke="#E31E24" stroke-width="0.4" mask="url(#path-1-outside-1_102_14264)"/>
<path d="M27.8762 23.9171C27.8338 23.9171 27.7913 23.91 27.7559 23.903C26.4605 23.542 25.0306 23.542 23.721 23.903C23.5865 23.9384 23.4308 23.91 23.3175 23.8251C23.2043 23.7401 23.1335 23.6057 23.1335 23.457V19.8468C23.1335 19.592 23.3388 19.3867 23.5936 19.3867H27.8692C28.124 19.3867 28.3293 19.592 28.3293 19.8468V23.457C28.3293 23.5986 28.2656 23.733 28.1452 23.8251C28.0744 23.8888 27.9753 23.9171 27.8762 23.9171ZM25.7314 22.7137C26.2977 22.7137 26.864 22.7704 27.4161 22.8765V20.3069H24.0608V22.8765C24.6059 22.7633 25.1651 22.7137 25.7314 22.7137Z" stroke="#E31E24" stroke-width="0.4" mask="url(#path-1-outside-1_102_14264)"/>
<path d="M33.6808 29.742C33.6241 29.742 33.5604 29.7278 33.5038 29.7065C33.3693 29.6499 33.2702 29.5366 33.2348 29.4021C33.0578 28.7367 32.7959 28.0997 32.4561 27.5192C32.1164 26.9246 31.6987 26.3796 31.2173 25.8982C31.1182 25.7991 31.0687 25.6575 31.0899 25.5159C31.1112 25.3743 31.189 25.2469 31.3165 25.1762L34.4453 23.3711C34.5514 23.3074 34.6789 23.2932 34.7921 23.3215C34.9125 23.3498 35.0116 23.4277 35.0682 23.5339L37.206 27.2431C37.3334 27.4626 37.2555 27.7457 37.0361 27.8732L33.9073 29.6782C33.8436 29.7207 33.7586 29.742 33.6808 29.742ZM32.2721 25.6788C32.6402 26.1035 32.9729 26.5636 33.2489 27.0591C33.5321 27.5404 33.7586 28.0572 33.9427 28.5952L36.1725 27.3069L34.4948 24.3975L32.2721 25.6788Z" stroke="#E31E24" stroke-width="0.4" mask="url(#path-1-outside-1_102_14264)"/>
<path d="M34.672 39.4761C34.5941 39.4761 34.5092 39.4549 34.4384 39.4124L31.3096 37.6073C31.1822 37.5366 31.1043 37.4092 31.0831 37.2676C31.0618 37.126 31.1114 36.9844 31.2176 36.8782C31.6918 36.411 32.1095 35.866 32.4564 35.2714C32.7891 34.6909 33.051 34.0538 33.235 33.3813C33.2704 33.2468 33.3695 33.1336 33.504 33.0769C33.6314 33.0203 33.7872 33.0345 33.9075 33.1053L37.0363 34.9103C37.2557 35.0378 37.3336 35.3209 37.2062 35.5404L35.0684 39.2425C35.0047 39.3487 34.9056 39.4266 34.7853 39.4549C34.7499 39.4761 34.7145 39.4761 34.672 39.4761ZM32.2794 37.1047L34.5021 38.3931L36.1798 35.4908L33.95 34.2025C33.7659 34.7405 33.5323 35.2572 33.2563 35.7385C32.9731 36.227 32.6404 36.6871 32.2794 37.1047Z" stroke="#E31E24" stroke-width="0.4" mask="url(#path-1-outside-1_102_14264)"/>
<path d="M27.876 43.4086H23.6005C23.3456 43.4086 23.1403 43.2033 23.1403 42.9485V39.3383C23.1403 39.1967 23.204 39.0622 23.3244 38.9702C23.4376 38.8853 23.5863 38.857 23.7279 38.8923C25.0304 39.2534 26.4603 39.2534 27.7627 38.8923C27.9043 38.857 28.053 38.8853 28.1662 38.9702C28.2795 39.0551 28.3503 39.1897 28.3503 39.3383V42.9485C28.3361 43.2033 28.1308 43.4086 27.876 43.4086ZM24.0606 42.4884H27.4159V39.9188C26.3187 40.1382 25.1578 40.1382 24.0606 39.9188V42.4884Z" stroke="#E31E24" stroke-width="0.4" mask="url(#path-1-outside-1_102_14264)"/>
<path d="M16.8048 39.4803C16.6491 39.4803 16.4933 39.3953 16.4084 39.2467L14.2706 35.5445C14.2069 35.4383 14.1927 35.3109 14.2211 35.1976C14.2494 35.0773 14.3272 34.9782 14.4334 34.9216L17.5622 33.1165C17.6826 33.0457 17.8383 33.0315 17.9657 33.0882C18.1002 33.1448 18.1993 33.258 18.2347 33.3925C18.4117 34.0579 18.6736 34.688 19.0134 35.2755C19.3602 35.8701 19.7779 36.4152 20.2522 36.8965C20.3513 36.9956 20.4008 37.1372 20.3796 37.2788C20.3583 37.4203 20.2734 37.5478 20.153 37.6186L17.0313 39.4166C16.9605 39.4661 16.8827 39.4803 16.8048 39.4803ZM15.2899 35.4879L16.9676 38.3972L19.1903 37.116C18.8222 36.6912 18.4966 36.2311 18.2135 35.7427C17.9303 35.2543 17.6967 34.7375 17.5127 34.2066L15.2899 35.4879Z" stroke="#E31E24" stroke-width="0.4" mask="url(#path-1-outside-1_102_14264)"/>
<path d="M17.796 29.7461C17.7181 29.7461 17.6403 29.7248 17.5624 29.6824L14.4336 27.8773C14.2141 27.7499 14.1363 27.4667 14.2637 27.2473L16.4015 23.5451C16.4652 23.4389 16.5643 23.3611 16.6776 23.3328C16.7979 23.3044 16.9182 23.3186 17.0244 23.3823L20.1461 25.1874C20.2736 25.2582 20.3514 25.3856 20.3727 25.5271C20.3939 25.6687 20.3444 25.8103 20.2382 25.9094C19.7639 26.3766 19.3463 26.9217 18.9994 27.5234C18.6596 28.1109 18.3977 28.748 18.2207 29.4063C18.1853 29.5479 18.0862 29.6611 17.9517 29.7107C17.9163 29.7319 17.8526 29.7461 17.796 29.7461ZM15.2901 27.311L17.5199 28.5993C17.704 28.0684 17.9376 27.5517 18.2207 27.0632C18.5039 26.5677 18.8366 26.1147 19.1976 25.697L16.9749 24.4087L15.2901 27.311Z" stroke="#E31E24" stroke-width="0.4" mask="url(#path-1-outside-1_102_14264)"/>
<path d="M25.7314 35.9682C23.2114 35.9682 21.1586 33.9154 21.1586 31.3954C21.1586 28.8753 23.2114 26.8296 25.7314 26.8296C28.2515 26.8296 30.3043 28.8753 30.3043 31.3954C30.3043 33.9154 28.2586 35.9682 25.7314 35.9682ZM25.7314 27.7498C23.7211 27.7498 22.0859 29.385 22.0859 31.3954C22.0859 33.4128 23.7211 35.048 25.7314 35.048C27.7489 35.048 29.3841 33.4057 29.3841 31.3954C29.3841 29.385 27.7489 27.7498 25.7314 27.7498Z" stroke="#E31E24" stroke-width="0.4" mask="url(#path-1-outside-1_102_14264)"/>
<path d="M31.5079 50.8553C31.4866 50.8553 31.4725 50.8553 31.4512 50.8553C31.43 50.8553 31.4088 50.8553 31.3875 50.8553C31.3663 50.8553 31.345 50.8553 31.3238 50.8553C31.3026 50.8553 31.2813 50.8553 31.2601 50.8553C31.2389 50.8553 31.2176 50.8553 31.1964 50.8553C31.1752 50.8553 31.1539 50.8553 31.1327 50.8553C31.1114 50.8553 31.0902 50.8553 31.069 50.8553C31.0477 50.8553 31.0265 50.8553 31.0053 50.8553C30.984 50.8553 30.9628 50.8553 30.9416 50.8553C30.9203 50.8553 30.8991 50.8553 30.8779 50.8553C30.8566 50.8553 30.8354 50.8553 30.8142 50.8553C30.7929 50.8553 30.7717 50.8553 30.7504 50.8553C30.7292 50.8553 30.708 50.8553 30.6867 50.8553C30.6655 50.8553 30.6442 50.8553 30.623 50.8553C30.6018 50.8553 30.5805 50.8553 30.5593 50.8553C30.5381 50.8553 30.5168 50.8553 30.4956 50.8553C30.4744 50.8553 30.4531 50.8553 30.4319 50.8553C30.4107 50.8553 30.3894 50.8553 30.3682 50.8553C30.347 50.8553 30.3257 50.8553 30.3045 50.8553C30.2832 50.8553 30.262 50.8553 30.2408 50.8553C30.2195 50.8553 30.1983 50.8553 30.177 50.8553C30.1558 50.8553 30.1346 50.8553 30.1133 50.8553C30.0921 50.8553 30.0709 50.8553 30.0496 50.8553C30.0284 50.8553 30.0072 50.8553 29.9859 50.8553C29.9647 50.8553 29.9435 50.8553 29.9222 50.8553C29.901 50.8553 29.8798 50.8553 29.8585 50.8553C29.8373 50.8553 29.816 50.8553 29.7948 50.8553C29.7736 50.8553 29.7523 50.8553 29.7311 50.8553C29.7098 50.8553 29.6886 50.8553 29.6674 50.8553C29.6461 50.8553 29.6249 50.8553 29.6037 50.8553C29.5824 50.8553 29.5612 50.8553 29.54 50.8553C29.5187 50.8553 29.4975 50.8553 29.4763 50.8553C29.455 50.8553 29.4338 50.8553 29.4125 50.8553C29.3913 50.8553 29.3701 50.8553 29.3488 50.8553C29.3276 50.8553 29.3064 50.8553 29.2851 50.8553C29.2639 50.8553 29.2427 50.8553 29.2214 50.8553C29.2002 50.8553 29.1789 50.8553 29.1577 50.8553C29.1365 50.8553 29.1152 50.8553 29.094 50.8553C29.0728 50.8553 29.0515 50.8553 29.0303 50.8553C29.0091 50.8553 28.9878 50.8553 28.9666 50.8553C28.9453 50.8553 28.9241 50.8553 28.9029 50.8553C28.8816 50.8553 28.8604 50.8553 28.8392 50.8553C28.8179 50.8553 28.7967 50.8553 28.7755 50.8553C28.7542 50.8553 28.733 50.8553 28.7118 50.8553C28.6905 50.8553 28.6693 50.8553 28.648 50.8553C28.6268 50.8553 28.6056 50.8553 28.5843 50.8553C28.5631 50.8553 28.5419 50.8553 28.5206 50.8553C28.4994 50.8553 28.4781 50.8553 28.4569 50.8553C28.4357 50.8553 28.4144 50.8553 28.3932 50.8553C28.372 50.8553 28.3507 50.8553 28.3295 50.8553C28.3083 50.8553 28.287 50.8553 28.2658 50.8553C28.2446 50.8553 28.2233 50.8553 28.2021 50.8553C28.1809 50.8553 28.1596 50.8553 28.1384 50.8553C28.1171 50.8553 28.0959 50.8553 28.0747 50.8553C28.0534 50.8553 28.0322 50.8553 28.0109 50.8553C27.9897 50.8553 27.9685 50.8553 27.9472 50.8553C27.926 50.8553 27.9048 50.8553 27.8835 50.8553C27.8623 50.8553 27.8411 50.8553 27.8198 50.8553C27.7986 50.8553 27.7774 50.8553 27.7561 50.8553C27.7349 50.8553 27.7137 50.8553 27.6924 50.8553C27.6712 50.8553 27.6499 50.8553 27.6287 50.8553C27.6075 50.8553 27.5862 50.8553 27.565 50.8553C27.5437 50.8553 27.5225 50.8553 27.5013 50.8553C27.48 50.8553 27.4588 50.8553 27.4376 50.8553C27.4163 50.8553 27.3951 50.8553 27.3739 50.8553C27.3526 50.8553 27.3314 50.8553 27.3102 50.8553C27.2889 50.8553 27.2677 50.8553 27.2465 50.8553C27.2252 50.8553 27.204 50.8553 27.1827 50.8553C27.1615 50.8553 27.1403 50.8553 27.119 50.8553C27.0978 50.8553 27.0765 50.8553 27.0553 50.8553C27.0341 50.8553 27.0128 50.8553 26.9916 50.8553C26.9704 50.8553 26.9491 50.8553 26.9279 50.8553C26.9067 50.8553 26.8854 50.8553 26.8642 50.8553C26.843 50.8553 26.8217 50.8553 26.8005 50.8553C26.7793 50.8553 26.758 50.8553 26.7368 50.8553C26.7155 50.8553 26.6943 50.8553 26.6731 50.8553C26.6518 50.8553 26.6306 50.8553 26.6094 50.8553C26.5881 50.8553 26.5669 50.8553 26.5456 50.8553C26.5244 50.8553 26.5032 50.8553 26.4819 50.8553C26.4607 50.8553 26.4395 50.8553 26.4182 50.8553C26.397 50.8553 26.3758 50.8553 26.3545 50.8553C26.3333 50.8553 26.3121 50.8553 26.2908 50.8553C26.2696 50.8553 26.2483 50.8553 26.2271 50.8553C26.2059 50.8553 26.1846 50.8553 26.1634 50.8553C26.1422 50.8553 26.1209 50.8553 26.0997 50.8553C26.0785 50.8553 26.0572 50.8553 26.036 50.8553C26.0148 50.8553 25.9935 50.8553 25.9723 50.8553C25.951 50.8553 25.9298 50.8553 25.9086 50.8553C25.8873 50.8553 25.8661 50.8553 25.8449 50.8553C25.8236 50.8553 25.8024 50.8553 25.7811 50.8553C25.7599 50.8553 25.7387 50.8553 25.7174 50.8553C25.6962 50.8553 25.675 50.8553 25.6537 50.8553C25.6325 50.8553 25.6113 50.8553 25.59 50.8553C25.5688 50.8553 25.5476 50.8553 25.5263 50.8553C25.5051 50.8553 25.4838 50.8553 25.4626 50.8553C25.4414 50.8553 25.4201 50.8553 25.3989 50.8553C25.3777 50.8553 25.3564 50.8553 25.3352 50.8553C25.3139 50.8553 25.2927 50.8553 25.2715 50.8553C25.2502 50.8553 25.229 50.8553 25.2078 50.8553C25.1865 50.8553 25.1653 50.8553 25.1441 50.8553C25.1228 50.8553 25.1016 50.8553 25.0804 50.8553C25.0591 50.8553 25.0379 50.8553 25.0167 50.8553C24.9954 50.8553 24.9742 50.8553 24.9529 50.8553C24.9317 50.8553 24.9105 50.8553 24.8892 50.8553C24.868 50.8553 24.8467 50.8553 24.8255 50.8553C24.8043 50.8553 24.783 50.8553 24.7618 50.8553C24.7406 50.8553 24.7193 50.8553 24.6981 50.8553C24.6769 50.8553 24.6556 50.8553 24.6344 50.8553C24.6132 50.8553 24.5919 50.8553 24.5707 50.8553C24.5494 50.8553 24.5282 50.8553 24.507 50.8553C24.4857 50.8553 24.4645 50.8553 24.4433 50.8553C24.422 50.8553 24.4008 50.8553 24.3795 50.8553C24.3583 50.8553 24.3371 50.8553 24.3158 50.8553C24.2946 50.8553 24.2734 50.8553 24.2521 50.8553C24.2309 50.8553 24.2097 50.8553 24.1884 50.8553C24.1672 50.8553 24.146 50.8553 24.1247 50.8553C24.1035 50.8553 24.0823 50.8553 24.061 50.8553C24.0398 50.8553 24.0185 50.8553 23.9973 50.8553C23.9761 50.8553 23.9548 50.8553 23.9336 50.8553C23.9124 50.8553 23.8911 50.8553 23.8699 50.8553C23.8486 50.8553 23.8274 50.8553 23.8062 50.8553C23.7849 50.8553 23.7637 50.8553 23.7425 50.8553C23.7212 50.8553 23.7 50.8553 23.6788 50.8553C23.6575 50.8553 23.6363 50.8553 23.615 50.8553C23.5938 50.8553 23.5726 50.8553 23.5513 50.8553C23.5301 50.8553 23.5089 50.8553 23.4876 50.8553C23.4664 50.8553 23.4452 50.8553 23.4239 50.8553C23.4027 50.8553 23.3814 50.8553 23.3602 50.8553C23.339 50.8553 23.3177 50.8553 23.2965 50.8553C23.2753 50.8553 23.254 50.8553 23.2328 50.8553C23.2116 50.8553 23.1903 50.8553 23.1691 50.8553C23.1478 50.8553 23.1266 50.8553 23.1054 50.8553C23.0841 50.8553 23.0629 50.8553 23.0417 50.8553C23.0204 50.8553 22.9992 50.8553 22.978 50.8553C22.9567 50.8553 22.9355 50.8553 22.9143 50.8553C22.893 50.8553 22.8718 50.8553 22.8506 50.8553C22.8293 50.8553 22.8081 50.8553 22.7868 50.8553C22.7656 50.8553 22.7444 50.8553 22.7231 50.8553C22.7019 50.8553 22.6807 50.8553 22.6594 50.8553C22.6382 50.8553 22.6169 50.8553 22.5957 50.8553C22.5745 50.8553 22.5532 50.8553 22.532 50.8553C22.5108 50.8553 22.4895 50.8553 22.4683 50.8553C22.4471 50.8553 22.4258 50.8553 22.4046 50.8553C22.3834 50.8553 22.3621 50.8553 22.3409 50.8553C22.3196 50.8553 22.2984 50.8553 22.2772 50.8553C22.2559 50.8553 22.2347 50.8553 22.2134 50.8553C22.1922 50.8553 22.171 50.8553 22.1497 50.8553C22.1285 50.8553 22.1073 50.8553 22.086 50.8553C22.0648 50.8553 22.0436 50.8553 22.0223 50.8553C22.0011 50.8553 21.9799 50.8553 21.9586 50.8553C21.9374 50.8553 21.9162 50.8553 21.8949 50.8553C21.8737 50.8553 21.8524 50.8553 21.8312 50.8553C21.81 50.8553 21.7887 50.8553 21.7675 50.8553C21.7462 50.8553 21.725 50.8553 21.7038 50.8553C21.6825 50.8553 21.6613 50.8553 21.6401 50.8553C21.6188 50.8553 21.5976 50.8553 21.5764 50.8553C21.5551 50.8553 21.5339 50.8553 21.5127 50.8553C21.4914 50.8553 21.4702 50.8553 21.449 50.8553C21.4277 50.8553 21.4065 50.8553 21.3852 50.8553C21.364 50.8553 21.3428 50.8553 21.3215 50.8553C21.3003 50.8553 21.2791 50.8553 21.2578 50.8553C21.2366 50.8553 21.2153 50.8553 21.1941 50.8553C21.1729 50.8553 21.1516 50.8553 21.1304 50.8553C21.1092 50.8553 21.0879 50.8553 21.0667 50.8553C21.0455 50.8553 21.0242 50.8553 21.003 50.8553C20.9818 50.8553 20.9605 50.8553 20.9393 50.8553C20.918 50.8553 20.8968 50.8553 20.8756 50.8553C20.8543 50.8553 20.8331 50.8553 20.8119 50.8553C20.7906 50.8553 20.7694 50.8553 20.7482 50.8553C20.7269 50.8553 20.7057 50.8553 20.6844 50.8553C20.6632 50.8553 20.642 50.8553 20.6207 50.8553C20.5995 50.8553 20.5783 50.8553 20.557 50.8553C20.5358 50.8553 20.5146 50.8553 20.4933 50.8553C20.4721 50.8553 20.4508 50.8553 20.4296 50.8553C20.4084 50.8553 20.3871 50.8553 20.3659 50.8553C20.3447 50.8553 20.3234 50.8553 20.3022 50.8553C20.281 50.8553 20.2597 50.8553 20.2385 50.8553C20.2173 50.8553 20.196 50.8553 20.1748 50.8553C19.9199 50.8553 19.7005 50.65 19.7005 50.3952C19.7005 50.1404 19.8916 49.9351 20.1465 49.9351H20.1819C20.1889 49.9351 20.2031 49.9351 20.2173 49.9351H20.2456C20.2526 49.9351 20.2668 49.9351 20.281 49.9351H20.3163C20.3234 49.9351 20.3376 49.9351 20.3517 49.9351H20.3871C20.3942 49.9351 20.4084 49.9351 20.4225 49.9351H20.4508C20.4579 49.9351 20.4721 49.9351 20.4862 49.9351H20.5216C20.5287 49.9351 20.5429 49.9351 20.557 49.9351H20.5924C20.5995 49.9351 20.6137 49.9351 20.6278 49.9351H20.6632C20.6703 49.9351 20.6844 49.9351 20.6986 49.9351H20.734C20.7411 49.9351 20.7552 49.9351 20.7694 49.9351H20.8048C20.8119 49.9351 20.826 49.9351 20.8402 49.9351H20.8685C20.8756 49.9351 20.8897 49.9351 20.9039 49.9351H20.9393C20.9464 49.9351 20.9605 49.9351 20.9747 49.9351H21.0101C21.0172 49.9351 21.0313 49.9351 21.0455 49.9351H21.0738C21.0809 49.9351 21.095 49.9351 21.1092 49.9351H21.1446C21.1516 49.9351 21.1658 49.9351 21.18 49.9351H21.2153C21.2224 49.9351 21.2366 49.9351 21.2507 49.9351H21.2791C21.2861 49.9351 21.3003 49.9351 21.3145 49.9351H21.3498C21.3569 49.9351 21.3711 49.9351 21.3852 49.9351H21.4206C21.4277 49.9351 21.4419 49.9351 21.456 49.9351H21.4843C21.4914 49.9351 21.5056 49.9351 21.5197 49.9351H21.5551C21.5622 49.9351 21.5764 49.9351 21.5905 49.9351H21.6259C21.633 49.9351 21.6471 49.9351 21.6613 49.9351H21.6896C21.6967 49.9351 21.7109 49.9351 21.725 49.9351H21.7604C21.7675 49.9351 21.7816 49.9351 21.7958 49.9351H21.8312C21.8383 49.9351 21.8524 49.9351 21.8666 49.9351H21.8949C21.902 49.9351 21.9161 49.9351 21.9303 49.9351H21.9657C21.9728 49.9351 21.9869 49.9351 22.0011 49.9351H22.0365C22.0436 49.9351 22.0577 49.9351 22.0719 49.9351H22.1073C22.1143 49.9351 22.1285 49.9351 22.1427 49.9351H22.1781C22.1851 49.9351 22.1993 49.9351 22.2134 49.9351H22.2489C22.2559 49.9351 22.2701 49.9351 22.2842 49.9351H22.3126C22.3196 49.9351 22.3338 49.9351 22.3479 49.9351H22.3834C22.3904 49.9351 22.4046 49.9351 22.4187 49.9351H22.4541C22.4612 49.9351 22.4754 49.9351 22.4895 49.9351H22.5179C22.5249 49.9351 22.5391 49.9351 22.5532 49.9351H22.5886C22.5957 49.9351 22.6099 49.9351 22.624 49.9351H22.6594C22.6665 49.9351 22.6807 49.9351 22.6948 49.9351H22.7231C22.7302 49.9351 22.7444 49.9351 22.7585 49.9351H22.7939C22.801 49.9351 22.8151 49.9351 22.8293 49.9351H22.8647C22.8718 49.9351 22.8859 49.9351 22.9001 49.9351H22.9284C22.9355 49.9351 22.9496 49.9351 22.9638 49.9351H22.9992C23.0063 49.9351 23.0204 49.9351 23.0346 49.9351H23.07C23.0771 49.9351 23.0912 49.9351 23.1054 49.9351H23.1337C23.1408 49.9351 23.1549 49.9351 23.1691 49.9351H23.2045C23.2116 49.9351 23.2257 49.9351 23.2399 49.9351H23.2753C23.2823 49.9351 23.2965 49.9351 23.3107 49.9351H23.339C23.346 49.9351 23.3602 49.9351 23.3744 49.9351H23.4098C23.4168 49.9351 23.431 49.9351 23.4452 49.9351H23.4806C23.4876 49.9351 23.5018 49.9351 23.5159 49.9351H23.5443C23.5513 49.9351 23.5655 49.9351 23.5797 49.9351H23.615C23.6221 49.9351 23.6363 49.9351 23.6504 49.9351H23.6858C23.6929 49.9351 23.7071 49.9351 23.7212 49.9351H23.7495C23.7566 49.9351 23.7708 49.9351 23.7849 49.9351H23.8203C23.8274 49.9351 23.8416 49.9351 23.8557 49.9351H23.8911C23.8982 49.9351 23.9124 49.9351 23.9265 49.9351H23.9548C23.9619 49.9351 23.9761 49.9351 23.9902 49.9351H24.0256C24.0327 49.9351 24.0469 49.9351 24.061 49.9351H24.0964C24.1035 49.9351 24.1176 49.9351 24.1318 49.9351H24.1601C24.1672 49.9351 24.1814 49.9351 24.1955 49.9351H23.8133C23.8203 49.9351 23.8345 49.9351 23.8486 49.9351H23.884C23.8911 49.9351 23.9053 49.9351 23.9194 49.9351H23.9478C23.9548 49.9351 23.969 49.9351 23.9831 49.9351H24.0185C24.0256 49.9351 24.0398 49.9351 24.0539 49.9351H24.0893C24.0964 49.9351 24.1106 49.9351 24.1247 49.9351H24.153C24.1601 49.9351 24.1743 49.9351 24.1884 49.9351H24.2238C24.2309 49.9351 24.2451 49.9351 24.2592 49.9351H24.2946C24.3017 49.9351 24.3159 49.9351 24.33 49.9351H24.3583C24.3654 49.9351 24.3796 49.9351 24.3937 49.9351H24.4291C24.4362 49.9351 24.4504 49.9351 24.4645 49.9351H24.4999C24.507 49.9351 24.5211 49.9351 24.5353 49.9351H24.5707C24.5778 49.9351 24.5919 49.9351 24.6061 49.9351H24.6415C24.6486 49.9351 24.6627 49.9351 24.6769 49.9351H24.7122C24.7193 49.9351 24.7335 49.9351 24.7477 49.9351H24.776C24.783 49.9351 24.7972 49.9351 24.8114 49.9351H24.8467C24.8538 49.9351 24.868 49.9351 24.8822 49.9351H24.9175C24.9246 49.9351 24.9388 49.9351 24.9529 49.9351H24.9812C24.9883 49.9351 25.0025 49.9351 25.0167 49.9351H25.052C25.0591 49.9351 25.0733 49.9351 25.0874 49.9351H25.1228C25.1299 49.9351 25.1441 49.9351 25.1582 49.9351H25.1865C25.1936 49.9351 25.2078 49.9351 25.2219 49.9351H25.2573C25.2644 49.9351 25.2786 49.9351 25.2927 49.9351H25.3281C25.3352 49.9351 25.3493 49.9351 25.3635 49.9351H25.3918C25.3989 49.9351 25.413 49.9351 25.4272 49.9351H25.4626C25.4697 49.9351 25.4838 49.9351 25.498 49.9351H25.5334C25.5405 49.9351 25.5546 49.9351 25.5688 49.9351H25.5971C25.6042 49.9351 25.6183 49.9351 25.6325 49.9351H25.6679C25.675 49.9351 25.6891 49.9351 25.7033 49.9351H25.7387C25.7458 49.9351 25.7599 49.9351 25.7741 49.9351H25.8024C25.8095 49.9351 25.8236 49.9351 25.8378 49.9351H25.8732C25.8803 49.9351 25.8944 49.9351 25.9086 49.9351H25.944C25.951 49.9351 25.9652 49.9351 25.9794 49.9351H26.0147C26.0218 49.9351 26.036 49.9351 26.0501 49.9351H26.0855C26.0926 49.9351 26.1068 49.9351 26.1209 49.9351H26.1563C26.1634 49.9351 26.1775 49.9351 26.1917 49.9351H26.22C26.2271 49.9351 26.2413 49.9351 26.2554 49.9351H26.2908C26.2979 49.9351 26.312 49.9351 26.3262 49.9351H26.3616C26.3687 49.9351 26.3828 49.9351 26.397 49.9351H26.4253C26.4324 49.9351 26.4465 49.9351 26.4607 49.9351H26.4961C26.5032 49.9351 26.5173 49.9351 26.5315 49.9351H26.5669C26.574 49.9351 26.5881 49.9351 26.6023 49.9351H26.6306C26.6377 49.9351 26.6518 49.9351 26.666 49.9351H26.7014C26.7085 49.9351 26.7226 49.9351 26.7368 49.9351H26.7722C26.7792 49.9351 26.7934 49.9351 26.8076 49.9351H26.8359C26.843 49.9351 26.8571 49.9351 26.8713 49.9351H26.9067C26.9137 49.9351 26.9279 49.9351 26.9421 49.9351H26.9775C26.9845 49.9351 26.9987 49.9351 27.0128 49.9351H27.0412C27.0482 49.9351 27.0624 49.9351 27.0765 49.9351H27.112C27.119 49.9351 27.1332 49.9351 27.1473 49.9351H27.1827C27.1898 49.9351 27.204 49.9351 27.2181 49.9351H27.2465C27.2535 49.9351 27.2677 49.9351 27.2818 49.9351H27.3172C27.3243 49.9351 27.3385 49.9351 27.3526 49.9351H27.388C27.4022 49.9351 27.4093 49.9351 27.4234 49.9351H27.4588C27.4659 49.9351 27.4801 49.9351 27.4942 49.9351H27.5296C27.5367 49.9351 27.5508 49.9351 27.565 49.9351H27.6004C27.6145 49.9351 27.6216 49.9351 27.6287 49.9351H27.6641C27.6712 49.9351 27.6853 49.9351 27.6995 49.9351H27.7349C27.742 49.9351 27.7561 49.9351 27.7703 49.9351H27.8057C27.8198 49.9351 27.8269 49.9351 27.834 49.9351H27.8694C27.8765 49.9351 27.8906 49.9351 27.9048 49.9351H27.9402C27.9472 49.9351 27.9614 49.9351 27.9756 49.9351H28.0109C28.0251 49.9351 28.0322 49.9351 28.0393 49.9351H28.0747C28.0817 49.9351 28.0959 49.9351 28.1101 49.9351H28.1454C28.1525 49.9351 28.1667 49.9351 28.1809 49.9351H28.2162C28.2304 49.9351 28.2375 49.9351 28.2446 49.9351H28.2799C28.287 49.9351 28.3012 49.9351 28.3153 49.9351H28.3507C28.3578 49.9351 28.372 49.9351 28.3861 49.9351H28.4215C28.4357 49.9351 28.4427 49.9351 28.4498 49.9351H28.4852C28.4923 49.9351 28.5065 49.9351 28.5206 49.9351H28.556C28.5631 49.9351 28.5773 49.9351 28.5914 49.9351H28.6268C28.641 49.9351 28.648 49.9351 28.6551 49.9351H28.6905C28.6976 49.9351 28.7118 49.9351 28.7259 49.9351H28.7613C28.7684 49.9351 28.7825 49.9351 28.7967 49.9351H28.8321C28.8462 49.9351 28.8533 49.9351 28.8604 49.9351H28.8958C28.9029 49.9351 28.917 49.9351 28.9312 49.9351H28.9666C28.9737 49.9351 28.9878 49.9351 29.002 49.9351H29.0374C29.0515 49.9351 29.0586 49.9351 29.0728 49.9351H29.1082C29.1152 49.9351 29.1294 49.9351 29.1436 49.9351H29.1789C29.186 49.9351 29.2002 49.9351 29.2143 49.9351H29.2497C29.2639 49.9351 29.271 49.9351 29.2781 49.9351H29.3134C29.3205 49.9351 29.3347 49.9351 29.3488 49.9351H29.3842C29.3913 49.9351 29.4055 49.9351 29.4196 49.9351H29.455C29.4692 49.9351 29.4763 49.9351 29.4833 49.9351H29.5187C29.5258 49.9351 29.54 49.9351 29.5541 49.9351H29.5895C29.5966 49.9351 29.6107 49.9351 29.6249 49.9351H29.6603C29.6745 49.9351 29.6815 49.9351 29.6886 49.9351H29.724C29.7311 49.9351 29.7452 49.9351 29.7594 49.9351H29.7948C29.8019 49.9351 29.816 49.9351 29.8302 49.9351H29.8656C29.8797 49.9351 29.8868 49.9351 29.8939 49.9351H29.9293C29.9364 49.9351 29.9505 49.9351 29.9647 49.9351H30.0001C30.0072 49.9351 30.0213 49.9351 30.0355 49.9351H30.0709C30.085 49.9351 30.0921 49.9351 30.0992 49.9351H30.1346C30.1417 49.9351 30.1558 49.9351 30.17 49.9351H30.2054C30.2124 49.9351 30.2266 49.9351 30.2408 49.9351H30.2762C30.2903 49.9351 30.2974 49.9351 30.3045 49.9351H30.3399C30.3469 49.9351 30.3611 49.9351 30.3752 49.9351H30.4107C30.4177 49.9351 30.4319 49.9351 30.446 49.9351H30.4814C30.4956 49.9351 30.5027 49.9351 30.5168 49.9351H30.5522C30.5593 49.9351 30.5735 49.9351 30.5876 49.9351H30.623C30.6301 49.9351 30.6443 49.9351 30.6584 49.9351H30.6938C30.708 49.9351 30.715 49.9351 30.7221 49.9351H30.7575C30.7646 49.9351 30.7787 49.9351 30.7929 49.9351H30.8283C30.8354 49.9351 30.8495 49.9351 30.8637 49.9351H30.8991C30.9132 49.9351 30.9203 49.9351 30.9274 49.9351H30.9628C30.9699 49.9351 30.984 49.9351 30.9982 49.9351H31.0336C31.0407 49.9351 31.0548 49.9351 31.069 49.9351H31.1044C31.1185 49.9351 31.1256 49.9351 31.1327 49.9351H31.1681C31.1752 49.9351 31.1893 49.9351 31.2035 49.9351H31.2389C31.2459 49.9351 31.2601 49.9351 31.2743 49.9351H31.3097C31.3238 49.9351 31.3309 49.9351 31.338 49.9351H31.3734C31.3804 49.9351 31.3946 49.9351 31.4088 49.9351H31.4441C31.4512 49.9351 31.4654 49.9351 31.4795 49.9351H31.5149C31.5291 49.9351 31.5362 49.9351 31.5433 49.9351H31.5786C31.5857 49.9351 31.5999 49.9351 31.614 49.9351H31.6494C31.6565 49.9351 31.6707 49.9351 31.6848 49.9351H31.7202C31.7344 49.9351 31.7415 49.9351 31.7485 49.9351H31.7839C31.791 49.9351 31.8052 49.9351 31.8193 49.9351H31.8547C31.8618 49.9351 31.876 49.9351 31.8901 49.9351H31.9255C31.9397 49.9351 31.9467 49.9351 31.9609 49.9351H31.9821C32.237 49.9351 32.4423 50.1404 32.4423 50.3952C31.968 50.65 31.7627 50.8553 31.5079 50.8553Z" stroke="#E31E24" stroke-width="0.4" mask="url(#path-1-outside-1_102_14264)"/>
<path d="M36.2222 47.7274H15.262C15.0072 47.7274 14.8019 47.5221 14.8019 47.2673C14.8019 47.0124 15.0072 46.8071 15.262 46.8071H36.2222C36.477 46.8071 36.6823 47.0124 36.6823 47.2673C36.6823 47.5221 36.4699 47.7274 36.2222 47.7274Z" stroke="#E31E24" stroke-width="0.4" mask="url(#path-1-outside-1_102_14264)"/>
</svg>
