<svg width="14" height="21" viewBox="0 0 14 21" fill="none" xmlns="http://www.w3.org/2000/svg">
<path d="M14 7.15234C14 6.22488 13.8189 5.3065 13.4672 4.44964C13.1154 3.59278 12.5998 2.81422 11.9497 2.1584C11.2997 1.50259 10.5281 0.982368 9.67878 0.627444C8.82951 0.272521 7.91925 0.0898438 7 0.0898438C6.08075 0.0898438 5.17049 0.272521 4.32122 0.627444C3.47194 0.982368 2.70026 1.50259 2.05025 2.1584C1.40024 2.81422 0.884626 3.59278 0.532843 4.44964C0.18106 5.3065 -1.36979e-08 6.22488 0 7.15234C0 8.55173 0.41 9.85325 1.105 10.951H1.097C3.457 14.679 7 20.2684 7 20.2684L12.903 10.951H12.896C13.6164 9.8173 13.9995 8.499 14 7.15234V7.15234ZM7 10.1791C6.20435 10.1791 5.44129 9.86024 4.87868 9.2926C4.31607 8.72497 4 7.9551 4 7.15234C4 6.34959 4.31607 5.57972 4.87868 5.01208C5.44129 4.44445 6.20435 4.12556 7 4.12556C7.79565 4.12556 8.55871 4.44445 9.12132 5.01208C9.68393 5.57972 10 6.34959 10 7.15234C10 7.9551 9.68393 8.72497 9.12132 9.2926C8.55871 9.86024 7.79565 10.1791 7 10.1791Z" fill="#E31E24"/>
</svg>
