<svg width="14" height="21" viewBox="0 0 14 21" fill="none" xmlns="http://www.w3.org/2000/svg">
<circle cx="7" cy="7" r="4" fill="white"/>
<path d="M14 7.0625C14 6.13504 13.8189 5.21666 13.4672 4.3598C13.1154 3.50294 12.5998 2.72437 11.9497 2.06856C11.2997 1.41274 10.5281 0.892525 9.67878 0.537601C8.82951 0.182677 7.91925 0 7 0C6.08075 0 5.17049 0.182677 4.32122 0.537601C3.47194 0.892525 2.70026 1.41274 2.05025 2.06856C1.40024 2.72437 0.884626 3.50294 0.532843 4.3598C0.18106 5.21666 -1.36979e-08 6.13504 0 7.0625C0 8.46188 0.41 9.7634 1.105 10.8611H1.097C3.457 14.5891 7 20.1786 7 20.1786L12.903 10.8611H12.896C13.6164 9.72745 13.9995 8.40916 14 7.0625V7.0625ZM7 10.0893C6.20435 10.0893 5.44129 9.77039 4.87868 9.20276C4.31607 8.63513 4 7.86525 4 7.0625C4 6.25975 4.31607 5.48987 4.87868 4.92224C5.44129 4.35461 6.20435 4.03571 7 4.03571C7.79565 4.03571 8.55871 4.35461 9.12132 4.92224C9.68393 5.48987 10 6.25975 10 7.0625C10 7.86525 9.68393 8.63513 9.12132 9.20276C8.55871 9.77039 7.79565 10.0893 7 10.0893Z" fill="#E31E24"/>
</svg>
