<svg width="46" height="45" viewBox="0 0 46 45" fill="none" xmlns="http://www.w3.org/2000/svg">
<path fill-rule="evenodd" clip-rule="evenodd" d="M2.99512 0.900391H42.2572C42.8029 0.900391 43.3263 1.11717 43.7122 1.50305C44.098 1.88893 44.3148 2.4123 44.3148 2.95801V42.0863C44.3148 42.632 44.098 43.1553 43.7122 43.5412C43.3263 43.9271 42.8029 44.1439 42.2572 44.1439H2.99512C2.44941 44.1439 1.92604 43.9271 1.54016 43.5412C1.15428 43.1553 0.9375 42.632 0.9375 42.0863V2.95801C0.9375 2.4123 1.15428 1.88893 1.54016 1.50305C1.92604 1.11717 2.44941 0.900391 2.99512 0.900391Z" fill="white"/>
<path d="M44.4324 41.6543H43.6964C43.6964 42.1689 43.4919 42.6625 43.128 43.0264C42.7641 43.3904 42.2705 43.5948 41.7558 43.5948H3.44729C2.94138 43.5817 2.4606 43.3715 2.10746 43.009C1.75433 42.6465 1.55678 42.1604 1.55695 41.6543V3.34573C1.56966 2.84838 1.77289 2.37491 2.12469 2.02312C2.47648 1.67133 2.94994 1.46809 3.44729 1.45539H41.7558C42.2619 1.45522 42.748 1.65276 43.1105 2.0059C43.4731 2.35903 43.6833 2.83981 43.6964 3.34573V41.6543H45.1517V3.34573C45.1517 2.45838 44.7992 1.60739 44.1718 0.97994C43.5444 0.352495 42.6934 0 41.806 0L3.44729 0C2.55995 0 1.70895 0.352495 1.0815 0.97994C0.454058 1.60739 0.101563 2.45838 0.101562 3.34573L0.101563 41.6543C0.101563 42.5416 0.454058 43.3926 1.0815 44.0201C1.70895 44.6475 2.55995 45 3.44729 45H41.7558C42.6432 45 43.4942 44.6475 44.1216 44.0201C44.7491 43.3926 45.1016 42.5416 45.1016 41.6543H44.4324Z" fill="#E31E24"/>
<path d="M23.5182 17.9513C21.9731 17.7945 20.4206 17.7219 18.8677 17.7338C17.3091 17.7214 15.751 17.794 14.2004 17.9513C12.3435 18.1687 11.9922 18.4364 11.9922 18.8211C11.9922 19.2059 12.3602 19.4736 14.2004 19.691C15.751 19.8483 17.3091 19.9209 18.8677 19.9085C20.4203 19.926 21.9728 19.8589 23.5182 19.7078C25.3584 19.4903 25.7264 19.2226 25.7264 18.8379C25.7264 18.4531 25.3584 18.1855 23.5182 17.968V17.9513ZM18.8677 19.2561C16.9126 19.3066 14.9573 19.1665 13.0294 18.8379C14.9677 18.5014 16.9344 18.3557 18.9011 18.4029C20.8562 18.3524 22.8115 18.4925 24.7394 18.8211C22.8115 19.1498 20.8562 19.2899 18.9011 19.2394" fill="#1D1D1B"/>
<path d="M23.5182 22.5354C21.9732 22.3778 20.4207 22.3052 18.8677 22.318C17.3091 22.3046 15.751 22.3773 14.2004 22.5354C12.3435 22.7529 11.9922 23.0206 11.9922 23.4053C11.9922 23.7901 12.3602 24.0577 14.2004 24.2752C15.751 24.4333 17.3091 24.5059 18.8677 24.4927C20.4207 24.5054 21.9732 24.4328 23.5182 24.2752C25.3584 24.0577 25.7264 23.7901 25.7264 23.4053C25.7264 23.0206 25.3584 22.7529 23.5182 22.5354ZM18.8677 23.8235C16.9243 23.8765 14.9804 23.742 13.0628 23.422C14.9908 23.0943 16.9461 22.9543 18.9011 23.0038C20.8561 22.9543 22.8114 23.0943 24.7394 23.422C22.8114 23.7497 20.8561 23.8897 18.9011 23.8403" fill="#1D1D1B"/>
<path d="M23.5182 27.1019C21.9735 26.9387 20.421 26.8605 18.8677 26.8677C17.3088 26.8599 15.7506 26.9381 14.2004 27.1019C12.3435 27.3194 11.9922 27.587 11.9922 27.9718C11.9922 28.3566 12.3602 28.6242 14.2004 28.8417C15.751 28.999 17.3091 29.0716 18.8677 29.0592C20.4206 29.0711 21.9731 28.9985 23.5182 28.8417C25.3584 28.6242 25.7264 28.3566 25.7264 27.9718C25.7264 27.587 25.3584 27.3194 23.5182 27.1019ZM18.9011 28.4402C16.9461 28.4895 14.9909 28.3494 13.0628 28.022C14.9907 27.6933 16.946 27.5533 18.9011 27.6038C20.8562 27.5533 22.8115 27.6933 24.7394 28.022C22.8113 28.3494 20.8561 28.4895 18.9011 28.4402Z" fill="#1D1D1B"/>
<path d="M23.5182 31.6664C21.9735 31.5031 20.421 31.4249 18.8677 31.4322C17.3088 31.4244 15.7506 31.5026 14.2004 31.6664C12.3435 31.8838 11.9922 32.1515 11.9922 32.5363C11.9922 32.921 12.3602 33.1887 14.2004 33.4061C15.751 33.5642 17.3091 33.6369 18.8677 33.6236C20.4197 33.653 21.9723 33.5971 23.5182 33.4563C25.3584 33.2389 25.7264 32.9712 25.7264 32.5864C25.7264 32.2017 25.3584 31.934 23.5182 31.7166V31.6664ZM18.8677 33.0047C16.9126 33.0531 14.9575 32.913 13.0294 32.5864C14.9573 32.2578 16.9126 32.1177 18.8677 32.1682C20.8227 32.1177 22.778 32.2578 24.7059 32.5864C22.7778 32.9129 20.8227 33.053 18.8677 33.0047Z" fill="#1D1D1B"/>
<path d="M23.5182 36.2522C21.9732 36.0947 20.4206 36.0221 18.8677 36.0347C17.3091 36.0216 15.751 36.0942 14.2004 36.2522C12.3435 36.4697 11.9922 36.7373 11.9922 37.1221C11.9922 37.5068 12.3602 37.7745 14.2004 37.992C15.751 38.1493 17.3091 38.2219 18.8677 38.2094C20.4206 38.2213 21.9731 38.1487 23.5182 37.992C25.3584 37.7745 25.7264 37.5068 25.7264 37.1221C25.7264 36.7373 25.3584 36.4697 23.5182 36.2522ZM18.8677 37.5403C16.9126 37.5895 14.9574 37.4495 13.0294 37.1221C14.9573 36.7934 16.9126 36.6533 18.8677 36.7039C20.8227 36.6533 22.778 36.7934 24.7059 37.1221C22.7779 37.4495 20.8227 37.5895 18.8677 37.5403Z" fill="#1D1D1B"/>
<path d="M40.8365 26.2115L33.7937 24.0033V21.745H32.5056V20.3063C31.9703 18.2654 27.3532 17.5461 26.6172 17.4457C25.9815 17.0777 22.4685 15.3379 10.7584 15.3379H10.4239V16.7264H7.07812V39.31H10.4239V40.6148H10.7417C10.7417 40.6148 11.8291 40.6148 13.4183 40.6148C16.8811 40.6148 23.1878 40.3472 26.6506 38.5238C30.9164 38.3899 32.4053 36.1148 32.4722 36.0145V34.3416H33.7603V31.9494L40.803 29.7412L40.8365 26.2115ZM10.3402 38.5907H7.73054V17.3453H10.3402V38.5907ZM13.4852 39.9624C12.4313 39.9624 11.5949 39.9624 11.1766 39.9624V15.9736C22.0001 15.9736 25.5633 17.5628 26.2324 17.9308V38.0052C22.8867 39.678 16.8142 39.9457 13.4517 39.9457L13.4852 39.9624ZM31.8532 35.7301C31.2258 36.4332 30.4502 36.9884 29.5824 37.3558C28.7146 37.7232 27.7762 37.8935 26.8346 37.8546V18.1148C28.3737 18.3658 31.4183 19.1186 31.8532 20.3899V35.7301ZM40.251 26.7635V27.7338H33.9276V24.7226L40.251 26.7635ZM33.2082 33.639H32.6227V22.4308H33.2082V33.639ZM33.9276 31.2803V28.2691H40.251V29.1725L33.9276 31.2803Z" fill="#1D1D1B"/>
<path d="M2.91016 7.66179V4.23242H5.11833V4.73428H3.52912V5.63763H4.11462C4.34772 5.60554 4.58412 5.60554 4.81722 5.63763C4.99839 5.69191 5.15322 5.81101 5.25216 5.9722C5.36566 6.15224 5.42383 6.36164 5.41945 6.57443C5.43289 6.7223 5.4128 6.8713 5.36066 7.01033C5.30852 7.14936 5.22569 7.27483 5.11833 7.3774C5.00442 7.47741 4.87192 7.55399 4.7284 7.60279C4.58489 7.65158 4.43317 7.67163 4.2819 7.66179H2.91016ZM3.52912 7.12647H4.21499C4.59975 7.12647 4.80049 6.95919 4.80049 6.60789C4.80139 6.47817 4.75364 6.35283 4.66666 6.25659C4.51825 6.14526 4.33183 6.09715 4.14807 6.12276H3.52912V7.12647Z" fill="#1D1D1B"/>
<path d="M5.99219 7.66189V5.11914H6.56096V6.03921H7.23011C7.34673 6.02957 7.46405 6.04554 7.57386 6.08599C7.68366 6.12645 7.7833 6.19042 7.86579 6.27342C8.00364 6.43657 8.07527 6.6455 8.06654 6.85892C8.07323 6.96629 8.05733 7.07388 8.01988 7.17473C7.98242 7.27557 7.92423 7.36745 7.84907 7.44442C7.67648 7.58889 7.45463 7.66084 7.23011 7.64516L5.99219 7.66189ZM6.56096 7.21022H7.12973C7.22715 7.24466 7.33343 7.24466 7.43085 7.21022C7.46242 7.17374 7.48615 7.13115 7.50054 7.0851C7.51493 7.03905 7.51968 6.99053 7.51449 6.94256C7.5202 6.88916 7.51359 6.83517 7.49518 6.78472C7.47676 6.73428 7.44702 6.68873 7.40825 6.65157C7.36948 6.61442 7.3227 6.58664 7.27152 6.57039C7.22034 6.55413 7.16611 6.54983 7.11301 6.5578H6.57769L6.56096 7.21022ZM8.46802 5.11914H9.0368V7.66189H8.46802V5.11914Z" fill="#1D1D1B"/>
<path d="M11.1598 6.69344H11.645C11.6064 6.96289 11.4765 7.21093 11.2769 7.39604C11.0906 7.55428 10.8521 7.63774 10.6078 7.63024C10.4525 7.63776 10.2978 7.60653 10.1577 7.53936C10.0175 7.47219 9.89622 7.3712 9.8048 7.24548C9.61057 6.97249 9.51072 6.64358 9.52042 6.30868C9.50828 5.96296 9.62112 5.62444 9.83826 5.35515C9.94278 5.23909 10.0725 5.14857 10.2176 5.09056C10.3626 5.03256 10.519 5.00861 10.6747 5.02058C10.7969 5.0115 10.9197 5.02693 11.0359 5.06596C11.1521 5.10499 11.2593 5.16684 11.3512 5.24787C11.4431 5.32891 11.518 5.42749 11.5713 5.53784C11.6246 5.64819 11.6553 5.76807 11.6617 5.89046H11.1766C11.1766 5.57262 10.9758 5.42206 10.7082 5.42206C10.6213 5.4173 10.5351 5.43867 10.4606 5.48339C10.386 5.52812 10.3266 5.59416 10.2899 5.67299C10.1696 5.89861 10.1173 6.1543 10.1394 6.40905C10.1272 6.61299 10.1736 6.81615 10.2732 6.99455C10.3121 7.06187 10.3682 7.11756 10.4359 7.1558C10.5036 7.19405 10.5803 7.21346 10.658 7.21202C10.9089 7.21202 11.0762 7.04474 11.1598 6.72689" fill="#1D1D1B"/>
<path d="M12.5151 7.66189V5.57081H11.8125V5.11914H13.7865V5.57081H13.0839V7.66189H12.5151Z" fill="#1D1D1B"/>
<path d="M14.6949 8.51582H14.1094V5.1701H14.6614V5.62177C14.7104 5.4534 14.811 5.30467 14.9491 5.1966C15.0872 5.08853 15.2557 5.02659 15.4309 5.01954C15.5646 5.01897 15.6961 5.05246 15.8132 5.11686C15.9303 5.18125 16.029 5.27442 16.1001 5.38757C16.2744 5.66821 16.3617 5.99418 16.351 6.32437C16.3594 6.6521 16.2784 6.97594 16.1168 7.26117C16.0458 7.38808 15.9409 7.49279 15.8139 7.56367C15.6869 7.63455 15.5428 7.66881 15.3975 7.66266C15.2543 7.66958 15.1121 7.63548 14.9876 7.56435C14.8632 7.49323 14.7616 7.38805 14.6949 7.26117V8.51582ZM14.6949 6.6924C14.691 6.85878 14.7508 7.02036 14.8622 7.14407C14.9462 7.21636 15.0525 7.25769 15.1633 7.26117C15.2459 7.26623 15.3281 7.24667 15.3996 7.20499C15.471 7.1633 15.5285 7.10135 15.5648 7.02697C15.6602 6.835 15.7062 6.62226 15.6986 6.40801C15.7076 6.18828 15.6616 5.96979 15.5648 5.77233C15.5304 5.69647 15.4733 5.63318 15.4014 5.59122C15.3294 5.54926 15.2462 5.5307 15.1633 5.53813C15.088 5.53942 15.014 5.55823 14.9472 5.59308C14.8804 5.62792 14.8227 5.67783 14.7785 5.73887C14.664 5.88695 14.6048 6.07038 14.6112 6.25746L14.6949 6.6924Z" fill="#1D1D1B"/>
<path d="M17.8658 7.71304C17.7015 7.72111 17.5379 7.68872 17.3891 7.61871C17.2403 7.54871 17.111 7.44323 17.0126 7.31155C16.8159 7.04524 16.7103 6.72258 16.7115 6.39148C16.7019 6.04835 16.8212 5.71408 17.046 5.45468C17.1465 5.32278 17.2753 5.21519 17.423 5.13989C17.5707 5.0646 17.7335 5.02353 17.8992 5.01973C18.057 5.01671 18.2135 5.04806 18.358 5.11161C18.5024 5.17517 18.6313 5.2694 18.7356 5.38776C18.9659 5.65057 19.0858 5.9922 19.0702 6.34129C19.0884 6.69582 18.9685 7.04361 18.7356 7.31155C18.6255 7.43163 18.4908 7.52663 18.3407 7.59012C18.1906 7.65362 18.0286 7.68413 17.8658 7.67958V7.71304ZM17.8658 7.21118C18.2505 7.21118 18.4513 6.92679 18.4513 6.34129C18.4643 6.1266 18.418 5.91245 18.3174 5.72233C18.2732 5.65235 18.2111 5.59536 18.1377 5.55715C18.0642 5.51895 17.9819 5.50091 17.8992 5.50486C17.8124 5.50137 17.7262 5.52126 17.6497 5.56246C17.5732 5.60365 17.5091 5.66465 17.4643 5.73906C17.3637 5.92917 17.3174 6.14333 17.3304 6.35802C17.3164 6.58017 17.3688 6.80146 17.481 6.99371C17.5265 7.06252 17.5887 7.1186 17.6619 7.15665C17.7351 7.19471 17.8168 7.21347 17.8992 7.21118" fill="#1D1D1B"/>
<path d="M20.1763 6.53897V6.15421C20.3554 6.17765 20.5374 6.14243 20.6949 6.05384C20.7268 6.02384 20.7523 5.98754 20.7695 5.94724C20.7868 5.90693 20.7956 5.86349 20.7952 5.81964C20.7966 5.77564 20.7884 5.73186 20.771 5.6914C20.7537 5.65093 20.7277 5.61476 20.6949 5.58544C20.6135 5.52377 20.5123 5.49402 20.4105 5.50179C20.2977 5.49238 20.1857 5.5273 20.0982 5.59914C20.0108 5.67098 19.9547 5.77408 19.9421 5.88655L19.4235 5.78618C19.4607 5.55392 19.5855 5.34474 19.7722 5.20162C19.9588 5.0585 20.1932 4.99231 20.4272 5.01666C20.6774 5.00189 20.9252 5.07269 21.1298 5.21741C21.2092 5.27441 21.2736 5.34989 21.3173 5.43733C21.361 5.52476 21.3828 5.62153 21.3807 5.71927C21.3807 5.97577 21.2246 6.15979 20.9123 6.27131C21.2804 6.37168 21.4644 6.578 21.4644 6.89027C21.4657 6.99915 21.4423 7.10692 21.396 7.20544C21.3496 7.30397 21.2815 7.39068 21.1967 7.45904C20.9817 7.62435 20.7148 7.70741 20.4439 7.69324C20.1973 7.7245 19.9478 7.66311 19.7438 7.52094C19.5398 7.37877 19.3959 7.16596 19.3398 6.92373L19.8752 6.82336C19.8912 6.91591 19.9306 7.00284 19.9896 7.07592C20.0486 7.149 20.1253 7.20582 20.2124 7.24099C20.2995 7.27616 20.3941 7.28853 20.4873 7.27692C20.5805 7.26532 20.6692 7.23012 20.745 7.17466C20.7839 7.1385 20.8145 7.09437 20.8347 7.04528C20.8549 6.99619 20.8643 6.94331 20.8621 6.89027C20.8542 6.81338 20.8185 6.74201 20.7618 6.68953C20.7059 6.62546 20.6286 6.58385 20.5443 6.57243H20.1763" fill="#1D1D1B"/>
<path d="M24.1576 7.66085H23.6055C23.5558 7.49223 23.5277 7.31797 23.5219 7.14226C23.4606 7.31672 23.3442 7.46653 23.1903 7.56911C23.0364 7.6717 22.8534 7.7215 22.6687 7.71103C22.559 7.71611 22.4493 7.69952 22.346 7.6622C22.2427 7.62489 22.1477 7.56758 22.0665 7.49356C21.9918 7.41976 21.9337 7.33082 21.8962 7.23272C21.8587 7.13461 21.8426 7.02962 21.849 6.92479C21.849 6.34486 22.362 6.0549 23.3881 6.0549H23.5219V5.87088C23.5219 5.60323 23.3379 5.4694 22.9866 5.4694C22.6353 5.4694 22.4345 5.60323 22.4011 5.87088H21.916C21.9309 5.76538 21.9685 5.66437 22.0263 5.57483C22.084 5.48529 22.1605 5.40937 22.2505 5.3523C22.5015 5.19959 22.794 5.12939 23.087 5.15155C23.2481 5.13177 23.411 5.13177 23.5721 5.15155C23.69 5.18085 23.799 5.23825 23.8899 5.31884C23.9701 5.38686 24.0332 5.47283 24.0739 5.56977C24.0973 5.72503 24.0973 5.88291 24.0739 6.03817V7.17572C24.0499 7.34774 24.0499 7.52228 24.0739 7.6943L24.1576 7.66085ZM23.5219 6.35601C22.7858 6.35601 22.4178 6.53445 22.4178 6.89133C22.418 6.94157 22.4285 6.99124 22.4487 7.03728C22.4688 7.08331 22.4982 7.12473 22.5349 7.15899C22.5799 7.20006 22.6327 7.23161 22.6902 7.25173C22.7477 7.27185 22.8087 7.28014 22.8695 7.27609C22.963 7.28404 23.0571 7.27004 23.1442 7.23518C23.2313 7.20033 23.3091 7.14559 23.3713 7.07534C23.4798 6.94335 23.5389 6.77776 23.5386 6.60694L23.5219 6.35601Z" fill="#1D1D1B"/>
<path d="M26.9523 6.13959L27.8724 7.66189H27.2534L26.5341 6.50762L26.3668 6.5578V7.66189H25.8148V6.5578L25.6475 6.50762L24.9114 7.66189H24.3594L25.2627 6.30687L24.443 5.11914H25.0452L25.7311 6.10613L25.8148 6.13959V5.11914H26.3668V6.13959L26.4672 6.10613L27.1363 5.11914H27.7051L26.9523 6.13959Z" fill="#1D1D1B"/>
<path d="M28.6703 7.39423V7.64516H28.1016V5.11914H28.6703V6.22323C28.6703 6.39052 28.6703 6.5578 28.6703 6.75855C28.7835 6.58449 28.9064 6.41694 29.0384 6.25669L29.6908 5.45371V5.11914H30.2094V7.66189H29.6406V6.69163C29.6406 6.49089 29.6406 6.30687 29.6406 6.13959C29.5378 6.30178 29.4261 6.45815 29.306 6.60799L28.6703 7.39423Z" fill="#1D1D1B"/>
<path d="M30.9336 7.66189V5.11914H31.8035L32.4559 7.21022L33.1418 5.11914H33.9447V7.66189H33.4262V5.57081H33.376L32.6901 7.66189H32.1046L31.4355 5.57081H31.402V7.66189H30.9336Z" fill="#1D1D1B"/>
<path d="M34.6289 7.66189V5.11914H35.1977V6.0894H36.2014V5.11914H36.7702V7.66189H36.2014V6.54107H35.1977V7.66189H34.6289Z" fill="#1D1D1B"/>
<path d="M38.4563 7.71333C38.292 7.72141 38.1284 7.68901 37.9796 7.61901C37.8308 7.549 37.7015 7.44352 37.6031 7.31185C37.4064 7.04553 37.3008 6.72287 37.302 6.39177C37.2877 6.05084 37.401 5.71684 37.6198 5.45497C37.7303 5.30915 37.8753 5.19307 38.0417 5.11715C38.2081 5.04123 38.3908 5.00785 38.5734 5.02002C38.7311 5.017 38.8877 5.04836 39.0321 5.11191C39.1765 5.17546 39.3054 5.26969 39.4098 5.38805C39.6386 5.65174 39.7582 5.99275 39.7444 6.34159C39.7626 6.69611 39.6427 7.0439 39.4098 7.31185C39.2996 7.43192 39.1649 7.52692 39.0148 7.59042C38.8648 7.65391 38.7028 7.68442 38.5399 7.67988L38.4563 7.71333ZM38.5399 7.21147C38.9247 7.21147 39.1254 6.92709 39.1254 6.34159C39.1385 6.12689 39.0922 5.91274 38.9916 5.72263C38.9473 5.65265 38.8853 5.59565 38.8118 5.55745C38.7383 5.51925 38.6561 5.5012 38.5734 5.50515C38.4865 5.50166 38.4004 5.52155 38.3238 5.56275C38.2473 5.60395 38.1833 5.66494 38.1384 5.73936C38.0378 5.92947 37.9915 6.14362 38.0046 6.35831C37.9895 6.58055 38.042 6.80214 38.1551 6.994C38.2006 7.06281 38.2629 7.1189 38.3361 7.15695C38.4092 7.195 38.4909 7.21377 38.5734 7.21147" fill="#1D1D1B"/>
<path d="M40.7519 7.3926V7.64353H40.25V5.11751H40.8188V6.2216C40.8188 6.38888 40.8188 6.5729 40.8188 6.75691C40.9311 6.58229 41.054 6.4147 41.1868 6.25505L41.8392 5.45208V5.11751H42.408V7.66026H41.7556V6.69C41.7556 6.48925 41.7556 6.30524 41.7556 6.13795C41.6537 6.30073 41.5419 6.45715 41.421 6.60635L40.7519 7.3926ZM40.4842 4.04688H40.8188C40.8188 4.26435 41.0028 4.38145 41.2537 4.38145C41.5046 4.38145 41.6552 4.26435 41.6887 4.04688H42.0232C42.0211 4.13814 42.0008 4.22806 41.9634 4.31137C41.9261 4.39467 41.8725 4.46968 41.8058 4.53201C41.7319 4.60076 41.645 4.65396 41.5501 4.68844C41.4553 4.72293 41.3545 4.738 41.2537 4.73275C41.0586 4.74 40.8678 4.67441 40.7184 4.54873C40.6489 4.48512 40.5935 4.40752 40.556 4.32104C40.5186 4.23455 40.4998 4.14112 40.5009 4.04688" fill="#1D1D1B"/>
<path d="M15.0938 12.8162V10.2734H17.1179V12.8162H16.5324V10.6917H15.6625V12.8162H15.0938Z" fill="#1D1D1B"/>
<path d="M19.9738 12.8143H19.4218C19.3722 12.6456 19.3441 12.4714 19.3382 12.2957C19.2768 12.4702 19.1604 12.62 19.0066 12.7226C18.8527 12.8251 18.6696 12.875 18.485 12.8645C18.3752 12.8696 18.2656 12.853 18.1622 12.8157C18.0589 12.7783 17.9639 12.721 17.8828 12.647C17.8072 12.5766 17.7472 12.491 17.7069 12.3959C17.6665 12.3008 17.6467 12.1983 17.6486 12.095C17.6486 11.515 18.1616 11.2251 19.1876 11.2251H19.3549V11.0076C19.3549 10.7399 19.1709 10.6061 18.8196 10.6061C18.4683 10.6061 18.2675 10.7399 18.2341 11.0076H17.7489C17.7638 10.9021 17.8015 10.8011 17.8592 10.7115C17.917 10.622 17.9935 10.5461 18.0835 10.489C18.3345 10.3363 18.627 10.2661 18.9199 10.2883C19.081 10.2685 19.244 10.2685 19.4051 10.2883C19.523 10.3176 19.632 10.375 19.7229 10.4556C19.8036 10.5231 19.8667 10.6092 19.9069 10.7065C19.9314 10.8617 19.9314 11.0197 19.9069 11.1749V12.3292C19.8829 12.5012 19.8829 12.6757 19.9069 12.8477L19.9738 12.8143ZM19.2712 11.5596C18.5352 11.5596 18.1671 11.7381 18.1671 12.095C18.1674 12.1452 18.1779 12.1949 18.198 12.2409C18.2181 12.2869 18.2475 12.3284 18.2842 12.3626C18.3761 12.444 18.4963 12.486 18.6188 12.4797C18.7123 12.4877 18.8064 12.4737 18.8935 12.4388C18.9807 12.404 19.0585 12.3492 19.1207 12.279C19.1954 12.2052 19.2535 12.1162 19.291 12.0181C19.3285 11.92 19.3446 11.815 19.3382 11.7102L19.2712 11.5596Z" fill="#1D1D1B"/>
<path d="M20.9096 12.8162V10.7084H20.207V10.2734H22.181V10.7084H21.4951V12.8162H20.9096Z" fill="#1D1D1B"/>
<path d="M23.0855 13.6661H22.5V10.3203H23.052V10.7051C23.1173 10.5555 23.225 10.4282 23.3617 10.3391C23.4985 10.2499 23.6583 10.2027 23.8216 10.2032C23.9555 10.201 24.0877 10.2338 24.205 10.2984C24.3224 10.3629 24.4208 10.457 24.4907 10.5713C24.665 10.8519 24.7523 11.1779 24.7416 11.5081C24.7509 11.8359 24.6698 12.1599 24.5074 12.4449C24.4364 12.5718 24.3316 12.6765 24.2046 12.7474C24.0776 12.8182 23.9334 12.8525 23.7881 12.8464C23.6422 12.8566 23.4964 12.824 23.3686 12.7527C23.2409 12.6814 23.1367 12.5744 23.0688 12.4449L23.0855 13.6661ZM23.0855 11.759C23.0816 11.9254 23.1415 12.087 23.2528 12.2107C23.2969 12.2664 23.3527 12.3118 23.4163 12.3436C23.4799 12.3754 23.5497 12.3929 23.6208 12.3947C23.7034 12.3997 23.7856 12.3802 23.8571 12.3385C23.9286 12.2968 23.9861 12.2349 24.0223 12.1605C24.1177 11.9685 24.1637 11.7558 24.1561 11.5415C24.1644 11.3218 24.1184 11.1035 24.0223 10.9058C23.9897 10.831 23.9358 10.7674 23.8675 10.7228C23.7991 10.6782 23.7192 10.6546 23.6375 10.6549C23.5622 10.6562 23.4883 10.675 23.4215 10.7099C23.3547 10.7447 23.2969 10.7946 23.2528 10.8556C23.1383 11.0037 23.0791 11.1872 23.0855 11.3742V11.759Z" fill="#1D1D1B"/>
<path d="M26.2643 12.8648C26.1001 12.8729 25.9364 12.8405 25.7877 12.7705C25.6389 12.7005 25.5096 12.595 25.4112 12.4633C25.2405 12.1823 25.1642 11.854 25.1937 11.5265C25.1841 11.1834 25.3034 10.8491 25.5283 10.5897C25.637 10.4678 25.7714 10.3716 25.9219 10.308C26.0723 10.2443 26.235 10.2148 26.3981 10.2217C26.5561 10.2175 26.713 10.2483 26.8576 10.312C27.0022 10.3756 27.1309 10.4704 27.2346 10.5897C27.4649 10.8525 27.5847 11.1941 27.5691 11.5432C27.5874 11.8978 27.4674 12.2455 27.2346 12.5135C27.1244 12.6336 26.9897 12.7286 26.8396 12.7921C26.6896 12.8556 26.5276 12.8861 26.3647 12.8815L26.2643 12.8648ZM26.3647 12.4131C26.7494 12.4131 26.9502 12.1287 26.9502 11.56C26.9633 11.3453 26.917 11.1311 26.8164 10.941C26.7707 10.8684 26.706 10.8097 26.6293 10.7714C26.5526 10.733 26.4669 10.7165 26.3814 10.7235C26.2946 10.72 26.2084 10.7399 26.1319 10.7811C26.0554 10.8223 25.9913 10.8833 25.9465 10.9577C25.8459 11.1478 25.7996 11.362 25.8126 11.5767C25.7976 11.7989 25.85 12.0205 25.9632 12.2124C26.0087 12.2812 26.0709 12.3373 26.1441 12.3753C26.2173 12.4134 26.299 12.4321 26.3814 12.4298" fill="#1D1D1B"/>
<path d="M28 12.8162V10.2734H28.5688V11.2437H29.5558V10.2734H30.1245V12.8162H29.5558V11.6954H28.5688V12.8162H28Z" fill="#1D1D1B"/>
</svg>
