<svg width="46" height="45" viewBox="0 0 46 45" fill="none" xmlns="http://www.w3.org/2000/svg">
<path d="M44.6512 41.6543H43.9151C43.9151 42.1689 43.7107 42.6625 43.3467 43.0264C42.9828 43.3904 42.4892 43.5948 41.9746 43.5948H3.66604C3.16013 43.5817 2.67935 43.3715 2.32621 43.009C1.97308 42.6465 1.77553 42.1604 1.7757 41.6543V3.34573C1.78841 2.84838 1.99164 2.37491 2.34344 2.02312C2.69523 1.67133 3.16869 1.46809 3.66604 1.45539H41.9746C42.4807 1.45522 42.9668 1.65276 43.3293 2.0059C43.6918 2.35903 43.902 2.83981 43.9151 3.34573V41.6543H45.3705V3.34573C45.3705 2.45838 45.018 1.60739 44.3906 0.97994C43.7631 0.352495 42.9121 0 42.0248 0L3.66604 0C2.7787 0 1.9277 0.352495 1.30025 0.97994C0.672808 1.60739 0.320313 2.45838 0.320312 3.34573L0.320313 41.6543C0.320313 42.5416 0.672808 43.3926 1.30025 44.0201C1.9277 44.6475 2.7787 45 3.66604 45H41.9746C42.8619 45 43.7129 44.6475 44.3404 44.0201C44.9678 43.3926 45.3203 42.5416 45.3203 41.6543H44.6512Z" fill="#E31E24"/>
<path fill-rule="evenodd" clip-rule="evenodd" d="M4.43487 2.23242H41.1736C41.6857 2.23242 42.1769 2.43586 42.539 2.79799C42.9011 3.16012 43.1046 3.65126 43.1046 4.16339V40.7678C43.1046 41.2799 42.9011 41.7711 42.539 42.1332C42.1769 42.4953 41.6857 42.6988 41.1736 42.6988H4.43487C3.92275 42.6988 3.4316 42.4953 3.06947 42.1332C2.70735 41.7711 2.50391 41.2799 2.50391 40.7678V4.16339C2.50391 3.65126 2.70735 3.16012 3.06947 2.79799C3.4316 2.43586 3.92275 2.23242 4.43487 2.23242Z" fill="white"/>
<mask id="mask0_166_15189" style="mask-type:alpha" maskUnits="userSpaceOnUse" x="1" y="1" width="44" height="43">
<path fill-rule="evenodd" clip-rule="evenodd" d="M3.46751 1.125H42.1731C42.708 1.12965 43.2197 1.3449 43.5979 1.7244C43.9761 2.10389 44.1907 2.61727 44.1953 3.15393V41.8461C44.1907 42.3827 43.9761 42.8961 43.5979 43.2756C43.2197 43.6551 42.708 43.8704 42.1731 43.875H3.46751C2.93262 43.8704 2.42096 43.6551 2.04272 43.2756C1.66448 42.8961 1.44994 42.3827 1.44531 41.8461V3.17173C1.44529 2.63197 1.65778 2.11406 2.03651 1.73073C2.41525 1.3474 2.92957 1.12969 3.46751 1.125Z" fill="white"/>
</mask>
<g mask="url(#mask0_166_15189)">
<path d="M11.6458 21.7778L28.7559 29.4345C28.9614 28.6191 28.8536 27.7563 28.4537 27.0166C26.5995 25.4412 24.666 23.9617 22.6608 22.5837V12.5091L29.1253 12.274C29.3058 12.1864 29.4472 12.0346 29.5217 11.8483C29.5962 11.662 29.5986 11.4545 29.5283 11.2666C29.2596 10.4774 26.4555 8.63039 20.2932 7.03525C17.4489 6.11974 14.4622 5.7272 11.4779 5.87667C10.907 5.87667 10.7223 6.64905 11.7298 7.55577C13.5984 8.85089 15.563 10.0016 17.6067 10.9979V20.871C17.6067 20.871 13.3921 20.3002 12.5861 20.3002C11.7802 20.3002 11.4444 20.7199 11.4947 21.0557C11.526 21.2835 11.5766 21.5082 11.6458 21.7274" fill="#1A171B"/>
<path d="M44.5706 -6.5556L11.2969 5.95117L11.545 6.6113L44.8187 -5.89547L44.5706 -6.5556Z" fill="#1A171B"/>
<path d="M46.1526 3.4447L29.1432 12.2936L28.8242 11.6723L45.8167 2.80664L46.1526 3.4447Z" fill="#1A171B"/>
<path d="M45.7979 7.74494L22.2383 22.3867L22.6105 22.9857L46.1702 8.34391L45.7979 7.74494Z" fill="#1A171B"/>
<path d="M19.0685 15.8279L11.6953 20.6289L12.0801 21.2199L19.4533 16.4189L19.0685 15.8279Z" fill="#1A171B"/>
<path d="M45.5733 16.4073L28.2188 28.834L28.6375 29.4188L45.992 16.9921L45.5733 16.4073Z" fill="#1A171B"/>
<path fill-rule="evenodd" clip-rule="evenodd" d="M17.4165 36.3707V35.2457H18.1385C18.5226 35.2613 18.9026 35.1619 19.2299 34.9602C19.3731 34.866 19.4889 34.7356 19.5655 34.5823C19.6422 34.429 19.677 34.2582 19.6665 34.0871C19.6785 33.9252 19.6512 33.7627 19.5868 33.6136C19.5225 33.4645 19.4231 33.3332 19.2971 33.2308C19.0196 33.0299 18.6822 32.9292 18.34 32.9453C17.9683 32.9085 17.5956 33.0047 17.2881 33.2169C16.9807 33.429 16.7584 33.7433 16.6609 34.1039L15.4352 33.8856C15.5832 33.2838 15.9478 32.7578 16.4594 32.408C17.0251 32.0153 17.7021 31.8152 18.3904 31.8371C19.0734 31.8152 19.7451 32.0155 20.3046 32.408C20.5547 32.579 20.758 32.81 20.8958 33.0799C21.0337 33.3498 21.1017 33.6498 21.0937 33.9528C21.1049 34.3984 20.956 34.8333 20.674 35.1785C20.5459 35.3394 20.3857 35.4718 20.2035 35.5672C20.0214 35.6626 19.8213 35.7189 19.6161 35.7326C20.0987 35.7879 20.5454 36.0143 20.8754 36.3707C21.1888 36.7208 21.3569 37.1771 21.3456 37.6468C21.3502 37.9717 21.2781 38.293 21.1351 38.5848C20.9922 38.8765 20.7824 39.1305 20.5228 39.3259C19.8938 39.7919 19.1217 40.0236 18.34 39.9807C17.5944 40.0052 16.8618 39.7807 16.2579 39.3427C15.7555 38.9804 15.3889 38.4601 15.2169 37.8651L16.5769 37.5293C16.6589 37.9111 16.8714 38.2525 17.1778 38.4946C17.4843 38.7367 17.8656 38.8644 18.256 38.8557C18.6613 38.8781 19.061 38.7528 19.381 38.5031C19.5113 38.4015 19.6167 38.2716 19.6894 38.1232C19.7621 37.9749 19.8002 37.812 19.8008 37.6468C19.8005 37.3129 19.6677 36.9928 19.4314 36.7569C19.2829 36.6202 19.1079 36.5155 18.9173 36.449C18.7267 36.3826 18.5245 36.3559 18.3232 36.3707H17.4165ZM31.2187 39.88V34.0031H33.2336L34.7448 38.839L36.3232 34.0031H38.187V39.8632H36.9612V35.0274L35.3829 39.8632H33.9053L32.3437 35.0274V39.8632L31.2187 39.88ZM22.6721 39.88V34.0031H24.6702L26.1814 38.7718L27.7598 33.936H29.6236V39.796H28.3978V35.0274L26.8195 39.8632H25.4594L23.8307 35.0274V39.8632L22.6721 39.88ZM14.8139 39.88H8.71875V38.7718H11.1367V33.7345C10.4987 34.3269 9.76671 34.8093 8.97062 35.1617V33.7345C9.39749 33.5863 9.81281 33.4067 10.2132 33.1972C10.4729 33.0189 10.7198 32.8225 10.952 32.6095C11.2153 32.3828 11.4419 32.1165 11.6236 31.8203H12.5807V38.7718H14.8139V39.88Z" fill="#1D1D1B"/>
</g>
</svg>
