<svg width="46" height="45" viewBox="0 0 46 45" fill="none" xmlns="http://www.w3.org/2000/svg">
<path fill-rule="evenodd" clip-rule="evenodd" d="M3.18423 0.851563H42.4026C42.9477 0.851563 43.4705 1.06835 43.8559 1.45423C44.2414 1.8401 44.4579 2.36347 44.4579 2.90918V42.0374C44.4579 42.5832 44.2414 43.1065 43.8559 43.4924C43.4705 43.8783 42.9477 44.0951 42.4026 44.0951H3.18423C2.63913 44.0951 2.11635 43.8783 1.7309 43.4924C1.34545 43.1065 1.12891 42.5832 1.12891 42.0374V2.89245C1.13331 2.34964 1.3518 1.83057 1.73677 1.4483C2.12175 1.06603 2.64201 0.851545 3.18423 0.851563Z" fill="white"/>
<path d="M44.7033 41.6543H43.9848C43.9848 42.1689 43.7806 42.6625 43.4171 43.0264C43.0536 43.3904 42.5605 43.5948 42.0465 43.5948H3.76387C3.25853 43.5817 2.77828 43.3715 2.42554 43.009C2.0728 42.6465 1.87547 42.1604 1.87564 41.6543V3.34573C1.88833 2.84838 2.09135 2.37491 2.44274 2.02312C2.79414 1.67133 3.26708 1.46809 3.76387 1.45539H42.0297C42.5353 1.45522 43.0208 1.65276 43.3829 2.0059C43.7451 2.35903 43.955 2.83981 43.9681 3.34573V41.6543H45.4219V3.34573C45.4219 2.45838 45.0698 1.60739 44.443 0.97994C43.8163 0.352495 42.9662 0 42.0799 0L3.76387 0C2.87752 0 2.02747 0.352495 1.40072 0.97994C0.773977 1.60739 0.421875 2.45838 0.421875 3.34573L0.421875 41.6543C0.421875 42.5416 0.773977 43.3926 1.40072 44.0201C2.02747 44.6475 2.87752 45 3.76387 45H42.0297C42.9161 45 43.7661 44.6475 44.3929 44.0201C45.0196 43.3926 45.3717 42.5416 45.3717 41.6543H44.7033Z" fill="#E31E24"/>
<path d="M12.52 8.11553H11.5508V2.76237H13.7899C14.0408 2.74118 14.2934 2.77183 14.532 2.8524C14.7705 2.93298 14.99 3.06176 15.1768 3.23077C15.3229 3.37803 15.4381 3.55305 15.5156 3.74554C15.5931 3.93802 15.6313 4.14409 15.628 4.35159C15.6373 4.57281 15.5989 4.79344 15.5152 4.99842C15.4316 5.2034 15.3048 5.3879 15.1434 5.53932C14.9651 5.70996 14.7513 5.83895 14.5172 5.91704C14.2832 5.99514 14.0348 6.02039 13.7899 5.991H12.4531L12.52 8.11553ZM12.52 5.17129H13.6562C13.8954 5.2085 14.1398 5.15479 14.3413 5.02074C14.4203 4.94588 14.4821 4.85477 14.5225 4.75369C14.5629 4.65261 14.5809 4.54396 14.5753 4.43523C14.5803 4.22444 14.5023 4.02015 14.3581 3.86646C14.2494 3.77684 14.124 3.70994 13.9891 3.66972C13.8542 3.62949 13.7126 3.61675 13.5727 3.63226H12.52V5.17129Z" fill="#1D1D1B"/>
<path d="M18.7024 6.86075L19.5045 6.97785C19.4021 7.33376 19.1846 7.6456 18.8862 7.86447C18.5579 8.10673 18.1574 8.23056 17.7499 8.21577C17.5028 8.22733 17.2561 8.1838 17.0279 8.08833C16.7996 7.99287 16.5953 7.84784 16.4298 7.66373C16.0803 7.24896 15.9011 6.71683 15.9285 6.17488C15.9061 5.63363 16.0846 5.10323 16.4298 4.68603C16.5974 4.48898 16.8084 4.33354 17.0461 4.23195C17.2839 4.13035 17.542 4.08537 17.8 4.10053C18.048 4.08803 18.2955 4.13458 18.5221 4.23636C18.7486 4.33813 18.9479 4.49224 19.1034 4.68603C19.4273 5.11288 19.5927 5.63927 19.5713 6.17488V6.27525H16.8643C16.8315 6.49149 16.8315 6.71143 16.8643 6.92767C16.9191 7.09478 17.0241 7.24085 17.1651 7.34588C17.2859 7.43201 17.4251 7.48871 17.5717 7.51144C17.7183 7.53417 17.8681 7.52232 18.0093 7.47683C18.1505 7.43134 18.2791 7.35346 18.385 7.24941C18.4908 7.14535 18.5709 7.018 18.6188 6.87748L18.7024 6.86075ZM18.6188 5.68975C18.6263 5.44539 18.543 5.20695 18.3849 5.02061C18.3067 4.93465 18.2111 4.86633 18.1045 4.82018C17.9979 4.77403 17.8827 4.75111 17.7666 4.75295C17.6478 4.7498 17.5298 4.77205 17.4203 4.8182C17.3108 4.86436 17.2124 4.93336 17.1316 5.02061C16.9559 5.2198 16.8554 5.4743 16.8476 5.73994L18.6188 5.68975Z" fill="#1D1D1B"/>
<path d="M23.7185 5.75439L25.1556 8.11312H24.1864L23.0835 6.33989L22.8162 6.4068V8.11312H21.964V6.4068L21.6966 6.33989L20.5603 8.11312H19.6914L21.095 6.02204L19.8251 4.14844H20.7608L21.8303 5.7042L21.964 5.75439V4.14844H22.8162V5.75439L22.9666 5.7042L24.036 4.14844H24.9049L23.7185 5.75439Z" fill="#1D1D1B"/>
<path d="M26.4073 7.71274V8.11423H25.4883V4.16627H26.3739V5.83913C26.3739 6.09006 26.3739 6.37445 26.3739 6.65883C26.5481 6.39143 26.7378 6.13448 26.9421 5.88932L27.9614 4.63467V4.13281H28.8303V8.11423H27.9446V6.44136C27.9446 6.12352 27.9446 5.83913 27.9446 5.5882C27.7857 5.8376 27.6128 6.07777 27.4266 6.30753L26.4073 7.71274Z" fill="#1D1D1B"/>
<path d="M29.9336 8.11397V4.16602H31.2704L32.2897 7.4281L33.3591 4.16602H34.6124V8.11397H33.7936V4.85189H33.7268L32.674 8.11397H31.755L30.7023 4.85189H30.6521V8.11397H29.9336Z" fill="#1D1D1B"/>
<path d="M7.28627 13.3832H8.05493C7.99775 13.8056 7.79715 14.1954 7.48679 14.4872C7.19539 14.7262 6.82723 14.851 6.45077 14.8385C6.20847 14.8494 5.96724 14.8001 5.74858 14.6951C5.52991 14.59 5.34061 14.4324 5.19753 14.2363C4.89861 13.8113 4.7461 13.3004 4.76307 12.7809C4.7446 12.2481 4.91641 11.7262 5.24766 11.3088C5.40636 11.123 5.60381 10.9743 5.82611 10.8732C6.04841 10.772 6.29015 10.7209 6.53433 10.7233C6.91732 10.7004 7.29385 10.8299 7.58183 11.0838C7.8698 11.3376 8.04587 11.6951 8.07164 12.0783L7.30298 12.1787C7.30298 11.6936 6.98549 11.4426 6.58446 11.4426C6.44826 11.4371 6.31349 11.4723 6.1974 11.5438C6.08131 11.6153 5.98917 11.7199 5.93277 11.8441C5.79063 12.1413 5.72186 12.4683 5.73225 12.7977C5.71478 13.1189 5.7902 13.4383 5.94948 13.7177C6.01215 13.8198 6.10103 13.9031 6.20685 13.959C6.31266 14.0149 6.43153 14.0413 6.55104 14.0356C6.93536 14.0356 7.20272 13.7846 7.3364 13.2828" fill="#1D1D1B"/>
<path d="M8.77344 14.8042V10.8395H10.7953C10.9716 10.8179 11.1504 10.8335 11.3202 10.8854C11.49 10.9373 11.6471 11.0242 11.7812 11.1406C11.9785 11.3163 12.0986 11.5627 12.1154 11.8265C12.1138 12.0417 12.0355 12.2493 11.8946 12.4118C11.7537 12.5744 11.5594 12.6812 11.3468 12.7131C11.9483 12.8581 12.2491 13.1871 12.2491 13.7001C12.2535 13.846 12.2275 13.9912 12.1729 14.1266C12.1182 14.2619 12.0361 14.3844 11.9316 14.4863C11.8111 14.5924 11.6708 14.6736 11.5188 14.7252C11.3668 14.7769 11.2061 14.7981 11.046 14.7874L8.77344 14.8042ZM9.65907 12.4789H10.6784C11.0293 12.4789 11.1964 12.3116 11.1964 11.977C11.1964 11.6425 11.0293 11.5086 10.6784 11.5086H9.62565L9.65907 12.4789ZM9.65907 14.1518H10.6784C10.851 14.1702 11.0242 14.1224 11.163 14.0179C11.2126 13.9611 11.2501 13.8946 11.2731 13.8227C11.2961 13.7508 11.3041 13.6749 11.2966 13.5997C11.2966 13.2317 11.0906 13.0477 10.6784 13.0477H9.62565L9.65907 14.1518Z" fill="#1D1D1B"/>
<path d="M15.4641 13.5307L16.2662 13.6478C16.1638 14.0037 15.9463 14.3155 15.6479 14.5344C15.3197 14.7767 14.9191 14.9005 14.5116 14.8857C14.2645 14.8973 14.0179 14.8537 13.7896 14.7583C13.5613 14.6628 13.357 14.5178 13.1915 14.3336C12.842 13.9189 12.6629 13.3867 12.6902 12.8448C12.6678 12.3035 12.8464 11.7731 13.1915 11.356C13.3591 11.1589 13.5701 11.0035 13.8079 10.9019C14.0456 10.8003 14.3037 10.7553 14.5618 10.7705C14.8098 10.758 15.0572 10.8045 15.2838 10.9063C15.5103 11.0081 15.7096 11.1622 15.8651 11.356C16.189 11.7828 16.3544 12.3092 16.333 12.8448V12.9452H13.6761C13.6434 13.1614 13.6434 13.3814 13.6761 13.5976C13.7319 13.7642 13.8367 13.91 13.9769 14.0158C14.0994 14.1087 14.2425 14.1706 14.394 14.1961C14.5456 14.2216 14.701 14.21 14.8472 14.1624C14.9933 14.1147 15.1257 14.0324 15.2331 13.9224C15.3405 13.8124 15.4198 13.678 15.4641 13.5307ZM15.4641 12.3429C15.4542 12.1058 15.3593 11.8801 15.1967 11.7073C15.1185 11.6213 15.023 11.553 14.9164 11.5068C14.8098 11.4607 14.6946 11.4378 14.5785 11.4396C14.4625 11.4388 14.3476 11.4622 14.2412 11.5083C14.1347 11.5544 14.039 11.6221 13.9602 11.7073C13.7845 11.9065 13.684 12.161 13.6761 12.4266L15.4641 12.3429Z" fill="#1D1D1B"/>
<path d="M18.102 16.1259H17.1328V10.8397H17.985V11.5256C18.089 11.294 18.2583 11.0979 18.472 10.9612C18.6857 10.8245 18.9346 10.7532 19.1881 10.756C19.3976 10.7524 19.6045 10.8028 19.7889 10.9024C19.9733 11.002 20.129 11.1475 20.2409 11.3248C20.5138 11.7596 20.6478 12.2673 20.6252 12.7802C20.6407 13.2955 20.5134 13.805 20.2576 14.2523C20.1465 14.4491 19.983 14.6112 19.7853 14.7205C19.5877 14.8298 19.3636 14.882 19.138 14.8713C18.9125 14.8832 18.6884 14.8295 18.4927 14.7167C18.297 14.6039 18.1381 14.4368 18.0352 14.2356L18.102 16.1259ZM18.102 13.165C18.0896 13.4282 18.1795 13.6859 18.3526 13.8843C18.4209 13.9703 18.5071 14.0404 18.6052 14.0895C18.7034 14.1386 18.8111 14.1657 18.9208 14.1687C19.0485 14.1749 19.1753 14.1432 19.2852 14.0778C19.3952 14.0124 19.4834 13.916 19.5391 13.8007C19.6818 13.5037 19.7506 13.1765 19.7396 12.8471C19.7541 12.5067 19.6852 12.1679 19.5391 11.8601C19.4889 11.743 19.4047 11.6437 19.2974 11.5751C19.1901 11.5065 19.0647 11.4718 18.9375 11.4754C18.8208 11.4754 18.7056 11.5026 18.6012 11.5549C18.4968 11.6071 18.406 11.683 18.3359 11.7765C18.1626 12.0073 18.074 12.2909 18.0853 12.5795L18.102 13.165Z" fill="#1D1D1B"/>
<path d="M20.9453 14.8065L22.1986 10.8418H23.2513L24.4878 14.8065H23.5521L22.6664 11.5444L21.6638 14.8065H20.9453Z" fill="#1D1D1B"/>
<path d="M27.4953 13.5307L28.2974 13.6478C28.1951 14.0037 27.9776 14.3155 27.6791 14.5344C27.3509 14.7767 26.9504 14.9005 26.5429 14.8857C26.2957 14.8973 26.0491 14.8537 25.8208 14.7583C25.5925 14.6628 25.3883 14.5178 25.2228 14.3336C24.8733 13.9189 24.6941 13.3867 24.7215 12.8448C24.699 12.3035 24.8776 11.7731 25.2228 11.356C25.3904 11.1589 25.6013 11.0035 25.8391 10.9019C26.0769 10.8003 26.3349 10.7553 26.593 10.7705C26.841 10.758 27.0885 10.8045 27.315 10.9063C27.5416 11.0081 27.7408 11.1622 27.8964 11.356C28.2203 11.7828 28.3857 12.3092 28.3643 12.8448V12.9452H25.6572C25.6245 13.1614 25.6245 13.3814 25.6572 13.5976C25.712 13.7647 25.8171 13.9108 25.958 14.0158C26.0788 14.1019 26.2181 14.1586 26.3647 14.1814C26.5112 14.2041 26.6611 14.1922 26.8023 14.1468C26.9435 14.1013 27.0721 14.0234 27.1779 13.9193C27.2837 13.8153 27.3638 13.6879 27.4118 13.5474L27.4953 13.5307ZM27.4118 12.3597C27.4105 12.1189 27.3214 11.8868 27.1611 11.7073C27.0829 11.6213 26.9874 11.553 26.8808 11.5068C26.7742 11.4607 26.659 11.4378 26.5429 11.4396C26.4281 11.4367 26.314 11.4574 26.2076 11.5006C26.1013 11.5438 26.0049 11.6084 25.9246 11.6905C25.7489 11.8897 25.6484 12.1442 25.6405 12.4099L27.4118 12.3597Z" fill="#1D1D1B"/>
<path d="M29.1836 14.8065V10.8418H30.0859V12.3641H31.6233V10.8418H32.5089V14.8065H31.6233V13.0667H30.0859V14.8065H29.1836Z" fill="#1D1D1B"/>
<path d="M34.4794 14.4052V14.8067H33.5938V10.8421H34.4794V12.5149C34.4794 12.7658 34.4794 13.0502 34.4794 13.3346C34.6535 13.0671 34.8432 12.8102 35.0475 12.5651L36.0668 11.3105V10.8086H36.9525V14.8067H36.0668V13.1339C36.0668 12.816 36.0668 12.5316 36.0668 12.2807C35.8991 12.5484 35.715 12.8054 35.5154 13.0502L34.4794 14.4052Z" fill="#1D1D1B"/>
<path d="M40.2066 14.8051V13.2494H39.2541L38.5189 14.8051H37.5664L38.5523 13.1323C38.3348 13.0722 38.1439 12.9404 38.0105 12.7583C37.8771 12.5761 37.8089 12.3543 37.8171 12.1285C37.8017 11.9586 37.8253 11.7873 37.8862 11.6279C37.947 11.4684 38.0434 11.325 38.168 11.2085C38.4283 11.001 38.7545 10.8941 39.087 10.9074H41.0922V14.8051H40.2066ZM40.2066 12.5969V11.4929H39.2875C39.2087 11.4809 39.1282 11.488 39.0526 11.5135C38.9771 11.539 38.9087 11.5822 38.8531 11.6394C38.7976 11.6966 38.7565 11.7663 38.7332 11.8427C38.71 11.919 38.7052 11.9998 38.7194 12.0784C38.7109 12.15 38.719 12.2226 38.7431 12.2906C38.7672 12.3586 38.8067 12.4201 38.8584 12.4703C38.9102 12.5205 38.9728 12.558 39.0415 12.58C39.1101 12.6019 39.1829 12.6078 39.2541 12.5969H40.2066Z" fill="#1D1D1B"/>
<path d="M10.0637 20.0725H10.8324C10.7707 20.4972 10.5641 20.8873 10.2475 21.1766C9.96052 21.4117 9.59898 21.5363 9.22823 21.5279C8.98592 21.5388 8.74469 21.4895 8.52603 21.3844C8.30736 21.2794 8.11806 21.1218 7.97498 20.9257C7.67495 20.5013 7.52232 19.99 7.54052 19.4703C7.52206 18.9375 7.69386 18.4156 8.02511 17.9982C8.18382 17.8124 8.38127 17.6637 8.60357 17.5626C8.82586 17.4614 9.06761 17.4102 9.31178 17.4127C9.50276 17.4014 9.69409 17.4279 9.87481 17.4908C10.0555 17.5537 10.2221 17.6516 10.3649 17.7791C10.5077 17.9065 10.624 18.0609 10.7071 18.2334C10.7902 18.406 10.8384 18.5932 10.8491 18.7844L10.0804 18.8848C10.0136 18.3941 9.77409 18.1488 9.36191 18.1488C9.22571 18.1432 9.09095 18.1784 8.97486 18.2499C8.85877 18.3214 8.76662 18.426 8.71022 18.5502C8.56808 18.8474 8.49931 19.1744 8.5097 19.5038C8.49223 19.825 8.56766 20.1444 8.72693 20.4238C8.7896 20.5259 8.87849 20.6092 8.9843 20.6651C9.09012 20.721 9.20898 20.7475 9.32849 20.7417C9.71282 20.7417 9.98018 20.4908 10.1139 19.9889" fill="#1D1D1B"/>
<path d="M16.4831 17.5318L14.9457 22.0318C14.8714 22.2719 14.7395 22.4902 14.5614 22.6674C14.3718 22.8312 14.1263 22.9151 13.8763 22.9016H13.3583V22.199H13.7927C13.9371 22.2121 14.0822 22.183 14.2105 22.1154C14.3178 22.0309 14.3942 21.9133 14.4277 21.7808C14.4349 21.6918 14.4349 21.6022 14.4277 21.5132V21.2622L13.0742 17.5485H14.01L14.9457 20.0745L15.7645 17.4648L16.4831 17.5318Z" fill="#1D1D1B"/>
<path d="M16.6986 20.793L17.6176 17.4473H19.0714L19.8902 20.793H20.2578V22.4659H19.6729L19.5727 21.5625H17.0161L16.9158 22.4659H16.3477V20.793H16.6986ZM17.4171 20.793H19.0881L18.5032 18.2168H18.1858L17.4171 20.793Z" fill="#1D1D1B"/>
<path d="M24.1304 21.4821H23.2782C23.2 21.2212 23.1551 20.9514 23.1446 20.6791C23.0526 20.888 22.9134 21.0726 22.7379 21.2184C22.5624 21.3642 22.3555 21.4671 22.1334 21.519C21.9114 21.5709 21.6803 21.5704 21.4585 21.5176C21.2367 21.4647 21.0302 21.3609 20.8553 21.2144C20.7401 21.1015 20.6494 20.9659 20.589 20.8162C20.5286 20.6665 20.4998 20.5059 20.5044 20.3446C20.5044 19.4412 21.3009 18.9895 22.8939 18.9895H23.1446V18.6884C23.1446 18.2758 22.8661 18.0695 22.3091 18.0695C21.7521 18.0695 21.4457 18.2758 21.39 18.6884L20.6381 18.5713C20.6579 18.4067 20.7129 18.2482 20.7994 18.1067C20.8859 17.9653 21.0019 17.8442 21.1394 17.7516C21.5256 17.5161 21.9747 17.4052 22.426 17.4338C22.6757 17.4023 22.9283 17.4023 23.178 17.4338C23.3572 17.4774 23.5234 17.5635 23.6626 17.6847C23.7891 17.7929 23.8867 17.9308 23.9466 18.0862C23.9821 18.3247 23.9821 18.5671 23.9466 18.8055V20.5955C23.9478 20.8673 23.9871 21.1376 24.0636 21.3985L24.1304 21.4821ZM23.0777 19.391C21.9637 19.391 21.4067 19.6643 21.4067 20.2107C21.4047 20.2882 21.4184 20.3652 21.4471 20.4371C21.4759 20.509 21.519 20.5743 21.5738 20.6289C21.7179 20.7506 21.9039 20.8106 22.0918 20.7962C22.2358 20.8062 22.38 20.7826 22.5134 20.7275C22.6467 20.6724 22.7655 20.5871 22.8605 20.4784C23.0338 20.2724 23.1286 20.0116 23.1278 19.7423L23.0777 19.391Z" fill="#1D1D1B"/>
<path d="M25.9883 22.8173H25.0859V17.5311H25.9381V18.217C26.0422 17.9854 26.2114 17.7893 26.4251 17.6526C26.6388 17.5159 26.8877 17.4446 27.1413 17.4475C27.3508 17.4438 27.5577 17.4942 27.7421 17.5938C27.9264 17.6934 28.0821 17.8389 28.194 18.0162C28.4669 18.451 28.6009 18.9587 28.5783 19.4716C28.5929 19.9868 28.4658 20.4961 28.2107 20.9437C28.0996 21.1405 27.9361 21.3026 27.7384 21.4119C27.5408 21.5212 27.3167 21.5734 27.0911 21.5627C26.8656 21.5746 26.6415 21.5209 26.4458 21.4081C26.2501 21.2953 26.0912 21.1282 25.9883 20.927V22.8173ZM25.9883 19.8564C25.9759 20.1196 26.0658 20.3773 26.2389 20.5757C26.3072 20.6617 26.3934 20.7318 26.4915 20.7809C26.5897 20.83 26.6974 20.8571 26.8071 20.8601C26.9348 20.8663 27.0616 20.8347 27.1715 20.7692C27.2815 20.7038 27.3697 20.6074 27.4253 20.4921C27.5687 20.1953 27.6376 19.868 27.6259 19.5385C27.6403 19.1981 27.5715 18.8593 27.4253 18.5515C27.3751 18.4344 27.2909 18.3351 27.1837 18.2665C27.0764 18.1979 26.951 18.1632 26.8238 18.1668C26.7068 18.1654 26.5912 18.1921 26.4866 18.2444C26.382 18.2968 26.2913 18.3734 26.2222 18.4679C26.0488 18.6987 25.9603 18.9823 25.9716 19.2709L25.9883 19.8564Z" fill="#1D1D1B"/>
<path d="M30.9539 21.5645C30.6958 21.5782 30.4385 21.5272 30.205 21.4162C29.9716 21.3052 29.7695 21.1377 29.6171 20.9288C29.3098 20.5126 29.1456 20.0078 29.1492 19.4902C29.1349 18.9574 29.3196 18.4385 29.6672 18.0348C29.8331 17.84 30.0413 17.686 30.276 17.5845C30.5106 17.483 30.7654 17.4367 31.0207 17.4493C31.2664 17.4423 31.5106 17.4896 31.7359 17.588C31.9611 17.6863 32.162 17.8331 32.3241 18.0181C32.6603 18.4413 32.8433 18.9661 32.8433 19.5069C32.8433 20.0477 32.6603 20.5725 32.3241 20.9957C32.1522 21.1819 31.9425 21.329 31.709 21.4271C31.4755 21.5252 31.2237 21.5721 30.9706 21.5645H30.9539ZM30.9706 20.8285C31.5722 20.8285 31.8729 20.3824 31.8729 19.4902C31.8886 19.1585 31.8135 18.8287 31.6557 18.5366C31.5878 18.4218 31.4893 18.3281 31.3713 18.266C31.2533 18.204 31.1203 18.176 30.9873 18.1853C30.8505 18.1784 30.7143 18.209 30.5935 18.2738C30.4728 18.3387 30.3721 18.4354 30.3022 18.5534C30.1444 18.8455 30.0693 19.1752 30.085 19.5069C30.059 19.8522 30.1408 20.1971 30.3189 20.4939C30.39 20.6006 30.4873 20.6874 30.6013 20.746C30.7154 20.8045 30.8425 20.8329 30.9706 20.8285Z" fill="#1D1D1B"/>
<path d="M33.6367 21.4812V17.5332H34.9735L35.9928 20.7953L37.0623 17.5332H38.3155V21.4812H37.4967V18.2191H37.4466L36.3772 21.4812H35.4581L34.4054 18.2191H34.3552V21.4812H33.6367Z" fill="#1D1D1B"/>
<path fill-rule="evenodd" clip-rule="evenodd" d="M8.59287 35.2637C8.1497 35.2637 7.72467 35.4399 7.4113 35.7536C7.09793 36.0674 6.92188 36.4929 6.92188 36.9365C6.92188 37.3802 7.09793 37.8057 7.4113 38.1194C7.72467 38.4332 8.1497 38.6094 8.59287 38.6094L37.8688 38.1243V35.6317L8.59287 35.2637Z" fill="#1D1D1B"/>
<path d="M36.2467 41.9217V33.457H35.9459C35.5354 33.4115 35.1561 33.2154 34.8815 32.9064C34.6069 32.5975 34.4563 32.1977 34.4588 31.7841V31.5332H32.3867V41.9551L36.2467 41.9217Z" fill="#1D1D1B"/>
<path d="M35.8004 30.2297C36.011 30.2356 36.2208 30.2015 36.4187 30.1294C36.5024 30.1165 36.5792 30.0752 36.6359 30.0123C36.6684 29.9791 36.6939 29.9399 36.7111 29.8968C36.7284 29.8538 36.7369 29.8077 36.7362 29.7613C36.8866 29.4937 37.1038 29.0587 37.4714 28.2557L37.5884 27.9881C37.6346 27.925 37.6595 27.8488 37.6595 27.7706C37.6595 27.6924 37.6346 27.6162 37.5884 27.5531V27.4695L36.4856 25.1944C36.4571 25.1343 36.4121 25.0835 36.3559 25.0479C36.2997 25.0124 36.2345 24.9936 36.1681 24.9937C35.8351 25.0135 35.5112 25.1098 35.2214 25.2752C34.9316 25.4406 34.6838 25.6705 34.4971 25.9472C34.2383 25.738 33.9646 25.5479 33.6783 25.3784C32.2173 25.0358 30.7093 24.9397 29.2167 25.094C28.7345 25.1772 28.2937 25.4185 27.9635 25.7799L27.1113 25.2279C25.6768 24.8974 24.1983 24.8014 22.7332 24.9435C22.1974 25.0012 21.7025 25.2579 21.3463 25.6628L20.3103 25.094C19.0339 24.8361 17.7231 24.7965 16.4336 24.9769H16.2999H15.8654C15.411 24.9935 14.9729 25.1514 14.6122 25.4286C14.1402 25.0312 13.556 24.7914 12.9412 24.7427H7.10939C7.05575 24.7311 7.00018 24.7316 6.94676 24.7443C6.89335 24.7569 6.84344 24.7814 6.80071 24.8159C6.75798 24.8504 6.7235 24.894 6.69982 24.9436C6.67614 24.9932 6.66384 25.0475 6.66384 25.1024C6.66384 25.1574 6.67614 25.2116 6.69982 25.2612C6.7235 25.3108 6.75798 25.3544 6.80071 25.3889C6.84344 25.4234 6.89335 25.4479 6.94676 25.4605C7.00018 25.4732 7.05575 25.4737 7.10939 25.4621H12.8075L12.6905 25.6126C12.5027 25.9049 12.4311 26.2571 12.49 26.5996C12.1715 26.3679 11.8067 26.2081 11.4206 26.1312C11.1934 26.1401 10.9754 26.2235 10.8003 26.3686C10.6252 26.5137 10.5026 26.7124 10.4514 26.9342C10.3409 27.2102 10.3059 27.5106 10.3499 27.8047C10.394 28.0987 10.5155 28.3757 10.702 28.6071L10.8357 28.7074L11.6211 29.2762H6.99242C6.93878 29.2645 6.88321 29.2651 6.82979 29.2777C6.77638 29.2904 6.72647 29.3149 6.68374 29.3494C6.64101 29.3839 6.60654 29.4275 6.58285 29.4771C6.55917 29.5267 6.54688 29.5809 6.54688 29.6359C6.54688 29.6908 6.55917 29.7451 6.58285 29.7946C6.60654 29.8442 6.64101 29.8879 6.68374 29.9224C6.72647 29.9569 6.77638 29.9813 6.82979 29.994C6.88321 30.0067 6.93878 30.0072 6.99242 29.9955H13.0414C13.2872 30.0657 13.5476 30.0657 13.7934 29.9955L14.3281 29.7781L14.9297 29.5439L15.3307 29.7613C16.1249 29.9768 16.9498 30.0559 17.7704 29.9955H18.4555C19.0143 30.0487 19.578 30.0149 20.1265 29.8952H20.2267C20.4655 29.758 20.6848 29.5892 20.8784 29.3933C21.1684 29.5844 21.4697 29.7576 21.7808 29.9119C22.5751 30.1267 23.3998 30.2059 24.2204 30.1461H24.9055C25.4636 30.2022 26.0269 30.174 26.5765 30.0624C26.9473 29.9012 27.3049 29.711 27.646 29.4937C27.8948 29.7033 28.1634 29.8882 28.4481 30.0457C29.0275 30.2174 29.6348 30.2742 30.236 30.213H32.1744C32.5166 30.2158 32.8553 30.1439 33.167 30.0023C33.4787 29.8608 33.7558 29.6529 33.9791 29.3933C34.294 29.6866 34.6483 29.9343 35.0318 30.1294C35.289 30.2215 35.5607 30.2668 35.8339 30.2632L35.8004 30.2297ZM31.1551 29.4937H30.2694C29.4588 29.3393 28.7069 28.9629 28.0971 28.4063C27.5624 27.9881 27.0277 27.4862 26.5097 27.0178C25.9917 26.5494 25.457 26.0476 24.9891 25.6795C25.58 25.6735 26.1693 25.7409 26.7436 25.8803C27.0945 26.081 27.3953 26.2985 27.6794 26.4992H27.8298C28.4108 26.9441 28.9686 27.4188 29.5008 27.9212C29.9854 28.3729 30.4867 28.8245 31.1718 29.3097L31.1551 29.4937ZM18.5892 25.4621C19.0658 25.4303 19.5445 25.4698 20.0095 25.5792C21.1006 26.2308 22.1298 26.9812 23.0841 27.8208C23.6356 28.2892 24.2037 28.7576 24.8888 29.2595H24.0032H23.8361C22.9231 29.159 22.0614 28.786 21.363 28.1888C20.7949 27.7873 20.21 27.3022 19.692 26.8505C19.174 26.3989 18.5223 25.8803 18.021 25.529H18.6393L18.5892 25.4621ZM14.4284 28.8747H14.2111L13.6263 29.1089C13.1417 29.3264 12.5736 28.9249 11.3537 28.0048L11.2201 27.9044C11.1078 27.5908 11.1078 27.2479 11.2201 26.9342C11.3203 26.7502 11.4206 26.7502 11.454 26.7502C12.3633 27.197 13.2114 27.7593 13.9772 28.423L14.3281 28.7576L14.4284 28.8747ZM32.8595 29.042C32.6211 29.0742 32.3794 29.0742 32.141 29.042C31.3992 28.4875 30.6905 27.8898 30.0188 27.252C29.5342 26.8171 29.0663 26.3821 28.5316 25.9472C29.2501 25.3115 29.7681 25.4955 30.4031 26.0476L32.0741 27.4862L32.8929 28.1888L33.3608 28.5903C33.2084 28.7532 33.0341 28.894 32.8428 29.0085L32.8595 29.042ZM13.7934 25.9137L14.161 26.1814L15.3474 27.1517L16.4503 28.0383C17.0351 28.5067 17.5698 28.9416 18.1213 29.2929H17.8038C17.0921 29.3351 16.378 29.2788 15.6816 29.1256C15.5173 29.052 15.3605 28.9624 15.2137 28.858V28.7409L14.5453 28.1721L14.2947 27.9212C13.9654 27.6033 13.6531 27.2682 13.3589 26.9175C13.288 26.8017 13.2505 26.6685 13.2505 26.5327C13.2505 26.3969 13.288 26.2637 13.3589 26.1479C13.4024 26.0723 13.466 26.0102 13.5428 25.9688C13.6196 25.9275 13.7064 25.9084 13.7934 25.9137ZM26.5932 29.2595H26.4429C26.2006 29.2654 25.9587 29.2372 25.7243 29.1758C24.8053 28.5234 24.1369 27.9714 23.4852 27.503C22.8335 27.0346 22.4325 26.6331 21.8142 26.1981C22.0292 25.9662 22.3192 25.818 22.633 25.7799H22.7332C23.1033 25.8339 23.4445 26.0106 23.7024 26.2818L25.3734 27.7372L26.7269 28.8747L26.9442 29.0587L26.5097 29.2929L26.5932 29.2595ZM20.1933 29.0085C20.0815 29.1116 19.9581 29.2015 19.8257 29.2762C19.2408 29.5271 17.6033 28.1721 16.8179 27.6033L15.715 26.7167L15.0466 26.1647C15.3268 25.9957 15.6571 25.93 15.9805 25.9789C16.3039 26.0277 16.6 26.1881 16.8179 26.4323L18.5724 27.8208L19.3578 28.4398L20.1933 29.0587V29.0085ZM35.2323 28.1554C35.2323 28.2725 35.2323 28.4063 35.2323 28.5234C35.2543 28.7861 35.3105 29.0448 35.3994 29.2929C34.6486 28.7761 33.9542 28.1817 33.3274 27.5197C32.7781 26.9258 32.1921 26.3671 31.5728 25.8468C32.0918 25.8469 32.6085 25.9144 33.1101 26.0476C33.468 26.2653 33.8037 26.5174 34.1127 26.8004C34.1442 26.8564 34.1905 26.9027 34.2464 26.9342C34.5138 27.2018 34.7644 27.4695 35.0318 27.7706V27.9714L35.2323 28.1554ZM36.3519 28.3394L36.0177 29.042C35.9023 28.8305 35.8339 28.5965 35.8172 28.3561C35.9945 28.3809 36.1745 28.3809 36.3519 28.3561V28.3394ZM36.5524 27.5531C36.2653 27.6513 35.9538 27.6513 35.6668 27.5531V27.3524C35.6736 27.3137 35.6736 27.274 35.6668 27.2353L35.5665 27.1182C35.3326 26.8505 35.0819 26.5996 34.8313 26.3487C34.9351 26.1738 35.0729 26.0215 35.2364 25.9008C35.4 25.7802 35.5861 25.6935 35.7837 25.6461L36.5524 27.5531Z" fill="#1D1D1B"/>
</svg>
