<svg width="45" height="45" viewBox="0 0 45 45" fill="none" xmlns="http://www.w3.org/2000/svg">
<path fill-rule="evenodd" clip-rule="evenodd" d="M0.0182326 23.4055C-0.160813 18.96 0.982102 14.5612 3.30251 10.7652C5.62292 6.96913 9.01665 3.94621 13.0547 2.07853C17.0928 0.210855 21.594 -0.417738 25.9892 0.27221C30.3845 0.962158 34.4765 2.93967 37.7481 5.95479C41.0197 8.96991 43.324 12.8873 44.3697 17.2117C45.4154 21.5362 45.1555 26.0736 43.623 30.2504C42.0905 34.4272 39.354 38.0559 35.7596 40.6778C32.1652 43.2997 27.8742 44.7971 23.4289 44.9808C20.4747 45.1029 17.5254 44.6415 14.7496 43.623C11.9739 42.6045 9.42606 41.049 7.25186 39.0452C5.07767 37.0415 3.31972 34.6288 2.07852 31.9453C0.837325 29.2617 0.137221 26.3598 0.0182326 23.4055Z" fill="#003770"/>
<path fill-rule="evenodd" clip-rule="evenodd" d="M6.57555 23.1266C6.44788 19.9703 7.25907 16.847 8.90652 14.1517C10.554 11.4564 12.9637 9.31013 15.831 7.98439C18.6982 6.65865 21.8942 6.21295 25.0148 6.70365C28.1354 7.19435 31.0404 8.59941 33.3624 10.7411C35.6844 12.8829 37.3191 15.6651 38.0599 18.7359C38.8006 21.8068 38.6141 25.0283 37.5239 27.9931C36.4337 30.958 34.4888 33.5329 31.9351 35.3924C29.3814 37.2518 26.3337 38.3122 23.1774 38.4395C18.9453 38.6102 14.8187 37.0928 11.7053 34.2211C8.59195 31.3494 6.74674 27.3587 6.57555 23.1266Z" fill="white"/>
<path fill-rule="evenodd" clip-rule="evenodd" d="M40.7608 19.4558C40.5714 19.4752 40.3963 19.5653 40.2704 19.708C40.2154 19.7654 40.1732 19.8337 40.1467 19.9086C40.1201 19.9835 40.1098 20.0632 40.1163 20.1423C40.1224 20.2364 40.1563 20.3266 40.2136 20.4014C40.271 20.4762 40.3493 20.5323 40.4386 20.5626C40.6687 20.6185 40.9089 20.6185 41.139 20.5626C41.3837 20.5396 41.6192 20.4579 41.8255 20.3245C41.9044 20.2782 41.9679 20.2096 42.0078 20.1273C42.0477 20.045 42.0623 19.9527 42.0497 19.8621C42.0381 19.7772 42.0068 19.6961 41.9581 19.6255C41.9094 19.555 41.8448 19.4968 41.7695 19.4558C41.5837 19.3467 41.3653 19.307 41.1531 19.3438L40.7608 19.4558ZM38.6173 19.722L38.5332 19.0636L42.3719 18.5732L42.456 19.1897H41.9516C42.1293 19.2429 42.2875 19.3468 42.407 19.4886C42.5264 19.6305 42.6019 19.8041 42.6241 19.9882C42.6456 20.14 42.6271 20.2947 42.5706 20.4372C42.5141 20.5797 42.4215 20.705 42.3019 20.8008C42.0118 21.0419 41.6549 21.1886 41.2792 21.2211C40.9089 21.2752 40.531 21.2268 40.1864 21.081C40.032 21.0192 39.8979 20.9158 39.7989 20.7822C39.6999 20.6486 39.6401 20.4901 39.626 20.3245C39.5949 20.1599 39.6129 19.9899 39.6776 19.8354C39.7424 19.681 39.8511 19.549 39.9902 19.4558L38.6173 19.722ZM39.3878 16.92C39.5279 17.331 39.9062 17.4337 40.5226 17.2283C40.7577 17.1583 40.9702 17.0279 41.139 16.85C41.2017 16.7753 41.2427 16.6849 41.2576 16.5886C41.2724 16.4922 41.2605 16.3936 41.2231 16.3036C41.1975 16.2074 41.1462 16.12 41.0746 16.0509C41.003 15.9818 40.9139 15.9335 40.8168 15.9113C40.5766 15.8722 40.3304 15.8964 40.1023 15.9814C39.8576 16.0459 39.6379 16.1826 39.4719 16.3737C39.413 16.4476 39.3744 16.5354 39.3596 16.6288C39.3449 16.7221 39.3546 16.8176 39.3878 16.906V16.92ZM38.8694 17.0601C38.7986 16.8841 38.773 16.6931 38.795 16.5047C38.8171 16.3162 38.886 16.1363 38.9955 15.9814C39.2141 15.6695 39.5292 15.4382 39.8922 15.3229C40.2569 15.18 40.6622 15.18 41.027 15.3229C41.1979 15.3945 41.3508 15.5034 41.4744 15.6415C41.598 15.7797 41.6892 15.9436 41.7415 16.1215C41.8039 16.29 41.8287 16.4701 41.8141 16.6491C41.7996 16.8282 41.7461 17.002 41.6574 17.1582C41.4407 17.4906 41.1175 17.7396 40.7408 17.8643C40.3641 17.989 39.9562 17.9821 39.5839 17.8447C39.4145 17.7706 39.2631 17.661 39.1398 17.5232C39.0165 17.3854 38.9243 17.2227 38.8694 17.0461V17.0601ZM37.8467 14.3702L39.9622 13.2774L39.598 12.5629L39.9902 12.3528L41.013 14.3422L40.5646 14.5664L40.2004 13.8659L38.0849 14.9586L37.8467 14.3702ZM37.0061 12.1286C37.2583 12.4836 37.6506 12.4836 38.1829 12.1286C38.3851 11.9953 38.5492 11.8119 38.6593 11.5963C38.7118 11.4887 38.7265 11.3666 38.701 11.2497C38.6756 11.1328 38.6116 11.0278 38.5192 10.9518C38.466 10.8679 38.3909 10.8001 38.3021 10.7556C38.2132 10.7112 38.1139 10.6918 38.0148 10.6996C37.7699 10.7321 37.5379 10.8288 37.3424 10.9798C37.1262 11.113 36.9553 11.3083 36.852 11.5402C36.8169 11.6275 36.8048 11.7223 36.8171 11.8156C36.8294 11.9089 36.8655 11.9974 36.9221 12.0726L37.0061 12.1286ZM36.4457 12.3528C36.3269 12.2057 36.2467 12.0313 36.2125 11.8453C36.1782 11.6594 36.191 11.4678 36.2496 11.288C36.3675 10.9302 36.5986 10.6204 36.908 10.4054C37.2191 10.1649 37.6091 10.0499 38.0008 10.0832C38.1871 10.1012 38.367 10.1609 38.5271 10.2579C38.6871 10.355 38.8233 10.4868 38.9255 10.6436C39.0332 10.7883 39.1079 10.9549 39.1442 11.1316C39.1805 11.3083 39.1776 11.4908 39.1356 11.6663C39.0227 12.0441 38.7856 12.3727 38.4627 12.599C38.1398 12.8253 37.75 12.936 37.3564 12.9132C37.1733 12.8904 36.9973 12.8286 36.8402 12.7319C36.6831 12.6352 36.5486 12.5059 36.4457 12.3528ZM32.8171 8.5561L34.7085 6.37054L35.451 7.015L34.4563 9.29862L36.6138 8.00971L37.3143 8.61213L35.409 10.8117L34.9467 10.4194L36.4457 8.61213L34.2882 9.90105L33.7838 9.46674L34.7645 7.1551L33.2234 8.90634L32.8171 8.5561ZM30.7437 2.67191L31.0799 2.82602C31.0052 3.06886 31.1033 3.25099 31.3741 3.37241C31.4221 3.40515 31.4764 3.42758 31.5336 3.43826C31.5907 3.44895 31.6494 3.44767 31.7061 3.4345C31.7627 3.42134 31.8159 3.39657 31.8625 3.36177C31.9091 3.32697 31.9479 3.28289 31.9765 3.23231L32.3128 3.38642C32.2664 3.48136 32.2017 3.56616 32.1223 3.6359C32.043 3.70564 31.9506 3.75894 31.8504 3.79271C31.6395 3.87913 31.403 3.87913 31.192 3.79271C30.9869 3.70683 30.8218 3.54673 30.7297 3.34439C30.6864 3.2474 30.664 3.14238 30.664 3.03617C30.664 2.92996 30.6864 2.82495 30.7297 2.72795L30.7437 2.67191ZM29.4407 6.32851L29.3146 6.5947L28.7262 6.32851L29.9171 3.69464L30.5055 3.96083L29.9871 5.10965L29.7209 5.65603C29.9159 5.54219 30.117 5.43929 30.3234 5.34782L31.3741 4.81544L31.5282 4.4792L32.1166 4.74539L30.9258 7.37926L30.3374 7.11307L30.8417 5.97826C30.9398 5.76811 31.0239 5.57197 31.1219 5.41787C30.9415 5.53597 30.7544 5.64356 30.5615 5.74009L29.4407 6.32851ZM27.3392 5.85217L27.9837 3.05018L28.6141 3.19028L27.9697 5.99227L27.3392 5.85217ZM25.4059 4.88549L26.0223 5.02559C26.1395 5.07096 26.2694 5.07096 26.3866 5.02559C26.4325 4.99306 26.4711 4.95137 26.5 4.90313C26.529 4.8549 26.5476 4.80119 26.5547 4.74539C26.5767 4.6883 26.5851 4.62686 26.5791 4.56597C26.5732 4.50507 26.5531 4.44642 26.5204 4.39469C26.4877 4.34295 26.4434 4.29958 26.391 4.26804C26.3385 4.23649 26.2795 4.21765 26.2184 4.21301L25.602 4.07291L25.4059 4.88549ZM24.6493 5.23574L25.2938 2.43374L25.9242 2.57384L25.6861 3.59657L26.4286 3.76469C26.5599 3.78437 26.6854 3.8321 26.7966 3.90463C26.9078 3.97715 27.0021 4.07277 27.0731 4.18499C27.1883 4.39956 27.2183 4.64974 27.1571 4.88549C27.1385 5.00808 27.0939 5.12528 27.0262 5.22919C26.9586 5.3331 26.8694 5.42132 26.7648 5.48791C26.5354 5.60527 26.2697 5.63033 26.0223 5.55796L24.6493 5.23574ZM21.385 5.15168L21.4551 2.26562H22.1135V3.37241H23.2483V2.26562H23.8368V5.22173H23.1783V3.94682H22.0435V5.22173L21.385 5.15168ZM19.984 5.34782L19.7879 4.22702C19.609 4.42785 19.3667 4.56134 19.1014 4.60529C18.8774 4.65831 18.6417 4.6232 18.4429 4.50722C18.3505 4.4428 18.2728 4.35957 18.2148 4.26299C18.1569 4.16641 18.12 4.05866 18.1067 3.94682L17.8965 2.78399L18.541 2.67191L18.7371 3.75068C18.7371 4.00286 18.9006 4.10093 19.2275 4.04489C19.3745 4.00701 19.5126 3.94034 19.6338 3.84875L19.3956 2.44775L20.0401 2.33567L20.5444 5.13767L19.984 5.34782ZM16.4815 5.72608C16.8925 5.58598 16.9952 5.20772 16.7897 4.59128C16.7164 4.34305 16.5758 4.11999 16.3835 3.94682C16.3009 3.89745 16.2065 3.87138 16.1103 3.87138C16.0141 3.87138 15.9196 3.89745 15.8371 3.94682C15.7409 3.97239 15.6535 4.02375 15.5844 4.09535C15.5152 4.16695 15.467 4.25608 15.4448 4.35311C15.4057 4.59332 15.4298 4.83957 15.5148 5.06762C15.5794 5.31238 15.716 5.53205 15.9071 5.69806C15.981 5.7569 16.0689 5.79557 16.1622 5.81031C16.2555 5.82504 16.3511 5.81533 16.4395 5.78212L16.4815 5.72608ZM16.5936 6.30049C16.4176 6.37134 16.2266 6.39691 16.0382 6.37489C15.8497 6.35286 15.6698 6.28393 15.5148 6.1744C15.203 5.95578 14.9716 5.64074 14.8564 5.27777C14.7134 4.913 14.7134 4.50772 14.8564 4.14296C14.928 3.97199 15.0368 3.81915 15.175 3.69555C15.3131 3.57195 15.4771 3.4807 15.6549 3.42845C15.8234 3.36607 16.0035 3.34128 16.1826 3.3558C16.3617 3.37032 16.5354 3.4238 16.6917 3.51251C17.0301 3.71217 17.2803 4.03251 17.3922 4.40915C17.544 4.78189 17.544 5.19924 17.3922 5.57197C17.3181 5.74138 17.2084 5.89286 17.0707 6.01615C16.9329 6.13943 16.7702 6.23163 16.5936 6.28648V6.30049ZM13.9037 7.4353L12.8249 5.34782L12.1104 5.71207L11.8863 5.26376L13.8897 4.24103L14.1138 4.68935L13.4133 5.05361L14.5061 7.16911L13.9037 7.4353ZM11.3819 6.90292C11.2694 6.75368 11.1039 6.65337 10.9196 6.62272C10.8367 6.61092 10.7523 6.61575 10.6712 6.63692C10.5902 6.6581 10.5142 6.69521 10.4477 6.74607C10.3812 6.79694 10.3255 6.86054 10.2838 6.93318C10.2422 7.00581 10.2154 7.08601 10.2051 7.16911C10.1903 7.36372 10.2449 7.55727 10.3592 7.7155L11.3819 6.90292ZM11.9423 7.56139L12.4607 7.26718C12.5461 7.52172 12.5461 7.79719 12.4607 8.05174C12.3768 8.33574 12.2052 8.58588 11.9703 8.76624C11.8325 8.88328 11.671 8.96896 11.4968 9.01734C11.3226 9.06572 11.14 9.07565 10.9616 9.04644C10.5704 8.96807 10.2244 8.74236 9.99492 8.416C9.74005 8.11539 9.60532 7.73117 9.61665 7.33723C9.62673 7.14987 9.67849 6.96712 9.76817 6.80231C9.85785 6.6375 9.98317 6.49477 10.135 6.38455C10.2749 6.24291 10.4491 6.14004 10.6407 6.086C10.8322 6.03197 11.0346 6.02864 11.2278 6.07633C11.6 6.18848 11.9218 6.42612 12.1384 6.74881L10.6254 8.00971C10.7202 8.1378 10.8335 8.25111 10.9616 8.34595C11.0823 8.41581 11.2214 8.44726 11.3605 8.4361C11.4995 8.42493 11.6318 8.37169 11.7398 8.28346C11.8478 8.19522 11.9264 8.07618 11.9651 7.94219C12.0037 7.80819 12.0007 7.66559 11.9563 7.53337L11.9423 7.56139ZM7.89342 12.8011L5.72188 10.9518L6.14218 10.4614L7.94946 11.9745L8.55189 11.274L6.75862 9.71892L7.19293 9.22857L8.9862 10.7837L9.58863 10.0832L7.78134 8.52808L8.21565 8.03773L10.0089 9.5508L10.3171 9.20055L11.2278 9.99912L10.9476 10.3214L10.3872 9.94308L7.89342 12.8011ZM5.79193 14.2021L5.38564 13.992C5.54034 13.8185 5.6252 13.5939 5.62381 13.3615C5.61034 13.3137 5.58723 13.2692 5.55591 13.2306C5.52459 13.1921 5.48572 13.1603 5.44168 13.1374C5.39585 13.1151 5.34555 13.1035 5.29458 13.1035C5.24361 13.1035 5.19331 13.1151 5.14747 13.1374C5.04096 13.184 4.95592 13.269 4.9093 13.3755C4.83992 13.4836 4.81573 13.6146 4.84192 13.7404C4.86812 13.8661 4.94262 13.9766 5.0494 14.048L4.68514 14.5243C4.48609 14.3552 4.35715 14.118 4.32348 13.859C4.28981 13.6 4.35381 13.3377 4.50301 13.1233C4.61458 12.8603 4.81217 12.643 5.06341 12.5069C5.16119 12.4576 5.26915 12.432 5.37864 12.432C5.48812 12.432 5.59609 12.4576 5.69386 12.5069C5.82116 12.5817 5.92031 12.6963 5.97601 12.833C6.03171 12.9697 6.04088 13.121 6.00208 13.2634C6.09677 13.1212 6.24018 13.0185 6.40532 12.9746C6.57046 12.9308 6.74593 12.9488 6.89872 13.0253C7.00875 13.0798 7.10499 13.1585 7.18021 13.2556C7.25544 13.3527 7.30768 13.4655 7.33302 13.5857C7.38466 13.8905 7.325 14.2038 7.16491 14.4683C7.06602 14.7432 6.8661 14.9701 6.60583 15.1029C6.34557 15.2356 6.04451 15.2642 5.76391 15.1828L5.94604 14.5944C6.08213 14.6471 6.23316 14.646 6.36847 14.5913C6.50377 14.5367 6.61321 14.4326 6.67456 14.3002C6.72182 14.1737 6.72182 14.0344 6.67456 13.9079C6.66019 13.8475 6.63264 13.7911 6.59388 13.7427C6.55513 13.6942 6.50613 13.655 6.4504 13.6277C6.36485 13.5941 6.26976 13.5941 6.18421 13.6277C6.094 13.6518 6.01484 13.7062 5.96005 13.7818C5.8771 13.9077 5.80223 14.0387 5.73589 14.1741L5.79193 14.2021ZM4.33489 15.9393C4.15966 15.8685 3.96374 15.8685 3.78851 15.9393C3.71106 15.9739 3.64139 16.0238 3.58367 16.086C3.52595 16.1481 3.48137 16.2213 3.45259 16.3011C3.42381 16.3809 3.41143 16.4656 3.41619 16.5503C3.42095 16.635 3.44275 16.7179 3.48029 16.7939C3.57411 16.9603 3.72262 17.089 3.90059 17.1582L4.33489 15.9393ZM5.16148 16.1775L5.42767 15.6451C5.6506 15.7981 5.81778 16.0193 5.90401 16.2756C5.99603 16.5578 5.99603 16.862 5.90401 17.1442C5.85298 17.3168 5.76519 17.4762 5.64669 17.6117C5.52819 17.7471 5.38179 17.8553 5.21752 17.9288C4.84835 18.074 4.43788 18.074 4.06871 17.9288C3.68939 17.8151 3.36521 17.5657 3.15806 17.2283C3.06391 17.0663 3.00747 16.8852 2.99291 16.6985C2.97836 16.5117 3.00608 16.3241 3.074 16.1495C3.12322 15.9735 3.21372 15.8117 3.33799 15.6777C3.46225 15.5437 3.6167 15.4413 3.78851 15.3789C4.15554 15.2486 4.55628 15.2486 4.92331 15.3789H4.99336L4.36291 17.2563C4.51125 17.3119 4.6671 17.345 4.82524 17.3543C4.95532 17.3555 5.08255 17.3163 5.1895 17.2423C5.2765 17.177 5.34711 17.0924 5.39575 16.9951C5.44438 16.8979 5.4697 16.7906 5.4697 16.6819C5.4697 16.5731 5.44438 16.4659 5.39575 16.3686C5.34711 16.2713 5.2765 16.1867 5.1895 16.1215L5.16148 16.1775ZM2.82182 19.8201C2.76578 20.2684 3.06466 20.5346 3.71846 20.6187C4.37226 20.7027 4.7225 20.5159 4.7692 20.0583C4.82524 19.6193 4.53103 19.3578 3.88658 19.2737C3.24212 19.1897 2.8872 19.3718 2.82182 19.8201ZM1.14062 19.2317L1.22468 18.5732C1.30629 18.5845 1.38461 18.6127 1.4546 18.6562C1.52459 18.6996 1.58468 18.7573 1.63097 18.8254C1.73314 19.0248 1.78598 19.2458 1.78508 19.4699C1.79391 19.6452 1.8221 19.8191 1.86914 19.9882C1.9099 20.1004 1.98304 20.1979 2.07929 20.2684C2.21077 20.3599 2.358 20.4264 2.5136 20.4646C2.41896 20.333 2.34786 20.1861 2.30345 20.0302C2.28307 19.9097 2.28307 19.7866 2.30345 19.666C2.32367 19.4947 2.38041 19.3298 2.46983 19.1824C2.55926 19.035 2.67929 18.9084 2.82182 18.8114C3.15663 18.5921 3.5636 18.5118 3.95663 18.5872C4.36708 18.6128 4.75257 18.793 5.03539 19.0916C5.15554 19.2331 5.24295 19.3994 5.29139 19.5786C5.33982 19.7578 5.34809 19.9455 5.31559 20.1283C5.29968 20.3104 5.24524 20.487 5.15587 20.6464C5.06649 20.8058 4.94424 20.9444 4.79722 21.053C4.4088 21.2812 3.94912 21.3562 3.50831 21.2631C3.18906 21.2253 2.87453 21.1549 2.56964 21.053C2.31656 20.9702 2.08298 20.8367 1.88315 20.6607C1.73037 20.5341 1.60621 20.3765 1.51889 20.1984C1.46175 20.0263 1.42875 19.8471 1.42082 19.666C1.4389 19.564 1.4389 19.4597 1.42082 19.3578C1.40053 19.3269 1.3737 19.3008 1.34223 19.2815C1.31076 19.2621 1.27541 19.2499 1.23869 19.2457" fill="white"/>
<path d="M37.6359 22.0596L38.3083 21.233L29.3139 21.247L34.6377 14.8164L30.0285 14.8304L24.0742 22.0596H37.6359Z" fill="#1D1D1B"/>
<path d="M23.5418 22.707L23.0234 23.3375H36.5851L37.1034 22.707H23.5418Z" fill="#1D1D1B"/>
<path d="M26.5103 15.9789C26.4122 14.8161 23.9605 14.8301 23.9605 14.8301H14.854L8.84375 22.0732H22.0551L22.5455 21.765C23.4842 21.1206 23.9465 20.5461 23.9465 19.8036C23.9465 19.0611 22.1672 18.7949 22.1672 18.7949C22.8726 18.6791 23.5632 18.4864 24.2267 18.2205C24.8571 17.8983 26.6084 17.1557 26.4963 15.9789H26.5103ZM18.4125 21.1626C17.9128 21.3481 17.3892 21.4613 16.8574 21.4988C16.4231 21.4988 13.9294 21.4988 13.9294 21.4988L15.3304 19.7756H18.0623C18.0623 19.7756 19.2812 19.7756 19.2952 20.2379C19.3092 20.7003 18.6787 21.0085 18.3845 21.1486L18.4125 21.1626ZM20.3039 17.9543C19.603 18.1257 18.8812 18.1964 18.1604 18.1645H16.7594L18.1604 16.5533H20.472C20.472 16.5533 21.5788 16.5533 21.5648 17.0016C21.5508 17.4499 20.7942 17.8702 20.402 17.9683" fill="#1D1D1B"/>
<path d="M8.32467 22.7188H20.5133C19.8619 22.9832 19.1702 23.1348 18.4679 23.1671L17.0669 23.2932L12.6257 23.3352H7.82031L8.32467 22.7188Z" fill="#1D1D1B"/>
<path d="M11.5631 23.9375L10.7085 25.3525L9.81191 23.9375H7.57031V26.2772H8.9573V24.5399L10.0361 26.2491H11.325L12.4037 24.5259V26.2772H13.7767V23.9375H11.5631Z" fill="#1D1D1B"/>
<path d="M17.2239 23.8828C15.6548 23.8828 14.4219 24.3031 14.4219 25.1157C14.4219 25.9283 15.6968 26.3486 17.2239 26.3486C18.751 26.3486 20.0259 25.9423 20.0259 25.1157C20.0259 24.2891 18.751 23.8828 17.2239 23.8828ZM17.2239 25.8022C16.5794 25.8022 16.047 25.55 16.047 25.1157C16.047 24.6814 16.5794 24.4292 17.2239 24.4292C17.8683 24.4292 18.3867 24.6394 18.4007 25.1157C18.4147 25.592 17.8683 25.8022 17.2239 25.8022Z" fill="#1D1D1B"/>
<path d="M28.3059 23.8828C26.7368 23.8828 25.5039 24.3031 25.5039 25.1157C25.5039 25.9283 26.7788 26.3486 28.3059 26.3486C29.833 26.3486 31.1079 25.9423 31.1079 25.1157C31.1079 24.2891 29.833 23.8828 28.3059 23.8828ZM28.3059 25.8022C27.6614 25.8022 27.1291 25.55 27.1291 25.1157C27.1291 24.6814 27.6614 24.4292 28.3059 24.4292C28.9504 24.4292 29.4687 24.6394 29.4827 25.1157C29.4967 25.592 28.9504 25.8022 28.3059 25.8022Z" fill="#1D1D1B"/>
<path d="M25.3455 23.9375H20.1758V24.4979H21.913V26.2632H23.5942V24.4979H25.3455V23.9375Z" fill="#1D1D1B"/>
<path d="M35.9814 25.4222C35.8237 25.3414 35.653 25.2893 35.4771 25.2681C36.1495 25.184 36.6539 24.9319 36.6539 24.6236C36.6539 24.3154 35.9114 23.9512 35.0007 23.9512H31.6523V26.2628H33.3616V25.2961H33.5717H33.7118C33.9737 25.3605 34.2148 25.4907 34.4123 25.6744C34.7626 25.9266 35.0988 26.2488 35.0988 26.2488H37.0602C37.0602 26.2488 36.2476 25.5623 35.9814 25.4082V25.4222ZM33.3616 24.3995H34.3843C34.6925 24.3995 34.9447 24.5116 34.9447 24.6517C34.9447 24.7918 34.6925 24.8898 34.3843 24.8898H33.3616V24.3995Z" fill="#1D1D1B"/>
</svg>
