<svg width="46" height="45" viewBox="0 0 46 45" fill="none" xmlns="http://www.w3.org/2000/svg">
<path fill-rule="evenodd" clip-rule="evenodd" d="M2.9834 0.835938H42.2455C42.7912 0.835938 43.3146 1.05272 43.7004 1.4386C44.0863 1.82448 44.3031 2.34784 44.3031 2.89356V42.0218C44.3031 42.5675 44.0863 43.0909 43.7004 43.4768C43.3146 43.8627 42.7912 44.0794 42.2455 44.0794H2.9834C2.43769 44.0794 1.91432 43.8627 1.52844 43.4768C1.14257 43.0909 0.925781 42.5675 0.925781 42.0218V2.89356C0.925781 2.34784 1.14257 1.82448 1.52844 1.4386C1.91432 1.05272 2.43769 0.835938 2.9834 0.835938Z" fill="white"/>
<path d="M44.5496 41.6543H43.8135C43.8135 42.1689 43.6091 42.6625 43.2452 43.0264C42.8813 43.3904 42.3877 43.5948 41.873 43.5948H3.56447C3.05856 43.5817 2.57778 43.3715 2.22465 43.009C1.87151 42.6465 1.67397 42.1604 1.67414 41.6543V3.34573C1.68684 2.84838 1.89008 2.37491 2.24187 2.02312C2.59366 1.67133 3.06713 1.46809 3.56447 1.45539H41.873C42.3791 1.45522 42.8652 1.65276 43.2277 2.0059C43.5902 2.35903 43.8005 2.83981 43.8135 3.34573V41.6543H45.2689V3.34573C45.2689 2.45838 44.9164 1.60739 44.289 0.97994C43.6615 0.352495 42.8106 0 41.9232 0L3.56447 0C2.67713 0 1.82614 0.352495 1.19869 0.97994C0.571245 1.60739 0.21875 2.45838 0.21875 3.34573L0.21875 41.6543C0.21875 42.5416 0.571245 43.3926 1.19869 44.0201C1.82614 44.6475 2.67713 45 3.56447 45H41.873C42.7604 45 43.6114 44.6475 44.2388 44.0201C44.8662 43.3926 45.2187 42.5416 45.2187 41.6543H44.5496Z" fill="#E31E24"/>
<path d="M22.7337 42.1235C20.3763 42.1164 18.0735 41.4129 16.1147 40.1013C14.1558 38.7896 12.6283 36.9284 11.7239 34.7514C10.8194 32.5743 10.5785 30.1786 11.0313 27.8651C11.4842 25.5516 12.6105 23.4234 14.269 21.748L16.2597 23.7388C14.981 25.0189 14.1105 26.6494 13.7582 28.4241C13.4059 30.1989 13.5877 32.0382 14.2806 33.7097C14.9735 35.3812 16.1463 36.8097 17.6509 37.8147C19.1555 38.8198 20.9243 39.3562 22.7337 39.3562C24.543 39.3562 26.3118 38.8198 27.8164 37.8147C29.321 36.8097 30.4938 35.3812 31.1867 33.7097C31.8796 32.0382 32.0614 30.1989 31.7091 28.4241C31.3569 26.6494 30.4864 25.0189 29.2076 23.7388L31.2151 21.748C32.8907 23.4209 34.0321 25.5534 34.4948 27.8754C34.9575 30.1975 34.7206 32.6046 33.8141 34.7919C32.9077 36.9792 31.3724 38.8483 29.4029 40.1624C27.4333 41.4765 25.1181 42.1765 22.7504 42.1737" fill="#1D1D1B"/>
<path fill-rule="evenodd" clip-rule="evenodd" d="M25.1094 17.5645L32.8715 20.1574L27.6856 25.3433L25.1094 17.5645Z" fill="#1D1D1B"/>
<path fill-rule="evenodd" clip-rule="evenodd" d="M20.3754 17.5645L12.6133 20.1574L17.7992 25.3433L20.3754 17.5645Z" fill="#1D1D1B"/>
<path d="M3.73156 8.09582H2.94531V3.69619H4.752C4.9578 3.67984 5.16476 3.70552 5.36032 3.77166C5.55588 3.8378 5.73594 3.94303 5.88955 4.08095C6.01063 4.2044 6.10562 4.35097 6.16885 4.51191C6.23208 4.67286 6.26226 4.84489 6.25758 5.01775C6.26605 5.20152 6.23454 5.38493 6.16522 5.55533C6.09591 5.72573 5.99044 5.87907 5.85609 6.00474C5.57608 6.25433 5.21051 6.38618 4.83565 6.37277H3.73156V8.09582ZM3.73156 5.67017H4.66836C4.87457 5.68432 5.07829 5.61841 5.23713 5.48615C5.3011 5.42615 5.35195 5.35356 5.3865 5.27295C5.42104 5.19234 5.43854 5.10545 5.43788 5.01775C5.43536 4.84125 5.36321 4.67289 5.23713 4.54935C5.14754 4.47363 5.04356 4.41681 4.93144 4.38231C4.81932 4.34781 4.70138 4.33635 4.58472 4.3486H3.73156V5.67017Z" fill="#1D1D1B"/>
<path d="M8.85328 7.06131L9.52242 7.14495C9.44053 7.43877 9.26416 7.69744 9.02057 7.88101C8.7487 8.07753 8.41899 8.17762 8.08376 8.1654C7.86692 8.18602 7.64826 8.15595 7.44503 8.07757C7.24181 7.99918 7.05959 7.87462 6.91276 7.71373C6.62086 7.36937 6.47129 6.92664 6.49454 6.47581C6.48038 6.03137 6.62912 5.59707 6.91276 5.25462C7.0536 5.09332 7.22906 4.96592 7.42603 4.88191C7.623 4.79791 7.8364 4.75948 8.0503 4.76949C8.25704 4.75829 8.46347 4.79644 8.65255 4.8808C8.84162 4.96515 9.00791 5.09329 9.13767 5.25462C9.40282 5.60518 9.53873 6.03657 9.52242 6.47581V6.55945H7.33097C7.30488 6.73694 7.30488 6.91728 7.33097 7.09477C7.37668 7.2348 7.46427 7.35742 7.5819 7.44607C7.68163 7.51801 7.79684 7.56556 7.91829 7.5849C8.03973 7.60423 8.16401 7.59481 8.28115 7.55739C8.39829 7.51997 8.50502 7.45559 8.59276 7.36944C8.6805 7.28328 8.74681 7.17775 8.78636 7.06131H8.85328ZM8.78636 6.09105C8.79854 5.87715 8.72648 5.66698 8.58562 5.50555C8.51877 5.43828 8.43927 5.38489 8.35171 5.34846C8.26414 5.31203 8.17024 5.29328 8.0754 5.29328C7.98056 5.29328 7.88665 5.31203 7.79909 5.34846C7.71152 5.38489 7.63203 5.43828 7.56517 5.50555C7.42296 5.66851 7.34038 5.87497 7.33097 6.09105H8.78636Z" fill="#1D1D1B"/>
<path d="M10.2578 8.1133V4.76757H11.9307C12.0773 4.74963 12.226 4.7627 12.3672 4.80593C12.5084 4.84915 12.639 4.92158 12.7504 5.0185C12.8918 5.17403 12.9694 5.37709 12.9678 5.58727C12.9695 5.76628 12.9059 5.93976 12.7889 6.07525C12.6719 6.21073 12.5095 6.29893 12.3322 6.32333C12.834 6.44043 13.085 6.72482 13.085 7.14304C13.0905 7.26322 13.0711 7.38326 13.0279 7.49556C12.9847 7.60785 12.9187 7.70997 12.834 7.79545C12.7347 7.88494 12.6183 7.95333 12.4917 7.99646C12.3652 8.0396 12.2312 8.05658 12.098 8.04638L10.2578 8.1133ZM10.9771 6.1895H11.8136C12.098 6.1895 12.2485 6.05567 12.2485 5.77129C12.2485 5.4869 12.098 5.38653 11.8136 5.38653H10.9771V6.1895ZM10.9771 7.54452H11.8136C11.9574 7.55789 12.101 7.51603 12.2151 7.42742C12.2583 7.38046 12.2911 7.32488 12.3113 7.26432C12.3315 7.20377 12.3386 7.13963 12.3322 7.07612C12.3322 6.69136 12.1649 6.69136 11.8303 6.69136H10.9939L10.9771 7.54452Z" fill="#1D1D1B"/>
<path d="M15.8237 7.06021L16.4928 7.14385C16.4109 7.43767 16.2345 7.69634 15.991 7.87991C15.7191 8.07642 15.3894 8.17651 15.0542 8.1643C14.851 8.17214 14.6486 8.13582 14.4609 8.05784C14.2732 7.97986 14.1046 7.86208 13.9668 7.71262C13.6969 7.3653 13.5657 6.93005 13.5988 6.49143C13.5846 6.04699 13.7333 5.6127 14.017 5.27025C14.1578 5.10895 14.3333 4.98154 14.5302 4.89754C14.7272 4.81353 14.9406 4.7751 15.1545 4.78511C15.3613 4.77391 15.5677 4.81207 15.7568 4.89642C15.9458 4.98078 16.1121 5.10892 16.2419 5.27025C16.507 5.6208 16.643 6.0522 16.6266 6.49143V6.57508H14.3181C14.292 6.75256 14.292 6.93291 14.3181 7.11039C14.3638 7.25042 14.4514 7.37305 14.569 7.46169C14.6687 7.53364 14.784 7.58119 14.9054 7.60052C15.0268 7.61985 15.1511 7.61043 15.2683 7.57301C15.3854 7.53559 15.4921 7.47122 15.5799 7.38506C15.6676 7.29891 15.7339 7.19337 15.7735 7.07694L15.8237 7.06021ZM15.7735 6.10668C15.7767 5.89619 15.6988 5.69254 15.556 5.5379C15.4892 5.47063 15.4097 5.41725 15.3221 5.38082C15.2345 5.34439 15.1406 5.32563 15.0458 5.32563C14.9509 5.32563 14.857 5.34439 14.7695 5.38082C14.6819 5.41725 14.6024 5.47063 14.5356 5.5379C14.3934 5.70086 14.3108 5.90732 14.3014 6.1234L15.7735 6.10668Z" fill="#1D1D1B"/>
<path d="M17.9872 9.20096H17.2344V4.83479H17.937V5.40356C18.0228 5.21034 18.1639 5.04685 18.3426 4.93372C18.5212 4.82059 18.7293 4.76288 18.9407 4.76788C19.1138 4.76431 19.2848 4.80556 19.4373 4.88764C19.5897 4.96971 19.7183 5.08981 19.8106 5.23628C20.0364 5.59615 20.1473 6.01629 20.1284 6.44074C20.1408 6.86228 20.0366 7.27907 19.8273 7.6452C19.7373 7.80861 19.6035 7.94369 19.441 8.0353C19.2785 8.1269 19.0936 8.17139 18.9072 8.16379C18.7202 8.17545 18.5337 8.13268 18.3705 8.04065C18.2072 7.94862 18.0741 7.81127 17.9872 7.6452V9.20096ZM17.9872 6.75858C17.983 6.97422 18.0607 7.18342 18.2046 7.34409C18.2608 7.41499 18.3319 7.4727 18.4128 7.51316C18.4938 7.55363 18.5826 7.57586 18.673 7.57829C18.7793 7.5834 18.8848 7.5577 18.9768 7.50428C19.0688 7.45086 19.1434 7.37199 19.1916 7.27717C19.3105 7.03258 19.3679 6.76271 19.3589 6.49093C19.3706 6.21353 19.3132 5.93758 19.1916 5.68795C19.145 5.57977 19.064 5.48999 18.9612 5.43253C18.8583 5.37507 18.7394 5.35313 18.6229 5.37011C18.5253 5.36945 18.4291 5.39183 18.3419 5.43544C18.2546 5.47904 18.179 5.54264 18.121 5.62104C17.9787 5.81416 17.9078 6.05063 17.9202 6.29018L17.9872 6.75858Z" fill="#1D1D1B"/>
<path d="M22.6834 6.90801H23.3191C23.2667 7.25616 23.0953 7.5754 22.834 7.81135C22.5954 8.01158 22.2923 8.11856 21.9808 8.11247C21.78 8.12063 21.5803 8.0791 21.3993 7.99155C21.2184 7.90401 21.0619 7.77316 20.9437 7.61061C20.6928 7.26008 20.5635 6.83705 20.5756 6.40615C20.5583 5.96406 20.7008 5.53052 20.9771 5.18496C21.1026 5.04933 21.2555 4.94192 21.4257 4.86982C21.5958 4.79772 21.7794 4.76259 21.9641 4.76674C22.1215 4.7554 22.2796 4.77554 22.4291 4.82597C22.5786 4.8764 22.7165 4.95611 22.8349 5.06046C22.9533 5.1648 23.0497 5.29168 23.1184 5.4337C23.1872 5.57571 23.227 5.73 23.2355 5.88756L22.5998 5.9712C22.5998 5.56972 22.3489 5.36897 21.9976 5.36897C21.8825 5.36223 21.7681 5.39061 21.6695 5.45036C21.5709 5.51011 21.4928 5.5984 21.4455 5.70355C21.3267 5.94814 21.2693 6.21801 21.2782 6.48979C21.2595 6.757 21.3176 7.02399 21.4455 7.25931C21.497 7.34527 21.5709 7.41559 21.6593 7.46274C21.7477 7.5099 21.8473 7.5321 21.9474 7.52697C22.2652 7.52697 22.4827 7.32622 22.5998 6.90801" fill="#1D1D1B"/>
<path d="M24.6228 7.77873V8.1133H23.8867V4.76758H24.6228V6.18951C24.6228 6.40698 24.6228 6.62446 24.6228 6.87539C24.7663 6.65445 24.9227 6.44219 25.0912 6.2397L25.9276 5.20252V4.83449H26.6637V8.18022H25.9276V6.69137C25.9276 6.42371 25.9276 6.18951 25.9276 5.98877C25.7938 6.19197 25.6486 6.38745 25.4927 6.57427L24.6228 7.77873Z" fill="#1D1D1B"/>
<path d="M27.5195 8.11159V4.76587H29.1924C29.3363 4.75031 29.4819 4.76457 29.62 4.80774C29.7582 4.85091 29.8859 4.92208 29.9954 5.0168C30.1382 5.17143 30.2161 5.37509 30.2128 5.58557C30.2145 5.76458 30.1509 5.93806 30.0339 6.07355C29.9169 6.20903 29.7545 6.29723 29.5772 6.32163C30.079 6.43873 30.3299 6.72312 30.3299 7.14133C30.3355 7.26152 30.3161 7.38156 30.2729 7.49386C30.2297 7.60615 30.1637 7.70827 30.079 7.79375C29.9792 7.88243 29.8627 7.95031 29.7363 7.9934C29.6099 8.03648 29.4762 8.05392 29.343 8.04468L27.5195 8.11159ZM28.2556 6.1878H29.1088C29.3931 6.1878 29.5437 6.05397 29.5437 5.76959C29.5437 5.4852 29.3931 5.38483 29.1088 5.38483H28.2556V6.1878ZM28.2556 7.54282H29.1088C29.2526 7.55619 29.3961 7.51432 29.5102 7.42572C29.5535 7.37876 29.5863 7.32318 29.6064 7.26262C29.6266 7.20207 29.6337 7.13793 29.6273 7.07442C29.6273 6.7733 29.4601 6.62275 29.1255 6.62275H28.2723L28.2556 7.54282Z" fill="#1D1D1B"/>
<path d="M31.0508 8.09802V4.83594H31.7868V6.09058H33.0582V4.83594H33.7943V8.09802H33.0582V6.67609H31.7868V8.09802H31.0508Z" fill="#1D1D1B"/>
<path d="M34.7148 8.09573V4.75H35.4509V5.93773H36.3041C36.4544 5.92531 36.6056 5.94581 36.7471 5.99782C36.8887 6.04982 37.0172 6.13208 37.1238 6.23885C37.3053 6.44672 37.401 6.71583 37.3914 6.99164C37.4006 7.13015 37.38 7.26904 37.331 7.3989C37.2819 7.52877 37.2055 7.6466 37.107 7.74442C36.8846 7.93516 36.5964 8.03124 36.3041 8.01208L34.7148 8.09573ZM35.4509 7.52695H36.1702C36.3083 7.53457 36.4446 7.49309 36.555 7.40985C36.5974 7.36233 36.6296 7.30667 36.6497 7.24626C36.6699 7.18586 36.6775 7.12199 36.6721 7.05855C36.6802 6.9907 36.6727 6.92191 36.6504 6.85734C36.628 6.79278 36.5913 6.73414 36.543 6.68582C36.4946 6.63751 36.436 6.60078 36.3714 6.57842C36.3069 6.55605 36.2381 6.54862 36.1702 6.55669H35.4509V7.52695ZM37.8264 4.83364H38.5624V8.17937H37.8264V4.83364Z" fill="#1D1D1B"/>
<path d="M40.2048 7.77684V8.11141H39.4688V4.76568H40.2048V6.18762C40.2048 6.39951 40.2048 6.62814 40.2048 6.87349C40.3483 6.65256 40.5047 6.44029 40.6732 6.2378L41.5096 5.20063V4.8326H42.2457V8.17832H41.5096V6.68947C41.5096 6.42182 41.5096 6.18762 41.5096 5.98687C41.3758 6.19008 41.2306 6.38556 41.0747 6.57237L40.2048 7.77684ZM39.8702 3.34375H40.3721C40.3721 3.62814 40.6063 3.77869 40.9409 3.77869C41.2754 3.77869 41.4427 3.64487 41.4929 3.34375H41.9111C41.9091 3.46342 41.8828 3.58143 41.834 3.69068C41.7851 3.79994 41.7146 3.89816 41.6267 3.97944C41.532 4.06556 41.4211 4.13207 41.3005 4.17513C41.1799 4.2182 41.052 4.23697 40.9241 4.23037C40.6721 4.23582 40.4273 4.14624 40.2383 3.97944C40.1343 3.90673 40.0474 3.81216 39.9839 3.70234C39.9203 3.59253 39.8815 3.47014 39.8702 3.34375Z" fill="#1D1D1B"/>
<path d="M13.9169 15.826H13.1641V11.4598H13.8667V12.0286C13.9525 11.8353 14.0936 11.6718 14.2723 11.5587C14.4509 11.4456 14.659 11.3879 14.8704 11.3929C15.0435 11.3893 15.2145 11.4306 15.3669 11.5126C15.5194 11.5947 15.648 11.7148 15.7403 11.8613C15.9661 12.2212 16.077 12.6413 16.0581 13.0657C16.0696 13.4872 15.9655 13.9037 15.757 14.2702C15.667 14.4336 15.5332 14.5687 15.3707 14.6603C15.2082 14.7519 15.0233 14.7964 14.8369 14.7888C14.6499 14.8005 14.4634 14.7577 14.3001 14.6657C14.1369 14.5736 14.0037 14.4363 13.9169 14.2702V15.826ZM13.9169 13.3836C13.9127 13.5992 13.9904 13.8084 14.1343 13.9691C14.1905 14.04 14.2616 14.0977 14.3425 14.1382C14.4235 14.1786 14.5123 14.2009 14.6027 14.2033C14.709 14.2084 14.8145 14.1827 14.9065 14.1293C14.9985 14.0759 15.0731 13.997 15.1213 13.9022C15.2344 13.6561 15.2861 13.3863 15.2719 13.1159C15.2836 12.8385 15.2261 12.5626 15.1046 12.313C15.0628 12.219 14.9948 12.139 14.9088 12.0826C14.8228 12.0263 14.7223 11.9959 14.6195 11.9951C14.5219 11.9944 14.4257 12.0168 14.3385 12.0604C14.2512 12.104 14.1756 12.1676 14.1176 12.246C13.9753 12.4392 13.9044 12.6756 13.9169 12.9152V13.3836Z" fill="#1D1D1B"/>
<path d="M18.8048 13.6844L19.4739 13.768C19.392 14.0618 19.2157 14.3205 18.9721 14.5041C18.7002 14.7006 18.3705 14.8007 18.0353 14.7884C17.8321 14.7963 17.6297 14.76 17.442 14.682C17.2543 14.604 17.0857 14.4862 16.9479 14.3368C16.656 13.9924 16.5064 13.5497 16.5297 13.0989C16.5155 12.6544 16.6643 12.2201 16.9479 11.8777C17.0888 11.7164 17.2642 11.589 17.4612 11.505C17.6582 11.421 17.8716 11.3825 18.0855 11.3925C18.2922 11.3813 18.4986 11.4195 18.6877 11.5038C18.8768 11.5882 19.0431 11.7163 19.1728 11.8777C19.438 12.2282 19.5739 12.6596 19.5576 13.0989V13.1825H17.2992C17.2731 13.36 17.2731 13.5403 17.2992 13.7178C17.3449 13.8578 17.4325 13.9805 17.5501 14.0691C17.6499 14.1411 17.7651 14.1886 17.8865 14.2079C18.008 14.2273 18.1323 14.2179 18.2494 14.1804C18.3665 14.143 18.4733 14.0786 18.561 13.9925C18.6487 13.9063 18.7151 13.8008 18.7546 13.6844H18.8048ZM18.7546 12.7141C18.7857 12.509 18.7379 12.2998 18.6208 12.1286C18.5539 12.0613 18.4744 12.0079 18.3869 11.9715C18.2993 11.9351 18.2054 11.9163 18.1106 11.9163C18.0157 11.9163 17.9218 11.9351 17.8342 11.9715C17.7467 12.0079 17.6672 12.0613 17.6003 12.1286C17.4569 12.2908 17.3742 12.4977 17.3661 12.7141H18.7546Z" fill="#1D1D1B"/>
<path d="M22.954 12.7638L24.1417 14.7211H23.3388L22.4354 13.2489L22.2179 13.3159V14.7211H21.4986V13.3159L21.2811 13.2489L20.3443 14.7211H19.625L20.796 12.998L19.7421 11.459H20.5116L21.3982 12.7471L21.4986 12.7638V11.459H22.2179V12.7638L22.335 12.7471L23.2049 11.459H23.941L22.954 12.7638Z" fill="#1D1D1B"/>
<path d="M25.1775 14.4037V14.7383H24.4414V11.3926H25.1775V12.8814C25.1775 13.0989 25.1775 13.3164 25.1775 13.5673C25.321 13.3464 25.4774 13.1341 25.6459 12.9316L26.4823 11.8944V11.4595H27.2184V14.8052H26.4823V13.3833C26.4823 13.1156 26.4823 12.8814 26.4823 12.6807C26.3485 12.8839 26.2033 13.0794 26.0474 13.2662L25.1775 14.4037Z" fill="#1D1D1B"/>
<path d="M28.0898 14.7211V11.459H29.1939L30.0304 14.1523L30.917 11.459H31.9709V14.7211H31.285V12.0278H31.2348L30.3482 14.7211H29.5954L28.7255 12.0278H28.6921V14.7211H28.0898Z" fill="#1D1D1B"/>
</svg>
