<svg width="46" height="45" viewBox="0 0 46 45" fill="none" xmlns="http://www.w3.org/2000/svg">
<path fill-rule="evenodd" clip-rule="evenodd" d="M2.89356 0.900391H42.1556C42.7014 0.900391 43.2247 1.11717 43.6106 1.50305C43.9965 1.88893 44.2133 2.4123 44.2133 2.95801V42.0863C44.2133 42.632 43.9965 43.1553 43.6106 43.5412C43.2247 43.9271 42.7014 44.1439 42.1556 44.1439H2.89356C2.34784 44.1439 1.82448 43.9271 1.4386 43.5412C1.05272 43.1553 0.835938 42.632 0.835938 42.0863V2.95801C0.835938 2.4123 1.05272 1.88893 1.4386 1.50305C1.82448 1.11717 2.34784 0.900391 2.89356 0.900391Z" fill="white"/>
<path d="M44.3309 41.6543H43.5948C43.5948 42.1689 43.3903 42.6625 43.0264 43.0264C42.6625 43.3904 42.1689 43.5948 41.6543 43.5948H3.34572C2.83981 43.5817 2.35903 43.3715 2.0059 43.009C1.65276 42.6465 1.45522 42.1604 1.45539 41.6543V3.34573C1.46809 2.84838 1.67133 2.37491 2.02312 2.02312C2.37491 1.67133 2.84838 1.46809 3.34572 1.45539H41.6543C42.1604 1.45522 42.6465 1.65276 43.009 2.0059C43.3715 2.35903 43.5817 2.83981 43.5948 3.34573V41.6543H45.0502V3.34573C45.0502 2.45838 44.6977 1.60739 44.0702 0.97994C43.4428 0.352495 42.5918 0 41.7045 0L3.34572 0C2.45838 0 1.60739 0.352495 0.97994 0.97994C0.352495 1.60739 0 2.45838 0 3.34573L0 41.6543C0 42.5416 0.352495 43.3926 0.97994 44.0201C1.60739 44.6475 2.45838 45 3.34572 45H41.6543C42.5416 45 43.3926 44.6475 44.0201 44.0201C44.6475 43.3926 45 42.5416 45 41.6543H44.3309Z" fill="#E31E24"/>
<path d="M13.0938 12.463C13.3131 10.7999 13.9457 9.21821 14.9339 7.86263C15.8488 6.66199 17.0436 5.70349 18.4141 5.07074C19.7846 4.43798 21.2891 4.15021 22.7964 4.23251C25.0868 4.14329 27.3361 4.85951 29.1532 6.25668C30.005 6.97438 30.6836 7.87525 31.1384 8.89199C31.5932 9.90873 31.8124 11.0151 31.7796 12.1284C31.6799 13.6091 31.2531 15.0493 30.53 16.3452C29.8068 17.6411 28.8053 18.7605 27.5975 19.6228L20.5213 25.0931H31.9302L31.7796 29.7771H13.0938V25.2604L22.3447 18.1675C24.0175 16.9128 26.1253 14.8217 26.1253 12.2957C26.1365 11.8059 26.0506 11.3186 25.8726 10.8621C25.6946 10.4056 25.428 9.98887 25.0882 9.63586C24.3536 8.979 23.3967 8.62614 22.4116 8.64887C21.6997 8.63723 20.9979 8.81749 20.3797 9.17072C19.7616 9.52394 19.25 10.0371 18.8986 10.6563C18.4151 11.5477 18.1405 12.5373 18.0956 13.5504L13.0938 12.463Z" fill="#1D1D1B"/>
<path d="M6.0419 38.0732L7.01216 38.1736C6.93639 38.7129 6.67632 39.2094 6.2761 39.5788C5.90897 39.8802 5.44617 40.0404 4.97126 40.0304C4.65111 40.0605 4.32862 40.007 4.03538 39.875C3.74214 39.7431 3.48819 39.5372 3.2984 39.2776C2.9112 38.7374 2.71144 38.0852 2.72963 37.4208C2.69759 36.731 2.91759 36.0532 3.34859 35.5137C3.54928 35.2674 3.80557 35.0722 4.09639 34.9443C4.38722 34.8163 4.70426 34.7592 5.02145 34.7776C5.50166 34.7451 5.9755 34.902 6.34137 35.2148C6.70725 35.5275 6.93604 35.9711 6.9787 36.4505L6.00844 36.5843C5.9248 35.9654 5.60695 35.6475 5.08836 35.6475C4.91476 35.638 4.74228 35.6807 4.59319 35.7702C4.4441 35.8596 4.32523 35.9917 4.25193 36.1494C4.06509 36.5288 3.97323 36.9478 3.98427 37.3706C3.95994 37.7785 4.05281 38.1848 4.25193 38.5416C4.32904 38.6718 4.4394 38.7792 4.57169 38.8526C4.70397 38.9261 4.85343 38.9631 5.00472 38.9598C5.50658 38.9598 5.83558 38.642 5.99171 38.0063" fill="#1D1D1B"/>
<path d="M10.701 36.636L12.3739 39.9817H11.2364L9.91479 37.5561L9.02817 38.4762V39.965H7.89062V34.9464H9.02817V36.4353C9.02817 36.7531 9.02817 37.0375 9.02817 37.2884C9.17271 37.0896 9.32913 36.8996 9.49657 36.7197L11.1694 34.9297H12.2903L10.701 36.636Z" fill="#1D1D1B"/>
<path d="M14.924 40.0322C14.6007 40.0457 14.279 39.9795 13.9873 39.8395C13.6956 39.6995 13.4428 39.4899 13.2511 39.2292C12.8603 38.6961 12.6547 38.0499 12.6656 37.389C12.6427 36.7102 12.8755 36.0475 13.318 35.5322C13.5267 35.2954 13.7845 35.107 14.0734 34.9799C14.3623 34.8528 14.6753 34.79 14.9909 34.7961C15.3055 34.7857 15.6184 34.8447 15.9076 34.9691C16.1967 35.0934 16.4549 35.2799 16.6637 35.5154C17.094 36.0547 17.3283 36.7242 17.3283 37.4141C17.3283 38.104 17.094 38.7735 16.6637 39.3128C16.4508 39.5431 16.1918 39.7261 15.9036 39.85C15.6155 39.9739 15.3045 40.036 14.9909 40.0322H14.924ZM14.9909 39.0954C15.7604 39.0954 16.1396 38.5377 16.1284 37.4225C16.1532 36.9986 16.0606 36.576 15.8608 36.2013C15.7757 36.057 15.6528 35.9387 15.5054 35.8591C15.358 35.7795 15.1917 35.7416 15.0243 35.7496C14.852 35.7391 14.6801 35.7756 14.5269 35.8551C14.3737 35.9347 14.245 36.0543 14.1545 36.2013C13.9488 36.5743 13.8504 36.997 13.8701 37.4225C13.8412 37.8615 13.9462 38.299 14.1712 38.6771C14.2595 38.8134 14.3811 38.9249 14.5246 39.001C14.668 39.0772 14.8285 39.1154 14.9909 39.1121" fill="#1D1D1B"/>
<path d="M19.5064 41.6215H18.4023V34.93H19.4897V35.7999C19.6228 35.5038 19.8392 35.2528 20.1125 35.0776C20.3857 34.9023 20.7041 34.8103 21.0287 34.8129C21.295 34.8068 21.5583 34.8698 21.7928 34.9959C22.0274 35.122 22.2253 35.3068 22.367 35.5322C22.7191 36.0858 22.8941 36.7335 22.8689 37.3891C22.88 38.0408 22.7123 38.6831 22.3838 39.246C22.2422 39.4954 22.0345 39.7007 21.7836 39.8395C21.5327 39.9782 21.2483 40.0449 20.9618 40.0322C20.6751 40.0482 20.3899 39.9808 20.1406 39.8384C19.8913 39.6959 19.6885 39.4844 19.5566 39.2293L19.5064 41.6215ZM19.5064 37.8575C19.4941 38.188 19.6077 38.5109 19.8243 38.7609C19.9125 38.8724 20.0242 38.9632 20.1514 39.0268C20.2786 39.0904 20.4182 39.1252 20.5603 39.1289C20.7227 39.1357 20.8836 39.0949 21.0232 39.0118C21.1628 38.9286 21.2752 38.8065 21.3466 38.6605C21.525 38.2847 21.6111 37.8718 21.5975 37.456C21.6165 37.0237 21.5304 36.5932 21.3466 36.2014C21.2817 36.0562 21.176 35.9331 21.0423 35.8469C20.9086 35.7608 20.7528 35.7154 20.5938 35.7163C20.4443 35.7156 20.2968 35.7501 20.1632 35.8169C20.0295 35.8837 19.9134 35.9811 19.8243 36.101C19.6061 36.4018 19.4942 36.7668 19.5064 37.1382V37.8575Z" fill="#1D1D1B"/>
<path d="M25.8107 40.0302C25.4874 40.0437 25.1657 39.9775 24.874 39.8375C24.5823 39.6975 24.3295 39.4879 24.1378 39.2272C23.7471 38.6941 23.5414 38.0479 23.5523 37.387C23.5294 36.7082 23.7623 36.0455 24.2047 35.5302C24.4204 35.3034 24.6799 35.1229 24.9675 34.9995C25.255 34.8761 25.5647 34.8125 25.8776 34.8125C26.1905 34.8125 26.5002 34.8761 26.7878 34.9995C27.0753 35.1229 27.3348 35.3034 27.5505 35.5302C27.9807 36.0695 28.215 36.7389 28.215 37.4289C28.215 38.1188 27.9807 38.7882 27.5505 39.3276C27.3375 39.5578 27.0785 39.7408 26.7904 39.8647C26.5022 39.9886 26.1913 40.0507 25.8776 40.0469L25.8107 40.0302ZM25.8776 39.1101C26.6471 39.1101 27.0319 38.5525 27.0319 37.4372C27.0567 37.0133 26.9641 36.5907 26.7642 36.216C26.6791 36.0717 26.5563 35.9534 26.4089 35.8738C26.2615 35.7942 26.0951 35.7564 25.9278 35.7644C25.7555 35.7539 25.5836 35.7903 25.4304 35.8699C25.2772 35.9494 25.1484 36.0691 25.0579 36.216C24.8523 36.5891 24.7538 37.0117 24.7735 37.4372C24.7447 37.8763 24.8496 38.3137 25.0746 38.6919C25.1617 38.8293 25.2831 38.9417 25.4268 39.018C25.5706 39.0942 25.7317 39.1317 25.8943 39.1268" fill="#1D1D1B"/>
<path d="M32.1567 38.0729L33.1269 38.1733C33.0525 38.7131 32.7922 39.21 32.3909 39.5785C32.0245 39.8812 31.5612 40.0416 31.086 40.0302C30.7661 40.0586 30.4441 40.0044 30.1512 39.8725C29.8582 39.7407 29.6041 39.5358 29.4132 39.2774C29.033 38.7345 28.8393 38.0829 28.8611 37.4205C28.8372 36.7421 29.0568 36.0776 29.4801 35.5469C29.6808 35.3006 29.9371 35.1054 30.2279 34.9775C30.5187 34.8495 30.8358 34.7924 31.153 34.8108C31.6332 34.7783 32.107 34.9352 32.4729 35.248C32.8388 35.5607 33.0676 36.0043 33.1102 36.4837L32.1399 36.6175C32.0507 35.993 31.744 35.6807 31.2199 35.6807C31.0467 35.6735 30.8751 35.7171 30.7264 35.8063C30.5778 35.8955 30.4585 36.0263 30.3834 36.1826C30.2036 36.5638 30.1176 36.9825 30.1325 37.4038C30.1082 37.8117 30.2011 38.218 30.4002 38.5748C30.4786 38.7038 30.5892 38.8103 30.7212 38.8836C30.8532 38.9569 31.002 38.9946 31.153 38.993C31.6548 38.993 31.9838 38.6752 32.1399 38.0395" fill="#1D1D1B"/>
<path d="M34.826 39.9142V35.7655H33.4375V34.8789H37.3353V35.7655H35.9635V39.9142H34.826Z" fill="#1D1D1B"/>
<path d="M39.1102 39.4146V39.9332H37.9727V34.9146H39.1102V37.106C39.1102 37.4294 39.1102 37.7807 39.1102 38.1599C39.33 37.8168 39.5702 37.4872 39.8295 37.1729L41.1176 35.5001V34.8477H42.2552V39.8662H41.1176V37.8588C41.1176 37.4406 41.1176 37.0893 41.1176 36.7714C40.9176 37.0901 40.6998 37.3973 40.4652 37.6915L39.1102 39.4146Z" fill="#1D1D1B"/>
</svg>
