<svg width="46" height="45" viewBox="0 0 46 45" fill="none" xmlns="http://www.w3.org/2000/svg">
<path d="M44.7019 41.6543H43.9659C43.9659 42.1689 43.7614 42.6625 43.3975 43.0264C43.0336 43.3904 42.54 43.5948 42.0254 43.5948H3.71682C3.21091 43.5817 2.73013 43.3715 2.37699 43.009C2.02386 42.6465 1.82631 42.1604 1.82648 41.6543V3.34573C1.83919 2.84838 2.04243 2.37491 2.39422 2.02312C2.74601 1.67133 3.21947 1.46809 3.71682 1.45539H42.0254C42.5314 1.45522 43.0176 1.65276 43.3801 2.0059C43.7426 2.35903 43.9528 2.83981 43.9659 3.34573V41.6543H45.4213V3.34573C45.4213 2.45838 45.0688 1.60739 44.4413 0.97994C43.8139 0.352495 42.9629 0 42.0756 0L3.71682 0C2.82948 0 1.97848 0.352495 1.35103 0.97994C0.723589 1.60739 0.371094 2.45838 0.371094 3.34573L0.371094 41.6543C0.371094 42.5416 0.723589 43.3926 1.35103 44.0201C1.97848 44.6475 2.82948 45 3.71682 45H42.0254C42.9127 45 43.7637 44.6475 44.3911 44.0201C45.0186 43.3926 45.3711 42.5416 45.3711 41.6543H44.7019Z" fill="#E31E24"/>
<path fill-rule="evenodd" clip-rule="evenodd" d="M4.47816 2.24609H41.1485C41.6597 2.24609 42.15 2.44916 42.5114 2.81061C42.8729 3.17206 43.0759 3.6623 43.0759 4.17347V40.7098C43.0759 41.221 42.8729 41.7112 42.5114 42.0726C42.15 42.4341 41.6597 42.6372 41.1485 42.6372H4.47816C3.96698 42.6372 3.47675 42.4341 3.1153 42.0726C2.75384 41.7112 2.55078 41.221 2.55078 40.7098V4.17347C2.55078 3.92036 2.60063 3.66973 2.69749 3.43589C2.79435 3.20205 2.93632 2.98958 3.1153 2.81061C3.47675 2.44916 3.96698 2.24609 4.47816 2.24609Z" fill="white"/>
<path d="M23.3974 8.59961L21.7214 9.90687C20.3226 11.0652 19.0169 12.3317 17.8164 13.6946V16.5102V19.4097C19.0055 20.777 20.3 22.0491 21.6879 23.2141L23.3639 24.5214H38.9672V16.594V8.59961H23.3974Z" fill="#1A171B"/>
<path d="M21.6449 9.80531L23.3209 8.49805H39.0919V24.6545H23.3544L21.6785 23.3472C20.2795 22.189 18.9738 20.9225 17.7734 19.5595V16.6098V13.6265C18.9618 12.2533 20.2563 10.9756 21.6449 9.80531ZM23.4382 8.66565L21.7623 9.93939C20.375 11.0809 19.0805 12.3306 17.8908 13.6768V16.5092V19.3751C19.0712 20.7553 20.3603 22.0387 21.7455 23.2131L23.4215 24.4869H38.9243V8.69916L23.4382 8.66565Z" fill="#1A171B"/>
<path d="M15.0441 15.4707H7.06641V17.7333H15.0441V15.4707Z" fill="#1A171B"/>
<path d="M15.0441 15.4707H7.06641V17.7333H15.0441V15.4707Z" stroke="#1A171B" stroke-width="0.24" stroke-miterlimit="22.93"/>
<path d="M12.1047 17.7333L10.3281 15.4707H11.8197L13.5963 17.7333H12.1047Z" fill="white"/>
<path d="M12.0812 17.7333L10.3047 15.4707M11.7963 15.4707L13.5728 17.7333L11.7963 15.4707Z" stroke="#1A171B" stroke-width="0.24" stroke-miterlimit="22.93"/>
<path d="M9.05388 17.7333L7.27734 15.4707H8.76896L10.5455 17.7333H9.05388Z" fill="white"/>
<path d="M8.75007 15.4172L10.6104 17.6797L10.426 17.7803L8.75007 15.5177V15.4172ZM8.9009 17.7803L7.19141 15.5177L7.32548 15.4004L9.11878 17.6797L8.9009 17.7803Z" fill="#1A171B"/>
<path d="M15.0441 15.4707H7.06641V17.7333H15.0441V15.4707Z" stroke="#1A171B" stroke-width="0.24" stroke-miterlimit="22.93"/>
<path d="M29.8872 8.88477H23.418V9.58868H29.8872V8.88477Z" fill="white"/>
<path d="M38.7307 9.10156H33.0156V9.80547H38.7307V9.10156Z" fill="white"/>
<path d="M38.7307 10.5391H33.0156V11.243H38.7307V10.5391Z" fill="white"/>
<path d="M38.7307 11.9844H33.0156V12.6883H38.7307V11.9844Z" fill="white"/>
<path d="M38.7307 13.4219H33.0156V14.1258H38.7307V13.4219Z" fill="white"/>
<path d="M38.7307 14.8633H33.0156V15.5672H38.7307V14.8633Z" fill="white"/>
<path d="M38.7307 16.3086H33.0156V17.0125H38.7307V16.3086Z" fill="white"/>
<path d="M38.7307 17.7461H33.0156V18.45H38.7307V17.7461Z" fill="white"/>
<path d="M38.7307 19.1738H33.0156V19.8777H38.7307V19.1738Z" fill="white"/>
<path d="M38.7307 20.6152H33.0156V21.3191H38.7307V20.6152Z" fill="white"/>
<path d="M38.7307 22.0566H33.0156V22.7606H38.7307V22.0566Z" fill="white"/>
<path d="M38.7307 23.4941H33.0156V24.198H38.7307V23.4941Z" fill="white"/>
<path d="M29.8872 10.2051H23.418V10.909H29.8872V10.2051Z" fill="white"/>
<path d="M29.8872 11.5488H23.418V12.2527H29.8872V11.5488Z" fill="white"/>
<path d="M29.8872 12.8867H23.418V13.5906H29.8872V12.8867Z" fill="white"/>
<path d="M29.8872 14.2305H23.418V14.9344H29.8872V14.2305Z" fill="white"/>
<path d="M29.8872 15.5664H23.418V16.2703H29.8872V15.5664Z" fill="white"/>
<path d="M29.8872 16.9102H23.418V17.6141H29.8872V16.9102Z" fill="white"/>
<path d="M29.8872 18.2539H23.418V18.9578H29.8872V18.2539Z" fill="white"/>
<path d="M29.8872 19.5898H23.418V20.2938H29.8872V19.5898Z" fill="white"/>
<path d="M29.8872 20.9336H23.418V21.6375H29.8872V20.9336Z" fill="white"/>
<path d="M29.8872 22.2715H23.418V22.9754H29.8872V22.2715Z" fill="white"/>
<path d="M29.8872 23.6152H23.418V24.3191H29.8872V23.6152Z" fill="white"/>
<path d="M31.9965 8.59961H31.6445V24.3873H31.9965V8.59961Z" fill="white"/>
<path d="M15.4596 14.1618C14.9042 14.4587 14.4492 14.9136 14.1523 15.4691V17.7149C14.4492 18.2703 14.9042 18.7253 15.4596 19.0221C16.2162 19.3096 17.0141 19.4737 17.8227 19.5082V13.6758C17.014 13.7099 16.2161 13.874 15.4596 14.1618Z" fill="white"/>
<path d="M14.0469 15.4342C14.3554 14.8676 14.821 14.402 15.3877 14.0935C16.1551 13.8033 16.9644 13.6392 17.7843 13.6074H17.8681V19.6074H17.7843C16.9853 19.5576 16.1991 19.3823 15.4547 19.0879C14.888 18.7793 14.4225 18.3137 14.1139 17.7471V15.4342H14.0469ZM15.4547 14.3616C14.9599 14.6038 14.5549 14.9971 14.2983 15.4845V17.7638C14.5568 18.2458 14.9618 18.6331 15.4547 18.87C16.1286 19.1305 16.844 19.2667 17.5664 19.2722V13.8756C16.8408 13.922 16.1276 14.0862 15.4547 14.3616Z" fill="#1A171B"/>
<path d="M21.0052 10.877V22.4077C19.4465 21.0334 17.8711 19.3742 17.8711 19.3742V13.877C18.8301 12.7853 19.8845 11.7813 21.0219 10.877" fill="white"/>
<path fill-rule="evenodd" clip-rule="evenodd" d="M35.569 38.0617V34.626H36.7422L37.6305 37.4751L38.569 34.626H39.6752V38.0785H38.9545V35.2293L38.0159 38.0785H37.245L36.3232 35.2293V38.0785L35.569 38.0617ZM30.5411 38.0617V34.626H31.7143L32.6025 37.4751L33.5411 34.626H34.6472V38.0785H33.9266V35.2293L32.988 38.0785H32.2171L31.2953 35.2293V38.0785L30.5411 38.0617ZM25.5132 38.0617H21.6417V37.3075H23.1835V34.0561C22.7694 34.4403 22.2935 34.7519 21.7757 34.9779V34.0561C22.0523 33.9592 22.3213 33.8415 22.5802 33.7042C22.7452 33.5865 22.902 33.4577 23.0495 33.3187C23.2204 33.1752 23.3675 33.0055 23.4852 32.8159H24.1053V37.3075H25.5132V38.0617ZM20.3511 36.3857H17.3009V35.6818H20.4852L20.3511 36.3857ZM11.5355 37.0226V37.8774L10.9322 39.0673H10.597L11.0495 37.9612H10.664V37.0058L11.5355 37.0226ZM27.1891 35.7991V35.0617H27.6584C27.9062 35.072 28.1514 35.0078 28.3623 34.8774C28.4531 34.8172 28.527 34.7348 28.5769 34.638C28.6268 34.5411 28.651 34.4331 28.6472 34.3243C28.6552 34.22 28.6381 34.1154 28.5972 34.0192C28.5564 33.923 28.4931 33.8379 28.4126 33.7712C28.2324 33.642 28.014 33.577 27.7925 33.5869C27.5592 33.5749 27.3288 33.6433 27.1398 33.7805C26.9507 33.9177 26.8144 34.1155 26.7534 34.341L25.8986 34.1902C25.9961 33.8042 26.2278 33.4656 26.5523 33.2349C26.9206 32.9797 27.3615 32.8504 27.8092 32.8662C28.2517 32.8516 28.6869 32.981 29.0495 33.2349C29.2139 33.3451 29.3477 33.4951 29.4385 33.6709C29.5294 33.8467 29.5743 34.0427 29.569 34.2405C29.5799 34.5323 29.4846 34.8181 29.3009 35.045C29.2187 35.1513 29.115 35.2391 28.9966 35.3026C28.8782 35.3662 28.7477 35.404 28.6137 35.4137C28.9228 35.4543 29.2077 35.6026 29.4182 35.8327C29.6194 36.0582 29.7272 36.3518 29.7199 36.6539C29.7225 36.8649 29.6753 37.0735 29.5821 37.2628C29.4889 37.4521 29.3524 37.6167 29.1835 37.7433C28.7733 38.0489 28.2699 38.2028 27.759 38.179C27.272 38.1976 26.7932 38.0498 26.4014 37.76C26.0777 37.5253 25.8417 37.189 25.731 36.8047L26.6025 36.5869C26.6593 36.7699 26.7588 36.9368 26.8929 37.0738C27.027 37.2107 27.1917 37.3138 27.3736 37.3744C27.5554 37.435 27.749 37.4514 27.9384 37.4223C28.1279 37.3932 28.3076 37.3194 28.4629 37.207C28.576 37.1537 28.6728 37.0713 28.7435 36.9682C28.8142 36.8651 28.8562 36.7451 28.8651 36.6204C28.8667 36.5119 28.8467 36.4043 28.8065 36.3036C28.7662 36.2029 28.7064 36.1112 28.6305 36.0338C28.5341 35.9446 28.4203 35.8762 28.2963 35.833C28.1723 35.7897 28.0408 35.7725 27.9098 35.7824L27.1891 35.7991ZM12.893 32.9165H16.0774V33.7042H13.5634L13.4126 35.1958C13.553 35.0096 13.7356 34.8593 13.9454 34.7573C14.1552 34.6554 14.3861 34.6046 14.6193 34.6092C14.8535 34.6031 15.0864 34.6462 15.3029 34.7357C15.5194 34.8252 15.7147 34.9591 15.8763 35.1288C16.0387 35.2879 16.1671 35.4784 16.2535 35.6888C16.3399 35.8991 16.3827 36.1248 16.3791 36.3522C16.3854 36.5905 16.3408 36.8273 16.2483 37.0469C16.1558 37.2666 16.0176 37.464 15.8428 37.626C15.646 37.8104 15.4138 37.9531 15.1603 38.0453C14.9068 38.1375 14.6372 38.1773 14.3679 38.1623C13.9133 38.168 13.4662 38.046 13.0774 37.8103C12.8923 37.6881 12.7332 37.5304 12.6095 37.3463C12.4858 37.1621 12.3999 36.9553 12.3567 36.7377L13.2618 36.6204C13.3201 36.8564 13.4594 37.0645 13.6554 37.2085C13.8514 37.3524 14.0917 37.423 14.3344 37.4081C14.4771 37.4165 14.6199 37.3939 14.753 37.3418C14.886 37.2897 15.0063 37.2094 15.1053 37.1064C15.2113 37.0105 15.297 36.8944 15.3574 36.7648C15.4179 36.6353 15.4518 36.495 15.4573 36.3522C15.4633 36.0865 15.3674 35.8286 15.1891 35.6315C15.1003 35.5337 14.9914 35.4562 14.87 35.4041C14.7485 35.3521 14.6173 35.3268 14.4852 35.3299C14.2799 35.3252 14.0776 35.3796 13.9024 35.4866C13.7271 35.5935 13.5862 35.7486 13.4964 35.9332L12.6752 35.7656L12.893 32.9165ZM10.1612 38.0617H6.22266V37.3075H7.76456V34.0561C7.34924 34.4388 6.87356 34.7503 6.35673 34.9779V34.0561C6.63345 33.9594 6.90238 33.8418 7.1612 33.7042C7.33384 33.5712 7.49631 33.4256 7.64724 33.2684C7.81775 33.1245 7.96477 32.9549 8.08299 32.7656H8.75338V37.2572H10.2115L10.1612 38.0617Z" fill="#1D1D1B"/>
</svg>
