<svg width="46" height="45" viewBox="0 0 46 45" fill="none" xmlns="http://www.w3.org/2000/svg">
<path fill-rule="evenodd" clip-rule="evenodd" d="M3.18668 0.808594H42.5133C43.0521 0.817429 43.5659 1.03771 43.9439 1.42193C44.3218 1.80616 44.5336 2.32353 44.5335 2.86247V42.0207C44.5336 42.5597 44.3218 43.077 43.9439 43.4613C43.5659 43.8455 43.0521 44.0658 42.5133 44.0746H3.18668C2.91697 44.0746 2.64989 44.0215 2.4007 43.9183C2.15151 43.815 1.9251 43.6637 1.73438 43.473C1.54366 43.2823 1.39237 43.0559 1.28915 42.8067C1.18594 42.5575 1.13281 42.2904 1.13281 42.0207V2.86247C1.13281 2.31775 1.3492 1.79533 1.73438 1.41016C2.11955 1.02498 2.64196 0.808594 3.18668 0.808594Z" fill="white"/>
<path d="M44.7822 41.633H44.0582C44.0582 42.1509 43.8525 42.6476 43.4863 43.0139C43.12 43.3801 42.6233 43.5859 42.1054 43.5859H3.78888C3.27975 43.5727 2.79591 43.3611 2.44053 42.9963C2.08515 42.6315 1.88635 42.1423 1.88652 41.633V3.367C1.88194 2.8548 2.07878 2.3613 2.43462 1.99286C2.79047 1.62441 3.27682 1.41053 3.78888 1.39731H42.1054C42.6233 1.39731 43.12 1.60305 43.4863 1.96929C43.8525 2.33552 44.0582 2.83224 44.0582 3.35017V41.633H45.5061V3.367C45.5061 2.47402 45.1513 1.61761 44.5199 0.986172C43.8884 0.354737 43.032 0 42.1391 0H3.78888C2.89589 0 2.03948 0.354737 1.40805 0.986172C0.776612 1.61761 0.421875 2.47402 0.421875 3.367L0.421875 41.633C0.421875 42.526 0.776612 43.3824 1.40805 44.0138C2.03948 44.6453 2.89589 45 3.78888 45H42.1054C42.9984 45 43.8548 44.6453 44.4862 44.0138C45.1176 43.3824 45.4724 42.526 45.4724 41.633H44.7822Z" fill="#E31E24"/>
<path d="M40.25 30.9422C40.24 31.1834 40.3245 31.419 40.4857 31.5987C40.5492 31.6761 40.6287 31.7388 40.7188 31.7824C40.809 31.826 40.9075 31.8495 41.0076 31.8512C41.1258 31.8592 41.2436 31.8313 41.3457 31.7712C41.4478 31.7111 41.5295 31.6217 41.58 31.5145C41.7103 31.2476 41.7738 30.9529 41.7652 30.656C41.7773 30.3479 41.7137 30.0415 41.58 29.7637C41.5335 29.6607 41.4575 29.5737 41.3616 29.5138C41.2657 29.4538 41.1543 29.4236 41.0413 29.427C40.9324 29.4263 40.825 29.4519 40.7283 29.5018C40.6315 29.5516 40.5483 29.6241 40.4857 29.7132C40.3291 29.9273 40.2518 30.1891 40.2668 30.4539L40.25 30.9422ZM40.25 33.6189H39.4251V28.8378H40.1995V29.4607C40.2922 29.2483 40.4454 29.0679 40.64 28.9422C40.8347 28.8164 41.0621 28.7508 41.2938 28.7536C41.4854 28.7489 41.6749 28.7947 41.8434 28.8862C42.0118 28.9778 42.1532 29.1121 42.2534 29.2755C42.5048 29.6721 42.6282 30.1364 42.6069 30.6055C42.6187 31.0713 42.5022 31.5313 42.2702 31.9354C42.171 32.1147 42.0241 32.263 41.8459 32.364C41.6676 32.4651 41.4649 32.5148 41.2601 32.5078C41.0543 32.5209 40.8492 32.4738 40.6698 32.3721C40.4904 32.2704 40.3445 32.1187 40.25 31.9354V33.6189ZM37.1187 31.8344C37.6574 31.8344 37.9324 31.4304 37.9436 30.6223C37.9568 30.3176 37.887 30.015 37.7416 29.7469C37.6798 29.6429 37.5905 29.558 37.4836 29.5016C37.3767 29.4452 37.2562 29.4193 37.1355 29.427C37.0107 29.4197 36.8863 29.4474 36.7763 29.5069C36.6662 29.5663 36.575 29.6553 36.5126 29.7637C36.3672 30.0318 36.2974 30.3344 36.3106 30.6391C36.2927 30.9517 36.3689 31.2625 36.5295 31.5314C36.5932 31.6284 36.681 31.7073 36.7842 31.7604C36.8875 31.8135 37.0027 31.839 37.1187 31.8344ZM37.1187 32.5078C36.8851 32.5201 36.6521 32.4743 36.4405 32.3744C36.229 32.2745 36.0455 32.1236 35.9066 31.9354C35.6262 31.5556 35.4784 31.0943 35.4857 30.6223C35.4653 30.1377 35.6275 29.6631 35.9402 29.2923C36.0932 29.1192 36.283 28.9825 36.4956 28.8922C36.7082 28.8019 36.9384 28.7603 37.1692 28.7704C37.3919 28.7654 37.613 28.8096 37.8167 28.8998C38.0204 28.99 38.2017 29.124 38.3477 29.2923C38.655 29.6772 38.8224 30.155 38.8224 30.6475C38.8224 31.14 38.655 31.6179 38.3477 32.0028C38.1912 32.1669 38.0032 32.2977 37.7949 32.3874C37.5866 32.4771 37.3623 32.5238 37.1355 32.5246L37.1187 32.5078ZM33.6002 32.5246V29.4607H32.5732V28.8378H35.351V29.4607H34.3746V32.4236L33.6002 32.5246ZM31.4621 30.5213V29.528H30.6204C30.5492 29.5164 30.4763 29.5219 30.4077 29.544C30.3391 29.5661 30.2767 29.6042 30.2257 29.6552C30.1747 29.7062 30.1366 29.7686 30.1145 29.8372C30.0923 29.9058 30.0869 29.9787 30.0985 30.0499C30.0896 30.1154 30.0963 30.182 30.1179 30.2445C30.1396 30.3069 30.1757 30.3633 30.2232 30.4092C30.2708 30.4551 30.3284 30.4892 30.3916 30.5087C30.4547 30.5281 30.5216 30.5325 30.5867 30.5213H31.4621ZM31.4621 32.5246V31.1105H30.553L29.8965 32.5246H29.0379L29.9301 30.9422C29.7348 30.8858 29.564 30.7657 29.445 30.6009C29.326 30.4361 29.2656 30.2362 29.2736 30.0331C29.262 29.8804 29.2848 29.7271 29.3401 29.5844C29.3955 29.4417 29.482 29.3131 29.5934 29.2081C29.8324 29.0199 30.1313 28.9242 30.4352 28.9388H32.2365V32.5246H31.4621ZM25.8897 32.5246L27.0345 28.9388H27.9941L29.0379 32.4236H28.1961L27.3544 29.4607L26.4453 32.4236L25.8897 32.5246ZM26.1086 28.9388L24.7113 33.0297C24.6443 33.2525 24.5228 33.455 24.3578 33.6189C24.1841 33.7643 23.9608 33.8367 23.7349 33.8209H23.2635V33.0465H23.6507C23.7717 33.0811 23.9 33.0811 24.0211 33.0465C24.1196 32.9702 24.1905 32.8638 24.2231 32.7435C24.2306 32.6595 24.2306 32.575 24.2231 32.491V32.2721L22.9941 28.9051H23.8359L24.7113 31.262L25.4689 28.9051L26.1086 28.9388ZM18.2635 32.4236V28.8378H19.4924L20.4184 31.8007L21.3948 28.8378H22.5396V32.4236H21.782V29.4607L20.8056 32.4236H19.9807L18.9369 29.4607V32.4236H18.2635ZM17.8426 28.8378L16.4453 32.9287C16.3783 33.1515 16.2568 33.354 16.0918 33.5179C15.9181 33.6633 15.6948 33.7357 15.4689 33.7199H14.9975V33.0465H15.3847C15.5057 33.0811 15.634 33.0811 15.7551 33.0465C15.8536 32.9702 15.9245 32.8638 15.9571 32.7435C15.9644 32.6595 15.9644 32.575 15.9571 32.491V32.2721L14.7281 28.9051H15.5699L16.4453 31.262L17.2534 28.8378H17.8426ZM13.6339 30.0162L14.8796 32.3563H14.0042L13.0615 30.6728L12.4217 31.3462V32.4068H11.6136V28.8378H12.4217V29.8984C12.4217 30.1341 12.4217 30.3361 12.4217 30.5044C12.5256 30.363 12.6381 30.2281 12.7584 30.1004L13.8864 28.8378H14.6776L13.6339 30.0162ZM10.0985 30.0162L11.3443 32.3563H10.5194L9.57661 30.6728L8.83587 31.363V32.4236H8.0783V28.8378H8.83587V29.8984C8.83587 30.1341 8.83587 30.3361 8.83587 30.5044C8.93954 30.3629 9.05199 30.2279 9.17257 30.1004L10.3679 28.8209H11.1591L10.0985 30.0162ZM6.1086 30.5044L5.46887 28.3327L4.7618 30.4876L6.1086 30.5044ZM7.65742 32.3563H6.71466L6.32745 31.1947H4.4756L4.0884 32.3563H3.34766L5.03116 27.5078H6.1086L7.65742 32.3563Z" fill="#1D1D1B"/>
<path d="M41.279 24.9644H39.4104V19.8128C39.4436 19.3714 39.3116 18.9334 39.04 18.5839C38.9218 18.4643 38.7798 18.3711 38.6231 18.3102C38.4665 18.2492 38.2988 18.222 38.1309 18.2303C37.8837 18.2365 37.641 18.297 37.4198 18.4076C37.1987 18.5181 37.0046 18.676 36.8514 18.8701C36.4405 19.4281 36.2434 20.1151 36.2959 20.8061V24.9644H34.4272V16.7152H36.1107V18.6344C36.7168 17.2427 37.5585 16.5468 38.6359 16.5468C39.3236 16.5331 39.9911 16.7796 40.5046 17.2371C40.7962 17.5644 41.0158 17.9494 41.1492 18.367C41.2826 18.7846 41.3269 19.2255 41.279 19.6613V24.9644ZM29.04 23.6344C30.297 23.6344 30.9255 22.6972 30.9255 20.8229C30.9597 20.1262 30.8025 19.4334 30.471 18.8196C30.3302 18.582 30.1272 18.3875 29.8839 18.2569C29.6406 18.1264 29.3662 18.0648 29.0905 18.0788C28.8056 18.0627 28.5217 18.1248 28.2695 18.2583C28.0173 18.3918 27.8063 18.5917 27.6595 18.8364C27.3191 19.4535 27.156 20.1526 27.1881 20.8566C27.1398 21.5802 27.3099 22.3016 27.6763 22.9273C27.8237 23.1524 28.0266 23.3357 28.2655 23.4596C28.5043 23.5834 28.7711 23.6436 29.04 23.6344ZM29.04 25.1832C28.4977 25.2127 27.9567 25.1066 27.4658 24.8744C26.9749 24.6421 26.5496 24.2912 26.2285 23.8532C25.5849 22.9748 25.2424 21.9119 25.2521 20.8229C25.2152 19.7028 25.5996 18.6095 26.3295 17.759C26.6815 17.3597 27.1179 17.0438 27.6071 16.8341C28.0963 16.6245 28.626 16.5263 29.1578 16.5468C29.675 16.5321 30.189 16.6315 30.6633 16.8381C31.1376 17.0447 31.5605 17.3534 31.9019 17.7421C32.6414 18.6004 33.0266 19.7079 32.9794 20.8398C33.034 21.9939 32.6352 23.1237 31.8683 23.9879C31.5123 24.3765 31.0772 24.6843 30.5922 24.8905C30.1072 25.0967 29.5836 25.1965 29.0568 25.1832H29.04ZM23.6864 24.9644H21.6662V13.8027H23.6864V24.9644ZM20.7235 21.4627H16.5989V19.9138H20.7235V21.4627ZM15.7572 24.9644H13.8885V16.7152H15.7572V24.9644ZM15.7572 15.7051H13.8885V13.8027H15.7572V15.7051ZM12.7774 24.9644H5.875V13.8027H7.99621V23.1798H12.7774V24.9644Z" fill="#1D1D1B"/>
</svg>
