<svg width="46" height="45" viewBox="0 0 46 45" fill="none" xmlns="http://www.w3.org/2000/svg">
<path fill-rule="evenodd" clip-rule="evenodd" d="M2.81575 0.806641H42.1132C42.6603 0.806641 43.185 1.02399 43.5719 1.41088C43.9588 1.79776 44.1762 2.32249 44.1762 2.86963V42.0329C44.1762 42.58 43.9588 43.1047 43.5719 43.4916C43.185 43.8785 42.6603 44.0959 42.1132 44.0959H2.81575C2.27152 44.0914 1.75109 43.8721 1.36782 43.4857C0.984559 43.0993 0.769513 42.5771 0.769531 42.0329V2.86963C0.769513 2.32538 0.984559 1.80318 1.36782 1.41677C1.75109 1.03037 2.27152 0.811065 2.81575 0.806641Z" fill="white"/>
<path d="M44.4302 41.6455H43.6587C43.6587 42.1615 43.4537 42.6564 43.0888 43.0213C42.724 43.3862 42.2291 43.5911 41.7131 43.5911H3.40524C2.90095 43.5737 2.42315 43.3611 2.07267 42.9981C1.72219 42.6351 1.52644 42.1501 1.52674 41.6455V3.35445C1.52644 2.84987 1.72219 2.3649 2.07267 2.00191C2.42315 1.63891 2.90095 1.42627 3.40524 1.40887H41.7466C42.2568 1.41767 42.7431 1.62653 43.1007 1.99044C43.4584 2.35436 43.6588 2.84421 43.6587 3.35445V41.6455H45.1011V3.35445C45.1011 2.4648 44.7477 1.61158 44.1186 0.982497C43.4895 0.353415 42.6363 0 41.7466 0H3.40524C2.51558 0 1.66236 0.353415 1.03328 0.982497C0.404196 1.61158 0.0507813 2.4648 0.0507812 3.35445L0.0507813 41.6455C0.0507813 42.5352 0.404196 43.3884 1.03328 44.0175C1.66236 44.6466 2.51558 45 3.40524 45H41.7466C42.6363 45 43.4895 44.6466 44.1186 44.0175C44.7477 43.3884 45.1011 42.5352 45.1011 41.6455H44.4302Z" fill="#E31E24"/>
<path d="M25.6465 20.0086V20.3608H24.875V16.9225H25.6633V18.432C25.6633 18.6556 25.6633 18.896 25.6633 19.1532C25.8119 18.9201 25.9744 18.6961 26.1497 18.4823L27.0386 17.3754V16.9225H27.8269V20.3776H27.0386V18.9519C27.0386 18.6724 27.0386 18.4208 27.0386 18.1972C26.9002 18.4183 26.749 18.6311 26.5858 18.8345L25.6465 20.0086ZM23.4494 18.3314C23.4561 18.1097 23.3781 17.8938 23.2313 17.7276C23.1609 17.654 23.0763 17.5955 22.9826 17.5555C22.8889 17.5155 22.7881 17.4949 22.6862 17.4949C22.5844 17.4949 22.4836 17.5155 22.3899 17.5555C22.2962 17.5955 22.2116 17.654 22.1411 17.7276C21.9801 17.8905 21.8795 18.1035 21.856 18.3314H23.4494ZM23.4494 19.3713L24.1538 19.4719C24.0637 19.7807 23.8753 20.0516 23.6171 20.2434C23.3273 20.4458 22.9809 20.5515 22.6275 20.5453C22.4109 20.5531 22.1951 20.5137 21.9953 20.4297C21.7954 20.3457 21.6162 20.2192 21.4702 20.0589C21.1643 19.6939 21.0084 19.2263 21.0342 18.7507C21.0159 18.2812 21.1711 17.8215 21.4702 17.4592C21.6167 17.2884 21.7999 17.1529 22.0061 17.0629C22.2123 16.9728 22.4362 16.9306 22.6611 16.9393C22.8774 16.9274 23.0934 16.9668 23.2916 17.0542C23.4898 17.1417 23.6645 17.2747 23.8016 17.4424C24.0832 17.8187 24.2255 18.2811 24.2041 18.7507V18.8345H21.856C21.828 19.0236 21.828 19.2157 21.856 19.4048C21.9062 19.552 21.9997 19.6807 22.1243 19.7738C22.23 19.8486 22.3516 19.898 22.4795 19.918C22.6074 19.9381 22.7382 19.9282 22.8617 19.8892C22.9852 19.8502 23.0979 19.7832 23.1912 19.6933C23.2844 19.6034 23.3555 19.4932 23.399 19.3713H23.4494ZM18.3674 19.0526C18.3597 19.2795 18.4375 19.5009 18.5854 19.6732C18.6461 19.749 18.7225 19.8108 18.8093 19.8542C18.8962 19.8977 18.9915 19.9217 19.0886 19.9247C19.204 19.9315 19.3187 19.903 19.4175 19.8431C19.5164 19.7832 19.5947 19.6947 19.6421 19.5893C19.7654 19.3276 19.8229 19.0397 19.8098 18.7507C19.8237 18.4562 19.7661 18.1627 19.6421 17.8953C19.5986 17.794 19.526 17.7079 19.4333 17.6481C19.3407 17.5884 19.2323 17.5576 19.1221 17.5598C19.0177 17.5585 18.9145 17.5822 18.8212 17.6289C18.7278 17.6755 18.647 17.7439 18.5854 17.8282C18.4331 18.0306 18.356 18.2796 18.3674 18.5326V19.0526ZM18.3674 21.6355H17.5791V16.9225H18.3338V17.5263C18.4254 17.3236 18.5742 17.1522 18.7619 17.033C18.9496 16.9138 19.1681 16.852 19.3905 16.8554C19.5748 16.8515 19.7569 16.8959 19.9187 16.9842C20.0805 17.0725 20.2164 17.2015 20.3129 17.3586C20.5516 17.7396 20.6686 18.1842 20.6484 18.6333C20.6603 19.0793 20.5501 19.52 20.3297 19.908C20.2342 20.0808 20.0928 20.2239 19.9212 20.3215C19.7495 20.4192 19.5543 20.4676 19.3569 20.4615C19.1585 20.4737 18.9609 20.4278 18.7881 20.3295C18.6154 20.2312 18.475 20.0847 18.3841 19.908L18.3674 21.6355ZM16.036 18.6333C15.0297 18.6333 14.5265 18.8737 14.5265 19.3545C14.5252 19.423 14.5379 19.4911 14.5639 19.5546C14.5898 19.618 14.6285 19.6755 14.6775 19.7235C14.7392 19.7773 14.8111 19.8183 14.8888 19.8442C14.9665 19.8701 15.0486 19.8804 15.1303 19.8744C15.2565 19.8817 15.3827 19.8598 15.4991 19.8103C15.6155 19.7609 15.7188 19.6852 15.8012 19.5893C15.951 19.4105 16.034 19.1852 16.036 18.9519V18.6333ZM16.8243 20.3944H16.1534C16.0846 20.1655 16.0451 19.9288 16.036 19.6899C15.952 19.9295 15.7916 20.1348 15.5794 20.2742C15.3673 20.4136 15.1152 20.4794 14.862 20.4615C14.7091 20.47 14.556 20.4477 14.4119 20.3958C14.2679 20.3439 14.1357 20.2636 14.0233 20.1595C13.9203 20.0631 13.8386 19.9461 13.7837 19.8161C13.7288 19.686 13.7019 19.5459 13.7047 19.4048C13.7047 18.6109 14.4035 18.214 15.8012 18.214H16.0192V17.9456C16.0192 17.5878 15.7732 17.4089 15.2813 17.4089C14.7893 17.4089 14.5209 17.5878 14.4762 17.9456L13.8053 17.845C13.8258 17.7019 13.8768 17.565 13.955 17.4434C14.0331 17.3219 14.1365 17.2186 14.2582 17.1405C14.5946 16.9325 14.9869 16.833 15.3819 16.8554C15.5991 16.8282 15.8188 16.8282 16.036 16.8554C16.1973 16.8906 16.3472 16.9655 16.4721 17.0735C16.5786 17.1693 16.6594 17.2904 16.7069 17.4257C16.7397 17.6369 16.7397 17.8518 16.7069 18.063V19.6228C16.7069 19.8612 16.7408 20.0984 16.8075 20.3273L16.8243 20.3944ZM11.7759 20.3273V17.476H10.8869V16.8722H13.5705V17.476H12.6145V20.3273H11.7759ZM9.79673 18.6333C8.79039 18.6333 8.28723 18.8737 8.28723 19.3545C8.28592 19.423 8.29864 19.4911 8.3246 19.5546C8.35056 19.618 8.38921 19.6755 8.43818 19.7235C8.49996 19.7773 8.57178 19.8183 8.64951 19.8442C8.72723 19.8701 8.80932 19.8804 8.89103 19.8744C9.01725 19.8817 9.14346 19.8598 9.25982 19.8103C9.37618 19.7609 9.47956 19.6852 9.56192 19.5893C9.71169 19.4105 9.79469 19.1852 9.79673 18.9519V18.6333ZM10.6689 20.3944H9.91414C9.84528 20.1655 9.80583 19.9288 9.79673 19.6899C9.71275 19.9295 9.55232 20.1348 9.34016 20.2742C9.12801 20.4136 8.8759 20.4794 8.62267 20.4615C8.46978 20.47 8.31673 20.4477 8.17265 20.3958C8.02857 20.3439 7.89642 20.2636 7.78406 20.1595C7.68098 20.0631 7.59934 19.9461 7.54444 19.8161C7.48954 19.686 7.4626 19.5459 7.46539 19.4048C7.46539 18.6109 8.16423 18.214 9.56192 18.214H9.77996V17.9456C9.77996 17.5878 9.53397 17.4089 9.04198 17.4089C8.54999 17.4089 8.28164 17.5878 8.23691 17.9456L7.56602 17.845C7.5865 17.7019 7.63755 17.565 7.71569 17.4434C7.79383 17.3219 7.89724 17.2186 8.01887 17.1405C8.35535 16.9325 8.74766 16.833 9.14261 16.8554C9.3598 16.8282 9.57954 16.8282 9.79673 16.8554C9.958 16.8906 10.1079 16.9655 10.2328 17.0735C10.3394 17.1693 10.4201 17.2904 10.4676 17.4257C10.5004 17.6369 10.5004 17.8518 10.4676 18.063V19.6228C10.4676 19.8612 10.5015 20.0984 10.5683 20.3273L10.6689 20.3944ZM5.43594 17.4592C4.88805 17.4592 4.6141 17.8562 4.6141 18.65C4.6141 19.4439 4.88805 19.8353 5.43594 19.8241C5.97265 19.8241 6.24101 19.4327 6.24101 18.65C6.24101 17.8673 5.97265 17.4704 5.43594 17.4592ZM5.88879 15.3962H6.76095C6.76023 15.4945 6.73897 15.5915 6.69854 15.681C6.6581 15.7706 6.59937 15.8507 6.52614 15.9162C6.3064 16.0687 6.05337 16.1665 5.78816 16.2013C5.54636 16.2321 5.30957 16.2941 5.08372 16.3858C4.95493 16.4536 4.84968 16.5589 4.78182 16.6877C4.69226 16.8603 4.6354 17.0479 4.6141 17.2412C4.7514 17.109 4.91022 17.0013 5.08372 16.9225C5.22261 16.9002 5.36415 16.9002 5.50303 16.9225C5.70641 16.9168 5.90869 16.9542 6.09658 17.0323C6.28447 17.1103 6.45373 17.2273 6.59323 17.3754C6.90222 17.7387 7.05851 18.2075 7.02931 18.6836C7.05695 19.1697 6.90135 19.6484 6.59323 20.0254C6.44282 20.1892 6.25807 20.3177 6.05222 20.4018C5.84636 20.4858 5.62446 20.5234 5.4024 20.5118C5.18463 20.5208 4.96742 20.4837 4.76505 20.4027C4.56269 20.3218 4.37977 20.1989 4.22834 20.0421C3.89896 19.6114 3.74333 19.0727 3.79226 18.5326C3.78734 18.15 3.82106 17.7679 3.89289 17.3921C3.95072 17.0808 4.07049 16.7842 4.24511 16.52C4.37006 16.3199 4.5358 16.1485 4.73151 16.0168C4.93125 15.9076 5.14601 15.8285 5.36885 15.782C5.49795 15.7655 5.62298 15.7258 5.73784 15.6646C5.77076 15.6352 5.79683 15.5989 5.81422 15.5583C5.83161 15.5178 5.83989 15.4739 5.83848 15.4298L5.88879 15.3962ZM23.4158 12.4108C22.4095 12.4108 21.9063 12.6512 21.9063 13.132C21.905 13.2005 21.9177 13.2686 21.9437 13.3321C21.9696 13.3955 22.0083 13.453 22.0573 13.501C22.119 13.5548 22.1909 13.5958 22.2686 13.6217C22.3463 13.6476 22.4284 13.6579 22.5101 13.6519C22.6448 13.6541 22.778 13.6231 22.8979 13.5616C23.0178 13.5002 23.1208 13.4103 23.1978 13.2997C23.3475 13.1209 23.4305 12.8956 23.4326 12.6623L23.4158 12.4108ZM24.288 14.1718H23.5332C23.4644 13.943 23.4249 13.7063 23.4158 13.4674C23.3318 13.707 23.1714 13.9123 22.9592 14.0517C22.7471 14.1911 22.495 14.2569 22.2418 14.2389C22.0889 14.2475 21.9358 14.2252 21.7917 14.1733C21.6477 14.1214 21.5155 14.0411 21.4031 13.937C21.3009 13.84 21.2198 13.7228 21.165 13.593C21.1101 13.4631 21.0827 13.3233 21.0845 13.1823C21.0845 12.3884 21.7833 11.9915 23.181 11.9915H23.399V11.7231C23.399 11.3653 23.153 11.1864 22.6611 11.1864C22.1691 11.1864 21.9007 11.3653 21.856 11.7231L21.2186 11.6225C21.2391 11.4794 21.2902 11.3425 21.3683 11.2209C21.4465 11.0993 21.5499 10.996 21.6715 10.918C22.008 10.71 22.4003 10.6105 22.7952 10.6329C23.0124 10.6057 23.2322 10.6057 23.4494 10.6329C23.6104 10.6687 23.7601 10.7436 23.8854 10.8509C23.992 10.9468 24.0727 11.0679 24.1203 11.2032C24.153 11.4143 24.153 11.6293 24.1203 11.8405V13.4674C24.1202 13.7058 24.1541 13.943 24.2209 14.1718H24.288ZM18.5015 13.5513H19.8936L19.3737 11.3038H19.0886L18.5015 13.5513ZM17.881 13.5513L18.686 10.7H19.9607L20.6819 13.5513H21.0006V14.9769H20.4974L20.3968 14.1886H18.1493L18.0655 14.9769H17.5623V13.5513H17.881ZM16.4553 12.2263V11.2702H15.6335C15.5655 11.2622 15.4965 11.2696 15.4318 11.292C15.367 11.3145 15.3082 11.3513 15.2598 11.3997C15.2113 11.4482 15.1745 11.507 15.1521 11.5717C15.1297 11.6364 15.1222 11.7054 15.1303 11.7734C15.1214 11.8365 15.1275 11.9007 15.1482 11.961C15.1689 12.0212 15.2036 12.0756 15.2494 12.1198C15.2953 12.164 15.3509 12.1967 15.4119 12.2152C15.4728 12.2337 15.5373 12.2375 15.5999 12.2263H16.4553ZM16.4553 14.1551V12.8133H15.6167L14.9794 14.1718H14.1407L14.9961 12.6456C14.8074 12.5929 14.6418 12.4783 14.5262 12.32C14.4106 12.1618 14.3516 11.9693 14.3588 11.7734C14.3474 11.6238 14.3702 11.4736 14.4254 11.3342C14.4806 11.1947 14.5668 11.0696 14.6775 10.9683C14.9052 10.7858 15.1908 10.6906 15.4825 10.7H17.1598V14.1718L16.4553 14.1551ZM11.6081 12.7462C11.6069 12.946 11.6718 13.1406 11.7926 13.2997C11.8533 13.3755 11.9297 13.4373 12.0166 13.4808C12.1034 13.5242 12.1987 13.5483 12.2958 13.5513C12.4076 13.5727 12.5232 13.5602 12.6278 13.5154C12.7325 13.4705 12.8213 13.3954 12.8828 13.2997C13.0061 13.038 13.0637 12.7501 13.0506 12.4611C13.0617 12.1722 13.0043 11.8848 12.8828 11.6225C12.8394 11.5211 12.7667 11.4351 12.6741 11.3753C12.5815 11.3155 12.4731 11.2848 12.3629 11.287C12.2466 11.2872 12.1325 11.3184 12.0322 11.3773C11.932 11.4363 11.8493 11.5209 11.7926 11.6225C11.6403 11.8248 11.5632 12.0739 11.5746 12.3269L11.6081 12.7462ZM11.6081 15.3291H10.8198V10.7H11.5746V11.3038C11.6661 11.1011 11.8149 10.9296 12.0027 10.8104C12.1904 10.6912 12.4089 10.6295 12.6312 10.6329C12.8155 10.629 12.9976 10.6734 13.1595 10.7617C13.3213 10.85 13.4572 10.979 13.5537 11.1361C13.7924 11.5171 13.9094 11.9617 13.8892 12.4108C13.901 12.8568 13.7909 13.2975 13.5705 13.6855C13.4749 13.8583 13.3336 14.0014 13.1619 14.099C12.9903 14.1967 12.7951 14.2451 12.5977 14.2389C12.3993 14.2511 12.2017 14.2053 12.0289 14.107C11.8562 14.0087 11.7158 13.8622 11.6249 13.6855L11.6081 15.3291ZM9.22647 12.4108C8.22014 12.4108 7.71697 12.6512 7.71697 13.132C7.71567 13.2005 7.72838 13.2686 7.75434 13.3321C7.7803 13.3955 7.81895 13.453 7.86792 13.501C7.9297 13.5548 8.00153 13.5958 8.07925 13.6217C8.15698 13.6476 8.23906 13.6579 8.32077 13.6519C8.45548 13.6541 8.58866 13.6231 8.70857 13.5616C8.82849 13.5002 8.93146 13.4103 9.00843 13.2997C9.1582 13.1209 9.2412 12.8956 9.24325 12.6623L9.22647 12.4108ZM10.1154 14.1718H9.34388C9.27503 13.943 9.23557 13.7063 9.22647 13.4674C9.14249 13.707 8.98206 13.9123 8.76991 14.0517C8.55775 14.1911 8.30564 14.2569 8.05241 14.2389C7.89952 14.2475 7.74647 14.2252 7.6024 14.1733C7.45832 14.1214 7.32616 14.0411 7.2138 13.937C7.11072 13.8406 7.02908 13.7236 6.97418 13.5936C6.91928 13.4635 6.89235 13.3234 6.89513 13.1823C6.89513 12.3884 7.59397 11.9915 8.99166 11.9915H9.2097V11.7231C9.2097 11.3653 8.96371 11.1864 8.47172 11.1864C7.97974 11.1864 7.71138 11.3653 7.66665 11.7231L7.02931 11.6225C7.04979 11.4794 7.10083 11.3425 7.17898 11.2209C7.25712 11.0993 7.36052 10.996 7.48216 10.918C7.81864 10.71 8.21094 10.6105 8.6059 10.6329C8.82309 10.6057 9.04283 10.6057 9.26002 10.6329C9.42105 10.6687 9.57081 10.7436 9.6961 10.8509C9.80264 10.9468 9.88338 11.0679 9.93091 11.2032C9.96365 11.4143 9.96365 11.6293 9.93091 11.8405V13.4674C9.95815 13.7099 10.0203 13.9472 10.1154 14.1718ZM4.74828 12.6456V12.1089C4.99141 12.141 5.23844 12.094 5.45271 11.9747C5.5 11.9297 5.5366 11.8748 5.55982 11.8138C5.58304 11.7529 5.59229 11.6875 5.58689 11.6225C5.58961 11.5627 5.57897 11.5031 5.55576 11.448C5.53255 11.3929 5.49735 11.3436 5.45271 11.3038C5.34558 11.2275 5.21477 11.1918 5.08372 11.2032C4.93055 11.189 4.77795 11.2356 4.65876 11.3328C4.53957 11.4301 4.46331 11.5702 4.44638 11.7231L3.7084 11.6225C3.77318 11.3158 3.95008 11.0444 4.20447 10.8614C4.45886 10.6784 4.77241 10.5969 5.08372 10.6329C5.42917 10.6081 5.77264 10.7029 6.05651 10.9013C6.16067 10.9794 6.2452 11.0807 6.30343 11.1971C6.36165 11.3136 6.39196 11.442 6.39196 11.5721C6.39196 11.9188 6.17951 12.1704 5.75461 12.3269C6.2466 12.4611 6.49259 12.7406 6.49259 13.1655C6.49594 13.3124 6.46599 13.4581 6.40499 13.5917C6.34399 13.7253 6.25352 13.8434 6.14038 13.937C5.83786 14.1654 5.46121 14.273 5.08372 14.2389C4.74537 14.2847 4.40218 14.2014 4.12246 14.0056C3.84274 13.8098 3.64701 13.5159 3.57422 13.1823L4.29543 13.0481C4.30354 13.1418 4.33077 13.2328 4.37544 13.3155C4.42012 13.3983 4.48129 13.471 4.55517 13.5291C4.62905 13.5873 4.71407 13.6297 4.80498 13.6537C4.89589 13.6777 4.99076 13.6828 5.08372 13.6687C5.24807 13.6756 5.40923 13.6219 5.53657 13.5177C5.59071 13.4693 5.63373 13.4098 5.66268 13.3432C5.69163 13.2766 5.70583 13.2046 5.7043 13.132C5.70538 13.02 5.66334 12.9119 5.58689 12.8301C5.51179 12.7488 5.41121 12.6955 5.30176 12.6791H4.74828V12.6456ZM33.2947 6.59078C33.287 6.81766 33.3648 7.03913 33.5127 7.21136C33.5734 7.28721 33.6498 7.349 33.7367 7.39244C33.8235 7.43587 33.9188 7.45993 34.0159 7.46294C34.1313 7.4697 34.246 7.44125 34.3448 7.38134C34.4437 7.32144 34.522 7.23291 34.5694 7.1275C34.6927 6.86577 34.7503 6.5779 34.7371 6.28888C34.751 5.9944 34.6934 5.70093 34.5694 5.4335C34.526 5.33216 34.4533 5.2461 34.3607 5.18633C34.268 5.12657 34.1597 5.09583 34.0494 5.09805C33.945 5.09671 33.8419 5.12037 33.7485 5.16705C33.6551 5.21374 33.5743 5.28209 33.5127 5.36641C33.3604 5.56876 33.2833 5.81783 33.2947 6.07084V6.59078ZM33.2947 9.17371H32.5064V4.47748H33.2611V5.08128C33.3527 4.87861 33.5015 4.70713 33.6892 4.58793C33.8769 4.46874 34.0954 4.40702 34.3178 4.41039C34.5077 4.40048 34.6967 4.442 34.865 4.53055C35.0332 4.61911 35.1745 4.75143 35.2738 4.91356C35.5124 5.29454 35.6295 5.73915 35.6093 6.18825C35.6211 6.63424 35.5109 7.07501 35.2906 7.46294C35.195 7.63575 35.0537 7.77885 34.882 7.8765C34.7104 7.97415 34.5152 8.02257 34.3178 8.01643C34.1194 8.02863 33.9218 7.98279 33.749 7.8845C33.5762 7.7862 33.4359 7.63972 33.345 7.46294L33.2947 9.17371ZM30.2757 7.49648C30.8012 7.49648 31.064 7.10513 31.064 6.32243C31.0763 6.03161 31.0127 5.74261 30.8795 5.48381C30.8356 5.35139 30.7495 5.23702 30.6344 5.15825C30.5192 5.07948 30.3814 5.04065 30.2421 5.04773C30.1219 5.0401 30.0019 5.06581 29.8954 5.12204C29.7888 5.17828 29.6999 5.26284 29.6383 5.36641C29.4993 5.62362 29.4299 5.91272 29.4371 6.20502C29.4178 6.5038 29.4879 6.80155 29.6383 7.06041C29.6992 7.15573 29.7837 7.23365 29.8836 7.28656C29.9836 7.33948 30.0955 7.36557 30.2086 7.36231L30.2757 7.49648ZM30.2086 7.99965C29.9822 8.01268 29.7562 7.96887 29.5512 7.87219C29.3461 7.77552 29.1685 7.62906 29.0345 7.44617C28.7672 7.08174 28.6259 6.64015 28.632 6.18825C28.627 5.71711 28.8008 5.2616 29.1184 4.91356C29.2647 4.74804 29.4458 4.61706 29.6489 4.53005C29.8519 4.44304 30.0717 4.40217 30.2924 4.41039C30.5077 4.40598 30.7214 4.44873 30.9184 4.53566C31.1155 4.62258 31.2911 4.75156 31.433 4.91356C31.7424 5.27094 31.9043 5.73265 31.8858 6.20502C31.9103 6.69136 31.7415 7.16764 31.4162 7.53003C31.2678 7.69286 31.0862 7.82201 30.8837 7.9088C30.6812 7.99559 30.4624 8.03801 30.2421 8.0332L30.2086 7.99965ZM26.8877 8.0332V5.08128H25.8813V4.47748H28.5649V5.08128H27.6257V7.93256L26.8877 8.0332ZM24.8079 6.17148C23.8016 6.17148 23.2984 6.41188 23.2984 6.89268C23.2971 6.96123 23.3098 7.02931 23.3358 7.09277C23.3617 7.15622 23.4004 7.2137 23.4494 7.26167C23.5111 7.31548 23.583 7.35652 23.6607 7.38243C23.7384 7.40834 23.8205 7.4186 23.9022 7.41262C24.0284 7.4199 24.1546 7.39797 24.271 7.34851C24.3874 7.29906 24.4907 7.22342 24.5731 7.1275C24.7229 6.94868 24.8059 6.72339 24.8079 6.49015V6.17148ZM25.6801 7.93256H24.9421C24.8732 7.70368 24.8338 7.46697 24.8247 7.22813C24.7407 7.4677 24.5803 7.67301 24.3681 7.81242C24.156 7.95184 23.9039 8.01763 23.6506 7.99965C23.4977 8.00821 23.3447 7.98588 23.2006 7.93401C23.0565 7.88215 22.9244 7.80179 22.812 7.69775C22.7098 7.60069 22.6287 7.48355 22.5738 7.35367C22.519 7.22379 22.4916 7.08397 22.4933 6.943C22.4933 6.14911 23.1922 5.75217 24.5899 5.75217H24.8079V5.50058C24.8079 5.14278 24.5619 4.96387 24.0699 4.96387C23.5779 4.96387 23.3096 5.14278 23.2649 5.50058L22.594 5.39995C22.6145 5.2569 22.6655 5.11995 22.7436 4.99839C22.8218 4.87684 22.9252 4.77353 23.0468 4.69552C23.3833 4.48748 23.7756 4.38794 24.1706 4.41039C24.3878 4.3832 24.6075 4.3832 24.8247 4.41039C24.9857 4.44622 25.1355 4.5211 25.2608 4.62843C25.3673 4.7243 25.4481 4.84542 25.4956 4.98064C25.5283 5.19183 25.5283 5.4068 25.4956 5.61799V7.17781C25.4956 7.4162 25.5295 7.65339 25.5962 7.88225L25.6801 7.93256ZM21.2186 5.68508L22.4263 7.94934H21.5876L20.6819 6.27211L20.0614 6.92623V7.94934H19.2731V4.47748H20.0614V5.50058C20.0614 5.71862 20.0614 5.91989 20.0614 6.08761L20.38 5.70185L21.5373 4.4607H22.3088L21.2186 5.68508ZM16.3044 7.59712V7.94934H15.5161V4.47748H16.3044V5.98698C16.3044 6.21061 16.3044 6.45101 16.3044 6.70819C16.453 6.47505 16.6154 6.25102 16.7908 6.0373L17.6629 4.91356V4.47748H18.5015V7.94934H17.6629V6.59078C17.6629 6.31124 17.6629 6.05966 17.6629 5.83603C17.5245 6.0571 17.3733 6.26991 17.2101 6.47338L16.3044 7.59712ZM12.6983 7.32876H14.0904L13.5705 5.08128H13.2854L12.6983 7.32876ZM12.0778 7.32876L12.8828 4.47748H14.1575L14.8787 7.32876H15.1471V8.73763H14.6439L14.5433 7.94934H12.3629L12.2623 8.73763H11.7926V7.32876H12.0778ZM8.43818 7.94934V4.47748H9.27679V5.81926H10.6353V4.47748H11.4236V7.94934H10.6353V6.42306H9.27679V7.94934H8.43818ZM4.88246 7.51326V7.93256H4.04384V3.23633H4.88246V5.88635C4.88246 6.10439 4.88246 6.3392 4.88246 6.59078C5.03889 6.26199 5.2241 5.94768 5.43594 5.65154L6.76095 3.7395V3.23633H7.59956V7.94934H6.76095V5.51736C6.76095 5.11482 6.76095 4.82969 6.76095 4.66197C6.60012 4.98306 6.4151 5.29144 6.20747 5.58445L4.88246 7.51326Z" fill="#1D1D1B"/>
<path d="M25.57 25.7285H8.04297V39.8508H25.57V25.7285Z" fill="url(#paint0_linear_166_14953)"/>
<path d="M36.3692 29.1976H34.6081V36.7787H36.3692V29.1976ZM37.2078 28.8119V37.5502H33.7695V28.3926H37.2078V28.8119Z" fill="#1D1D1B"/>
<path d="M10.7056 30.7383H9.69922V34.7972H10.7056V30.7383Z" fill="#1D1D1B"/>
<path d="M27.5 32.3338H29.7307V30.3379H30.6532V32.3338H32.8671V33.1892H30.6532V35.2018H29.7307V33.1892H27.5V32.3338Z" fill="#1D1D1B"/>
<path d="M33.7691 37.7329V27.7534C33.7688 27.5152 33.7177 27.2799 33.6194 27.063C33.5211 26.8461 33.3777 26.6526 33.1988 26.4954C32.8206 26.1577 32.3305 25.9724 31.8235 25.9755H10.4724C9.96535 25.9724 9.47524 26.1577 9.09705 26.4954C8.91815 26.6526 8.77476 26.8461 8.67643 27.063C8.57811 27.2799 8.5271 27.5152 8.5268 27.7534V37.7329C8.5271 37.971 8.57811 38.2063 8.67643 38.4232C8.77476 38.6401 8.91815 38.8336 9.09705 38.9908C9.47524 39.3285 9.96535 39.5138 10.4724 39.5107H31.8067C32.3137 39.5138 32.8038 39.3285 33.182 38.9908C33.3609 38.8336 33.5043 38.6401 33.6026 38.4232C33.701 38.2063 33.752 37.971 33.7523 37.7329H33.7691ZM34.5909 27.7534V37.7329C34.588 38.073 34.5133 38.4087 34.3717 38.718C34.2301 39.0272 34.0247 39.3031 33.7691 39.5275C33.2281 40.0067 32.5294 40.2694 31.8067 40.2655H10.4724C9.7267 40.2863 9.00106 40.0224 8.44293 39.5275C8.18729 39.3031 7.98194 39.0272 7.84031 38.718C7.69868 38.4087 7.62398 38.073 7.62109 37.7329V27.7534C7.62398 27.4132 7.69868 27.0775 7.84031 26.7683C7.98194 26.459 8.18729 26.1831 8.44293 25.9587C8.9839 25.4795 9.68263 25.2168 10.4053 25.2207H31.8067C32.5294 25.2168 33.2281 25.4795 33.7691 25.9587C34.0247 26.1831 34.2301 26.459 34.3717 26.7683C34.5133 27.0775 34.588 27.4132 34.5909 27.7534Z" fill="#1D1D1B"/>
<defs>
<linearGradient id="paint0_linear_166_14953" x1="27.2095" y1="31.9234" x2="9.96088" y2="31.9234" gradientUnits="userSpaceOnUse">
<stop stop-color="#575756"/>
<stop offset="1" stop-color="#C6C6C6"/>
</linearGradient>
</defs>
</svg>
