<svg width="46" height="45" viewBox="0 0 46 45" fill="none" xmlns="http://www.w3.org/2000/svg">
<path d="M44.6004 41.6543H43.8643C43.8643 42.1689 43.6599 42.6625 43.296 43.0264C42.932 43.3904 42.4385 43.5948 41.9238 43.5948H3.61526C3.10935 43.5817 2.62856 43.3715 2.27543 43.009C1.9223 42.6465 1.72475 42.1604 1.72492 41.6543V3.34573C1.73763 2.84838 1.94086 2.37491 2.29265 2.02312C2.64444 1.67133 3.11791 1.46809 3.61526 1.45539H41.9238C42.4299 1.45522 42.916 1.65276 43.2785 2.0059C43.641 2.35903 43.8512 2.83981 43.8643 3.34573V41.6543H45.3197V3.34573C45.3197 2.45838 44.9672 1.60739 44.3398 0.97994C43.7123 0.352495 42.8613 0 41.974 0L3.61526 0C2.72791 0 1.87692 0.352495 1.24947 0.97994C0.622026 1.60739 0.269531 2.45838 0.269531 3.34573L0.269531 41.6543C0.269531 42.5416 0.622026 43.3926 1.24947 44.0201C1.87692 44.6475 2.72791 45 3.61526 45H41.9238C42.8111 45 43.6621 44.6475 44.2896 44.0201C44.917 43.3926 45.2695 42.5416 45.2695 41.6543H44.6004Z" fill="#E31E24"/>
<mask id="mask0_166_15165" style="mask-type:alpha" maskUnits="userSpaceOnUse" x="1" y="1" width="44" height="43">
<path fill-rule="evenodd" clip-rule="evenodd" d="M3.42473 1.125H42.1155C42.6537 1.125 43.1697 1.33983 43.5503 1.72223C43.9308 2.10463 44.1445 2.62327 44.1445 3.16406V41.8359C44.1445 42.3767 43.9308 42.8954 43.5503 43.2778C43.1697 43.6602 42.6537 43.875 42.1155 43.875H3.42473C2.89851 43.8753 2.39276 43.6702 2.0142 43.3028C1.63564 42.9355 1.41388 42.4348 1.39574 41.9062V3.23438C1.38634 2.96074 1.43188 2.68801 1.52963 2.43245C1.62738 2.17689 1.77535 1.94372 1.9647 1.74687C2.15406 1.55001 2.38092 1.3935 2.63176 1.28666C2.8826 1.17982 3.15229 1.12484 3.42473 1.125Z" fill="white"/>
</mask>
<g mask="url(#mask0_166_15165)">
<path d="M5.48549 -2.11275C6.81488 -1.28357 8.26268 -0.661474 9.7792 -0.2678C10.8694 0.0508735 11.7751 0.268913 12.6473 0.486953C14.1838 0.816948 15.6881 1.28281 17.1422 1.87905C18.1618 2.35254 19.1382 2.91373 20.0606 3.55628C20.8094 4.10151 21.6422 4.52075 22.5261 4.79743C23.4804 4.99088 24.4559 5.05854 25.4277 4.99869C24.7721 4.44015 24.2063 3.78392 23.7505 3.05311C23.566 2.60026 23.0461 2.2145 22.0733 1.57715L20.765 0.604358C19.1214 -0.754195 17.0416 -2.28047 17.0416 -2.28047L17.4106 -2.54883L21.1843 0.31923L22.4758 1.29202C23.4151 1.97968 23.9685 2.38222 24.153 2.96925C24.6716 3.74737 25.2921 4.4525 25.998 5.06578L26.2831 5.33414H25.847C24.6773 5.41719 23.5017 5.32676 22.3584 5.06578C21.415 4.78465 20.525 4.34817 19.7252 3.77432C18.8209 3.17412 17.867 2.65228 16.8739 2.2145C15.4642 1.61848 14.005 1.14705 12.5131 0.805626C11.6409 0.587586 10.7017 0.369547 9.62825 0.0508735C8.05888 -0.351014 6.56006 -0.990132 5.18359 -1.84439L5.48549 -2.11275Z" fill="#1A171B"/>
<path d="M25.1429 -2.3125C26.1041 -1.58337 26.9717 -0.738369 27.7258 0.20334C27.8768 0.454924 28.011 0.689736 28.1284 0.924548C28.4702 1.72386 29.0576 2.39356 29.8056 2.83659C30.4094 3.22235 31.097 3.70874 31.7512 4.21191C32.4053 4.71508 33.4284 5.53692 33.7806 5.88914C34.4515 6.52649 34.9379 7.04643 34.9379 7.0632L34.5689 7.28124C34.5689 7.28124 34.0825 6.74452 33.4452 6.14072C33.0762 5.78851 32.3047 5.13439 31.4493 4.4635C30.5939 3.79261 30.141 3.49071 29.5372 3.12172C28.7294 2.64424 28.0948 1.92156 27.7258 1.05873C27.6084 0.823914 27.491 0.605875 27.3401 0.371063C26.6036 -0.534047 25.7586 -1.3452 24.8242 -2.04414L25.1429 -2.3125Z" fill="#1A171B"/>
<path d="M8.52366 3.58984C9.90113 3.78159 11.2555 4.11316 12.5658 4.57941C13.5068 4.95527 14.494 5.20347 15.5009 5.31739H15.9202C16.3846 5.4571 16.8297 5.6543 17.2452 5.90442C18.051 6.37083 18.9135 6.7316 19.8114 6.97784C20.4152 7.11202 20.9184 7.16234 21.4886 7.22943C22.3852 7.31773 23.2721 7.48613 24.1386 7.73259C25.177 8.02353 26.1466 8.51971 26.9899 9.19178L26.6545 9.44337C25.8391 8.81255 24.9029 8.35586 23.9038 8.10158C23.0702 7.86388 22.217 7.7011 21.3544 7.61519C20.8345 7.61519 20.3313 7.49778 19.6772 7.3636C18.7574 7.11926 17.8725 6.75854 17.044 6.29018C16.6736 6.06854 16.2799 5.88854 15.8699 5.75347L15.3667 5.68638C14.3129 5.56232 13.2806 5.29718 12.2974 4.89808C11.0352 4.45518 9.73155 4.14051 8.40625 3.95883L8.52366 3.58984Z" fill="#1A171B"/>
<path d="M32.3678 -2.41602C33.214 -1.64634 34.0096 -0.822779 34.7495 0.0495079V0.150141C35.7436 1.58006 37.1823 2.64142 38.8419 3.16915C40.0466 3.53518 41.1808 4.10225 42.1964 4.84638L41.8777 5.11473C40.8603 4.39718 39.725 3.86357 38.5233 3.53814C36.8174 2.9668 35.345 1.85365 34.3302 0.368181V0.267547C33.6119 -0.597401 32.8388 -1.41533 32.0156 -2.1812L32.3678 -2.41602Z" fill="#1A171B"/>
<path d="M0.874043 -0.671875C2.02318 0.861627 3.29056 2.30285 4.66458 3.6386L5.03357 3.9405C6.12376 4.81266 6.71079 5.28228 6.91206 6.15444C6.98879 6.5542 7.21718 6.9088 7.54941 7.144C7.98409 7.4315 8.4764 7.62041 8.99182 7.69749C9.66504 7.83954 10.286 8.16455 10.7865 8.63673C11.3971 9.20709 11.9074 9.87614 12.296 10.6159L12.5475 11.1023C13.1866 12.4606 14.2691 13.5608 15.6169 14.2219C18.1327 15.8991 19.0887 16.3855 19.1055 16.3855L18.8371 16.6874C18.8371 16.6874 17.8811 16.1339 15.3317 14.507C13.9378 13.8222 12.8152 12.6878 12.145 11.2868L11.8934 10.8171C11.5274 10.1102 11.0455 9.46958 10.4678 8.92186C10.0304 8.51373 9.49188 8.22999 8.90796 8.10002C8.30848 8.0148 7.73552 7.79708 7.23073 7.46268C6.82171 7.17721 6.53918 6.74439 6.44244 6.25507C6.29149 5.48355 5.72123 5.04747 4.76521 4.22563L4.37945 3.92373C2.96708 2.55925 1.66589 1.08419 0.488281 -0.48738L0.874043 -0.671875Z" fill="#1A171B"/>
<path d="M27.1853 9.9778C26.4598 10.7476 25.7874 11.5657 25.1727 12.4266L24.9378 12.8459C24.3985 13.9249 23.5676 14.8313 22.5394 15.4623C21.5052 16.1465 20.3746 16.6722 19.185 17.0222L19.0508 16.6699C20.181 16.3327 21.2549 15.8296 22.2375 15.1772C23.2084 14.5764 23.9925 13.7168 24.5018 12.6949L24.7366 12.2756C25.3604 11.3913 26.0441 10.5507 26.7828 9.75977L27.1853 9.9778Z" fill="#1A171B"/>
<path d="M0.571432 7.31445C2.00523 8.09958 3.3639 9.01472 4.63032 10.0483C5.38847 10.605 6.09063 11.2341 6.72686 11.9268C7.02263 12.2763 7.19894 12.7112 7.23002 13.168C7.34845 13.8489 7.65656 14.4825 8.11895 14.9962C8.71812 15.6628 9.42028 16.229 10.1987 16.6734L11.507 17.5791C13.298 18.5164 14.9846 19.6408 16.5386 20.9335C17.3401 21.7382 18.2038 22.4785 19.1216 23.1475L18.8197 23.4158C17.8839 22.7313 17.0034 21.9742 16.1864 21.1516C14.6336 19.8572 12.9468 18.7326 11.1547 17.7971L9.86327 17.0088C9.04324 16.527 8.30687 15.9152 7.68287 15.1974C7.17715 14.637 6.83995 13.9451 6.71008 13.2015C6.68146 12.8067 6.52883 12.431 6.274 12.1281C5.67886 11.4583 5.02183 10.8462 4.31165 10.2999C3.04967 9.28787 1.69649 8.39511 0.269531 7.63313L0.571432 7.31445Z" fill="#1A171B"/>
<path d="M34.9684 7.86682C33.6582 8.77492 32.522 9.91114 31.6139 11.2213C30.9691 12.1178 30.251 12.9593 29.4671 13.7371C28.6823 14.4693 28.0147 15.3178 27.4879 16.253C27.181 16.965 26.7682 17.6266 26.2636 18.2153C25.6509 18.8909 24.9771 19.5085 24.2509 20.0603C22.756 21.1547 21.1741 22.1251 19.5211 22.9619L19.2695 22.6096C20.8987 21.7876 22.4581 20.834 23.9322 19.7584C24.6337 19.2203 25.2849 18.6196 25.8778 17.9637C26.3809 17.3986 26.7939 16.7594 27.1022 16.0685C27.6335 15.0973 28.3125 14.2146 29.1149 13.452C29.8813 12.6841 30.5826 11.8538 31.2114 10.9697C32.1616 9.65535 33.337 8.51966 34.6832 7.61523L34.9684 7.86682Z" fill="#1A171B"/>
<path d="M42.2016 5.83789C41.4462 8.25969 39.9649 10.3909 37.9582 11.943C36.6875 12.9771 35.3482 13.9241 33.9497 14.7775C32.3836 15.6094 31.0027 16.7506 29.8908 18.132C29.2771 18.9626 28.7541 19.8567 28.3309 20.7988C28.1306 21.2762 28.0334 21.7906 28.0458 22.3083V24.3713H27.593V22.325C27.5701 21.7506 27.6731 21.1782 27.8949 20.6478C28.3526 19.6781 28.915 18.7614 29.5721 17.9139C30.7359 16.489 32.1803 15.3187 33.8155 14.4756C35.1965 13.6322 36.5189 12.6964 37.7737 11.6746C39.6786 10.1809 41.0875 8.1464 41.8159 5.83789H42.2016Z" fill="#1A171B"/>
<path d="M43.8795 11.6743C42.3153 13.1062 40.632 14.4024 38.8479 15.5487C37.7689 16.119 36.7516 16.7991 35.8121 17.5781C35.5609 17.7707 35.3694 18.0303 35.2596 18.3271C35.1498 18.6239 35.1262 18.9457 35.1915 19.2553C35.3585 20.1866 35.5883 21.1056 35.8792 22.006L35.4431 22.1066C35.1425 21.1737 34.9071 20.2209 34.7386 19.2553C34.689 18.9035 34.7326 18.5449 34.8651 18.2153C34.9975 17.8856 35.2142 17.5965 35.4934 17.3768C36.4248 16.571 37.4365 15.8629 38.5124 15.2635C40.2959 14.1351 41.9793 12.8557 43.5441 11.4395L43.8795 11.6743Z" fill="#1A171B"/>
<path d="M43.7276 16.7573C42.9828 17.1373 42.3169 17.6553 41.7652 18.2836C41.1877 18.9476 40.7945 19.7515 40.6247 20.6149H40.1719C40.3473 19.6818 40.7701 18.8129 41.3963 18.0991C41.9869 17.41 42.7043 16.8406 43.5096 16.4219L43.7276 16.7573Z" fill="#1A171B"/>
<path d="M1.64122 -1.375L19.3192 11.2377L43.5384 4.41143L43.9912 5.45131L19.3863 12.3783L19.0005 12.4957L18.6986 12.2776L0.71875 -0.553159L1.64122 -1.375Z" fill="#1A171B"/>
<path d="M1.67821 11.4883L19.1549 26.6169L43.0722 19.6228L43.5418 20.6627L19.2052 27.7742L18.7692 27.8916L18.4673 27.6232L0.671875 12.2263L1.67821 11.4883Z" fill="#1A171B"/>
<path d="M19.848 11.8574H18.4727V27.2544H19.848V11.8574Z" fill="#1A171B"/>
<path fill-rule="evenodd" clip-rule="evenodd" d="M31.2542 40.4033V34.533H33.2501L34.7596 39.3634L36.3362 34.533H38.1979V40.4033H36.9735V35.5561L35.397 40.3865H34.0384L32.4786 35.5561V40.3865L31.2542 40.4033ZM22.7171 40.4033V34.533H24.713L26.2225 39.3634L27.7991 34.533H29.6608V40.4033H28.4532V35.5561L26.8766 40.3865H25.4342L23.8744 35.5561V40.3865L22.7171 40.4033ZM21.2915 39.1621V40.4033H15.4715V39.0112L17.9035 37.3339C18.4898 36.9835 19.0071 36.5287 19.4298 35.9921C19.6618 35.6804 19.7961 35.3068 19.8155 34.9187C19.8226 34.734 19.7914 34.5498 19.724 34.3777C19.6565 34.2056 19.5542 34.0493 19.4235 33.9186C19.2928 33.7879 19.1365 33.6856 18.9644 33.6182C18.7923 33.5507 18.6081 33.5196 18.4234 33.5266C17.5177 33.5266 16.9978 34.0857 16.8636 35.2038L15.4883 34.8684C15.5856 34.1752 15.917 33.536 16.4275 33.057C16.7019 32.8023 17.0239 32.6045 17.3751 32.4749C17.7263 32.3454 18.0997 32.2867 18.4737 32.3022C18.8557 32.2837 19.2375 32.3408 19.5973 32.4703C19.9571 32.5999 20.2878 32.7992 20.5703 33.057C20.8284 33.2991 21.0321 33.5932 21.168 33.92C21.3039 34.2467 21.3688 34.5986 21.3586 34.9523C21.3583 35.6229 21.107 36.2691 20.6541 36.7637C19.6154 37.7009 18.4528 38.491 17.199 39.1118L21.2915 39.1621ZM10.4901 36.8978V35.7741H11.2113C11.595 35.7897 11.9746 35.6904 12.3015 35.489C12.4446 35.3948 12.5602 35.2646 12.6367 35.1115C12.7133 34.9583 12.7481 34.7877 12.7376 34.6168C12.7496 34.4551 12.7223 34.2928 12.6581 34.1439C12.5938 33.9949 12.4945 33.8637 12.3686 33.7614C12.0915 33.5608 11.7544 33.4602 11.4126 33.4763C11.0435 33.4387 10.673 33.5324 10.3662 33.741C10.0595 33.9497 9.83608 34.2598 9.73538 34.6168L8.52778 34.3485C8.67563 33.7474 9.03989 33.2219 9.55089 32.8725C10.1159 32.4803 10.7922 32.2803 11.4797 32.3022C12.162 32.2804 12.8329 32.4805 13.3917 32.8725C13.6416 33.0434 13.8447 33.2741 13.9824 33.5437C14.1201 33.8132 14.188 34.113 14.18 34.4156C14.1912 34.8607 14.0424 35.2951 13.7607 35.6399C13.6328 35.8006 13.4728 35.9329 13.2908 36.0282C13.1089 36.1235 12.909 36.1798 12.7041 36.1934C13.1861 36.2487 13.6324 36.4748 13.962 36.8308C14.275 37.1805 14.4429 37.6363 14.4316 38.1054C14.4362 38.43 14.3642 38.751 14.2214 39.0424C14.0786 39.3338 13.869 39.5875 13.6098 39.7827C12.9814 40.2482 12.2102 40.4796 11.4294 40.4368C10.6885 40.4895 9.95115 40.2948 9.33285 39.8833C8.83097 39.5214 8.46485 39.0018 8.29297 38.4074L9.65152 38.0719C9.73335 38.4534 9.9456 38.7944 10.2517 39.0362C10.5579 39.278 10.9387 39.4056 11.3287 39.3969C11.7336 39.4192 12.1328 39.2941 12.4525 39.0447C12.5826 38.9431 12.6879 38.8134 12.7605 38.6652C12.8332 38.5171 12.8712 38.3543 12.8718 38.1893C12.8715 37.8558 12.7388 37.5361 12.5028 37.3004C12.355 37.163 12.1803 37.0578 11.9898 36.9915C11.7992 36.9251 11.597 36.8989 11.3958 36.9146L10.4901 36.8978Z" fill="#1D1D1B"/>
</g>
</svg>
