<svg id="settings" width="56" height="57" viewBox="0 0 56 57" fill="none" xmlns="http://www.w3.org/2000/svg">
<mask id="path-1-outside-1_102_14249" maskUnits="userSpaceOnUse" x="-1" y="-1" width="57" height="58" fill="black">
<rect fill="white" x="-1" y="-1" width="57" height="58"/>
<path d="M29.508 55.9999H26.0389C25.8124 55.9999 25.6212 55.83 25.5858 55.6106L24.6301 49.253C23.5752 49.069 22.5416 48.7929 21.5434 48.4318L17.5363 53.4583C17.3947 53.6353 17.1398 53.6849 16.9487 53.5716L13.9398 51.83C13.7416 51.7168 13.6566 51.476 13.7416 51.2637L16.092 45.2814C15.2849 44.6017 14.5274 43.8442 13.8336 43.0229L7.85132 45.3734C7.63893 45.4583 7.39822 45.3734 7.28495 45.1752L5.55044 42.1734C5.43716 41.9752 5.48672 41.7274 5.66371 41.5858L10.6903 37.5858C10.3221 36.5805 10.046 35.5398 9.86194 34.499L3.50442 33.5504C3.27787 33.515 3.11504 33.3238 3.11504 33.0973V31.3557C3.11504 31.1008 3.32035 30.8955 3.57521 30.8955C3.83008 30.8955 4.03539 31.1008 4.03539 31.3557V32.7008L10.3292 33.6424C10.5274 33.6707 10.6832 33.8265 10.7186 34.0247C10.9026 35.2283 11.2212 36.4176 11.6672 37.5787C11.738 37.7628 11.6814 37.9752 11.5257 38.1026L6.54159 42.0672L7.87964 44.3822L13.8053 42.053C13.9894 41.9822 14.2018 42.0389 14.3292 42.1946C15.108 43.1575 15.9858 44.0283 16.9274 44.7929C17.0832 44.9203 17.1398 45.1327 17.069 45.3167L14.7398 51.2424L17.0619 52.5875L21.0265 47.6106C21.154 47.4548 21.3664 47.3982 21.5504 47.469C22.6903 47.9008 23.8796 48.2194 25.0973 48.4176C25.2956 48.446 25.4513 48.6088 25.4796 48.807L26.4283 55.1008H29.1044L30.046 48.807C30.0743 48.6088 30.2301 48.453 30.4283 48.4176C31.6389 48.2265 32.8354 47.9079 33.9752 47.469C34.1664 47.3982 34.3717 47.4548 34.4991 47.6106L38.4637 52.5875L40.7858 51.2424L38.4566 45.3167C38.3858 45.1327 38.4425 44.9132 38.5982 44.7929C39.5469 44.0283 40.4177 43.1504 41.1964 42.1946C41.3239 42.0389 41.5363 41.9822 41.7203 42.053L47.646 44.3822L48.9841 42.0672L44 38.0955C43.8442 37.9681 43.7876 37.7557 43.8584 37.5716C44.3044 36.4247 44.623 35.2353 44.8071 34.0318C44.8354 33.8336 44.9911 33.6778 45.1964 33.6495L51.4902 32.7008V31.3628C51.4902 31.1079 51.6956 30.9026 51.9504 30.9026C52.2053 30.9026 52.4106 31.1079 52.4106 31.3628V33.0973C52.4106 33.3238 52.2407 33.515 52.0212 33.5504L45.6637 34.5061C45.4867 35.5468 45.2035 36.5805 44.8354 37.5858L49.8619 41.5929C50.0389 41.7344 50.0885 41.9893 49.9752 42.1805L48.2407 45.1822C48.1274 45.3805 47.8867 45.4654 47.6743 45.3805L41.692 43.03C41.0053 43.8513 40.2478 44.6088 39.4336 45.2884L41.7841 51.2707C41.869 51.4831 41.7841 51.7238 41.5858 51.8371L38.577 53.5787C38.3788 53.692 38.131 53.6424 37.9894 53.4654L33.9823 48.4389C32.9841 48.7999 31.9504 49.076 30.8956 49.2601L29.9398 55.6176C29.9327 55.8371 29.7345 55.9999 29.508 55.9999ZM27.7734 40.6867C22.6195 40.6867 18.4283 36.4955 18.4283 31.3415C18.4283 31.0867 18.6336 30.8813 18.8885 30.8813C19.1434 30.8813 19.3487 31.0867 19.3487 31.3415C19.3487 35.9858 23.1292 39.7663 27.7734 39.7663C32.4177 39.7663 36.1982 35.9858 36.1982 31.3415C36.1982 31.0867 36.4035 30.8813 36.6584 30.8813C36.9133 30.8813 37.1186 31.0867 37.1186 31.3415C37.1115 36.4955 32.9203 40.6867 27.7734 40.6867Z"/>
<path d="M55.0796 28.2197H11.9929C11.7381 28.2197 11.5327 28.0144 11.5327 27.7595C11.5327 27.5046 11.7381 27.2993 11.9929 27.2993H55.0796C55.3345 27.2993 55.5398 27.5046 55.5398 27.7595C55.5398 28.0144 55.3345 28.2197 55.0796 28.2197ZM7.44071 28.2197H0.460178C0.205311 28.2197 0 28.0144 0 27.7595C0 27.5046 0.205311 27.2993 0.460178 27.2993H7.44071C7.69558 27.2993 7.90089 27.5046 7.90089 27.7595C7.90089 28.0144 7.69558 28.2197 7.44071 28.2197Z"/>
<path d="M9.71327 30.4921C8.20531 30.4921 6.98053 29.2673 6.98053 27.7523C6.98053 26.2443 8.20531 25.0195 9.71327 25.0195C11.2212 25.0195 12.4531 26.2443 12.4531 27.7523C12.4531 29.2673 11.2283 30.4921 9.71327 30.4921ZM9.71327 25.9399C8.71504 25.9399 7.90089 26.754 7.90089 27.7523C7.90089 28.7505 8.71504 29.5717 9.71327 29.5717C10.7115 29.5717 11.5327 28.7576 11.5327 27.7523C11.5327 26.754 10.7186 25.9399 9.71327 25.9399Z"/>
<path d="M55.0796 19.8725H22.1664C21.9115 19.8725 21.7062 19.6672 21.7062 19.4123C21.7062 19.1575 21.9115 18.9521 22.1664 18.9521H55.0796C55.3345 18.9521 55.5398 19.1575 55.5398 19.4123C55.5398 19.6672 55.3345 19.8725 55.0796 19.8725ZM17.6142 19.8725H0.467258C0.212391 19.8725 0.00708008 19.6672 0.00708008 19.4123C0.00708008 19.1575 0.212391 18.9521 0.467258 18.9521H17.6142C17.869 18.9521 18.0743 19.1575 18.0743 19.4123C18.0743 19.6672 17.8619 19.8725 17.6142 19.8725Z"/>
<path d="M19.8867 22.152C18.3788 22.152 17.154 20.9201 17.154 19.4122C17.154 17.9042 18.3788 16.6865 19.8867 16.6865C21.3947 16.6865 22.6195 17.9113 22.6195 19.4122C22.6195 20.9201 21.3947 22.152 19.8867 22.152ZM19.8867 17.5998C18.8885 17.5998 18.0743 18.414 18.0743 19.4051C18.0743 20.4104 18.8885 21.2246 19.8867 21.2246C20.885 21.2246 21.6991 20.4033 21.6991 19.4051C21.6991 18.414 20.885 17.5998 19.8867 17.5998Z"/>
<path d="M55.0796 11.5331H39.0584C38.8035 11.5331 38.5982 11.3278 38.5982 11.073C38.5982 10.8181 38.8035 10.6128 39.0584 10.6128H55.0796C55.3345 10.6128 55.5398 10.8181 55.5398 11.073C55.5398 11.3278 55.3345 11.5331 55.0796 11.5331ZM34.5062 11.5331H0.467258C0.212391 11.5331 0.00708008 11.3278 0.00708008 11.073C0.00708008 10.8181 0.212391 10.6128 0.467258 10.6128H34.5062C34.7611 10.6128 34.9664 10.8181 34.9664 11.073C34.9664 11.3278 34.7611 11.5331 34.5062 11.5331Z"/>
<path d="M36.7788 13.8053C35.2708 13.8053 34.0389 12.5806 34.0389 11.0726C34.0389 9.56462 35.2637 8.33984 36.7788 8.33984C38.2867 8.33984 39.5115 9.56462 39.5115 11.0726C39.5186 12.5806 38.2867 13.8053 36.7788 13.8053ZM36.7788 9.25312C35.7734 9.25312 34.9593 10.0673 34.9593 11.0655C34.9593 12.0637 35.7734 12.8779 36.7788 12.8779C37.777 12.8779 38.5912 12.0637 38.5912 11.0655C38.5982 10.0673 37.7841 9.25312 36.7788 9.25312Z"/>
<path d="M55.0796 3.17866H24.5805C24.3257 3.17866 24.1204 2.97334 24.1204 2.71847C24.1204 2.46361 24.3257 2.2583 24.5805 2.2583H55.0796C55.3345 2.2583 55.5398 2.46361 55.5398 2.71847C55.5398 2.97334 55.3345 3.17866 55.0796 3.17866ZM20.0283 3.17866H0.467258C0.212391 3.17866 0.00708008 2.97334 0.00708008 2.71847C0.00708008 2.46361 0.212391 2.2583 0.467258 2.2583H20.0283C20.2832 2.2583 20.4885 2.46361 20.4885 2.71847C20.4885 2.97334 20.2832 3.17866 20.0283 3.17866Z"/>
<path d="M22.3009 5.46549C20.7929 5.46549 19.5611 4.23363 19.5611 2.72567C19.5611 1.22478 20.7858 0 22.3009 0C23.8088 0 25.0407 1.22478 25.0407 2.72567C25.0407 4.23363 23.8088 5.46549 22.3009 5.46549ZM22.3009 0.91328C21.3027 0.91328 20.4814 1.72743 20.4814 2.71858C20.4814 3.72389 21.2956 4.53806 22.3009 4.53806C23.3062 4.53806 24.1204 3.7167 24.1204 2.71847C24.1204 1.72732 23.3062 0.91328 22.3009 0.91328Z"/>
</mask>
<path d="M29.508 55.9999H26.0389C25.8124 55.9999 25.6212 55.83 25.5858 55.6106L24.6301 49.253C23.5752 49.069 22.5416 48.7929 21.5434 48.4318L17.5363 53.4583C17.3947 53.6353 17.1398 53.6849 16.9487 53.5716L13.9398 51.83C13.7416 51.7168 13.6566 51.476 13.7416 51.2637L16.092 45.2814C15.2849 44.6017 14.5274 43.8442 13.8336 43.0229L7.85132 45.3734C7.63893 45.4583 7.39822 45.3734 7.28495 45.1752L5.55044 42.1734C5.43716 41.9752 5.48672 41.7274 5.66371 41.5858L10.6903 37.5858C10.3221 36.5805 10.046 35.5398 9.86194 34.499L3.50442 33.5504C3.27787 33.515 3.11504 33.3238 3.11504 33.0973V31.3557C3.11504 31.1008 3.32035 30.8955 3.57521 30.8955C3.83008 30.8955 4.03539 31.1008 4.03539 31.3557V32.7008L10.3292 33.6424C10.5274 33.6707 10.6832 33.8265 10.7186 34.0247C10.9026 35.2283 11.2212 36.4176 11.6672 37.5787C11.738 37.7628 11.6814 37.9752 11.5257 38.1026L6.54159 42.0672L7.87964 44.3822L13.8053 42.053C13.9894 41.9822 14.2018 42.0389 14.3292 42.1946C15.108 43.1575 15.9858 44.0283 16.9274 44.7929C17.0832 44.9203 17.1398 45.1327 17.069 45.3167L14.7398 51.2424L17.0619 52.5875L21.0265 47.6106C21.154 47.4548 21.3664 47.3982 21.5504 47.469C22.6903 47.9008 23.8796 48.2194 25.0973 48.4176C25.2956 48.446 25.4513 48.6088 25.4796 48.807L26.4283 55.1008H29.1044L30.046 48.807C30.0743 48.6088 30.2301 48.453 30.4283 48.4176C31.6389 48.2265 32.8354 47.9079 33.9752 47.469C34.1664 47.3982 34.3717 47.4548 34.4991 47.6106L38.4637 52.5875L40.7858 51.2424L38.4566 45.3167C38.3858 45.1327 38.4425 44.9132 38.5982 44.7929C39.5469 44.0283 40.4177 43.1504 41.1964 42.1946C41.3239 42.0389 41.5363 41.9822 41.7203 42.053L47.646 44.3822L48.9841 42.0672L44 38.0955C43.8442 37.9681 43.7876 37.7557 43.8584 37.5716C44.3044 36.4247 44.623 35.2353 44.8071 34.0318C44.8354 33.8336 44.9911 33.6778 45.1964 33.6495L51.4902 32.7008V31.3628C51.4902 31.1079 51.6956 30.9026 51.9504 30.9026C52.2053 30.9026 52.4106 31.1079 52.4106 31.3628V33.0973C52.4106 33.3238 52.2407 33.515 52.0212 33.5504L45.6637 34.5061C45.4867 35.5468 45.2035 36.5805 44.8354 37.5858L49.8619 41.5929C50.0389 41.7344 50.0885 41.9893 49.9752 42.1805L48.2407 45.1822C48.1274 45.3805 47.8867 45.4654 47.6743 45.3805L41.692 43.03C41.0053 43.8513 40.2478 44.6088 39.4336 45.2884L41.7841 51.2707C41.869 51.4831 41.7841 51.7238 41.5858 51.8371L38.577 53.5787C38.3788 53.692 38.131 53.6424 37.9894 53.4654L33.9823 48.4389C32.9841 48.7999 31.9504 49.076 30.8956 49.2601L29.9398 55.6176C29.9327 55.8371 29.7345 55.9999 29.508 55.9999ZM27.7734 40.6867C22.6195 40.6867 18.4283 36.4955 18.4283 31.3415C18.4283 31.0867 18.6336 30.8813 18.8885 30.8813C19.1434 30.8813 19.3487 31.0867 19.3487 31.3415C19.3487 35.9858 23.1292 39.7663 27.7734 39.7663C32.4177 39.7663 36.1982 35.9858 36.1982 31.3415C36.1982 31.0867 36.4035 30.8813 36.6584 30.8813C36.9133 30.8813 37.1186 31.0867 37.1186 31.3415C37.1115 36.4955 32.9203 40.6867 27.7734 40.6867Z" fill="#E31E24"/>
<path d="M55.0796 28.2197H11.9929C11.7381 28.2197 11.5327 28.0144 11.5327 27.7595C11.5327 27.5046 11.7381 27.2993 11.9929 27.2993H55.0796C55.3345 27.2993 55.5398 27.5046 55.5398 27.7595C55.5398 28.0144 55.3345 28.2197 55.0796 28.2197ZM7.44071 28.2197H0.460178C0.205311 28.2197 0 28.0144 0 27.7595C0 27.5046 0.205311 27.2993 0.460178 27.2993H7.44071C7.69558 27.2993 7.90089 27.5046 7.90089 27.7595C7.90089 28.0144 7.69558 28.2197 7.44071 28.2197Z" fill="#E31E24"/>
<path d="M9.71327 30.4921C8.20531 30.4921 6.98053 29.2673 6.98053 27.7523C6.98053 26.2443 8.20531 25.0195 9.71327 25.0195C11.2212 25.0195 12.4531 26.2443 12.4531 27.7523C12.4531 29.2673 11.2283 30.4921 9.71327 30.4921ZM9.71327 25.9399C8.71504 25.9399 7.90089 26.754 7.90089 27.7523C7.90089 28.7505 8.71504 29.5717 9.71327 29.5717C10.7115 29.5717 11.5327 28.7576 11.5327 27.7523C11.5327 26.754 10.7186 25.9399 9.71327 25.9399Z" fill="#E31E24"/>
<path d="M55.0796 19.8725H22.1664C21.9115 19.8725 21.7062 19.6672 21.7062 19.4123C21.7062 19.1575 21.9115 18.9521 22.1664 18.9521H55.0796C55.3345 18.9521 55.5398 19.1575 55.5398 19.4123C55.5398 19.6672 55.3345 19.8725 55.0796 19.8725ZM17.6142 19.8725H0.467258C0.212391 19.8725 0.00708008 19.6672 0.00708008 19.4123C0.00708008 19.1575 0.212391 18.9521 0.467258 18.9521H17.6142C17.869 18.9521 18.0743 19.1575 18.0743 19.4123C18.0743 19.6672 17.8619 19.8725 17.6142 19.8725Z" fill="#E31E24"/>
<path d="M19.8867 22.152C18.3788 22.152 17.154 20.9201 17.154 19.4122C17.154 17.9042 18.3788 16.6865 19.8867 16.6865C21.3947 16.6865 22.6195 17.9113 22.6195 19.4122C22.6195 20.9201 21.3947 22.152 19.8867 22.152ZM19.8867 17.5998C18.8885 17.5998 18.0743 18.414 18.0743 19.4051C18.0743 20.4104 18.8885 21.2246 19.8867 21.2246C20.885 21.2246 21.6991 20.4033 21.6991 19.4051C21.6991 18.414 20.885 17.5998 19.8867 17.5998Z" fill="#E31E24"/>
<path d="M55.0796 11.5331H39.0584C38.8035 11.5331 38.5982 11.3278 38.5982 11.073C38.5982 10.8181 38.8035 10.6128 39.0584 10.6128H55.0796C55.3345 10.6128 55.5398 10.8181 55.5398 11.073C55.5398 11.3278 55.3345 11.5331 55.0796 11.5331ZM34.5062 11.5331H0.467258C0.212391 11.5331 0.00708008 11.3278 0.00708008 11.073C0.00708008 10.8181 0.212391 10.6128 0.467258 10.6128H34.5062C34.7611 10.6128 34.9664 10.8181 34.9664 11.073C34.9664 11.3278 34.7611 11.5331 34.5062 11.5331Z" fill="#E31E24"/>
<path d="M36.7788 13.8053C35.2708 13.8053 34.0389 12.5806 34.0389 11.0726C34.0389 9.56462 35.2637 8.33984 36.7788 8.33984C38.2867 8.33984 39.5115 9.56462 39.5115 11.0726C39.5186 12.5806 38.2867 13.8053 36.7788 13.8053ZM36.7788 9.25312C35.7734 9.25312 34.9593 10.0673 34.9593 11.0655C34.9593 12.0637 35.7734 12.8779 36.7788 12.8779C37.777 12.8779 38.5912 12.0637 38.5912 11.0655C38.5982 10.0673 37.7841 9.25312 36.7788 9.25312Z" fill="#E31E24"/>
<path d="M55.0796 3.17866H24.5805C24.3257 3.17866 24.1204 2.97334 24.1204 2.71847C24.1204 2.46361 24.3257 2.2583 24.5805 2.2583H55.0796C55.3345 2.2583 55.5398 2.46361 55.5398 2.71847C55.5398 2.97334 55.3345 3.17866 55.0796 3.17866ZM20.0283 3.17866H0.467258C0.212391 3.17866 0.00708008 2.97334 0.00708008 2.71847C0.00708008 2.46361 0.212391 2.2583 0.467258 2.2583H20.0283C20.2832 2.2583 20.4885 2.46361 20.4885 2.71847C20.4885 2.97334 20.2832 3.17866 20.0283 3.17866Z" fill="#E31E24"/>
<path d="M22.3009 5.46549C20.7929 5.46549 19.5611 4.23363 19.5611 2.72567C19.5611 1.22478 20.7858 0 22.3009 0C23.8088 0 25.0407 1.22478 25.0407 2.72567C25.0407 4.23363 23.8088 5.46549 22.3009 5.46549ZM22.3009 0.91328C21.3027 0.91328 20.4814 1.72743 20.4814 2.71858C20.4814 3.72389 21.2956 4.53806 22.3009 4.53806C23.3062 4.53806 24.1204 3.7167 24.1204 2.71847C24.1204 1.72732 23.3062 0.91328 22.3009 0.91328Z" fill="#E31E24"/>
<path d="M25.5858 55.6106L25.388 55.6403L25.3884 55.6424L25.5858 55.6106ZM24.6301 49.253L24.8279 49.2233L24.8064 49.0808L24.6645 49.056L24.6301 49.253ZM21.5434 48.4318L21.6114 48.2437L21.4764 48.1949L21.387 48.3071L21.5434 48.4318ZM17.5363 53.4583L17.6924 53.5833L17.6927 53.583L17.5363 53.4583ZM16.9487 53.5716L17.0506 53.3995L17.0489 53.3985L16.9487 53.5716ZM13.9398 51.83L14.04 51.6569L14.039 51.6564L13.9398 51.83ZM13.7416 51.2637L13.9273 51.3379L13.9277 51.3368L13.7416 51.2637ZM16.092 45.2814L16.2782 45.3545L16.3307 45.2209L16.2209 45.1284L16.092 45.2814ZM13.8336 43.0229L13.9864 42.8939L13.8939 42.7844L13.7605 42.8368L13.8336 43.0229ZM7.85132 45.3734L7.77818 45.1872L7.77704 45.1877L7.85132 45.3734ZM7.28495 45.1752L7.4586 45.0759L7.45812 45.0751L7.28495 45.1752ZM5.55044 42.1734L5.37679 42.2726L5.37727 42.2735L5.55044 42.1734ZM5.66371 41.5858L5.53917 41.4293L5.53877 41.4296L5.66371 41.5858ZM10.6903 37.5858L10.8148 37.7423L10.9277 37.6525L10.8781 37.517L10.6903 37.5858ZM9.86194 34.499L10.0589 34.4642L10.0338 34.3225L9.89145 34.3012L9.86194 34.499ZM3.50442 33.5504L3.47354 33.748L3.4749 33.7482L3.50442 33.5504ZM4.03539 32.7008H3.83539V32.8731L4.0058 32.8986L4.03539 32.7008ZM10.3292 33.6424L10.2996 33.8402L10.3009 33.8404L10.3292 33.6424ZM10.7186 34.0247L10.9163 33.9945L10.9155 33.9896L10.7186 34.0247ZM11.6672 37.5787L11.4805 37.6504L11.4806 37.6505L11.6672 37.5787ZM11.5257 38.1026L11.6502 38.2591L11.6523 38.2574L11.5257 38.1026ZM6.54159 42.0672L6.41708 41.9107L6.28215 42.018L6.36843 42.1673L6.54159 42.0672ZM7.87964 44.3822L7.70648 44.4823L7.79261 44.6313L7.9528 44.5684L7.87964 44.3822ZM13.8053 42.053L13.7335 41.8664L13.7321 41.8669L13.8053 42.053ZM14.3292 42.1946L14.4847 42.0689L14.484 42.068L14.3292 42.1946ZM16.9274 44.7929L17.0541 44.6381L17.0535 44.6376L16.9274 44.7929ZM17.069 45.3167L17.2552 45.3899L17.2557 45.3885L17.069 45.3167ZM14.7398 51.2424L14.5537 51.1693L14.4908 51.3293L14.6396 51.4155L14.7398 51.2424ZM17.0619 52.5875L16.9617 52.7606L17.1109 52.847L17.2184 52.7122L17.0619 52.5875ZM21.0265 47.6106L20.8717 47.4839L20.8701 47.4859L21.0265 47.6106ZM21.5504 47.469L21.4786 47.6556L21.4796 47.656L21.5504 47.469ZM25.0973 48.4176L25.0652 48.6151L25.069 48.6156L25.0973 48.4176ZM25.4796 48.807L25.2816 48.8353L25.2819 48.8368L25.4796 48.807ZM26.4283 55.1008L26.2305 55.1306L26.2562 55.3008H26.4283V55.1008ZM29.1044 55.1008V55.3008H29.2767L29.3022 55.1304L29.1044 55.1008ZM30.046 48.807L30.2438 48.8366L30.244 48.8353L30.046 48.807ZM30.4283 48.4176L30.3971 48.22L30.3931 48.2207L30.4283 48.4176ZM33.9752 47.469L33.9057 47.2814L33.9033 47.2823L33.9752 47.469ZM34.4991 47.6106L34.6555 47.4859L34.6539 47.4839L34.4991 47.6106ZM38.4637 52.5875L38.3073 52.7122L38.4147 52.847L38.564 52.7606L38.4637 52.5875ZM40.7858 51.2424L40.8861 51.4155L41.0349 51.3293L40.972 51.1693L40.7858 51.2424ZM38.4566 45.3167L38.27 45.3885L38.2705 45.3899L38.4566 45.3167ZM38.5982 44.7929L38.7205 44.9511L38.7237 44.9486L38.5982 44.7929ZM41.1964 42.1946L41.0417 42.068L41.0414 42.0683L41.1964 42.1946ZM41.7203 42.053L41.7935 41.8669L41.7921 41.8664L41.7203 42.053ZM47.646 44.3822L47.5728 44.5684L47.733 44.6313L47.8192 44.4823L47.646 44.3822ZM48.9841 42.0672L49.1572 42.1673L49.2434 42.0181L49.1087 41.9108L48.9841 42.0672ZM44 38.0955L43.8733 38.2503L43.8754 38.2519L44 38.0955ZM43.8584 37.5716L43.672 37.4991L43.6717 37.4998L43.8584 37.5716ZM44.8071 34.0318L45.0048 34.062L45.0051 34.0601L44.8071 34.0318ZM45.1964 33.6495L45.2238 33.8476L45.2263 33.8473L45.1964 33.6495ZM51.4902 32.7008L51.5201 32.8986L51.6903 32.8729V32.7008H51.4902ZM52.0212 33.5504L52.051 33.7482L52.0531 33.7478L52.0212 33.5504ZM45.6637 34.5061L45.634 34.3084L45.4908 34.3299L45.4665 34.4726L45.6637 34.5061ZM44.8354 37.5858L44.6476 37.517L44.598 37.6523L44.7107 37.7422L44.8354 37.5858ZM49.8619 41.5929L49.9869 41.4367L49.9866 41.4365L49.8619 41.5929ZM49.9752 42.1805L49.8031 42.0785L49.802 42.0804L49.9752 42.1805ZM48.2407 45.1822L48.0675 45.0822L48.067 45.083L48.2407 45.1822ZM47.6743 45.3805L47.7486 45.1948L47.7475 45.1943L47.6743 45.3805ZM41.692 43.03L41.7652 42.8439L41.631 42.7912L41.5386 42.9017L41.692 43.03ZM39.4336 45.2884L39.3054 45.1349L39.1947 45.2273L39.2475 45.3616L39.4336 45.2884ZM41.7841 51.2707L41.5979 51.3439L41.5984 51.345L41.7841 51.2707ZM41.5858 51.8371L41.4866 51.6635L41.4856 51.664L41.5858 51.8371ZM38.577 53.5787L38.6762 53.7523L38.6772 53.7518L38.577 53.5787ZM37.9894 53.4654L37.833 53.5901L37.8332 53.5904L37.9894 53.4654ZM33.9823 48.4389L34.1387 48.3142L34.0492 48.202L33.9143 48.2508L33.9823 48.4389ZM30.8956 49.2601L30.8612 49.0631L30.7192 49.0879L30.6978 49.2304L30.8956 49.2601ZM29.9398 55.6176L29.742 55.5879L29.7403 55.5995L29.7399 55.6112L29.9398 55.6176ZM37.1186 31.3415L37.3186 31.3418V31.3415H37.1186ZM39.5115 11.0726H39.3115L39.3115 11.0735L39.5115 11.0726ZM38.5912 11.0655L38.3912 11.0641V11.0655H38.5912ZM29.508 55.7999H26.0389V56.1999H29.508V55.7999ZM26.0389 55.7999C25.9138 55.7999 25.8036 55.7046 25.7833 55.5787L25.3884 55.6424C25.4389 55.9555 25.7109 56.1999 26.0389 56.1999V55.7999ZM25.7836 55.5808L24.8279 49.2233L24.4323 49.2828L25.3881 55.6403L25.7836 55.5808ZM24.6645 49.056C23.6211 48.874 22.5988 48.6009 21.6114 48.2437L21.4753 48.6199C22.4844 48.9849 23.5293 49.264 24.5957 49.4501L24.6645 49.056ZM21.387 48.3071L17.3799 53.3337L17.6927 53.583L21.6997 48.5565L21.387 48.3071ZM17.3801 53.3334C17.2985 53.4354 17.1529 53.4601 17.0506 53.3996L16.8467 53.7437C17.1268 53.9096 17.4909 53.8352 17.6924 53.5833L17.3801 53.3334ZM17.0489 53.3985L14.04 51.6569L13.8396 52.0031L16.8485 53.7447L17.0489 53.3985ZM14.039 51.6564C13.9269 51.5923 13.8796 51.4571 13.9273 51.3379L13.5559 51.1894C13.4336 51.495 13.5563 51.8412 13.8406 52.0037L14.039 51.6564ZM13.9277 51.3368L16.2782 45.3545L15.9059 45.2082L13.5554 51.1905L13.9277 51.3368ZM16.2209 45.1284C15.4226 44.4561 14.673 43.7066 13.9864 42.8939L13.6808 43.152C14.3818 43.9817 15.1473 44.7473 15.9632 45.4343L16.2209 45.1284ZM13.7605 42.8368L7.77818 45.1872L7.92446 45.5595L13.9068 43.2091L13.7605 42.8368ZM7.77704 45.1877C7.65791 45.2353 7.5227 45.1881 7.4586 45.0759L7.1113 45.2744C7.27375 45.5587 7.61995 45.6813 7.9256 45.5591L7.77704 45.1877ZM7.45812 45.0751L5.72361 42.0733L5.37727 42.2735L7.11178 45.2752L7.45812 45.0751ZM5.72408 42.0742C5.66038 41.9627 5.68745 41.8229 5.78865 41.742L5.53877 41.4296C5.28598 41.6318 5.21395 41.9876 5.37679 42.2726L5.72408 42.0742ZM5.78824 41.7423L10.8148 37.7423L10.5657 37.4293L5.53917 41.4293L5.78824 41.7423ZM10.8781 37.517C10.5141 36.5231 10.241 35.4938 10.0589 34.4642L9.66499 34.5339C9.85103 35.5857 10.1301 36.6378 10.5025 37.6545L10.8781 37.517ZM9.89145 34.3012L3.53394 33.3526L3.4749 33.7482L9.83242 34.6969L9.89145 34.3012ZM3.53529 33.3528C3.40585 33.3326 3.31504 33.225 3.31504 33.0973H2.91504C2.91504 33.4226 3.14989 33.6974 3.47354 33.748L3.53529 33.3528ZM3.31504 33.0973V31.3557H2.91504V33.0973H3.31504ZM3.31504 31.3557C3.31504 31.2113 3.43081 31.0955 3.57521 31.0955V30.6955C3.20989 30.6955 2.91504 30.9904 2.91504 31.3557H3.31504ZM3.57521 31.0955C3.71962 31.0955 3.83539 31.2113 3.83539 31.3557H4.23539C4.23539 30.9904 3.94054 30.6955 3.57521 30.6955V31.0955ZM3.83539 31.3557V32.7008H4.23539V31.3557H3.83539ZM4.0058 32.8986L10.2996 33.8402L10.3588 33.4446L4.06498 32.503L4.0058 32.8986ZM10.3009 33.8404C10.4102 33.856 10.5008 33.9431 10.5217 34.0599L10.9155 33.9896C10.8655 33.7099 10.6447 33.4855 10.3575 33.4444L10.3009 33.8404ZM10.5209 34.0549C10.7072 35.2731 11.0296 36.4764 11.4805 37.6504L11.8539 37.507C11.4129 36.3589 11.0981 35.1834 10.9163 33.9945L10.5209 34.0549ZM11.4806 37.6505C11.5199 37.7528 11.489 37.8742 11.399 37.9478L11.6523 38.2574C11.8738 38.0761 11.9562 37.7728 11.8539 37.5069L11.4806 37.6505ZM11.4011 37.9461L6.41708 41.9107L6.66609 42.2237L11.6502 38.2591L11.4011 37.9461ZM6.36843 42.1673L7.70648 44.4823L8.0528 44.2822L6.71474 41.9671L6.36843 42.1673ZM7.9528 44.5684L13.8785 42.2392L13.7321 41.8669L7.80647 44.1961L7.9528 44.5684ZM13.8771 42.2397C13.9794 42.2004 14.1008 42.2313 14.1744 42.3213L14.484 42.068C14.3027 41.8465 13.9994 41.7641 13.7335 41.8664L13.8771 42.2397ZM14.1737 42.3204C14.9615 43.2945 15.8494 44.1751 16.8014 44.9481L17.0535 44.6376C16.1223 43.8814 15.2544 43.0205 14.4847 42.0689L14.1737 42.3204ZM16.8008 44.9477C16.8908 45.0213 16.9217 45.1427 16.8823 45.2449L17.2557 45.3885C17.3579 45.1227 17.2756 44.8193 17.0541 44.6381L16.8008 44.9477ZM16.8829 45.2436L14.5537 51.1693L14.926 51.3156L17.2552 45.3899L16.8829 45.2436ZM14.6396 51.4155L16.9617 52.7606L17.1622 52.4145L14.8401 51.0694L14.6396 51.4155ZM17.2184 52.7122L21.183 47.7352L20.8701 47.4859L16.9055 52.4629L17.2184 52.7122ZM21.1813 47.7372C21.2549 47.6472 21.3764 47.6163 21.4786 47.6556L21.6222 47.2823C21.3564 47.18 21.053 47.2624 20.8717 47.4839L21.1813 47.7372ZM21.4796 47.656C22.632 48.0926 23.8344 48.4147 25.0652 48.615L25.1295 48.2202C23.9249 48.0241 22.7485 47.709 21.6213 47.2819L21.4796 47.656ZM25.069 48.6156C25.175 48.6308 25.2653 48.7207 25.2816 48.8353L25.6776 48.7787C25.6374 48.4968 25.4161 48.2611 25.1256 48.2196L25.069 48.6156ZM25.2819 48.8368L26.2305 55.1306L26.6261 55.071L25.6774 48.7772L25.2819 48.8368ZM26.4283 55.3008H29.1044V54.9008H26.4283V55.3008ZM29.3022 55.1304L30.2438 48.8366L29.8482 48.7774L28.9066 55.0712L29.3022 55.1304ZM30.244 48.8353C30.2596 48.726 30.3467 48.6354 30.4635 48.6145L30.3931 48.2207C30.1135 48.2707 29.889 48.4915 29.848 48.7787L30.244 48.8353ZM30.4595 48.6152C31.6837 48.4219 32.8939 48.0997 34.0471 47.6556L33.9033 47.2823C32.7769 47.7161 31.5941 48.0311 30.3971 48.2201L30.4595 48.6152ZM34.0447 47.6565C34.1557 47.6154 34.2709 47.6475 34.3443 47.7372L34.6539 47.4839C34.4724 47.2621 34.1771 47.1809 33.9058 47.2814L34.0447 47.6565ZM34.3427 47.7352L38.3073 52.7122L38.6201 52.4629L34.6555 47.4859L34.3427 47.7352ZM38.564 52.7606L40.8861 51.4155L40.6856 51.0694L38.3635 52.4145L38.564 52.7606ZM40.972 51.1693L38.6428 45.2436L38.2705 45.3899L40.5997 51.3156L40.972 51.1693ZM38.6433 45.2449C38.6028 45.1395 38.6379 45.015 38.7205 44.9511L38.4759 44.6346C38.247 44.8115 38.1689 45.1258 38.27 45.3885L38.6433 45.2449ZM38.7237 44.9486C39.684 44.1746 40.5646 43.2867 41.3515 42.321L41.0414 42.0683C40.2708 43.014 39.4098 43.8819 38.4727 44.6371L38.7237 44.9486ZM41.3512 42.3213C41.4249 42.2313 41.5463 42.2004 41.6486 42.2397L41.7921 41.8664C41.5263 41.7641 41.2229 41.8465 41.0417 42.068L41.3512 42.3213ZM41.6472 42.2392L47.5728 44.5684L47.7192 44.1961L41.7935 41.8669L41.6472 42.2392ZM47.8192 44.4823L49.1572 42.1673L48.8109 41.9671L47.4729 44.2822L47.8192 44.4823ZM49.1087 41.9108L44.1246 37.9391L43.8754 38.2519L48.8594 42.2236L49.1087 41.9108ZM44.1266 37.9407C44.0367 37.8671 44.0057 37.7457 44.0451 37.6434L43.6717 37.4998C43.5695 37.7657 43.6518 38.0691 43.8733 38.2503L44.1266 37.9407ZM44.0448 37.6441C44.4961 36.4837 44.8185 35.2802 45.0048 34.062L44.6094 34.0016C44.4275 35.1905 44.1128 36.3657 43.672 37.4991L44.0448 37.6441ZM45.0051 34.0601C45.0206 33.9515 45.1055 33.8639 45.2238 33.8476L45.1691 33.4514C44.8768 33.4917 44.6502 33.7156 44.6091 34.0035L45.0051 34.0601ZM45.2263 33.8473L51.5201 32.8986L51.4604 32.5031L45.1666 33.4517L45.2263 33.8473ZM51.6903 32.7008V31.3628H51.2902V32.7008H51.6903ZM51.6903 31.3628C51.6903 31.2184 51.806 31.1026 51.9504 31.1026V30.7026C51.5851 30.7026 51.2902 30.9974 51.2902 31.3628H51.6903ZM51.9504 31.1026C52.0948 31.1026 52.2106 31.2184 52.2106 31.3628H52.6106C52.6106 30.9975 52.3158 30.7026 51.9504 30.7026V31.1026ZM52.2106 31.3628V33.0973H52.6106V31.3628H52.2106ZM52.2106 33.0973C52.2106 33.2224 52.1152 33.3326 51.9894 33.3529L52.0531 33.7478C52.3661 33.6973 52.6106 33.4253 52.6106 33.0973H52.2106ZM51.9915 33.3526L45.634 34.3084L45.6934 34.7039L52.051 33.7482L51.9915 33.3526ZM45.4665 34.4726C45.2918 35.5002 45.0119 36.5221 44.6476 37.517L45.0232 37.6545C45.3951 36.6389 45.6817 35.5935 45.8609 34.5397L45.4665 34.4726ZM44.7107 37.7422L49.7373 41.7492L49.9866 41.4365L44.9601 37.4294L44.7107 37.7422ZM49.737 41.749C49.839 41.8306 49.8637 41.9762 49.8031 42.0785L50.1473 42.2824C50.3132 42.0024 50.2388 41.6383 49.9869 41.4367L49.737 41.749ZM49.802 42.0804L48.0675 45.0822L48.4139 45.2823L50.1484 42.2805L49.802 42.0804ZM48.067 45.083C48.0029 45.1952 47.8677 45.2424 47.7486 45.1948L47.6 45.5662C47.9057 45.6884 48.2519 45.5658 48.4143 45.2815L48.067 45.083ZM47.7475 45.1943L41.7652 42.8439L41.6189 43.2162L47.6012 45.5666L47.7475 45.1943ZM41.5386 42.9017C40.8594 43.7139 40.1104 44.463 39.3054 45.1349L39.5618 45.442C40.3852 44.7546 41.1511 43.9886 41.8454 43.1583L41.5386 42.9017ZM39.2475 45.3616L41.5979 51.3439L41.9702 51.1976L39.6198 45.2153L39.2475 45.3616ZM41.5984 51.345C41.646 51.4641 41.5988 51.5994 41.4866 51.6635L41.6851 52.0108C41.9693 51.8483 42.092 51.5021 41.9698 51.1964L41.5984 51.345ZM41.4856 51.664L38.4768 53.4056L38.6772 53.7518L41.686 52.0102L41.4856 51.664ZM38.4778 53.405C38.3663 53.4688 38.2265 53.4417 38.1455 53.3405L37.8332 53.5904C38.0354 53.8432 38.3912 53.9152 38.6762 53.7523L38.4778 53.405ZM38.1458 53.3408L34.1387 48.3142L33.8259 48.5635L37.833 53.5901L38.1458 53.3408ZM33.9143 48.2508C32.9269 48.6079 31.9045 48.881 30.8612 49.0631L30.9299 49.4571C31.9964 49.271 33.0412 48.9919 34.0503 48.6269L33.9143 48.2508ZM30.6978 49.2304L29.742 55.5879L30.1376 55.6474L31.0933 49.2898L30.6978 49.2304ZM29.7399 55.6112C29.737 55.7026 29.6479 55.7999 29.508 55.7999V56.1999C29.8211 56.1999 30.1285 55.9716 30.1397 55.6241L29.7399 55.6112ZM27.7734 40.4867C22.7299 40.4867 18.6283 36.3851 18.6283 31.3415H18.2283C18.2283 36.606 22.509 40.8867 27.7734 40.8867V40.4867ZM18.6283 31.3415C18.6283 31.1971 18.7441 31.0813 18.8885 31.0813V30.6813C18.5232 30.6813 18.2283 30.9762 18.2283 31.3415H18.6283ZM18.8885 31.0813C19.0329 31.0813 19.1487 31.1971 19.1487 31.3415H19.5487C19.5487 30.9762 19.2538 30.6813 18.8885 30.6813V31.0813ZM19.1487 31.3415C19.1487 36.0962 23.0187 39.9663 27.7734 39.9663V39.5663C23.2396 39.5663 19.5487 35.8753 19.5487 31.3415H19.1487ZM27.7734 39.9663C32.5281 39.9663 36.3982 36.0962 36.3982 31.3415H35.9982C35.9982 35.8753 32.3072 39.5663 27.7734 39.5663V39.9663ZM36.3982 31.3415C36.3982 31.1971 36.514 31.0813 36.6584 31.0813V30.6813C36.2931 30.6813 35.9982 30.9762 35.9982 31.3415H36.3982ZM36.6584 31.0813C36.8028 31.0813 36.9186 31.1971 36.9186 31.3415H37.3186C37.3186 30.9762 37.0237 30.6813 36.6584 30.6813V31.0813ZM36.9186 31.3413C36.9116 36.3851 32.8097 40.4867 27.7734 40.4867V40.8867C33.0309 40.8867 37.3113 36.6059 37.3186 31.3418L36.9186 31.3413ZM55.0796 28.0197H11.9929V28.4197H55.0796V28.0197ZM11.9929 28.0197C11.8485 28.0197 11.7327 27.9039 11.7327 27.7595H11.3327C11.3327 28.1248 11.6276 28.4197 11.9929 28.4197V28.0197ZM11.7327 27.7595C11.7327 27.6151 11.8485 27.4993 11.9929 27.4993V27.0993C11.6276 27.0993 11.3327 27.3942 11.3327 27.7595H11.7327ZM11.9929 27.4993H55.0796V27.0993H11.9929V27.4993ZM55.0796 27.4993C55.224 27.4993 55.3398 27.6151 55.3398 27.7595H55.7398C55.7398 27.3942 55.445 27.0993 55.0796 27.0993V27.4993ZM55.3398 27.7595C55.3398 27.9039 55.2241 28.0197 55.0796 28.0197V28.4197C55.445 28.4197 55.7398 28.1248 55.7398 27.7595H55.3398ZM7.44071 28.0197H0.460178V28.4197H7.44071V28.0197ZM0.460178 28.0197C0.315765 28.0197 0.2 27.9039 0.2 27.7595H-0.2C-0.2 28.1248 0.0948569 28.4197 0.460178 28.4197V28.0197ZM0.2 27.7595C0.2 27.6151 0.315771 27.4993 0.460178 27.4993V27.0993C0.0948504 27.0993 -0.2 27.3942 -0.2 27.7595H0.2ZM0.460178 27.4993H7.44071V27.0993H0.460178V27.4993ZM7.44071 27.4993C7.58512 27.4993 7.70089 27.6151 7.70089 27.7595H8.10089C8.10089 27.3942 7.80604 27.0993 7.44071 27.0993V27.4993ZM7.70089 27.7595C7.70089 27.9039 7.58512 28.0197 7.44071 28.0197V28.4197C7.80603 28.4197 8.10089 28.1248 8.10089 27.7595H7.70089ZM9.71327 30.2921C8.3161 30.2921 7.18053 29.1572 7.18053 27.7523H6.78053C6.78053 29.3774 8.09451 30.6921 9.71327 30.6921V30.2921ZM7.18053 27.7523C7.18053 26.3548 8.31577 25.2195 9.71327 25.2195V24.8195C8.09485 24.8195 6.78053 26.1339 6.78053 27.7523H7.18053ZM9.71327 25.2195C11.1115 25.2195 12.2531 26.3554 12.2531 27.7523H12.6531C12.6531 26.1332 11.331 24.8195 9.71327 24.8195V25.2195ZM12.2531 27.7523C12.2531 29.1569 11.1179 30.2921 9.71327 30.2921V30.6921C11.3388 30.6921 12.6531 29.3778 12.6531 27.7523H12.2531ZM9.71327 25.7399C8.60459 25.7399 7.70089 26.6436 7.70089 27.7523H8.10089C8.10089 26.8645 8.8255 26.1399 9.71327 26.1399V25.7399ZM7.70089 27.7523C7.70089 28.8599 8.60357 29.7717 9.71327 29.7717V29.3717C8.82651 29.3717 8.10089 28.6411 8.10089 27.7523H7.70089ZM9.71327 29.7717C10.8215 29.7717 11.7327 28.8685 11.7327 27.7523H11.3327C11.3327 28.6466 10.6016 29.3717 9.71327 29.3717V29.7717ZM11.7327 27.7523C11.7327 26.6431 10.8285 25.7399 9.71327 25.7399V26.1399C10.6086 26.1399 11.3327 26.865 11.3327 27.7523H11.7327ZM55.0796 19.6725H22.1664V20.0725H55.0796V19.6725ZM22.1664 19.6725C22.022 19.6725 21.9062 19.5567 21.9062 19.4123H21.5062C21.5062 19.7776 21.801 20.0725 22.1664 20.0725V19.6725ZM21.9062 19.4123C21.9062 19.2679 22.022 19.1521 22.1664 19.1521V18.7521C21.801 18.7521 21.5062 19.047 21.5062 19.4123H21.9062ZM22.1664 19.1521H55.0796V18.7521H22.1664V19.1521ZM55.0796 19.1521C55.2241 19.1521 55.3398 19.2679 55.3398 19.4123H55.7398C55.7398 19.047 55.445 18.7521 55.0796 18.7521V19.1521ZM55.3398 19.4123C55.3398 19.5567 55.224 19.6725 55.0796 19.6725V20.0725C55.445 20.0725 55.7398 19.7776 55.7398 19.4123H55.3398ZM17.6142 19.6725H0.467258V20.0725H17.6142V19.6725ZM0.467258 19.6725C0.322851 19.6725 0.20708 19.5567 0.20708 19.4123H-0.19292C-0.19292 19.7776 0.10193 20.0725 0.467258 20.0725V19.6725ZM0.20708 19.4123C0.20708 19.2679 0.322845 19.1521 0.467258 19.1521V18.7521C0.101937 18.7521 -0.19292 19.047 -0.19292 19.4123H0.20708ZM0.467258 19.1521H17.6142V18.7521H0.467258V19.1521ZM17.6142 19.1521C17.7586 19.1521 17.8743 19.2679 17.8743 19.4123H18.2743C18.2743 19.047 17.9795 18.7521 17.6142 18.7521V19.1521ZM17.8743 19.4123C17.8743 19.5547 17.7535 19.6725 17.6142 19.6725V20.0725C17.9704 20.0725 18.2743 19.7796 18.2743 19.4123H17.8743ZM19.8867 21.952C18.4899 21.952 17.354 20.8104 17.354 19.4122H16.954C16.954 21.0299 18.2676 22.352 19.8867 22.352V21.952ZM17.354 19.4122C17.354 18.0153 18.4885 16.8865 19.8867 16.8865V16.4865C18.269 16.4865 16.954 17.7931 16.954 19.4122H17.354ZM19.8867 16.8865C21.2846 16.8865 22.4195 18.0221 22.4195 19.4122H22.8195C22.8195 17.8005 21.5048 16.4865 19.8867 16.4865V16.8865ZM22.4195 19.4122C22.4195 20.8104 21.2836 21.952 19.8867 21.952V22.352C21.5058 22.352 22.8195 21.0299 22.8195 19.4122H22.4195ZM19.8867 17.3998C18.7786 17.3998 17.8743 18.303 17.8743 19.4051H18.2743C18.2743 18.5249 18.9984 17.7998 19.8867 17.7998V17.3998ZM17.8743 19.4051C17.8743 20.5204 18.7775 21.4246 19.8867 21.4246V21.0246C18.9995 21.0246 18.2743 20.3005 18.2743 19.4051H17.8743ZM19.8867 21.4246C20.9964 21.4246 21.8991 20.5128 21.8991 19.4051H21.4991C21.4991 20.2939 20.7735 21.0246 19.8867 21.0246V21.4246ZM21.8991 19.4051C21.8991 18.303 20.9949 17.3998 19.8867 17.3998V17.7998C20.775 17.7998 21.4991 18.5249 21.4991 19.4051H21.8991ZM55.0796 11.3331H39.0584V11.7331H55.0796V11.3331ZM39.0584 11.3331C38.914 11.3331 38.7982 11.2174 38.7982 11.073H38.3982C38.3982 11.4383 38.6931 11.7331 39.0584 11.7331V11.3331ZM38.7982 11.073C38.7982 10.9286 38.914 10.8128 39.0584 10.8128V10.4128C38.6931 10.4128 38.3982 10.7076 38.3982 11.073H38.7982ZM39.0584 10.8128H55.0796V10.4128H39.0584V10.8128ZM55.0796 10.8128C55.2241 10.8128 55.3398 10.9286 55.3398 11.073H55.7398C55.7398 10.7076 55.445 10.4128 55.0796 10.4128V10.8128ZM55.3398 11.073C55.3398 11.2174 55.224 11.3331 55.0796 11.3331V11.7331C55.445 11.7331 55.7398 11.4383 55.7398 11.073H55.3398ZM34.5062 11.3331H0.467258V11.7331H34.5062V11.3331ZM0.467258 11.3331C0.322851 11.3331 0.20708 11.2174 0.20708 11.073H-0.19292C-0.19292 11.4383 0.101931 11.7331 0.467258 11.7331V11.3331ZM0.20708 11.073C0.20708 10.9286 0.322845 10.8128 0.467258 10.8128V10.4128C0.101937 10.4128 -0.19292 10.7076 -0.19292 11.073H0.20708ZM0.467258 10.8128H34.5062V10.4128H0.467258V10.8128ZM34.5062 10.8128C34.6506 10.8128 34.7664 10.9286 34.7664 11.073H35.1664C35.1664 10.7076 34.8715 10.4128 34.5062 10.4128V10.8128ZM34.7664 11.073C34.7664 11.2174 34.6506 11.3331 34.5062 11.3331V11.7331C34.8715 11.7331 35.1664 11.4383 35.1664 11.073H34.7664ZM36.7788 13.6053C35.3806 13.6053 34.2389 12.4694 34.2389 11.0726H33.8389C33.8389 12.6917 35.161 14.0053 36.7788 14.0053V13.6053ZM34.2389 11.0726C34.2389 9.67542 35.3738 8.53984 36.7788 8.53984V8.13984C35.1536 8.13984 33.8389 9.45383 33.8389 11.0726H34.2389ZM36.7788 8.53984C38.1763 8.53984 39.3115 9.67508 39.3115 11.0726H39.7115C39.7115 9.45417 38.3972 8.13984 36.7788 8.13984V8.53984ZM39.3115 11.0735C39.3181 12.4694 38.1771 13.6053 36.7788 13.6053V14.0053C38.3963 14.0053 39.7191 12.6917 39.7115 11.0716L39.3115 11.0735ZM36.7788 9.05312C35.6635 9.05312 34.7593 9.95632 34.7593 11.0655H35.1593C35.1593 10.1782 35.8834 9.45312 36.7788 9.45312V9.05312ZM34.7593 11.0655C34.7593 12.1747 35.6635 13.0779 36.7788 13.0779V12.6779C35.8834 12.6779 35.1593 11.9528 35.1593 11.0655H34.7593ZM36.7788 13.0779C37.8874 13.0779 38.7912 12.1742 38.7912 11.0655H38.3912C38.3912 11.9533 37.6665 12.6779 36.7788 12.6779V13.0779ZM38.7911 11.0669C38.799 9.95635 37.8937 9.05312 36.7788 9.05312V9.45312C37.6744 9.45312 38.3974 10.1782 38.3912 11.0641L38.7911 11.0669ZM55.0796 2.97866H24.5805V3.37866H55.0796V2.97866ZM24.5805 2.97866C24.4361 2.97866 24.3204 2.86289 24.3204 2.71847H23.9204C23.9204 3.08379 24.2152 3.37866 24.5805 3.37866V2.97866ZM24.3204 2.71847C24.3204 2.57406 24.4361 2.4583 24.5805 2.4583V2.0583C24.2152 2.0583 23.9204 2.35315 23.9204 2.71847H24.3204ZM24.5805 2.4583H55.0796V2.0583H24.5805V2.4583ZM55.0796 2.4583C55.2241 2.4583 55.3398 2.57406 55.3398 2.71847H55.7398C55.7398 2.35315 55.445 2.0583 55.0796 2.0583V2.4583ZM55.3398 2.71847C55.3398 2.86289 55.224 2.97866 55.0796 2.97866V3.37866C55.445 3.37866 55.7398 3.08379 55.7398 2.71847H55.3398ZM20.0283 2.97866H0.467258V3.37866H20.0283V2.97866ZM0.467258 2.97866C0.322851 2.97866 0.20708 2.86289 0.20708 2.71847H-0.19292C-0.19292 3.08379 0.101931 3.37866 0.467258 3.37866V2.97866ZM0.20708 2.71847C0.20708 2.57407 0.322845 2.4583 0.467258 2.4583V2.0583C0.101937 2.0583 -0.19292 2.35315 -0.19292 2.71847H0.20708ZM0.467258 2.4583H20.0283V2.0583H0.467258V2.4583ZM20.0283 2.4583C20.1727 2.4583 20.2885 2.57406 20.2885 2.71847H20.6885C20.6885 2.35315 20.3936 2.0583 20.0283 2.0583V2.4583ZM20.2885 2.71847C20.2885 2.86289 20.1727 2.97866 20.0283 2.97866V3.37866C20.3937 3.37866 20.6885 3.08379 20.6885 2.71847H20.2885ZM22.3009 5.26549C20.9034 5.26549 19.7611 4.12318 19.7611 2.72567H19.3611C19.3611 4.34409 20.6825 5.66549 22.3009 5.66549V5.26549ZM19.7611 2.72567C19.7611 1.33591 20.8956 0.2 22.3009 0.2V-0.2C20.6761 -0.2 19.3611 1.11365 19.3611 2.72567H19.7611ZM22.3009 0.2C23.6994 0.2 24.8407 1.33625 24.8407 2.72567H25.2407C25.2407 1.11332 23.9183 -0.2 22.3009 -0.2V0.2ZM24.8407 2.72567C24.8407 4.12318 23.6984 5.26549 22.3009 5.26549V5.66549C23.9193 5.66549 25.2407 4.34409 25.2407 2.72567H24.8407ZM22.3009 0.71328C21.1937 0.71328 20.2814 1.61545 20.2814 2.71858H20.6814C20.6814 1.83941 21.4116 1.11328 22.3009 1.11328V0.71328ZM20.2814 2.71858C20.2814 3.83435 21.1851 4.73806 22.3009 4.73806V4.33806C21.406 4.33806 20.6814 3.61344 20.6814 2.71858H20.2814ZM22.3009 4.73806C23.4172 4.73806 24.3204 3.82664 24.3204 2.71847H23.9204C23.9204 3.60677 23.1952 4.33806 22.3009 4.33806V4.73806ZM24.3204 2.71847C24.3204 1.61583 23.4156 0.71328 22.3009 0.71328V1.11328C23.1968 1.11328 23.9204 1.83881 23.9204 2.71847H24.3204Z" fill="#E31E24" mask="url(#path-1-outside-1_102_14249)"/>
</svg>
