<svg id="wallet" width="57" height="49" viewBox="0 0 57 49" fill="none" xmlns="http://www.w3.org/2000/svg">
<path d="M1.02023 8.23535V47.542H53.3446V32.4449H41.2479C38.701 32.4449 36.6246 30.3685 36.6246 27.8215L1.02023 8.23535ZM1.02023 8.23535H53.3446V23.184H41.2479C38.7009 23.184 36.6246 25.2605 36.6246 27.8144L1.02023 8.23535ZM32.2092 12.1902C32.2084 11.8808 31.9587 11.6315 31.6491 11.6315H22.7157C22.4056 11.6315 22.1556 11.8816 22.1556 12.1916C22.1556 12.5017 22.4056 12.7517 22.7157 12.7517H31.6491C31.9561 12.7517 32.2171 12.5043 32.2092 12.1902ZM32.2092 12.1902C32.2092 12.1907 32.2092 12.1912 32.2092 12.1916H32.1092L32.2091 12.1889C32.2091 12.1893 32.2092 12.1898 32.2092 12.1902ZM32.2092 44.6675C32.2084 44.3581 31.9587 44.1087 31.6491 44.1087H22.7157C22.4056 44.1087 22.1556 44.3588 22.1556 44.6689C22.1556 44.9789 22.4056 45.229 22.7157 45.229H31.6491C31.9561 45.229 32.2171 44.9816 32.2092 44.6675ZM32.2092 44.6675C32.2092 44.6679 32.2092 44.6684 32.2092 44.6689H32.1092L32.2091 44.6661C32.2091 44.6665 32.2092 44.667 32.2092 44.6675ZM54.9798 31.3176L53.9142 31.3175C53.9111 31.3175 53.9079 31.3175 53.9047 31.3175H41.2479C39.3139 31.3175 37.7448 29.7481 37.7448 27.8214C37.7448 25.8873 39.3143 24.3113 41.2479 24.3113L54.9798 24.3114V31.3176ZM54.4648 48.1021V32.4449H55.5399C55.852 32.4449 56.1 32.1858 56.1 31.8777V23.7512C56.1 23.4412 55.85 23.1912 55.5399 23.1912H54.4648V7.75373C54.4688 7.72897 54.4711 7.7037 54.4719 7.67803L54.4719 7.67804V7.67526V4.56059C54.4719 2.54416 52.8199 0.9 50.7971 0.9H3.57476C1.54495 0.9 -0.1 2.53708 -0.1 4.56059V7.53376V7.67526V48.1021C-0.1 48.4121 0.150045 48.6622 0.460115 48.6622H53.9047C54.2148 48.6622 54.4648 48.4121 54.4648 48.1021ZM1.01317 6.97363V4.56059C1.01317 3.15812 2.1571 2.02023 3.5677 2.02023H50.7901C52.2006 2.02023 53.3446 3.15812 53.3446 4.56059V6.97363H1.01317ZM47.7895 12.1944L47.7895 12.1944V12.1916C47.7895 11.8816 47.5394 11.6315 47.2294 11.6315H38.296C37.9859 11.6315 37.7359 11.8816 37.7359 12.1916C37.7359 12.5017 37.9859 12.7517 38.296 12.7517H47.2223C47.5329 12.7517 47.7809 12.5018 47.7895 12.1944ZM47.7895 44.6716H47.7895V44.6689C47.7895 44.3588 47.5394 44.1087 47.2294 44.1087H38.296C37.9859 44.1087 37.7359 44.3588 37.7359 44.6689C37.7359 44.9789 37.9859 45.229 38.296 45.229H47.2223C47.5329 45.229 47.7809 44.979 47.7895 44.6716ZM40.4613 27.8213C40.4613 28.8393 41.2918 29.6698 42.3098 29.6698C43.3344 29.6698 44.1657 28.8395 44.1582 27.8206C44.1578 26.803 43.3275 25.9729 42.3098 25.9729C41.2918 25.9729 40.4613 26.8034 40.4613 27.8213ZM41.5815 27.8213C41.5815 27.417 41.9114 27.0931 42.3098 27.0931C42.7232 27.0931 43.0442 27.4104 43.038 27.8198V27.8213C43.038 28.2262 42.7146 28.5496 42.3098 28.5496C41.9054 28.5496 41.5815 28.2197 41.5815 27.8213ZM7.14242 12.7517H16.0758C16.3859 12.7517 16.6359 12.5017 16.6359 12.1916C16.6359 11.8816 16.3859 11.6315 16.0758 11.6315H7.14242C6.83235 11.6315 6.5823 11.8816 6.5823 12.1916C6.5823 12.5017 6.83236 12.7517 7.14242 12.7517ZM7.14242 45.229H16.0758C16.3859 45.229 16.6359 44.9789 16.6359 44.6689C16.6359 44.3588 16.3859 44.1087 16.0758 44.1087H7.14242C6.83235 44.1087 6.5823 44.3588 6.5823 44.6689C6.5823 44.9789 6.83236 45.229 7.14242 45.229ZM2.02449 5.1276H52.3474C52.6584 5.1276 52.9075 4.86943 52.9075 4.56746C52.9075 4.25741 52.6574 4.00732 52.3474 4.00732H2.02449C1.71442 4.00732 1.46438 4.2574 1.46438 4.56746C1.46438 4.87752 1.71442 5.1276 2.02449 5.1276Z" stroke="#E31E24" stroke-width=".8"/>
</svg>
