<svg width="16" height="16" viewBox="0 0 16 16" fill="none" xmlns="http://www.w3.org/2000/svg">
<path fill-rule="evenodd" clip-rule="evenodd" d="M8 16C12.4183 16 16 12.4183 16 8C16 3.58172 12.4183 0 8 0C3.58172 0 0 3.58172 0 8C0 12.4183 3.58172 16 8 16Z" fill="#FF9900"/>
<path d="M0.261539 3.4551H1.73846V10H0.261539V3.4551ZM1 1.90259C0.712821 1.90259 0.471795 1.81126 0.276924 1.62861C0.0923081 1.44597 0 1.22273 0 0.958904C0 0.695079 0.0923081 0.471841 0.276924 0.289193C0.471795 0.0963976 0.712821 0 1 0C1.28718 0 1.52308 0.0913239 1.70769 0.273972C1.90256 0.446473 2 0.664636 2 0.928462C2 1.20243 1.90256 1.43582 1.70769 1.62861C1.52308 1.81126 1.28718 1.90259 1 1.90259Z" fill="white"/>
</svg>
